<svg id="Layer_1" fill="#fff" data-name="Layer 1" xmlns="http://www.w3.org/2000/svg" viewBox="0 0 512 512"><title>column_chart</title><path d="M544.38,537H51.62a9.63,9.63,0,0,1,0-19.25H544.38a9.63,9.63,0,0,1,0,19.25Z" transform="translate(-42 -25)"/><path d="M201.47,522.77a9.63,9.63,0,0,1-9.62-9.63V44.25H85.15V513.14a9.63,9.63,0,1,1-19.25,0V34.62A9.63,9.63,0,0,1,75.53,25H201.47a9.63,9.63,0,0,1,9.63,9.62V513.14A9.63,9.63,0,0,1,201.47,522.77Z" transform="translate(-42 -25)"/><path d="M361.43,529.33a9.62,9.62,0,0,1-9.62-9.62v-343H245.11v343a9.63,9.63,0,0,1-19.25,0V167.12a9.62,9.62,0,0,1,9.63-9.62H361.43a9.62,9.62,0,0,1,9.63,9.62V519.71A9.62,9.62,0,0,1,361.43,529.33Z" transform="translate(-42 -25)"/><path d="M521.39,537a9.62,9.62,0,0,1-9.62-9.62V311.43H405.07v216a9.63,9.63,0,0,1-19.25,0V301.81a9.63,9.63,0,0,1,9.63-9.63H521.39a9.63,9.63,0,0,1,9.63,9.63V527.38A9.63,9.63,0,0,1,521.39,537Z" transform="translate(-42 -25)"/></svg>