<svg id="Layer_1" fill="#fff" data-name="Layer 1" xmlns="http://www.w3.org/2000/svg" viewBox="0 0 512 512"><title>pie_chart</title><path d="M300,559A256,256,0,0,1,119,122,256.27,256.27,0,0,1,397.85,66.37a9.62,9.62,0,0,1,5.21,12.57L318.48,283.49,518.16,188A9.62,9.62,0,0,1,531,192.52,256,256,0,0,1,300,559Zm0-492.75C169.45,66.25,63.25,172.45,63.25,303S169.45,539.75,300,539.75,536.75,433.55,536.75,303a234.6,234.6,0,0,0-19.13-93.41L304.15,311.68a9.62,9.62,0,0,1-13-12.36L381.53,80.65A235.67,235.67,0,0,0,300,66.25Z" transform="translate(-44 -47)"/><path d="M352,255.84a9.63,9.63,0,0,1-8.86-13.38L410.24,84.2a9.62,9.62,0,0,1,13.32-4.78,262.55,262.55,0,0,1,95.57,85.42,9.61,9.61,0,0,1-3.83,14.08l-159.18,76A9.67,9.67,0,0,1,352,255.84ZM423.8,101.53,370.75,226.59l125.94-60.11A243.45,243.45,0,0,0,423.8,101.53Z" transform="translate(-44 -47)"/></svg>