<?xml version="1.0" encoding="utf-8"?>
<!-- Generator: Adobe Illustrator 23.0.5, SVG Export Plug-In . SVG Version: 6.00 Build 0)  -->
<svg version="1.1" id="Layer_1" xmlns="http://www.w3.org/2000/svg" fill="#fff" xmlns:xlink="http://www.w3.org/1999/xlink" x="0px" y="0px"
	 viewBox="0 0 512 512" style="enable-background:new 0 0 512 512;" xml:space="preserve">
<g>
	<path d="M511.2,274c-9.1,30.1-22.7,58.3-36.8,86.3c-6.5,13-15.6,23-27.8,30.5c-22.1,13.6-44.1,27.5-66.3,41.1
		c-10.6,6.5-16.9,14.7-16,27.9c0.8,11,0.2,22,0.2,33.7c-17.2,0-34,0-50.7,0c-16.8,0-33.6,0-50.8,0c-0.2-1.5-0.5-2.9-0.6-4.3
		c-0.9-18.2-2.2-36.3-2.4-54.5c-0.3-20.2,6.4-38.6,17.5-55.2c13.9-20.9,30-40,54.8-48.1c14.9-4.9,30.6-7.5,46.1-9.7
		c6.5-0.9,11.2-3.6,15.2-7.8c5.4-5.7,10.2-11.9,15.2-18c13.4-16.2,28.6-30,49.4-36.2c13.5-4,27.2,4.7,25.9,17c-0.4,4-3.7,8-6.4,11.5
		c-2.8,3.6-6.7,6.3-9.6,9.9c-12.1,15.5-24,31.2-36.5,47.4c-5.6-4.9-10.3-9-15.3-13.3c14.8-17.5,29.3-34.6,44.9-53
		c-16.2,6-26.6,16.6-36.6,27.7c-8.7,9.7-17.8,19.2-27,28.5c-5.8,5.8-14.1,5-21.5,6.3c-8.7,1.5-17.5,2.4-26.2,4.1
		c-34.7,6.8-64.8,47.4-69.4,76.2c-1.7,10.4,0.6,21.4,1,32.1c0.2,6.5,0,13.1,0,20c21.5,0,41.9,0,63.3,0c0-5.5,0.3-10.8,0-16
		c-1.1-19.5,9.2-32.5,24.5-42.2c23.2-14.7,46.7-29,70.1-43.4c7.1-4.4,12.4-10.2,15.8-17.7c11-23.9,22.1-47.8,32.7-71.8
		c1.9-4.3,2.7-9.4,2.6-14.1c-0.6-22.4-1.7-44.8-2.6-67.2c-1,0-2-0.1-2.9-0.1c-2.1,18-4.3,36-6.5,54.6c-4.7-1.3-9-2.8-13.5-3.6
		c-4.8-0.8-5.4-3.7-4.9-7.7c1.7-13.6,3.1-27.2,5.1-40.8c1.5-10.2,4.2-20,13.8-26c10.9-6.8,21.6-3.4,24.5,9.2c2.8,12,3.6,24.5,5,36.9
		c1.1,10.3,1.8,20.6,2.6,30.8C511.2,261.3,511.2,267.7,511.2,274z"/>
	<path d="M0.8,254.9c0.4-4,0.9-7.9,1.3-11.9c1.7-17.6,3.2-35.3,5.2-52.9c0.9-7.7,4.9-14,13.1-15.2c7.4-1.1,13.7,2.4,18.3,8.1
		c6.6,8,7.9,18.1,9.3,27.9c1.6,11.3,2.6,22.6,3.9,33.9c0.5,4-0.2,6.8-4.9,7.6c-4.3,0.8-8.5,2.3-13.4,3.7
		c-2.2-18.4-4.4-36.5-6.5-54.7c-1,0-2,0.1-3,0.1c-0.9,23.9-2,47.7-2.4,71.6c-0.1,4.4,1.9,9.1,3.8,13.2c9.3,21,19.2,41.7,28.3,62.7
		c5.7,13.1,15.4,21.9,27.3,29c20.3,12.2,40.5,24.6,60.7,37c16.7,10.2,27.1,24,25.7,44.7c-0.3,4.6,0,9.2,0,14.2c21.1,0,41.5,0,63.3,0
		c0-7.1-0.2-14.2,0-21.3c0.3-8.4,1.4-16.8,1.2-25.1c-0.3-16.3-7.7-30.2-17-42.8c-13.2-17.9-28.5-33.9-51.6-38.6
		c-11.1-2.3-22.3-4.6-33.6-5.4c-9.7-0.7-17-5.4-23.1-11.7c-10.8-11.1-20.2-23.5-31.2-34.4c-6.4-6.3-14.6-10.7-22-15.9
		c-0.4,0.6-0.9,1.2-1.3,1.8c14.5,17.1,28.9,34.2,43.7,51.6c-4.8,4.3-9.4,8.3-14.8,13.1c-10.4-13-20.7-25.5-30.8-38.3
		c-5.5-7.1-9.8-14.9-17.7-20.3c-8.4-5.8-5.9-20,3.9-24.9c5.9-3,12.2-4,18.9-1.8c20.1,6.6,35.1,20,48.2,35.9c5,6.1,10.1,12,15.1,18.1
		c6,7.3,14.7,7.1,22.9,8.7c13.2,2.5,26.4,4.9,39.2,8.9c19.6,6.1,33.2,20.6,45.8,36c11.6,14.3,20.4,30.2,23.7,48.3
		c1.5,8.3,1.1,17.1,1,25.6c-0.2,14.8-0.8,29.7-1.2,44.5c-0.1,2.3,0,4.6,0,7.5c-17.3,0-34,0-50.7,0c-16.8,0-33.6,0-51.3,0
		c0-9.1-0.9-18,0.2-26.7c2.5-19.1-6.4-30-22.4-39c-23.5-13.3-45.8-28.8-68.6-43.3c-9.2-5.8-14.6-14.8-18.9-24.2
		C26.3,335,15.1,309.6,4,284.2c-1.4-3.2-2.1-6.8-3.1-10.1C0.8,267.7,0.8,261.3,0.8,254.9z"/>
	<path d="M244.5,167.6c1.4-3.9,2.3-7.8,4.1-11.2c0.7-1.3,3.4-2.2,5.2-2.2c26.6,0.9,49.3,11.1,67.5,30.4
		c19.4,20.5,28.6,45.5,26.5,73.6c-3.4,45.6-37.2,81.2-79.7,88.7c-51,9-97.2-22.1-110.7-67.5c-7.1-23.9-5.2-47,5-69.6
		c2.1-4.8,4.3-7.4,10-4.9c2,0.9,4.6,0.4,7.7,0.5c-16.7,28.9-18.5,58.1-2.3,87.3c12.3,22.2,31.6,35.7,56.2,40.9
		c44.5,9.3,89.6-19.5,98.6-65.6C343.2,212.9,299.6,163.7,244.5,167.6z"/>
	<path d="M305.9,18.5c32-0.8,61.9,24.3,61.9,61.1c0,34.8-25.7,60.4-59.7,61.5c-35.8,1.2-63.1-26.3-63.4-60.9
		C244.3,45.1,273,18,305.9,18.5z M306.2,127.3c23.7,1.5,48-19.2,48-47.5c0-25.9-20.4-48-47.8-48c-29.6,0-47.7,24.7-48,47.3
		C258,106.9,282.3,128.9,306.2,127.3z"/>
	<path d="M243.3,136.1c0.7,31.6-25.5,61.1-61.1,61.2c-35.9,0.1-62-30-61.6-62.3c0.5-31.6,25.4-61,61.6-60.8
		C219.7,74.5,244.2,105.1,243.3,136.1z M181.9,183.4c22.8,1.1,48.1-17.4,48.1-47.6c0-28-21.2-47.8-47.8-48
		c-26-0.1-47.8,19.2-48.1,47.7C133.8,165.3,158.7,184.4,181.9,183.4z"/>
	<path d="M240.7,229c-10.3,0-19.6,0-29.2,0c0-5.9,0-11.3,0-17.1c26.7,0,53.1,0,80.1,0c0,5.6,0,11.1,0,17.3c-9.7,0-19.2,0-28.9,0
		c0,5.3,0,9.9,0,15.4c5.7-2.7,11.1-5.2,16.6-7.7c2.8,9.1,2.2,10.5-5.7,14.3c-2.1,1-4.2,2-6.3,3.1c-5,2.5-5,2.5-4.5,9.4
		c5.7-2.7,11.1-5.2,16.6-7.8c2.7,9.5,2.4,11.2-5.9,14.2c-8.8,3.2-12.6,8.3-11.2,17.8c0.8,5.2,0.1,10.6,0.1,16.3
		c-7.2,0-14.1,0-21.6,0c0-5.7,0-11.3,0-17.9c-6.3,2.9-11.8,5.4-17.4,8c-2.1-10.4-2-10.6,6.8-14.8c1.9-0.9,3.8-2.1,5.8-2.7
		c4.7-1.4,5.6-4.5,4.1-9.3c-5.5,2.6-11,5.2-16.6,7.8c-2.2-10.5-2.3-11.4,6.9-14.7c8.6-3.1,11.9-8,10.5-16.9
		C240.1,239.1,240.7,234.2,240.7,229z"/>
</g>
</svg>
