<svg fill="#fff" id="Layer_1" data-name="Layer 1" xmlns="http://www.w3.org/2000/svg" viewBox="0 0 512 461.25"><title>EM_2</title><path d="M102.7,529H53.87a9.82,9.82,0,0,1-9.62-10V224a9.82,9.82,0,0,1,9.62-10H102.7a9.82,9.82,0,0,1,9.62,10V519A9.82,9.82,0,0,1,102.7,529ZM63.5,509H93.08V234H63.5Z" transform="translate(-44.25 -67.75)"/><path d="M495.81,344.5H105.19a10,10,0,0,1,0-20H495.81a10,10,0,0,1,0,20Z" transform="translate(-44.25 -67.75)"/><path d="M496.8,426.5H105.19a10,10,0,0,1,0-20H496.8a10,10,0,0,1,0,20Z" transform="translate(-44.25 -67.75)"/><path d="M546.63,527.5H496.8a9.82,9.82,0,0,1-9.62-10v-224a9.82,9.82,0,0,1,9.62-10h49.82a9.82,9.82,0,0,1,9.62,10v224A9.82,9.82,0,0,1,546.63,527.5Zm-40.2-20H537v-204H506.43Z" transform="translate(-44.25 -67.75)"/><path d="M200.67,321.5H153.2c-18,0-32.72-15.25-32.72-34s14.68-34,32.72-34h47.47c18,0,32.72,15.25,32.72,34S218.72,321.5,200.67,321.5Zm-47.47-48a14,14,0,0,0,0,28h47.47a14,14,0,0,0,0-28Z" transform="translate(-44.25 -67.75)"/><path d="M406.37,236.75H354.56a9.82,9.82,0,0,1-9.62-10v-38.5h-38.7a9.82,9.82,0,0,1-9.62-10v-52a9.82,9.82,0,0,1,9.62-10h38.7V77.75a9.82,9.82,0,0,1,9.62-10h51.82a9.82,9.82,0,0,1,9.62,10v38.5h38.7a9.82,9.82,0,0,1,9.62,10v52a9.82,9.82,0,0,1-9.62,10H416v38.5A9.82,9.82,0,0,1,406.37,236.75Zm-42.19-20h32.57v-38.5a9.82,9.82,0,0,1,9.62-10h38.7v-32h-38.7a9.82,9.82,0,0,1-9.62-10V87.75H364.18v38.5a9.82,9.82,0,0,1-9.62,10h-38.7v32h38.7a9.82,9.82,0,0,1,9.62,10Z" transform="translate(-44.25 -67.75)"/></svg>