<svg fill="#fff" id="Layer_1" data-name="Layer 1" xmlns="http://www.w3.org/2000/svg" viewBox="0 0 512 512"><defs><style>.cls-1{fill:none;stroke:#000;stroke-linecap:round;stroke-linejoin:round;stroke-width:20px;}</style></defs><title>ONU_5</title><path d="M547.17,223.67H54.41a9.87,9.87,0,0,1-9.62-10.1V137a9.87,9.87,0,0,1,9.62-10.1H189.47a10.11,10.11,0,0,1,0,20.2H64v56.37h473.5V147.1H408.77a10.11,10.11,0,0,1,0-20.2h138.4a9.87,9.87,0,0,1,9.62,10.1v76.57A9.87,9.87,0,0,1,547.17,223.67Z" transform="translate(-44.79 -41.5)"/><path d="M535.71,553.5H65.87a9.87,9.87,0,0,1-9.62-10.1V213.57a9.87,9.87,0,0,1,9.62-10.1H535.71a9.87,9.87,0,0,1,9.62,10.1V543.4A9.87,9.87,0,0,1,535.71,553.5ZM75.5,533.3H526.08V223.67H75.5Z" transform="translate(-44.79 -41.5)"/><path d="M180.47,259H100.25a9.87,9.87,0,0,1-9.62-10.1V213.57a9.87,9.87,0,0,1,9.62-10.1h80.22a9.87,9.87,0,0,1,9.62,10.1v35.34A9.87,9.87,0,0,1,180.47,259Zm-70.59-20.2h61V223.67h-61Z" transform="translate(-44.79 -41.5)"/><path d="M340,259H259.77a9.87,9.87,0,0,1-9.62-10.1V213.57a9.87,9.87,0,0,1,9.62-10.1H340a9.87,9.87,0,0,1,9.62,10.1v35.34A9.87,9.87,0,0,1,340,259Zm-70.59-20.2h61V223.67h-61Z" transform="translate(-44.79 -41.5)"/><path d="M340,553.5H259.77a9.87,9.87,0,0,1-9.62-10.1v-35a9.87,9.87,0,0,1,9.62-10.1H340a9.87,9.87,0,0,1,9.62,10.1v35A9.87,9.87,0,0,1,340,553.5Zm-70.59-20.2h61V518.48h-61Z" transform="translate(-44.79 -41.5)"/><path d="M499.51,553.5H419.29a9.87,9.87,0,0,1-9.62-10.1v-35a9.87,9.87,0,0,1,9.62-10.1h80.22a9.87,9.87,0,0,1,9.62,10.1v35A9.87,9.87,0,0,1,499.51,553.5Zm-70.59-20.2h61V518.48h-61Z" transform="translate(-44.79 -41.5)"/><path d="M499.51,259H419.29a9.87,9.87,0,0,1-9.62-10.1V213.57a9.87,9.87,0,0,1,9.62-10.1h80.22a9.87,9.87,0,0,1,9.62,10.1v35.34A9.87,9.87,0,0,1,499.51,259Zm-70.59-20.2h61V223.67h-61Z" transform="translate(-44.79 -41.5)"/><path d="M180.47,553.5H100.25a9.87,9.87,0,0,1-9.62-10.1v-35a9.87,9.87,0,0,1,9.62-10.1h80.22a9.87,9.87,0,0,1,9.62,10.1v35A9.87,9.87,0,0,1,180.47,553.5Zm-70.59-20.2h61V518.48h-61Z" transform="translate(-44.79 -41.5)"/><path d="M111.71,512.27a9.87,9.87,0,0,1-9.62-10.1V248.91a9.64,9.64,0,1,1,19.25,0V502.17A9.87,9.87,0,0,1,111.71,512.27Z" transform="translate(-44.79 -41.5)"/><path d="M168.49,515.3a9.87,9.87,0,0,1-9.62-10.1V251.94a9.64,9.64,0,1,1,19.25,0V505.2A9.87,9.87,0,0,1,168.49,515.3Z" transform="translate(-44.79 -41.5)"/><path d="M93.57,222.69a9.46,9.46,0,0,1-7.7-4,10.43,10.43,0,0,1,1.92-14.14l204.36-161a9.26,9.26,0,0,1,11.48-.06l206.27,159A10.43,10.43,0,0,1,512,216.6a9.33,9.33,0,0,1-13.45,2.16L298,64.18,99.35,220.66A9.29,9.29,0,0,1,93.57,222.69Z" transform="translate(-44.79 -41.5)"/><path d="M297.93,185.38c-24.26,0-44-20.38-44-45.44s19.74-45.44,44-45.44,44,20.38,44,45.44S322.19,185.38,297.93,185.38Zm0-70.68c-13.65,0-24.75,11.32-24.75,25.24s11.1,25.24,24.75,25.24,24.75-11.32,24.75-25.24S311.57,114.71,297.93,114.71Z" transform="translate(-44.79 -41.5)"/><path class="cls-1" d="M408.06,136.93" transform="translate(-44.79 -41.5)"/><path d="M271.47,515.3a9.87,9.87,0,0,1-9.62-10.1V251.94a9.64,9.64,0,1,1,19.25,0V505.2A9.87,9.87,0,0,1,271.47,515.3Z" transform="translate(-44.79 -41.5)"/><path d="M328.25,518.33a9.87,9.87,0,0,1-9.62-10.1V255a9.64,9.64,0,1,1,19.25,0V508.23A9.87,9.87,0,0,1,328.25,518.33Z" transform="translate(-44.79 -41.5)"/><path d="M431.23,515.3a9.87,9.87,0,0,1-9.62-10.1V251.94a9.64,9.64,0,1,1,19.25,0V505.2A9.87,9.87,0,0,1,431.23,515.3Z" transform="translate(-44.79 -41.5)"/><path d="M488,518.33a9.87,9.87,0,0,1-9.62-10.1V255a9.64,9.64,0,1,1,19.25,0V508.23A9.87,9.87,0,0,1,488,518.33Z" transform="translate(-44.79 -41.5)"/></svg>