<svg fill="#fff" id="Layer_1" data-name="Layer 1" xmlns="http://www.w3.org/2000/svg" viewBox="0 0 512 512"><defs><style>.cls-1{fill:none;stroke:#000;stroke-linecap:round;stroke-linejoin:round;stroke-width:20px;}</style></defs><title>SS_3</title><path d="M534.83,558H64.59A9.62,9.62,0,0,1,55,548.38V124.61a9.62,9.62,0,0,1,8.13-9.51L157,100.32a9.62,9.62,0,0,1,3,19l-85.78,13.5V538.75h451V133.05l-85.54-11.22a9.62,9.62,0,0,1,2.5-19.08l93.91,12.32a9.62,9.62,0,0,1,8.37,9.54V548.38A9.62,9.62,0,0,1,534.83,558Z" transform="translate(-43.24 -46)"/><path class="cls-1" d="M165.39,85.68" transform="translate(-43.24 -46)"/><path class="cls-1" d="M165.39,85.68" transform="translate(-43.24 -46)"/><path d="M438.74,558H162.29a9.62,9.62,0,0,1-9.62-9.64l.69-462.71a10.57,10.57,0,0,1,10.2-10.09h0L438.76,76a9.62,9.62,0,0,1,9.61,9.62V548.38A9.62,9.62,0,0,1,438.74,558ZM171.93,538.75H429.12V95.28l-256.53-.45Z" transform="translate(-43.24 -46)"/><path d="M462.16,89.89H138.87a9.62,9.62,0,0,1-9.62-9.62V55.62A9.62,9.62,0,0,1,138.87,46H462.16a9.62,9.62,0,0,1,9.62,9.62V80.26A9.62,9.62,0,0,1,462.16,89.89ZM148.49,70.64h304V65.25h-304Z" transform="translate(-43.24 -46)"/><path d="M55.89,135a9.63,9.63,0,0,1-9.53-8.34l-3-22.43a9.62,9.62,0,0,1,8.06-10.8L164.1,75.9a9.62,9.62,0,0,1,3,19L63.67,111l1.77,13.08a9.62,9.62,0,0,1-8.25,10.83A9.77,9.77,0,0,1,55.89,135Z" transform="translate(-43.24 -46)"/><path d="M542.94,136.25a9.73,9.73,0,0,1-1.08-.06,9.62,9.62,0,0,1-8.5-10.63L535,110.79,440.18,98.63a9.62,9.62,0,1,1,2.45-19.09L546.84,92.9a9.62,9.62,0,0,1,8.34,10.61l-2.69,24.17A9.63,9.63,0,0,1,542.94,136.25Z" transform="translate(-43.24 -46)"/><path d="M401.67,557H196.85a9.62,9.62,0,0,1-9.62-9.62v-137a9.62,9.62,0,0,1,9.62-9.62H401.67a9.62,9.62,0,0,1,9.62,9.62v137A9.62,9.62,0,0,1,401.67,557ZM206.48,537.77H392V420H206.48Z" transform="translate(-43.24 -46)"/><path d="M390.88,153H207.19a9.62,9.62,0,0,1,0-19.25H390.88a9.62,9.62,0,0,1,0,19.25Z" transform="translate(-43.24 -46)"/><path d="M390.88,204.94H207.19a9.62,9.62,0,0,1,0-19.25H390.88a9.62,9.62,0,0,1,0,19.25Z" transform="translate(-43.24 -46)"/><path d="M390.88,308.91H207.19a9.62,9.62,0,1,1,0-19.25H390.88a9.62,9.62,0,1,1,0,19.25Z" transform="translate(-43.24 -46)"/><path d="M390.88,256.93H207.19a9.62,9.62,0,0,1,0-19.25H390.88a9.62,9.62,0,0,1,0,19.25Z" transform="translate(-43.24 -46)"/><path d="M390.88,360.9H207.19a9.62,9.62,0,0,1,0-19.25H390.88a9.62,9.62,0,0,1,0,19.25Z" transform="translate(-43.24 -46)"/><path d="M93.79,191.13A9.62,9.62,0,0,1,92.16,172l40.7-7a9.62,9.62,0,0,1,3.28,19l-40.7,7A9.65,9.65,0,0,1,93.79,191.13Z" transform="translate(-43.24 -46)"/><path d="M93.79,271.92a9.62,9.62,0,0,1-1.63-19.11l40.7-7a9.62,9.62,0,0,1,3.28,19l-40.7,7A9.65,9.65,0,0,1,93.79,271.92Z" transform="translate(-43.24 -46)"/><path d="M93.79,231.52a9.62,9.62,0,0,1-1.63-19.11l40.7-7a9.62,9.62,0,0,1,3.28,19l-40.7,7A9.65,9.65,0,0,1,93.79,231.52Z" transform="translate(-43.24 -46)"/><path d="M93.79,312.32a9.63,9.63,0,0,1-1.63-19.11l40.7-7a9.62,9.62,0,0,1,3.28,19l-40.7,7A9.7,9.7,0,0,1,93.79,312.32Z" transform="translate(-43.24 -46)"/><path d="M93.79,352.71a9.63,9.63,0,0,1-1.63-19.11l40.7-7a9.62,9.62,0,0,1,3.28,19l-40.7,7A9.7,9.7,0,0,1,93.79,352.71Z" transform="translate(-43.24 -46)"/><path d="M93.79,393.11A9.63,9.63,0,0,1,92.16,374l40.7-7a9.62,9.62,0,0,1,3.28,19l-40.7,7A9.7,9.7,0,0,1,93.79,393.11Z" transform="translate(-43.24 -46)"/><path d="M93.79,433.51a9.63,9.63,0,0,1-1.63-19.11l40.7-7a9.62,9.62,0,0,1,3.28,19l-40.7,7A9.7,9.7,0,0,1,93.79,433.51Z" transform="translate(-43.24 -46)"/><path d="M93.79,473.9a9.63,9.63,0,0,1-1.63-19.11l40.7-7a9.62,9.62,0,0,1,3.28,19l-40.7,7A9.7,9.7,0,0,1,93.79,473.9Z" transform="translate(-43.24 -46)"/><path d="M506.61,190.63a9.7,9.7,0,0,1-1.49-.12l-39-6.06a9.62,9.62,0,1,1,3-19l39,6.06a9.62,9.62,0,0,1-1.46,19.14Z" transform="translate(-43.24 -46)"/><path d="M506.61,271.43a9.7,9.7,0,0,1-1.49-.12l-39-6.06a9.62,9.62,0,1,1,3-19l39,6.06a9.62,9.62,0,0,1-1.46,19.14Z" transform="translate(-43.24 -46)"/><path d="M506.61,231a9.7,9.7,0,0,1-1.49-.12l-39-6.06a9.62,9.62,0,1,1,3-19l39,6.06A9.62,9.62,0,0,1,506.61,231Z" transform="translate(-43.24 -46)"/><path d="M506.61,311.83a9.76,9.76,0,0,1-1.49-.11l-39-6.06a9.62,9.62,0,1,1,3-19l39,6.06a9.62,9.62,0,0,1-1.46,19.14Z" transform="translate(-43.24 -46)"/><path d="M506.61,352.22a9.76,9.76,0,0,1-1.49-.11l-39-6.06a9.62,9.62,0,0,1,3-19l39,6.06a9.62,9.62,0,0,1-1.46,19.14Z" transform="translate(-43.24 -46)"/><path d="M506.61,392.62a9.76,9.76,0,0,1-1.49-.11l-39-6.06a9.62,9.62,0,0,1,3-19l39,6.06a9.62,9.62,0,0,1-1.46,19.14Z" transform="translate(-43.24 -46)"/><path d="M506.61,433a9.76,9.76,0,0,1-1.49-.11l-39-6.06a9.62,9.62,0,0,1,3-19l39,6.06A9.62,9.62,0,0,1,506.61,433Z" transform="translate(-43.24 -46)"/><path d="M506.61,473.41a9.76,9.76,0,0,1-1.49-.11l-39-6.06a9.62,9.62,0,0,1,3-19l39,6.06a9.62,9.62,0,0,1-1.46,19.14Z" transform="translate(-43.24 -46)"/></svg>