<svg fill="#fff" id="Layer_1" data-name="Layer 1" xmlns="http://www.w3.org/2000/svg" viewBox="0 0 485 512"><defs><style>.cls-1{fill:#272525;}</style></defs><title>TU_6</title><path class="cls-1" d="M136.81,350s7,16.67,8.12,16c0,0,6.88-9.84,8-16.94" transform="translate(-55.7 -42.83)"/><path d="M144.85,375.58a10.77,10.77,0,0,1-3.07-.45c-4.56-1.36-6.67-3.33-14.33-21.58a9.49,9.49,0,0,1,5.6-12.51,10.39,10.39,0,0,1,11.43,2.7,10.26,10.26,0,0,1,9.95-4.26,9.7,9.7,0,0,1,8.46,11c-1.39,8.78-8.23,18.91-9.59,20.85a9.87,9.87,0,0,1-2.82,2.68A10.52,10.52,0,0,1,144.85,375.58Z" transform="translate(-55.7 -42.83)"/><polygon class="cls-1" points="89.19 323.1 80.09 330.66 89.16 358.11 98.17 331.29 89.19 323.1"/><path d="M144.86,410.57h0a10,10,0,0,1-9.58-6.73l-9.07-27.45a9.35,9.35,0,0,1,3-10.15l9.1-7.57a10.43,10.43,0,0,1,13.58.3l9,8.19a9.33,9.33,0,0,1,2.63,9.9l-9,26.82A10,10,0,0,1,144.86,410.57Z" transform="translate(-55.7 -42.83)"/><path d="M145.37,315.48c-35.83,0-65-28.28-65-63s29.15-63,65-63,65,28.28,65,63S181.2,315.48,145.37,315.48Zm0-106.85c-24.72,0-44.83,19.65-44.83,43.8s20.11,43.8,44.83,43.8,44.83-19.65,44.83-43.8S170.09,208.63,145.37,208.63Z" transform="translate(-55.7 -42.83)"/><path d="M222.94,421.84H65.78a10.31,10.31,0,0,1-7.24-2.93,9.39,9.39,0,0,1-2.83-7c2.15-63.75,36.89-88.77,38.37-89.8a10.46,10.46,0,0,1,12,0c19,13.52,38.38,17.56,57.55,12A64.21,64.21,0,0,0,186.72,322a10.42,10.42,0,0,1,14,0C239.12,357.19,233.22,411,233,413.3A9.92,9.92,0,0,1,222.94,421.84ZM76.5,402.59H213.23c-.13-13.43-2.88-40.09-20.61-60.69a87.71,87.71,0,0,1-23.17,10.66C153.2,357.28,128.62,359,101,342.2,93.45,350.11,79.82,368.77,76.5,402.59Z" transform="translate(-55.7 -42.83)"/><path d="M452.64,315.48c-35.83,0-65-28.28-65-63s29.15-63,65-63,65,28.28,65,63S488.47,315.48,452.64,315.48Zm0-106.85c-24.72,0-44.83,19.65-44.83,43.8s20.11,43.8,44.83,43.8,44.83-19.65,44.83-43.8S477.36,208.63,452.64,208.63Z" transform="translate(-55.7 -42.83)"/><path d="M530.22,421.84H373.05a10.31,10.31,0,0,1-7.24-2.93,9.39,9.39,0,0,1-2.83-7c2.15-63.75,36.89-88.77,38.37-89.8a10.46,10.46,0,0,1,12,0c19,13.52,38.38,17.56,57.55,12A64.24,64.24,0,0,0,494,322a10.41,10.41,0,0,1,14,0c38.41,35.24,32.52,89.07,32.25,91.35A9.92,9.92,0,0,1,530.22,421.84ZM383.77,402.59H520.51c-.13-13.43-2.88-40.09-20.61-60.69a87.72,87.72,0,0,1-23.17,10.66c-16.26,4.72-40.84,6.41-68.46-10.36C400.73,350.11,387.09,368.77,383.77,402.59Z" transform="translate(-55.7 -42.83)"/><path d="M233,149.33a10.61,10.61,0,0,1-1.08-.06l-85.63-8.82a10.13,10.13,0,0,1-7.54-4.58,9.25,9.25,0,0,1-.76-8.5l32.24-78.42a10,10,0,0,1,8.39-6.06,10.23,10.23,0,0,1,9.47,4.38L200,65a197.51,197.51,0,0,1,151.43-9.37c32.77,11.27,64.15,31.34,93.25,59.66a9.31,9.31,0,0,1,.69,12.74,10.4,10.4,0,0,1-13.16,2.19,291.24,291.24,0,0,0-73.53-28.12c-50.7-11.62-93-5.46-125.76,18.29l8.78,14.45a9.26,9.26,0,0,1-.27,10.07A10.2,10.2,0,0,1,233,149.33Zm-71.43-26.66,52.74,5.43L211.21,123a9.33,9.33,0,0,1,2.12-12.1c38.4-31.78,90.5-41.23,150.64-27.32q4.12,1,8.11,2c-31.69-16.69-64.86-23.7-99.17-20.88-42,3.45-70.28,21.11-70.56,21.29a10.49,10.49,0,0,1-7.65,1.41,10.1,10.1,0,0,1-6.42-4.21l-6.48-9.64Z" transform="translate(-55.7 -42.83)"/><path d="M411.47,554.83a10.2,10.2,0,0,1-8.46-4.4L391,532.7a197.5,197.5,0,0,1-151.4,9.81c-32.81-11.17-64.24-31.15-93.43-59.39a9.31,9.31,0,0,1-.73-12.74,10.4,10.4,0,0,1,13.15-2.23h0a291.19,291.19,0,0,0,73.62,27.91c50.74,11.47,93,5.19,125.71-18.65L349.11,463a9.26,9.26,0,0,1,.24-10.07,10.23,10.23,0,0,1,9.51-4.35l85.66,8.58a10.13,10.13,0,0,1,7.55,4.56,9.25,9.25,0,0,1,.79,8.5l-32,78.51a10,10,0,0,1-8.37,6.08C412.15,554.82,411.81,554.83,411.47,554.83ZM218.9,512.68c32,16.77,65.56,23.65,100.18,20.52,41.78-3.78,69.27-21.23,69.55-21.4a10.47,10.47,0,0,1,7.65-1.45,10.09,10.09,0,0,1,6.44,4.21l6.51,9.62L429.29,475l-52.75-5.28,3.13,5.12a9.32,9.32,0,0,1-2.08,12.11C339.28,518.8,287.22,528.39,227,514.66Q222.9,513.72,218.9,512.68Z" transform="translate(-55.7 -42.83)"/></svg>