<svg fill="#fff" id="Layer_1" data-name="Layer 1" xmlns="http://www.w3.org/2000/svg" viewBox="0 0 512 512"><title>ediin zasgiin uil ajillagaa</title><path d="M546.11,558.45H53.36a9.62,9.62,0,0,1-9.62-9.62V56.07a9.62,9.62,0,1,1,19.25,0V539.2H546.11a9.62,9.62,0,0,1,0,19.25Z" transform="translate(-43.73 -46.45)"/><path d="M54.42,333.63a9.62,9.62,0,0,1-6.06-17.1L190.5,201.45a9.62,9.62,0,0,1,10.93-.82l101.69,59.75L431.61,157.83a9.62,9.62,0,0,1,12,15L310,279.56a9.62,9.62,0,0,1-10.88.78L197.43,220.61l-137,110.88A9.58,9.58,0,0,1,54.42,333.63Z" transform="translate(-43.73 -46.45)"/><path d="M457.82,183.53h-.1a9.62,9.62,0,0,1-7.72-4L427.35,147.9a9.62,9.62,0,0,1,3.48-14.19L505.37,96a9.62,9.62,0,0,1,12.05,14.35l-51.89,69.34A9.62,9.62,0,0,1,457.82,183.53Zm-8.29-37.72,8.46,11.8,19.38-25.89Z" transform="translate(-43.73 -46.45)"/><path d="M271,535H196a9.62,9.62,0,0,1-9.62-9.62V322.63A9.62,9.62,0,0,1,196,313h75a9.62,9.62,0,0,1,9.62,9.62V525.34A9.62,9.62,0,0,1,271,535Zm-65.4-19.25h55.77V332.26H205.64Z" transform="translate(-43.73 -46.45)"/><path d="M375.28,535h-75a9.62,9.62,0,0,1-9.62-9.62V370.64a9.62,9.62,0,0,1,9.62-9.62h75a9.62,9.62,0,0,1,9.62,9.62v154.7A9.62,9.62,0,0,1,375.28,535Zm-65.4-19.25h55.77V380.27H309.88Z" transform="translate(-43.73 -46.45)"/><path d="M479.52,534.06h-75a9.62,9.62,0,0,1-9.62-9.62V259.28a9.62,9.62,0,0,1,9.62-9.62h75a9.62,9.62,0,0,1,9.62,9.62V524.44A9.62,9.62,0,0,1,479.52,534.06Zm-65.4-19.25h55.77V268.9H414.12Z" transform="translate(-43.73 -46.45)"/><path d="M166.79,535h-75a9.62,9.62,0,0,1-9.62-9.62V396.63A9.62,9.62,0,0,1,91.77,387h75a9.62,9.62,0,0,1,9.62,9.62V525.34A9.62,9.62,0,0,1,166.79,535Zm-65.4-19.25h55.77V406.25H101.4Z" transform="translate(-43.73 -46.45)"/></svg>