<svg fill="#fff" id="Layer_1" data-name="Layer 1" xmlns="http://www.w3.org/2000/svg" viewBox="0 0 512 512"><title>hureelen bui orchin</title><path d="M139.4,557.73A21,21,0,0,1,121.74,548l-74-115.48a21.42,21.42,0,0,1,5.86-29l49.92-34.1a20.88,20.88,0,0,1,29.1,5.64l76.54,113.74a21.23,21.23,0,0,1,3,17.16,21.78,21.78,0,0,1-9,12.55l-52.11,35.57A20.67,20.67,0,0,1,139.4,557.73ZM115.31,386a1,1,0,0,0-.56.17l-49.92,34.1a1,1,0,0,0-.28,1.38l74,115.48a1,1,0,0,0,1.4.29l52.5-35.83a1,1,0,0,0,.27-1.4L116.13,386.4A1,1,0,0,0,115.31,386Z" transform="translate(-44.45 -45.73)"/><path d="M380,447.94a38.94,38.94,0,0,1-10.55-1.46l-59.06-16.6a10.1,10.1,0,0,1-6.94-12.42h0a10,10,0,0,1,12.3-7L374.86,427A19,19,0,0,0,392.62,423a18.26,18.26,0,0,0,4.29-5.5,19.39,19.39,0,0,0-11-27.37L237,340.78a19.11,19.11,0,0,0-16.67,2.35L142.8,396.07l-11.19-16.71,77.56-52.94a39.05,39.05,0,0,1,34.08-4.8l148.91,49.32a39.63,39.63,0,0,1,7.12,71.84A38.59,38.59,0,0,1,380,447.94Z" transform="translate(-44.45 -45.73)"/><path d="M371.72,520.9a36.43,36.43,0,0,1-10.13-1.44l-127.13-36.8a16.4,16.4,0,0,0-12.67,1.46l-17.31,9.71-9.7-17.63,17.31-9.71A36.08,36.08,0,0,1,240,463.27l127.13,36.8a16.46,16.46,0,0,0,14-2.29L525.25,398a16.87,16.87,0,0,0,7.23-14.84,15.33,15.33,0,0,0-.9-4.56,16.65,16.65,0,0,0-24.88-8.52l-45,32.12a9.93,9.93,0,0,1-13.92-2.41h0a10.15,10.15,0,0,1,2.39-14.05l45.33-32.36a36.51,36.51,0,0,1,49.28,8.14,37.2,37.2,0,0,1-8.26,53.13L392.39,514.41A36.27,36.27,0,0,1,371.72,520.9Z" transform="translate(-44.45 -45.73)"/><path d="M378.19,336.28a133.14,133.14,0,0,1-60.08-14.6c-24.06-12.3-43.11-31-55.1-54.21-14.31-27.66-17.73-60.61-9.89-95.29,8.89-39.29,31.8-80.67,68.1-123a9.94,9.94,0,0,1,16.86,3c5.7,14.82,19.84,32,34.81,50.27,20.93,25.48,44.66,54.36,56.94,89,14.52,41,10,81.52-13.73,123.89a9.93,9.93,0,0,1-15.33,2.57c-16.5-14.81-34.11-40.43-48.33-70.29a323.35,323.35,0,0,1-15.17-37.7c3,47.33,35,81.77,60.07,108.74a10.16,10.16,0,0,1,2.08,10.41,10,10,0,0,1-8.3,6.51A121.06,121.06,0,0,1,378.19,336.28ZM326.66,74c-28.55,35.65-46.72,70.12-54.08,102.63-6.77,29.94-4,58.1,8.12,81.46,16.65,32.18,50.49,54,86.74,57.5-32.53-37-67.77-89.43-41.1-164.19a10,10,0,0,1,19.35,2.66c3.58,48.06,32.39,108.6,59.18,139.35,35.94-76.74-8.2-130.47-47.37-178.14C345.79,101,334.55,87.35,326.66,74Z" transform="translate(-44.45 -45.73)"/><path d="M435.82,315.11a10,10,0,0,1-8.81-5.33,10.17,10.17,0,0,1,.57-10.45c.3-.45,18.52-28.41,13.3-74.84a9.28,9.28,0,0,1,3.38-8.77c1.18-1.22,13.34-14.62,24-58.14-6.81,6.12-14.15,15.52-19,29.71a10,10,0,0,1-19.19-1c-.05-.22-6-25-26.74-49a10.16,10.16,0,0,1-.47-12.69c26-34.95,77.23-54.46,114.66-68.71,4.08-1.55,8-3,11.64-4.46a9.91,9.91,0,0,1,8.16.44,10.07,10.07,0,0,1,5.11,6.45c29.66,115.82,6.72,178.8-17.74,211.24-21.75,28.84-53.25,45-88.71,45.63Zm25.36-88.33c2.53,29.37-3,52-8.49,66.35,22.21-4.42,41.73-16.8,56.11-35.88,21-27.89,40.55-82.1,17-183l-1.2.46c-32.73,12.46-76.73,29.21-100.77,55.9a154.86,154.86,0,0,1,17.24,28.13c16.12-24.39,37.89-30.71,39-31a9.92,9.92,0,0,1,9.41,2.3,10.14,10.14,0,0,1,3.05,9.27C482.32,194.4,468.12,218,461.18,226.79Z" transform="translate(-44.45 -45.73)"/></svg>