<?xml version="1.0" encoding="utf-8"?>
<!-- Generator: Adobe Illustrator 24.2.3, SVG Export Plug-In . SVG Version: 6.00 Build 0)  -->
<svg version="1.1" id="Layer_1" fill="#fff" xmlns="http://www.w3.org/2000/svg" xmlns:xlink="http://www.w3.org/1999/xlink" x="0px" y="0px"
	 viewBox="0 0 412 412" style="enable-background:new 0 0 412 412;" xml:space="preserve">
<g>
	<path d="M134.7,194.6c2.9-9.4,5.7-18.6,8.5-27.8c3.9-12.7,7.8-25.3,11.6-38c1.4-4.5,3.7-6.3,8.4-6.3c28.7,0,57.5,0,86.2,0
		c4.7,0,7,1.7,8.4,6.3c6.4,20.8,12.8,41.7,19.2,62.5c0.3,1,0.7,2.1,1.1,3.3c3.6,0,7.2,0,10.8,0c8.9,0,17.9,0,26.8,0
		c4.6,0,7,1.8,8.3,6.1c6.5,21.1,12.9,42.1,19.3,63.2c0.6,2,1.4,2.8,3.7,2.8c11.6-0.1,23.2-0.1,34.9-0.1c4.7,0,7.1,1.7,8.5,6.2
		c7.1,23.3,14.3,46.6,21.4,70c1.9,6.3-1.2,10.6-7.8,10.6c-28.7,0-57.3,0-86,0c-101.9,0-203.8,0-305.7,0c-1.3,0-2.7,0-4,0
		c-6-0.1-9.2-4.4-7.5-10.1c2.2-7.5,4.6-15,6.9-22.5c4.8-15.8,9.7-31.6,14.5-47.5c1.6-5.1,3.7-6.7,9.1-6.7c11.5,0,23.1-0.1,34.6,0.1
		c2.1,0,2.8-0.7,3.3-2.6c6.4-21.1,12.9-42.1,19.3-63.2c1.4-4.7,3.7-6.4,8.6-6.4C109.6,194.6,122,194.6,134.7,194.6z M196.3,266.6
		c-0.3-1-0.4-1.8-0.7-2.6c-5.3-17.4-10.7-34.8-15.9-52.2c-0.6-1.9-1.4-2.5-3.4-2.5c-24.2,0.1-48.4,0.1-72.5,0
		c-1.7,0-2.4,0.5-2.9,2.1c-5.3,17.5-10.7,35-16,52.4c-0.3,0.9-0.5,1.7-0.8,2.7C121.5,266.6,158.8,266.6,196.3,266.6z M328.7,266.6
		c-0.2-0.7-0.3-1.3-0.4-1.8c-5.5-17.9-11-35.8-16.4-53.8c-0.5-1.6-1.4-1.7-2.8-1.7c-24.3,0-48.5,0-72.8,0c-2,0-2.7,0.7-3.2,2.5
		c-4.1,13.6-8.3,27.2-12.4,40.7c-1.4,4.6-2.8,9.3-4.3,14.1C253.9,266.6,291.2,266.6,328.7,266.6z M262.4,194.5
		c-0.1-0.5-0.1-0.9-0.3-1.3c-5.5-18.1-11.1-36.1-16.6-54.2c-0.5-1.8-1.6-1.8-3-1.8c-24.1,0-48.2,0-72.3-0.1c-2.2,0-2.9,0.7-3.5,2.7
		c-5.3,17.4-10.6,34.8-15.9,52.2c-0.2,0.8-0.4,1.6-0.6,2.4C187.8,194.5,225.1,194.5,262.4,194.5z M129.9,338.6c0-0.4,0-0.6,0-0.7
		c-5.6-18.3-11.2-36.6-16.7-54.9c-0.5-1.5-1.3-1.6-2.6-1.6c-24.3,0-48.7,0-73,0c-1.8,0-2.6,0.6-3.1,2.3
		c-5.3,17.4-10.6,34.8-15.9,52.2c-0.3,0.9-0.5,1.8-0.7,2.8C55.3,338.6,92.5,338.6,129.9,338.6z M262.4,338.6
		c-0.1-0.6-0.2-1.1-0.3-1.5c-5.5-18-11-36-16.5-54c-0.5-1.7-1.4-1.7-2.8-1.7c-24.3,0-48.7,0-73,0c-1.7,0-2.4,0.6-2.9,2.2
		c-3.9,13-7.9,25.9-11.9,38.9c-1.6,5.3-3.2,10.6-4.9,16.1C187.7,338.6,224.9,338.6,262.4,338.6z M282.6,338.6c37.6,0,74.8,0,112.2,0
		c-0.1-0.7-0.2-1.2-0.4-1.7c-5.5-17.9-11-35.8-16.4-53.8c-0.5-1.6-1.4-1.8-2.7-1.8c-24.4,0-48.8,0-73.2,0c-1.5,0-2.2,0.4-2.6,1.9
		c-2,6.9-4.2,13.8-6.3,20.7C289.7,315.5,286.2,326.9,282.6,338.6z M128,281.5c4,13.1,7.9,25.9,11.9,38.7c0.2,0,0.3,0,0.5,0
		c3.9-12.8,7.9-25.6,11.8-38.7C144,281.5,136.2,281.5,128,281.5z M260.5,281.6c4,13.1,7.9,25.9,11.9,38.6c0.2,0,0.3,0,0.5,0
		c3.9-12.8,7.9-25.7,11.8-38.6C276.5,281.6,268.7,281.6,260.5,281.6z M206.1,248c0.2,0,0.4,0,0.5,0c3.9-12.8,7.8-25.5,11.8-38.5
		c-8.2,0-16,0-24.1,0C198.3,222.5,202.2,235.3,206.1,248z"/>
	<path d="M361.5,154.9c0,3.2-1.7,5.9-4.7,6.9c-13.9,4.8-27.9,9.6-41.8,14.3c-3.8,1.3-7.9-1-9.1-4.6c-1.2-3.8,0.5-7.9,4.4-9.2
		c13.9-4.8,27.9-9.6,41.8-14.2C356.9,146.4,361.5,150,361.5,154.9z"/>
	<path d="M271.3,131.9c-2.2-0.1-4.5-1.4-5.8-4.2c-1.4-3-0.9-5.8,1.3-8.3c5.9-6.7,11.8-13.4,17.8-20.1c3.4-3.9,6.9-7.8,10.3-11.6
		c3.2-3.6,7.8-4.1,11-1.1c3.1,2.9,3.1,7.4,0,10.9c-9.1,10.4-18.3,20.7-27.4,31.1C276.8,130.5,274.9,131.9,271.3,131.9z"/>
	<path d="M150.3,123.6c-0.5,3.3-2.3,6-5.1,7.1c-3.1,1.2-6.1,0.5-8.5-2.2c-6.1-6.9-12.2-13.9-18.3-20.9c-3.2-3.7-6.4-7.3-9.6-11
		c-3.1-3.6-3-8,0.3-10.9c3.3-2.9,7.7-2.4,10.8,1.2c9.1,10.4,18.3,20.9,27.4,31.4C148.6,119.8,149.4,121.9,150.3,123.6z"/>
	<path d="M101.7,175.8c-0.4-0.1-1.4-0.2-2.4-0.6c-13.3-4.5-26.5-9.1-39.8-13.7c-3.9-1.3-5.9-4.3-5.6-7.7c0.5-5,5.1-8,10.1-6.3
		c11.6,3.9,23.1,7.9,34.7,11.9c2.1,0.7,4.3,1.4,6.4,2.3c3.3,1.4,4.9,4.7,4.2,8.3C108.7,173.4,105.8,175.8,101.7,175.8z"/>
	<path d="M214.4,88.3c0,7,0,14,0,20.9c0,4.7-3.1,8-7.5,7.9c-4.2-0.1-7.2-3.3-7.2-7.9c0-14.1,0-28.2,0-42.4c0-4.6,3-7.7,7.3-7.8
		c4.3,0,7.3,3.2,7.3,7.8C214.4,74.1,214.4,81.2,214.4,88.3z"/>
	<path d="M183,254.4c0,3.9-2.5,6.9-5.9,7.5c-3.9,0.7-7.3-1.3-8.4-5.1c-1.8-5.9-3.4-11.9-5.1-17.8c-0.7-2.5-1.4-5-2.1-7.5
		c-1.1-4.3,1-8.1,4.9-9.3c4-1.2,7.9,1,9.2,5.2c2.4,8.3,4.8,16.7,7.1,25.1C182.8,253.2,182.9,254,183,254.4z"/>
	<path d="M308.2,262c-3.3,0-6.2-1.9-7.1-5.1c-2.5-8.6-4.9-17.2-7.3-25.8c-1.1-4.1,1.2-7.8,5.1-9c3.8-1.1,7.8,0.9,8.9,4.9
		c2.5,8.6,5,17.3,7.3,26C316.4,257.7,313,262,308.2,262z"/>
	<path d="M249.2,182.1c0,4.1-2.5,7.2-6,7.8c-3.9,0.6-7.2-1.4-8.4-5.2c-1.7-5.7-3.3-11.4-4.9-17.2c-0.7-2.6-1.5-5.3-2.2-7.9
		c-1.2-4.4,0.9-8.3,5-9.4c4.1-1.2,7.9,1.1,9.2,5.5c2.4,8.2,4.6,16.4,6.9,24.6C249,181,249.1,181.8,249.2,182.1z"/>
	<path d="M109.4,334.1c-3.3,0-6.1-1.9-7-5.2c-2.5-8.5-4.9-17-7.2-25.5c-1.1-4.2,1.1-8,5.2-9.1c4-1,7.7,1.1,8.9,5.2
		c2.4,8.4,4.9,16.9,7.1,25.3C117.8,329.7,114.3,334.1,109.4,334.1z"/>
	<path d="M249.2,326.6c0,3.8-2.5,6.8-5.9,7.4c-3.9,0.7-7.4-1.3-8.5-5.3c-2-6.8-3.9-13.7-5.8-20.6c-0.5-1.9-1.1-3.8-1.5-5.7
		c-0.7-3.8,1.6-7.2,5.3-8.2c3.6-1,7.6,0.9,8.7,4.5c2.7,8.8,5.1,17.8,7.6,26.7C249.2,325.8,249.2,326.3,249.2,326.6z"/>
	<path d="M374.4,334.1c-3.3,0-6.1-1.8-7-4.9c-2.5-8.6-5-17.3-7.4-26c-1.1-4.1,1.2-7.9,5.2-9c3.9-1.1,7.8,1,9,5.1
		c2.5,8.4,4.9,16.8,7.2,25.3C382.7,329.7,379.3,334.1,374.4,334.1z"/>
</g>
</svg>
