<?xml version="1.0" encoding="utf-8"?>
<!-- Generator: Adobe Illustrator 24.2.3, SVG Export Plug-In . SVG Version: 6.00 Build 0)  -->
<svg version="1.1" id="Layer_1" fill="#fff" xmlns="http://www.w3.org/2000/svg" xmlns:xlink="http://www.w3.org/1999/xlink" x="0px" y="0px"
	 viewBox="0 0 412 412" style="enable-background:new 0 0 412 412;" xml:space="preserve">
<g>
	<path d="M28.6,345C19,275.4,9.6,206,0,135.9c1.7,0,3,0,4.2,0c11.2,0,22.4-0.1,33.6,0c2.4,0,3.6-0.6,4.8-3
		c6.7-13.5,13.7-26.8,20.5-40.2c1-2,2.1-2.7,4.3-1.8c3.3,1.2,6.8,2,10.9,3.2C77.2,86.2,76,79,74.9,71.8c0-0.2-0.1-0.5-0.2-0.7
		c-1.1-3.8-0.3-6.5,3.5-8.8c7.2-4.4,13.9-9.7,21-14.3c1.7-1.1,4.4-1.6,6.5-1.3c7.6,1.2,15.2,2.8,22.7,4.5c2.5,0.6,3.8,0,5-2.3
		c3.7-7.2,7.7-14.2,11.3-21.5c1.4-2.9,3-3.4,6-2.7c13.7,3.2,27.4,6.1,41.2,9c1.5,0.3,3.1-0.1,4.7-0.1c0.2,0,0.5-0.2,0.7-0.2
		c13.4-2.7,23.5-9.8,30.2-21.9c1.7-3.1,4.3-5.8,6.6-8.8c9.2,4.1,18.3,7.7,27.1,12.1c7.2,3.6,14.6,5.2,22.6,5.3
		c7.5,0.1,14.9,0.6,22.4,1c1.2,0.1,2.4,0.2,4.2,0.4c0,6.6,0.2,13-0.1,19.5c-0.1,3.2,0.9,5,3.8,6.3c4,1.8,7.8,3.9,11.5,6.3
		c1.3,0.8,2.5,2.7,2.7,4.3c0.9,7.8,1.7,15.6,2.2,23.4c0.2,2.6,1.3,3.4,3.5,3.8c3.3,0.7,6.5,1.8,9.8,2.2c3.7,0.4,5.7,2.5,7.8,5.4
		c8.5,11.9,12.9,25.4,16.2,39.4c0.8,3.2,2.3,4,5.4,4c11.5-0.2,22.9-0.1,34.4-0.1c1.3,0,2.7,0,4.5,0c-9.5,69.8-18.9,139.2-28.4,209.2
		c-4.6,0-9.2,0.1-13.7-0.1c-2.8-0.1-3.8,0.7-4.2,3.6c-5.9,36.6-37.9,62.3-75.1,60.6c-33.2-1.5-62.1-27.4-67.2-60.2
		c-0.5-3.1-1.5-4.1-4.7-4c-8.3,0.2-16.7,0.3-25,0c-3.8-0.1-5,1.2-5.7,4.8c-5.9,29.1-23.2,48.4-51.6,56.8
		c-40.5,11.9-83-14.9-90.2-56.4c-0.7-3.9-1.9-5.6-6.1-5.1C36.4,345.4,32.6,345,28.6,345z M44.6,333.3c0.2-1.5,0.5-3,0.7-4.6
		c3.8-36,36-64.5,72.4-63.9c37.3,0.6,67.4,28.4,71,65.7c0.2,2.5,1.2,3.4,3.7,3.4c7.5-0.1,14.9,0,22.4,0c7.5,0,7.5,0,8.5-7.5
		c4.7-35.1,36.7-62.3,72.1-61.5c37.2,0.8,67,28.3,71,65.4c0.2,2.3,0.6,3.7,3.3,3.7c2.5,0,4.1-0.3,4.5-3.4
		c2.6-20.1,5.4-40.2,8.2-60.3c4.7-34.3,9.4-68.6,14-102.8c0.9-6.5,1.7-13,2.6-19.7c-128.9,0-257.3,0-386,0c0.5,3.8,0.9,7.1,1.3,10.4
		c3.8,28.5,7.7,57,11.6,85.5c3.8,28.4,7.7,56.7,11.6,85.1C38.3,334.3,38.3,334.5,44.6,333.3z M356.6,135.7c0-0.6,0.1-1,0-1.3
		c-2.9-12.1-6.3-24.1-14-34.3c-0.9-1.1-2.4-2.1-3.8-2.5c-5.2-1.4-10.4-2.6-15.6-3.6c-2.5-0.5-3.2-1.8-3.3-4
		c-0.7-8.4-1.6-16.9-2.1-25.3c-0.2-2.3-1.1-3.6-3-4.6c-4.4-2.3-8.7-4.8-13.2-7.1c-1.9-1-2.7-2.1-2.6-4.3c0.2-4.4-0.1-8.7,0.1-13.1
		c0.1-2.7-0.6-3.8-3.5-3.9c-6.2-0.1-12.5-0.3-18.6-1c-4.5-0.5-9-1.5-13.3-3c-5.7-2-11.2-4.8-16.8-7.3c-9-4-9.3-4.2-14.9,4.1
		c-5.3,7.9-11.3,14.2-21.2,16.1c-4.4,0.8-8.4,3-12.7,4.2c-1.8,0.5-3.9,0.7-5.8,0.3c-12.1-2.5-24.1-5.1-36.1-7.9
		c-2.8-0.7-4,0.1-5.2,2.5c-3.8,7.4-7.8,14.7-11.6,22.1c-1,1.9-1.9,2.4-4.1,2c-9.4-2-18.8-3.8-28.2-5.6c-1.3-0.2-3,0-4.1,0.7
		c-5,3.2-9.9,6.6-14.7,10.2c-0.9,0.7-1.7,2.5-1.6,3.6c0.8,6.4,1.9,12.8,2.9,19.2c0.9,5.8,1.8,11.6,2.8,18c-6.6-2-12.6-3.7-18.5-5.6
		c-2.5-0.8-4-0.5-5.3,2.1c-4,8.2-8.3,16.2-12.5,24.2c-0.7,1.4-1.3,2.9-2.1,4.7C155.2,135.7,255.8,135.7,356.6,135.7z M294.5,397.9
		c33.5,0,61-27.5,60.9-60.9c0-33.5-27.5-60.9-60.9-60.9c-33.5,0-60.9,27.4-60.9,60.9C233.5,370.5,261,398,294.5,397.9z M116.9,397.9
		c34.1-0.2,61-27.4,60.8-61.6c-0.2-33.4-27.8-60.4-61.5-60.2C83,276.4,56,303.9,56.2,337.4C56.3,370.8,83.7,398.1,116.9,397.9z"/>
	<path d="M243.9,271c-3.8,0-7.1,0-11,0c0-1.6,0-3.1,0-4.5c0-23.9-0.1-47.8,0.1-71.7c0-3.2-0.7-4.4-4.1-4.3
		c-14.4,0.2-28.9,0.2-43.3,0c-3.3,0-4.3,1-4.2,4.2c0.1,23.8,0.1,47.6,0.1,71.4c0,5.2,0,5.2-5.3,5.2c-1.8,0-3.6,0-5.7,0
		c0-30.8,0-61,0-91.6c24.4,0,48.9,0,73.5,0C243.9,210,243.9,240.3,243.9,271z"/>
	<path d="M294.2,251.4c-4,0-7.4,0-10.9,0c0-24,0-47.8,0-71.9c24.8,0,49.4,0,74.4,0c-0.4,5.3-0.7,10.3-1.1,15.4
		c-2,24.4-4,48.9-5.8,73.3c-0.2,2.7-1,3.8-3.8,3.3c-2.4-0.4-4.9-0.6-7.8-0.9c2.1-26.6,4.2-53.1,6.3-79.8c-1.7-0.1-3-0.2-4.2-0.2
		c-14.2,0-28.4,0.1-42.6-0.1c-3.7-0.1-4.6,1.2-4.5,4.7c0.2,17.2,0.1,34.4,0.1,51.5C294.2,248.2,294.2,249.6,294.2,251.4z"/>
	<path d="M56,179.5c25,0,49.5,0,74.2,0c0,24,0,47.8,0,71.9c-3.6,0-7,0-10.9,0c0-1.6,0-3,0-4.5c0-17.6,0-35.1,0-52.7
		c0-2.3-0.3-3.7-3.2-3.7c-15.1,0.1-30.1,0-45.2,0.1c-0.8,0-1.7,0.3-2.9,0.5c1.9,26.5,3.8,52.9,5.6,79.7c-3.9,0.3-7.3,0.6-11.3,1
		C60.3,241,58.2,210.5,56,179.5z"/>
	<path d="M208.2,69.6c5.9-7.3,11.6-14.4,17.4-21.4c0.6-0.7,2-1.2,2.8-1c9.3,1.9,18.6,4,28.4,6.2c-0.8,3.7-1.5,7.1-2.4,11
		c-6.3-1.4-12.4-2.5-18.4-4.1c-3.6-1-5.9-0.3-8.1,2.8c-3.3,4.6-7.1,8.9-10.9,13.6C214.1,74.3,211.3,72.1,208.2,69.6z"/>
	<path d="M173.4,84.6c-2,3.3-3.8,6.4-5.7,9.7c-5.6-3.3-11-6.2-16.2-9.6c-3.1-2-5.4-2.3-8.6,0c-4.5,3.4-9.5,6.2-14.7,9.5
		c-2.1-3.2-4-6.2-6.1-9.5c7.9-5.1,15.5-10,23.3-14.9c0.7-0.4,2.1-0.5,2.7-0.1C156.5,74.6,164.8,79.5,173.4,84.6z"/>
	<path d="M293.7,112.5c-3.4-2.2-6.6-4.1-9.6-6.2c-1.7-1.1-3-1.3-4.7-0.1c-2.8,1.9-5.7,3.4-9,5.3c-1.9-3.3-3.7-6.4-5.7-9.8
		c5.6-3.3,10.9-6.4,16.2-9.4c0.6-0.3,1.8-0.2,2.4,0.1c5.4,3.4,10.8,6.9,16.5,10.6C297.7,106.2,295.8,109.2,293.7,112.5z"/>
	<path d="M210.3,108.2c-2.1,3.3-4,6.3-6.3,9.8c-5.4-5.7-10.9-7.1-16.9-0.8c-2.2-3.6-4-6.7-5.9-10c4.5-2.7,8.9-5.3,13.3-7.8
		c0.6-0.4,1.9-0.2,2.6,0.2C201.4,102.3,205.6,105.1,210.3,108.2z"/>
	<path d="M294.5,368.3c-17.4,0-31.5-14.1-31.4-31.3c0.1-17.3,14.2-31.3,31.6-31.3c17.1,0,31.1,14,31.1,31.2
		C325.8,354.4,311.9,368.3,294.5,368.3z M274.5,337.3c0,10.9,9.2,19.9,20.1,19.9c10.9-0.1,19.9-9.2,19.9-20.1
		c0-11.1-9.1-20.1-20.3-20C283.2,317.2,274.5,326.2,274.5,337.3z"/>
	<path d="M116.9,368.3c-17.5,0-31.3-13.9-31.2-31.4c0.1-17.3,14.2-31.3,31.5-31.2c17.3,0.1,31.1,14.3,31,31.7
		C148.1,354.6,134.2,368.3,116.9,368.3z M117.3,317.1c-11.2-0.2-20.4,8.8-20.4,19.9c-0.1,10.8,9,20.1,19.9,20.2
		c10.8,0.1,20.1-9,20.2-19.8C137.2,326.4,128.3,317.3,117.3,317.1z"/>
</g>
</svg>
