<?xml version="1.0" encoding="utf-8"?>
<!-- Generator: Adobe Illustrator 24.2.3, SVG Export Plug-In . SVG Version: 6.00 Build 0)  -->
<svg version="1.1" id="Layer_1" fill="#fff" xmlns="http://www.w3.org/2000/svg" xmlns:xlink="http://www.w3.org/1999/xlink" x="0px" y="0px"
	 viewBox="0 0 412 412" style="enable-background:new 0 0 412 412;" xml:space="preserve">
<g>
	<path d="M61,205.3c0-50.1,0-100.2-0.1-150.3c0-2.2-1.5-5.1-3.3-6.6c-9.6-7.8-13.3-19.3-9.4-30.7C51.8,7.1,61.9,0,73.9,0
		C162,0,250,0,338.1,0c12.1,0,22,6.9,25.7,17.6c3.9,11.4,0.4,23.2-9.5,30.5c-2.7,2-3.3,4.1-3.3,7.2c0.1,76.6,0.1,153.2,0.1,229.8
		c0,23.4,0,46.9-0.2,70.3c0,3.6,0.7,6.1,4,8.5c9.3,6.7,12.7,19.3,8.8,30.4c-3.6,10.5-14.2,17.6-26.4,17.6c-86.7,0-173.5-0.1-260.2,0
		c-10.8,0-19.9-2.9-26.1-12.3c-7.7-11.6-5.1-27.4,6-35.7c2.9-2.2,4-4.4,4-7.9C61,305.8,61,255.5,61,205.3
		C61,205.3,61,205.3,61,205.3z M331.3,54c-83.8,0-167.2,0-250.6,0c0,7.4,0,14.3,0,21.9c5.2,0,10.1,0,14.9,0c26,0,52-0.1,77.9-0.1
		c8,0,12.7,6.5,9.9,13.6c-1.9,4.7-5.8,6-10.6,6c-28.9-0.1-57.7,0-86.6,0c-1.8,0-3.6,0-5.6,0c0,87.9,0,175.1,0,262.5
		c83.7,0,167.1,0,250.4,0c0-7.7,0-14.9,0-22.5c-2,0-3.7,0-5.3,0c-28.2,0-56.3,0-84.5,0c-2.8,0-5.8-0.1-8.4-1.1
		c-4-1.6-6-6.7-4.9-11.1c1.1-4.7,4.6-7.2,10.2-7.2c28.3,0,56.7,0,85,0c2.6,0,5.2,0,8.1,0C331.3,228.4,331.3,141.4,331.3,54z
		 M205.8,33.7c42.9,0,85.7,0,128.6,0c1.7,0,3.8,0.6,5-0.2c2.4-1.5,5.6-3.6,5.9-5.8c0.4-2.2-1.9-5.4-3.9-7.1
		c-1.5-1.3-4.4-1.1-6.8-1.1c-85.7,0-171.4,0-257.1,0c-2,0-4.6-0.4-5.9,0.6c-2.2,1.9-4.7,4.6-4.9,7.2c-0.3,3.5,2.5,6.1,6.5,6.3
		c1.5,0.1,3,0,4.6,0C120.4,33.7,163.1,33.7,205.8,33.7z M206,392.1c42.9,0,85.7,0,128.6,0c7.4,0,11.3-2.5,11.1-7.2
		c-0.1-4.8-3.8-7-11.4-7c-85.7,0-171.4,0-257.1,0c-1.5,0-3.1-0.2-4.5,0.2c-3.8,0.9-6.5,3.3-6.2,7.4c0.3,4,2.9,6.3,7,6.6
		c1.8,0.1,3.7,0.1,5.6,0.1C121.3,392.1,163.7,392.1,206,392.1z"/>
	<path d="M208.3,291.8c-45.3-0.7-75.8-42-61.1-84.4c8.4-24.3,22-45.7,37.1-66.2c4.4-6,9-11.7,13.7-17.4c4.4-5.4,11.3-5.5,15.7-0.1
		c18.8,23,35.8,47.2,47.5,74.7c7.9,18.6,10.7,37.5,1.5,56.6C251.4,278.9,231.8,290.4,208.3,291.8z M206.9,145.8
		c-1.2,0.5-1.6,0.6-1.8,0.8c-14.6,19.6-28.5,39.6-37.6,62.5c-8.7,21.8-3.6,42.2,13.9,54.9c13.7,10,33.3,10.5,47.5,1.2
		c15.3-10,22.6-27.2,18.8-44.5c-3.4-15.3-10.7-28.9-19-42C221.7,167.5,214.1,156.7,206.9,145.8z"/>
</g>
</svg>
