<?xml version="1.0" encoding="utf-8"?>
<!-- Generator: Adobe Illustrator 24.2.3, SVG Export Plug-In . SVG Version: 6.00 Build 0)  -->
<svg version="1.1" id="Layer_1" fill="#fff" xmlns="http://www.w3.org/2000/svg" xmlns:xlink="http://www.w3.org/1999/xlink" x="0px" y="0px"
	 viewBox="0 0 412 412" style="enable-background:new 0 0 412 412;" xml:space="preserve">
<g>
	<path d="M0,320.9c3.8-26.2,19.6-45.2,38-62.8c13.9-13.3,27.2-27.3,40.1-41.5c2.5-2.8,4.1-8.1,3.4-11.8c-5-27.3,0.3-51.8,19.7-72
		c34.6-36.3,69.3-72.4,104.7-107.9c23.2-23.2,51.9-29.8,83-19.9c30.2,9.6,49.8,30.8,55.8,62.2c5.1,26.2-0.8,50.3-19.5,70.4
		c-10.1,10.9-20.6,21.5-29,30.2c14-0.9,29.9-4.1,45.1-2.4c36.2,4.2,62.7,31.2,69,67.2c0.3,1.4,1,2.8,1.6,4.1c0,6.7,0,13.4,0,20.1
		c-4.7,19.9-14,37.1-28.8,51.7c-25.3,25.2-50,51.1-74.8,76.8c-12,12.4-26.2,20.8-43.1,24.6c-4.4,1-8.9,1.7-13.3,2.5
		c-1.8,0-3.7,0-5.5,0c-9.5-2.1-19.3-3.2-28.4-6.5c-22.7-8.3-38.1-24.7-47.9-47.6c-3.7,3.9-6.9,7-9.9,10.4
		c-18.2,20.5-37.7,39-66.4,43.7c-6.1,0-12.3,0-18.4,0c-1.4-0.5-2.8-1.3-4.3-1.4c-23.7-2.7-42.5-14.3-55.4-33.6
		C8.6,366.6,5.2,353.3,0,341.1C0,334.4,0,327.7,0,320.9z M245.3,189.6c1.6-1,2.5-1.3,3.1-1.8c20.6-21.3,41.8-42,61.7-63.9
		c22.9-25.2,21.1-63-3-85.5c-25.5-23.8-62.6-23.4-87.5,1.2c-13.2,13.1-25.9,26.8-38.9,40.2c-7.8,8-15.6,16-23.8,24.5
		C218.8,115.4,241.1,136.9,245.3,189.6z M330.6,327.1c13.6-12.2,29.8-24.8,43.8-39.6c24.2-25.5,22.7-62.5-2-86
		c-25.4-24.2-62.9-23.7-88.1,1.3c-13.2,13.1-26,26.7-38.9,40.1c-1.1,1.1-1.7,2.6-2.7,4.3C296.2,250,318.1,270.9,330.6,327.1z
		 M224.4,188.1c0.1-34.5-27.4-62.4-62-62.7c-33.4-0.3-62.3,28-62.7,61.5c-0.4,33.7,28.2,62.4,62.5,62.6
		C196.4,249.6,224.3,222.1,224.4,188.1z M145.2,330.5c0.2-33.9-28.1-62.1-62.4-62.3C49.2,268,20.7,296,20.4,329.5
		c-0.3,33.9,27.8,62.3,62,62.7C116.6,392.6,145,364.6,145.2,330.5z M185.7,329.5c-0.1,34.2,27.9,62.2,62.2,62.3
		c33.8,0.1,62.6-28.6,62.5-62.3c-0.1-33.4-28.4-61.4-62.2-61.5C213.5,267.7,185.8,295,185.7,329.5z M165.4,316.5
		c3.5-21.8,16.4-38,31.3-53.1C175.5,270.1,160.9,294.8,165.4,316.5z M108,251.2c0.1-0.9,0.1-1.8,0.2-2.7c-6.9-1.1-13.8-2.3-20.7-3.4
		c2.5-3.8,5-7.5,7.5-11.3c-0.4-0.1-0.8-0.1-1.1-0.2c-5,4.5-10.1,8.9-15.2,13.4C88.5,248.4,98.2,249.8,108,251.2z M137.3,266.6
		c7.5,10,15,20.1,22.5,30.2C154.3,279.9,145.9,268.7,137.3,266.6z"/>
	<path d="M124.6,192.9c0.1-20.4,15.8-35.9,36.1-35.7c20.2,0.3,36.3,16.2,36.2,36c-0.1,19.7-16.7,36.1-36.4,36
		C140.4,229.1,124.4,212.9,124.6,192.9z M160.4,211.1c10.5,0.1,18.6-8,18.4-18.4c-0.1-9.7-8.6-18.1-18.1-18.1c-9.9,0-19,9-18.8,18.6
		C142.2,202.6,150.8,211,160.4,211.1z"/>
	<path d="M90.4,354.5c-20.5-0.1-36-15.3-36.2-35.6c-0.2-19.7,16-36.1,35.9-36.2c20.1-0.2,37,16.6,36.8,36.4
		C126.7,338.9,110.5,354.6,90.4,354.5z M108.7,318.8c0-10.3-8.3-18.2-18.8-18.1c-9.9,0.2-18.1,8.3-18,18.1c0,9.3,8.8,18.2,18.1,18.4
		C100.2,337.5,108.7,329.1,108.7,318.8z"/>
	<path d="M236,354.1c-20.8-0.1-36.5-15.8-36.3-36.4c0.3-20.1,16.1-35.5,36.4-35.4c20,0.2,36.2,16.3,36.1,36
		C272.1,338.3,256,354.2,236,354.1z M254,318.1c-0.1-9.6-8.4-18.1-18-18.2c-10.1-0.1-18.9,8.7-18.7,18.6c0.2,9.3,8.9,18.1,18.3,18.3
		C245.6,336.9,254,328.3,254,318.1z"/>
</g>
</svg>
