<svg fill="#fff" id="Layer_2" data-name="Layer 2" xmlns="http://www.w3.org/2000/svg" viewBox="0 0 400 512"><title>14</title><path d="M339.3,544.5a10,10,0,0,1-2-.19L107.16,500.4a10.06,10.06,0,0,1-8.27-9.8V285a9.91,9.91,0,0,1,3.68-7.67,10.44,10.44,0,0,1,8.39-2.15l230.17,40.92a10,10,0,0,1,8.4,9.82V534.52a9.88,9.88,0,0,1-3.73,7.7A10.34,10.34,0,0,1,339.3,544.5ZM119.35,482.39l209.72,40V334.25L119.35,297Z" transform="translate(-81.5 -32.5)"/><path d="M344.64,543,334,526,461,450.08V268.42l-116.6,66.14L334.16,317.3l132-74.85a10.43,10.43,0,0,1,10.24,0,9.94,9.94,0,0,1,5.13,8.65v204.6a9.91,9.91,0,0,1-4.89,8.51Z" transform="translate(-81.5 -32.5)"/><path d="M361.87,365.93a10.27,10.27,0,0,1-8.74-4.78,9.84,9.84,0,0,1,3.4-13.72l85.83-51.07a10.38,10.38,0,0,1,14.06,3.33A9.83,9.83,0,0,1,453,313.4l-85.82,51.07A10.39,10.39,0,0,1,361.87,365.93Z" transform="translate(-81.5 -32.5)"/><path d="M362.89,406.85a10.28,10.28,0,0,1-8.74-4.78,9.84,9.84,0,0,1,3.41-13.72l85.82-51.07a10.37,10.37,0,0,1,14.06,3.33,9.83,9.83,0,0,1-3.4,13.71l-85.83,51.07A10.36,10.36,0,0,1,362.89,406.85Z" transform="translate(-81.5 -32.5)"/><path d="M362.89,448.77a10.28,10.28,0,0,1-8.74-4.78,9.84,9.84,0,0,1,3.41-13.72l85.82-51.07a10.38,10.38,0,0,1,14.06,3.32,9.84,9.84,0,0,1-3.4,13.72l-85.83,51.07A10.36,10.36,0,0,1,362.89,448.77Z" transform="translate(-81.5 -32.5)"/><path d="M361.87,491.69a10.26,10.26,0,0,1-8.74-4.79,9.83,9.83,0,0,1,3.4-13.71l85.83-51.07a10.36,10.36,0,0,1,14.06,3.32A9.84,9.84,0,0,1,453,439.16l-85.82,51.07A10.39,10.39,0,0,1,361.87,491.69Z" transform="translate(-81.5 -32.5)"/><path d="M109.11,295a10.38,10.38,0,0,1-6.18-2,9.82,9.82,0,0,1-2-14L192,162.19a10.4,10.4,0,0,1,14.33-1.9,9.82,9.82,0,0,1,1.95,14l-91,116.77A10.3,10.3,0,0,1,109.11,295Z" transform="translate(-81.5 -32.5)"/><path d="M339.31,330.92a10.55,10.55,0,0,1-2.77-.37,10,10,0,0,1-7.09-12.31l36.74-127.76L234.53,172.13a10,10,0,0,1-8.68-11.29,10.19,10.19,0,0,1,11.57-8.47l143.22,20a10.24,10.24,0,0,1,7.13,4.43,9.79,9.79,0,0,1,1.28,8.14l-39.9,138.73A10.2,10.2,0,0,1,339.31,330.92Z" transform="translate(-81.5 -32.5)"/><path d="M252.33,272.8a59,59,0,0,1-10-.92,10.17,10.17,0,0,1-7.66-6L171.86,117,87.78,82.63a10.11,10.11,0,0,1-5.71-5.91,9.82,9.82,0,0,1,.69-8.1l17.39-30.94a10.36,10.36,0,0,1,13.17-4.3l91,39.92a10.14,10.14,0,0,1,5.24,5.23l70.59,163.68a9.88,9.88,0,0,1,.75,2.93c.13,1.27.95,12.64-8,20.72C267.76,270.48,260.87,272.8,252.33,272.8Zm-1-20c3.62.12,6.37-.44,7.71-1.64a5.42,5.42,0,0,0,1.45-3.17L192.3,89.9,113.55,55.36,106.17,68.5l77.49,31.64a10.11,10.11,0,0,1,5.51,5.41Z" transform="translate(-81.5 -32.5)"/><path d="M471.26,261.05a10.31,10.31,0,0,1-6.21-2.06L373,190.13a9.91,9.91,0,0,1-4-7.92V161.32a17,17,0,0,0-15.38-16.78l-131-14.29a10,10,0,0,1-9-11,10.18,10.18,0,0,1,11.31-8.81l131,14.3c19.13,2.08,33.56,17.82,33.56,36.61v16l88.06,65.87a9.82,9.82,0,0,1,1.9,14A10.31,10.31,0,0,1,471.26,261.05Z" transform="translate(-81.5 -32.5)"/><polygon points="104.13 85.31 87.79 73.3 110.5 43.9 126.84 55.91 104.13 85.31"/><path d="M215.07,486.61c-16.91,0-32.58-8.64-44.12-24.34-10.8-14.69-16.75-34-16.75-54.51s6-39.82,16.75-54.51c11.54-15.69,27.21-24.33,44.12-24.33,14.4,0,28.33,6.52,39.22,18.36a9.82,9.82,0,0,1-.78,14.1,10.41,10.41,0,0,1-14.45-.77c-4.92-5.35-13.08-11.73-24-11.73-21.9,0-40.41,27-40.41,58.88s18.51,58.89,40.41,58.89c7.5,0,14.86-3.13,21.3-9a10.41,10.41,0,0,1,14.46.42,9.81,9.81,0,0,1-.43,14.11C240.09,481.6,227.88,486.61,215.07,486.61Z" transform="translate(-81.5 -32.5)"/></svg>