<svg fill="#fff" id="Layer_1" data-name="Layer 1" xmlns="http://www.w3.org/2000/svg" viewBox="0 0 512 512"><title>5</title><path d="M128.78,557.59a8.22,8.22,0,0,1-5.51-2.15A10.2,10.2,0,0,1,122,542l39.31-53c8.66-11.68,23.17-16.11,36.1-11l133,52.19a35.54,35.54,0,0,0,34.44-4.85L533.38,399.18a11.75,11.75,0,0,0,3.27-14.27,10.33,10.33,0,0,0-6-5.49,9.3,9.3,0,0,0-7.82.88l-91.36,54.87c-5,3-26.74,18.21-31.64,15s9-15,6-30.06c-2.52-12.64-2-14-15-14l-244.72.15a29.09,29.09,0,0,0-23.43,12.26L58.85,505a8.24,8.24,0,0,1-12.31,1.43A10.21,10.21,0,0,1,45.24,493L109,406.54c9.08-12.31,22.59-19.37,37-19.37H395.46c15.6,0,28.44,13.16,29.74,29.87l89.18-53.54a25.27,25.27,0,0,1,21.31-2.42,28.15,28.15,0,0,1,16.49,15c6.44,13.57,2.61,30.31-8.92,38.94L374.77,541.12a51.82,51.82,0,0,1-50.22,7.06L191.5,496a14.14,14.14,0,0,0-16.62,5.08l-39.3,53A8.48,8.48,0,0,1,128.78,557.59Z" transform="translate(-43.29 -45.59)"/><path d="M393.19,452.35h-83.4c-5.52,0-10-4.81-10-10.74s4.48-10.73,10-10.73h83.4c6.4,0,11.6-5.59,11.6-12.46h20v3.87a11.35,11.35,0,0,1-1,4.76C420.2,441.59,407.84,452.35,393.19,452.35Z" transform="translate(-43.29 -45.59)"/><path d="M414.47,117.12a8.63,8.63,0,0,1-2.07-.26,8.45,8.45,0,0,1-6-6,22.65,22.65,0,0,0-16-16,22.16,22.16,0,0,0-21.55,6.19,8.25,8.25,0,0,1-8,2.31,8.43,8.43,0,0,1-6-5.93,40.52,40.52,0,0,1-.26-20.66C360,55.58,381.27,42.68,402.15,48.1a38.9,38.9,0,0,1,23.94,18.28,40.28,40.28,0,0,1,4.27,30.18h0a40,40,0,0,1-9.93,18A8.28,8.28,0,0,1,414.47,117.12ZM385,77.25a38.27,38.27,0,0,1,9.59,1.22,39,39,0,0,1,19.91,12.61,23.06,23.06,0,0,0-2.72-16,22.22,22.22,0,0,0-40.6,4.76A38.58,38.58,0,0,1,385,77.25Z" transform="translate(-43.29 -45.59)"/><path d="M300.72,233.5c-47.93,0-86.93-39.78-86.93-88.67s39-88.66,86.93-88.66,86.93,39.77,86.93,88.66S348.65,233.5,300.72,233.5Zm0-160.32c-38.74,0-70.25,32.15-70.25,71.65s31.51,71.65,70.25,71.65S371,184.34,371,144.83,339.45,73.18,300.72,73.18Z" transform="translate(-43.29 -45.59)"/><path d="M377.5,167.84c-25.67-1.57-51.24-28.08-63.69-43-9.95,12.64-26.52,24.29-30.63,27.08a8.2,8.2,0,0,1-8.56.42,8.54,8.54,0,0,1-4.41-7.5V139a118.65,118.65,0,0,1-16.89,13.54,173.53,173.53,0,0,1-26.7,14.7l-6.37-15.72c12.53-5.3,46-23.43,50.15-43.38a8.36,8.36,0,0,1,9-6.68,8.45,8.45,0,0,1,7.46,8.46v18c8.53-7.14,16.46-15.19,17.9-20.34a8.41,8.41,0,0,1,6.58-6,8.28,8.28,0,0,1,8.2,3.4c8.74,12.31,36.36,44.57,58.93,46Z" transform="translate(-43.29 -45.59)"/><path d="M399.48,365H202a8.39,8.39,0,0,1-8.2-6.93,100,100,0,0,1-1.63-18c0-43.91,29-83.32,72.13-98.07a113.54,113.54,0,0,1,72.93,0c43.14,14.74,72.12,54.15,72.12,98.06a100,100,0,0,1-1.63,18A8.39,8.39,0,0,1,399.48,365ZM209.19,348H392.25c.25-2.63.38-5.29.38-8,0-36.59-24.41-69.52-60.75-81.93a97.29,97.29,0,0,0-62.32,0c-36.34,12.42-60.75,45.35-60.75,81.94C208.81,342.66,208.93,345.32,209.19,348Z" transform="translate(-43.29 -45.59)"/><path d="M300.72,287.87c-21.06,0-38.75-15.37-42.05-36.54a8.52,8.52,0,0,1,5.58-9.4,113.48,113.48,0,0,1,72.94,0,8.52,8.52,0,0,1,5.58,9.4C339.46,272.5,321.78,287.87,300.72,287.87Zm-23.44-32.1a25.75,25.75,0,0,0,46.87,0,98.11,98.11,0,0,0-46.87,0Z" transform="translate(-43.29 -45.59)"/><path d="M186.88,118.4a8.29,8.29,0,0,1-5.21-1.86,39.77,39.77,0,0,1-12-16.65,40.34,40.34,0,0,1,.65-30.49,39.15,39.15,0,0,1,21.59-21.1c20.08-8,42.77,2.21,50.58,22.69h0a40.62,40.62,0,0,1,2.2,20.54,8.48,8.48,0,0,1-5.23,6.62,8.21,8.21,0,0,1-8.24-1.3,22.07,22.07,0,0,0-22.11-3.48,22.78,22.78,0,0,0-14,17.81,8.48,8.48,0,0,1-5.21,6.64A8.2,8.2,0,0,1,186.88,118.4Zm19.19-55.8a21.83,21.83,0,0,0-8.1,1.56A22.43,22.43,0,0,0,185.6,76.25a23.09,23.09,0,0,0-.81,16.24,39.25,39.25,0,0,1,18.28-15A38.33,38.33,0,0,1,226.46,76,22.43,22.43,0,0,0,206.07,62.6Z" transform="translate(-43.29 -45.59)"/></svg>