<svg fill="#fff" id="Layer_2" data-name="Layer 2" xmlns="http://www.w3.org/2000/svg" viewBox="0 0 512 512"><title>6</title><path d="M543.88,226.54H51.12a9.63,9.63,0,0,1-5.26-17.69L294.4,46.57a9.6,9.6,0,0,1,10.58,0L549.2,208.9a9.62,9.62,0,0,1-5.32,17.64ZM83.47,207.29H512L299.61,66.15Z" transform="translate(-41.5 -45)"/><path d="M496.41,557H101.18a9.63,9.63,0,0,1-9.63-9.62V216.91H110.8V537.75h376V216.91H506V547.38A9.63,9.63,0,0,1,496.41,557Z" transform="translate(-41.5 -45)"/><path d="M110.8,184.23H91.55V80.69a9.63,9.63,0,0,1,9.63-9.62h61.27a9.62,9.62,0,0,1,9.62,9.62v63.53H152.82V90.32h-42Z" transform="translate(-41.5 -45)"/><path d="M299.66,191.22c-22,0-39.83-17.52-39.83-39.05s17.87-39.06,39.83-39.06,39.82,17.52,39.82,39.06S321.62,191.22,299.66,191.22Zm0-58.86c-11.35,0-20.58,8.88-20.58,19.81s9.23,19.8,20.58,19.8,20.58-8.88,20.58-19.8S311,132.36,299.66,132.36Z" transform="translate(-41.5 -45)"/><path d="M399.31,307.83a7.25,7.25,0,0,1-1.79-.22,7.18,7.18,0,0,1-5.14-5A19.34,19.34,0,0,0,360,294.4a7.21,7.21,0,0,1-12.07-3,33.13,33.13,0,0,1-.23-17.37,33.78,33.78,0,0,1,61.66-8.83A33.07,33.07,0,0,1,413,290.54h0a33.3,33.3,0,0,1-8.56,15.14A7.26,7.26,0,0,1,399.31,307.83ZM373.84,274.3a33.67,33.67,0,0,1,25.47,11.63,19.21,19.21,0,0,0-14.2-22.27,19.36,19.36,0,0,0-23.19,12.8A34.07,34.07,0,0,1,373.84,274.3Z" transform="translate(-41.5 -45)"/><path d="M301.14,405.69c-41.36,0-75-33.45-75-74.56s33.66-74.55,75-74.55,75,33.44,75,74.55S342.51,405.69,301.14,405.69Zm0-134.81c-33.43,0-60.62,27-60.62,60.25s27.19,60.25,60.62,60.25,60.62-27,60.62-60.25S334.57,270.88,301.14,270.88Z" transform="translate(-41.5 -45)"/><path d="M367.4,350.48c-22.15-1.32-44.22-23.62-55-36.17-8.59,10.63-22.89,20.42-26.44,22.77a7.2,7.2,0,0,1-11.19-5.95V326.2a101.58,101.58,0,0,1-14.57,11.39,152.14,152.14,0,0,1-23,12.36l-5.5-13.22c10.81-4.46,39.66-19.7,43.27-36.48a7.2,7.2,0,0,1,14.24,1.5v15.14c7.36-6,14.2-12.77,15.44-17.1a7.22,7.22,0,0,1,12.76-2.23C325,307.91,348.78,335,368.26,336.2Z" transform="translate(-41.5 -45)"/><path d="M386.37,516.23H215.91a7.18,7.18,0,0,1-7.07-5.83,81.21,81.21,0,0,1-1.41-15.16c0-36.93,25-70.07,62.24-82.47a100.58,100.58,0,0,1,62.94,0c37.23,12.4,62.24,45.54,62.24,82.47a81.21,81.21,0,0,1-1.41,15.16A7.18,7.18,0,0,1,386.37,516.23Zm-164.22-14.3h158q.33-3.33.33-6.69c0-30.77-21.07-58.46-52.43-68.9a85.85,85.85,0,0,0-53.78,0c-31.36,10.44-52.43,38.13-52.43,68.9Q221.82,498.6,222.15,501.93Z" transform="translate(-41.5 -45)"/><path d="M301.14,451.41a36.51,36.51,0,0,1-36.29-30.73,7.17,7.17,0,0,1,4.82-7.91,100.58,100.58,0,0,1,62.94,0,7.16,7.16,0,0,1,4.82,7.91A36.5,36.5,0,0,1,301.14,451.41Zm-20.22-27a22.46,22.46,0,0,0,40.44,0,86.38,86.38,0,0,0-40.44,0Z" transform="translate(-41.5 -45)"/><path d="M202.9,308.9a7.21,7.21,0,0,1-4.49-1.56,33.51,33.51,0,0,1-10.35-14,33.06,33.06,0,0,1,.56-25.64A33.41,33.41,0,0,1,207.25,250,33.82,33.82,0,0,1,250.9,269h0a33.28,33.28,0,0,1,1.9,17.27,7.2,7.2,0,0,1-11.62,4.47,19.46,19.46,0,0,0-19.09-2.92,19.22,19.22,0,0,0-12.07,15,7.2,7.2,0,0,1-7.12,6.07ZM219.46,262a19.51,19.51,0,0,0-7,1.3,19.2,19.2,0,0,0-11.37,23.83,33.68,33.68,0,0,1,36-13.91A19.38,19.38,0,0,0,219.46,262Z" transform="translate(-41.5 -45)"/></svg>