<svg xmlns="http://www.w3.org/2000/svg" viewBox="0 0 102 101" width="102" height="101">
	<style>
		tspan { white-space:pre }
		.shp0 { fill: #feb018 } 
	</style>
	<g id="scale">
		<path id="Shape 8 copy" class="shp0" d="M95.32 88.77L82.86 82.44C81.41 81.71 80.36 80.37 79.99 78.8L65.18 16.04C61.71 1.37 40.73 1.37 37.26 16.04L22.45 78.8C22.08 80.37 21.03 81.71 19.58 82.44L7.12 88.77C1.95 91.4 3.82 99.17 9.63 99.17L51.22 99.17L92.81 99.17C98.62 99.17 100.49 91.4 95.32 88.77ZM51.22 38.15C49.6 38.15 48.28 36.85 48.28 35.23C48.28 33.62 49.6 32.31 51.22 32.31C52.84 32.31 54.16 33.62 54.16 35.23C54.16 36.85 52.84 38.15 51.22 38.15Z" />
	</g>
</svg>