<?xml version="1.0" encoding="utf-8"?>
<!-- Generator: Adobe Illustrator 23.0.5, SVG Export Plug-In . SVG Version: 6.00 Build 0)  -->
<svg version="1.1" id="Layer_1" fill="#fff" xmlns="http://www.w3.org/2000/svg" xmlns:xlink="http://www.w3.org/1999/xlink" x="0px" y="0px"
	 viewBox="0 0 512 512" style="enable-background:new 0 0 512 512;" xml:space="preserve">
<style type="text/css">
	.st0{fill:#fff;}
</style>
<g>
	<path class="st0" d="M504.5,400.18c-4.14,0-7.5,3.36-7.5,7.5V417c0,14.61-11.89,26.5-26.5,26.5h-429C26.89,443.5,15,431.61,15,417
		V223.68c0-4.14-3.36-7.5-7.5-7.5s-7.5,3.36-7.5,7.5V417c0,22.88,18.62,41.5,41.5,41.5h429c22.88,0,41.5-18.62,41.5-41.5v-9.32
		C512,403.54,508.64,400.18,504.5,400.18z"/>
	<path class="st0" d="M470.5,53.5h-22.35c-4.14,0-7.5,3.36-7.5,7.5s3.36,7.5,7.5,7.5h22.35c14.61,0,26.5,11.89,26.5,26.5v38.5H15V95
		c0-14.61,11.89-26.5,26.5-26.5h374.28c4.14,0,7.5-3.36,7.5-7.5s-3.36-7.5-7.5-7.5H41.5C18.62,53.5,0,72.12,0,95v96.48
		c0,4.14,3.36,7.5,7.5,7.5s7.5-3.36,7.5-7.5V148.5h482v226.99c0,4.14,3.36,7.5,7.5,7.5s7.5-3.36,7.5-7.5V95
		C512,72.12,493.38,53.5,470.5,53.5L470.5,53.5z"/>
	<path class="st0" d="M40.5,100.67c0,12.96,10.54,23.5,23.5,23.5s23.5-10.54,23.5-23.5S76.96,77.17,64,77.17S40.5,87.71,40.5,100.67
		z M72.5,100.67c0,4.69-3.81,8.5-8.5,8.5s-8.5-3.81-8.5-8.5s3.81-8.5,8.5-8.5S72.5,95.99,72.5,100.67z"/>
	<path class="st0" d="M97.5,100.67c0,12.96,10.54,23.5,23.5,23.5s23.5-10.54,23.5-23.5s-10.54-23.5-23.5-23.5
		S97.5,87.71,97.5,100.67z M129.5,100.67c0,4.69-3.81,8.5-8.5,8.5s-8.5-3.81-8.5-8.5s3.81-8.5,8.5-8.5S129.5,95.99,129.5,100.67z"/>
	<path class="st0" d="M154.5,100.67c0,12.96,10.54,23.5,23.5,23.5s23.5-10.54,23.5-23.5s-10.54-23.5-23.5-23.5
		S154.5,87.71,154.5,100.67z M186.5,100.67c0,4.69-3.81,8.5-8.5,8.5s-8.5-3.81-8.5-8.5s3.81-8.5,8.5-8.5S186.5,95.99,186.5,100.67z"
		/>
	<path class="st0" d="M176,218.05h-40c-4.14,0-7.5,3.36-7.5,7.5v72.95H106c-4.14,0-7.5,3.36-7.5,7.5s3.36,7.5,7.5,7.5h300
		c4.14,0,7.5-3.36,7.5-7.5s-3.36-7.5-7.5-7.5h-22.5v-67.15c0-4.14-3.36-7.5-7.5-7.5h-32.5V166c0-4.14-3.36-7.5-7.5-7.5h-40
		c-4.14,0-7.5,3.36-7.5,7.5v41.02h-25v-15.54c0-4.14-3.36-7.5-7.5-7.5h-40c-4.14,0-7.5,3.36-7.5,7.5v49.76h-25v-15.69
		C183.5,221.41,180.14,218.05,176,218.05z M143.5,233.05h25v65.45h-25V233.05z M368.5,238.85v59.65h-25v-59.65H368.5z M303.5,173.5
		h25v125h-25V173.5z M288.5,222.02v76.48h-25v-76.48H288.5z M223.5,198.98h25v99.52h-25V198.98z M208.5,256.24v42.26h-25v-42.26
		H208.5z"/>
	<path class="st0" d="M269.62,369.8c8.48,0,15.93-4.52,20.06-11.27l67.83,15.33c1.21,11.83,11.23,21.1,23.38,21.1
		c12.96,0,23.5-10.54,23.5-23.5s-10.54-23.5-23.5-23.5c-8.48,0-15.93,4.52-20.06,11.27l-67.83-15.33
		c-1.21-11.83-11.23-21.1-23.38-21.1c-12.96,0-23.5,10.54-23.5,23.5v0.03l-96.31,32.54c-4.3-5.63-11.08-9.27-18.69-9.27
		c-12.96,0-23.5,10.54-23.5,23.5s10.54,23.5,23.5,23.5s23.5-10.54,23.5-23.5c0-0.01,0-0.01,0-0.02l96.31-32.54
		C255.23,366.16,262.01,369.8,269.62,369.8L269.62,369.8z M131.12,401.59c-4.69,0-8.5-3.81-8.5-8.5s3.81-8.5,8.5-8.5
		s8.5,3.81,8.5,8.5S135.8,401.59,131.12,401.59z M380.88,362.95c4.69,0,8.5,3.81,8.5,8.5s-3.81,8.5-8.5,8.5s-8.5-3.81-8.5-8.5
		S376.2,362.95,380.88,362.95z M269.62,337.8c4.69,0,8.5,3.81,8.5,8.5s-3.81,8.5-8.5,8.5c-3.73,0-6.9-2.41-8.04-5.75
		c0-0.01-0.01-0.02-0.01-0.03c0-0.01-0.01-0.02-0.01-0.03c-0.28-0.85-0.44-1.75-0.44-2.7C261.12,341.61,264.93,337.8,269.62,337.8z"
		/>
</g>
</svg>
