<?xml version="1.0" encoding="utf-8"?>
<!-- Generator: Adobe Illustrator 24.2.3, SVG Export Plug-In . SVG Version: 6.00 Build 0)  -->
<svg version="1.1" id="Layer_1" xmlns="http://www.w3.org/2000/svg" xmlns:xlink="http://www.w3.org/1999/xlink" x="0px" y="0px"
	 viewBox="0 0 542 60" style="enable-background:new 0 0 542 60;" xml:space="preserve">
<style type="text/css">
	.st0{fill:#313852;}
</style>
<g>
	<path class="st0" d="M466.7,36.5c32.8,0,60.1-10.3,66.7-24.1H400C406.6,26.2,433.9,36.5,466.7,36.5z"/>
	<path class="st0" d="M466.8,43.1c-2.8,0-5.1,1.5-6.4,3.8L293,43.1l1.9,8.2c1,4.4,5,7.4,9.5,7.3l156-4.1c1.3,2.2,3.7,3.8,6.4,3.8
		c4.2,0,7.5-3.4,7.5-7.6C474.3,46.5,471,43.1,466.8,43.1z"/>
	<path class="st0" d="M536,1.4H397.4c-2.2,0-4.1,1.8-4.1,4.1c0,2.3,1.8,4.1,4.1,4.1H536c2.2,0,4.1-1.8,4.1-4.1
		C540,3.2,538.2,1.4,536,1.4z"/>
	<path class="st0" d="M148.7,5.5c0-2.3-1.8-4.1-4.1-4.1H6C3.8,1.4,2,3.2,2,5.5C2,7.8,3.8,9.6,6,9.6h138.5
		C146.8,9.6,148.7,7.8,148.7,5.5z"/>
	<path class="st0" d="M142,12.4H8.7c6.5,13.8,33.9,24.1,66.7,24.1S135.4,26.2,142,12.4z"/>
	<path class="st0" d="M75.2,43.1c-4.2,0-7.5,3.4-7.5,7.6c0,4.2,3.4,7.6,7.5,7.6c2.8,0,5.1-1.5,6.4-3.8l156,4.1
		c4.5,0.1,8.4-2.9,9.5-7.3l1.9-8.2L81.6,46.9C80.3,44.6,77.9,43.1,75.2,43.1z"/>
</g>
</svg>
