<?xml version="1.0" encoding="utf-8"?>
<!-- Generator: Adobe Illustrator 23.0.5, SVG Export Plug-In . SVG Version: 6.00 Build 0)  -->
<svg version="1.1" id="Layer_1" xmlns="http://www.w3.org/2000/svg" fill="#c7c7c7" xmlns:xlink="http://www.w3.org/1999/xlink" x="0px" y="0px"
	 viewBox="0 0 512 512" style="enable-background:new 0 0 512 512;" xml:space="preserve">
<g>
	<path d="M240.2,512.02c10.94-1.34,21.89-2.44,32.63-4.61c51.25-10.39,93.76-35.83,127.98-75.26c3.47-4,3.27-6.01-0.84-9.32
		c-21.2-17.04-42.42-34.07-63.62-51.11c-34.97-28.1-69.92-56.22-104.94-84.26c-2.65-2.12-3.71-4.37-3.71-7.8
		c0.09-72.19,0.07-144.38,0.07-216.57c0-4.79-1.51-6.35-6.27-6.2c-18.21,0.56-36.14,3.05-53.71,7.93
		c-46.57,12.94-85.38,38.01-116.03,75.33C21.83,176.6,4.92,218.5,0.95,265.56c-0.29,3.47-0.63,6.94-0.95,10.41v16.38
		c0.31,3.55,0.65,7.09,0.94,10.64c2.96,36.77,14.16,70.89,34.01,101.93c33.58,52.5,80.76,86.35,141.36,101.23
		c12.67,3.11,25.59,4.85,38.64,5.87c-0.61,0,5.85,0.41,12.5,0.41C233.72,512.43,240.2,512.02,240.2,512.02z M147.82,475.36
		C57.15,436.97,7.05,342.34,23.79,248.59c17.37-97.3,98.75-162.68,183.47-170.1v3.22c0,66.38,0.04,132.75-0.04,199.13
		c-0.01,9.24,3.54,16.33,10.7,22.07c52.29,41.92,104.51,83.93,156.75,125.92c0.19,0.16,0.34,0.36,0.51,0.54
		C324.01,483.88,232.78,511.34,147.82,475.36z"/>
	<path d="M512,299.01c-0.49,4.12-0.99,8.24-1.46,12.36c-3.01,26.31-10.58,51.26-22.41,74.94c-6.31,12.61-13.77,24.51-22.28,35.75
		c-2.88,3.8-5.03,4.03-8.76,1.04c-42.21-33.92-84.42-67.83-126.63-101.75c-13.63-10.95-27.24-21.92-40.85-32.89
		c-3.38-2.72-3.49-5.42-0.31-8.3c31.01-28.02,62.04-56.04,93.06-84.05c22.1-19.95,44.2-39.89,66.29-59.85
		c3.76-3.4,5.9-3.29,9.14,0.54c26.01,30.67,42.89,65.74,50.39,105.24c1.6,8.43,2.24,17.04,3.33,25.57c0.12,0.91,0.31,1.82,0.47,2.72
		C512,279.89,512,289.45,512,299.01z M457.91,397.41c47.95-70.92,43.85-169.59-6.82-235.67c-44.91,40.55-89.82,81.09-134.88,121.77
		C363.55,321.58,410.65,359.43,457.91,397.41z"/>
	<path d="M276.48,0c4.56,0.49,9.12,0.97,13.68,1.47c25.79,2.84,50.32,10.05,73.63,21.42C388.4,34.9,410.13,50.85,429,70.7
		c3.02,3.17,2.99,5.29-0.26,8.22c-23.53,21.28-47.08,42.54-70.63,63.8c-28.49,25.72-56.99,51.42-85.46,77.16
		c-1.73,1.56-3.61,2.64-5.73,1.52c-1.18-0.62-1.96-2.15-2.68-3.41c-0.33-0.59-0.09-1.5-0.09-2.27c0-69.86,0.01-139.73-0.05-209.59
		c0-2.76,0.66-4.83,3.16-6.13C270.34,0,273.41,0,276.48,0z M284.75,181.27c39.71-35.85,79.04-71.36,118.59-107.06
		c-34-30.47-73.35-47.97-118.59-52.79C284.75,74.74,284.75,127.69,284.75,181.27z"/>
</g>
</svg>
