<?xml version="1.0" encoding="utf-8"?>
<!-- Generator: Adobe Illustrator 24.2.3, SVG Export Plug-In . SVG Version: 6.00 Build 0)  -->
<svg version="1.1" id="Layer_1" xmlns="http://www.w3.org/2000/svg" xmlns:xlink="http://www.w3.org/1999/xlink" x="0px" y="0px"
	 viewBox="0 0 283.5 283.5" style="enable-background:new 0 0 283.5 283.5;" xml:space="preserve">
<style type="text/css">
	.st0{fill:#002569;}
	.st1{fill:#FFFFFF;}
</style>
<g>
	<circle class="st0" cx="141.8" cy="141.8" r="141.7"/>
	<g>
		<path class="st1" d="M109.4,105.6c0-1.2,0-2.4,0-3.6c0.5,0,1,0,1.4,0c14.2,0,28.5,0,42.7,0c1.1,0,2.2,0.1,3.2,0.3
			c4.9,0.7,9.7,2,14.1,4.3c4.4,2.3,8.2,5.3,11.4,9.2c2.5,3,4.6,6.2,6.1,9.7c3.4,7.9,4.7,16.1,3.4,24.7c-0.6,4.1-1.7,8.1-3.4,11.8
			c-2.3,4.9-5.6,9.1-9.9,12.5c-3.1,2.5-6.5,4.5-10.2,5.8c-3.7,1.4-7.6,2.6-11.6,2.6c-24.9,0.1-49.8,0.2-74.7,0.3c-0.3,0-0.5,0-0.9,0
			c0-1.2,0-2.3,0-3.7c1.7,0,3.4,0.1,5.1,0c1-0.1,2.1-0.4,3.1-0.7c1.5-0.5,1.9-1.8,1.8-3.2c-0.1-1-0.3-2-0.7-2.9
			c-1.9-4.7-3.9-9.3-5.9-13.9c-1.3-3.1-1.2-3.1-4.5-3.1c-9.3,0-18.6,0-27.9,0c-1.1,0-1.5,0.2-1.8,1.4c-0.7,2.3-1.8,4.5-2.7,6.8
			c-1.2,3.1-2.6,6.2-3.6,9.3c-1.3,3.7,1.3,5.9,5,6.3c1.4,0.2,2.9,0,4.5,0c0,1.3,0,2.4,0,3.6c-9.3,0-18.6,0-27.9,0c0-1.2,0-2.3,0-3.4
			c2-0.4,4-0.9,6.1-1.3c2.8-0.5,4.6-2.4,5.7-4.8c1.9-4,3.6-8.1,5.3-12.2c1.8-4.2,3.5-8.5,5.2-12.7c1.4-3.4,2.8-6.9,4.2-10.3
			c1.5-3.8,3-7.5,4.6-11.3c1.2-2.9,2.4-5.7,3.6-8.6c1.3-3.2,2.6-6.3,3.9-9.5c1.1-2.7,2.2-5.3,3.3-8c0.3-0.7,0.7-1.2,1.6-1
			c0.2,0,0.4,0,0.6,0c3,0,3,0,4,2.9c1.1,3,2.5,5.9,3.7,8.9c1.2,2.9,2.4,5.8,3.6,8.7c0.8,2,1.7,3.9,2.6,5.9c1.3,3.1,2.6,6.1,3.9,9.2
			c1.2,2.7,2.4,5.4,3.6,8.1c1.4,3.1,2.7,6.3,4,9.4c0.8,1.8,1.6,3.7,2.4,5.5c1.3,3,2.5,6,3.8,9c1.4,3.3,2.7,6.8,5.5,9.3
			c1.9,1.6,4.2,2.8,6.8,2.2c1.8-0.4,3.5-0.9,5.2-1.6c1.7-0.7,2.3-2.3,2.6-3.9c0.3-2,0.3-4,0.3-5.9c0-17.3,0-34.7,0-52
			c0-2.2,0.1-4.4-1-6.4c-0.9-1.9-2.6-2.6-4.4-2.9C114.2,106,111.8,105.9,109.4,105.6z M134.3,106.1c0,0.7,0,1.3,0,1.9
			c0,20.7,0,41.3,0.1,62c0,1.7,0.5,3.5,1.2,5.1c0.4,1,1.5,1.9,2.5,2.4c1.1,0.6,2.4,0.9,3.7,1.1c6.8,1.1,13.6,0.8,20-2
			c3.6-1.5,6.4-4,8.5-7.2c2-3.2,3.6-6.5,4.8-10.1c1.2-3.7,2-7.4,2.1-11.3c0.2-6,0.1-12.1-1.2-18c-1.1-4.9-3-9.4-6.1-13.4
			c-2.6-3.3-5.7-5.9-9.6-7.5c-2.6-1.1-5.3-2.2-8.1-2.6c-4.7-0.6-9.4-0.7-14.1-0.9C136.9,105.6,135.6,105.9,134.3,106.1z M52.5,150.3
			c9.5,0,18.8,0,28.2,0c-4.7-11.8-9.4-23.6-14.1-35.2C62,126.6,57.3,138.4,52.5,150.3z"/>
		<path class="st1" d="M232.6,139.2c6.1,0.4,11.5,2.2,16.6,5.1c4.5,2.6,7.2,6.5,8.3,11.3c0.6,2.8,0.4,5.9,0.2,8.9
			c-0.2,3.9-1.7,7.4-4.3,10.2c-1.6,1.8-3.5,3.5-5.6,4.8c-2,1.2-4.2,2.2-6.4,2.8c-2,0.6-4.2,0.9-6.4,0.9c-14.1,0.1-28.3,0-42.4,0
			c-0.2,0-0.3,0-0.6-0.1c0-1.2,0-2.3,0-3.5c2.5-0.4,5-0.8,7.5-1.2c1.9-0.3,3.2-1.3,4-3.1c0.7-1.6,0.9-3.2,0.9-4.9
			c0-19.1,0-38.1,0-57.2c0-2-0.4-3.9-2-5.2c-0.9-0.8-2.2-1.3-3.4-1.6c-2.3-0.5-4.6-0.7-7-1c0-1,0-2.2,0-3.5c0.5,0,1,0,1.5,0
			c13.4,0,26.9-0.1,40.3,0.1c2.4,0,4.9,0.7,7.1,1.6c2.3,0.9,4.5,2.1,6.5,3.5c3.9,2.7,5.5,6.8,5.9,11.4c0.4,3.8-0.4,7.4-2.2,10.8
			c-1.4,2.6-3.7,4.5-6.4,5.7c-2,0.9-4.1,1.7-6.2,2.4C236.7,138,234.7,138.6,232.6,139.2z M216.8,141.5c0,0.9,0,1.5,0,2
			c0,7.9,0,15.7,0,23.6c0,1.4,0,2.9,0.1,4.3c0.3,4,3,6.9,6.8,7.1c2.7,0.1,5.3,0.1,8,0c4.8-0.2,8-2.9,9.9-7.1
			c1.3-2.8,2.2-5.8,2.4-8.9c0.2-5,0.4-9.9-2.2-14.5c-1.4-2.4-3.4-3.9-5.9-4.4c-3.3-0.7-6.7-1.1-10.1-1.5
			C222.9,141.8,219.9,141.7,216.8,141.5z M216.9,137.5c0.4,0,0.8,0,1.1,0c4.6-0.2,9.2-0.5,13.7-1.6c1.7-0.5,3.5-1.1,4.9-2.5
			c2.3-2.3,3.3-5.1,3.4-8.2c0.1-3,0-6.1-0.3-9.2c-0.2-2.4-1.3-4.6-2.8-6.5c-1.4-1.9-3.5-2.8-5.8-3.3c-4.7-1.1-9.5-0.3-14.2-0.6
			C216.9,116.3,216.9,126.8,216.9,137.5z"/>
	</g>
</g>
</svg>
