<svg id="Layer_1" fill="#0081ff"  data-name="Layer 1" xmlns="http://www.w3.org/2000/svg" viewBox="0 0 512 512"><title>BCH_5</title><path d="M522.47,333.9H89.16c-5.32,0-9.62-4.58-9.62-10.24V85.07c0-5.66,4.31-10.24,9.62-10.24H522.47c5.31,0,9.62,4.58,9.62,10.24V323.66C532.1,329.32,527.79,333.9,522.47,333.9ZM98.78,313.42H512.85V95.31H98.78Z" transform="translate(-45.5 -39.5)"/><path d="M531,93.77H71c-14.06,0-25.5-12.17-25.5-27.14S56.94,39.5,71,39.5H531c14.06,0,25.5,12.17,25.5,27.14S545.1,93.77,531,93.77ZM71,60a6.67,6.67,0,0,0,0,13.31H531A6.67,6.67,0,0,0,531,60Z" transform="translate(-45.5 -39.5)"/><path d="M532,368.2H72c-14.06,0-25.5-12.17-25.5-27.14S57.9,313.93,72,313.93H532c14.06,0,25.5,12.17,25.5,27.14S546.06,368.2,532,368.2ZM72,334.41a6.67,6.67,0,0,0,0,13.31H532a6.67,6.67,0,0,0,0-13.31Z" transform="translate(-45.5 -39.5)"/><path d="M223.85,269.9H146.2c-5.32,0-9.62-4.58-9.62-10.24s4.31-10.24,9.62-10.24h73l58.46-79a9.26,9.26,0,0,1,11.29-3.11l87.58,39.14,71.16-85.63a9.23,9.23,0,0,1,13.58-.89,10.7,10.7,0,0,1,.83,14.45l-75.73,91.14a9.23,9.23,0,0,1-10.94,2.66l-87.19-39L231.41,266A9.42,9.42,0,0,1,223.85,269.9Z" transform="translate(-45.5 -39.5)"/><path d="M305.33,551.5h-4.79c-14.82,0-26.88-12.86-26.88-28.67V491.4l-44.19,42.16A25.73,25.73,0,0,1,210,540.82a26.09,26.09,0,0,1-18.55-9.54c-9.85-11.78-8.89-29.93,2.14-40.46l80-76.35V359c0-5.65,4.31-10.24,9.62-10.24h39.3c5.31,0,9.62,4.59,9.62,10.24v57.95l86.45,75.25h0c11.47,10,13.2,28.07,3.85,40.31a26.28,26.28,0,0,1-18.13,10.43,25.58,25.58,0,0,1-19.72-6.31L332.21,491v31.88C332.21,538.64,320.16,551.5,305.33,551.5Zm-22-93.27a9.11,9.11,0,0,1,3.92.89,10.29,10.29,0,0,1,5.7,9.35v54.36a7.94,7.94,0,0,0,7.63,8.19h4.79a7.94,7.94,0,0,0,7.63-8.19V469.35a10.31,10.31,0,0,1,5.5-9.25,9.16,9.16,0,0,1,10.22,1.33l68.17,59.35a7.22,7.22,0,0,0,5.58,1.79,7.45,7.45,0,0,0,5.14-3,8.61,8.61,0,0,0-1.1-11.55l-90-78.32a10.51,10.51,0,0,1-3.53-7.93V369.23H292.91V419a10.54,10.54,0,0,1-3.2,7.62l-83.23,79.4a8.62,8.62,0,0,0-.61,11.6,7.39,7.39,0,0,0,5.25,2.71,7.27,7.27,0,0,0,5.5-2.06l60.24-57.47A9.3,9.3,0,0,1,283.29,458.23Z" transform="translate(-45.5 -39.5)"/></svg>