<svg id="Layer_1" fill="#0081ff"  data-name="Layer 1" xmlns="http://www.w3.org/2000/svg" viewBox="0 0 512 512"><title>BOH_3</title><path d="M140.08,553.11a23,23,0,0,1-4.55-.46,22.39,22.39,0,0,1-14.59-10L49.3,429.83a22.42,22.42,0,0,1,6.23-30.57l44.74-30.88a22.63,22.63,0,0,1,31.6,6L206.48,485a22.57,22.57,0,0,1-5.88,31.07l-47.72,33A22.42,22.42,0,0,1,140.08,553.11Zm-27-169.53a3.3,3.3,0,0,0-1.9.59L66.48,415.05a3.3,3.3,0,0,0-.92,4.5l71.63,112.8a3.35,3.35,0,0,0,4.73,1l47.72-33a3.32,3.32,0,0,0,.87-4.58L115.9,385.05a3.33,3.33,0,0,0-2.15-1.41A3.42,3.42,0,0,0,113.12,383.58Z" transform="translate(-45.77 -41.11)"/><path d="M380,442.53a40.62,40.62,0,0,1-11.55-1.68l-44.56-13.19a9.6,9.6,0,0,1-6.49-11.93h0a9.63,9.63,0,0,1,12-6.47L374,422.44a21.56,21.56,0,0,0,26.71-14.35,21.29,21.29,0,0,0-13.83-26.53L239.36,333a16.23,16.23,0,0,0-14,1.92L136.6,394.44l-10.75-15.93L214.58,319a35.65,35.65,0,0,1,30.82-4.23l147.48,48.6a40.38,40.38,0,0,1,26.22,50.31A40.86,40.86,0,0,1,380,442.53Z" transform="translate(-45.77 -41.11)"/><path d="M373.61,517.77a35.56,35.56,0,0,1-9.9-1.41L236.86,479.62a16.13,16.13,0,0,0-13.12,1.87l-18,11.43-10.33-16.2,18-11.43a35.42,35.42,0,0,1,28.82-4.11l126.85,36.73a16.06,16.06,0,0,0,13.66-2.23L531.27,392.89a16.53,16.53,0,0,0,7.15-11.58,15.79,15.79,0,0,0-3.7-12.16,16,16,0,0,0-21.49-2.79l-36.66,25.52a9.64,9.64,0,0,1-13.4-2.38h0a9.59,9.59,0,0,1,2.39-13.37l36.66-25.52a35.25,35.25,0,1,1,40.37,57.81l-148.87,103A35.26,35.26,0,0,1,373.61,517.77Z" transform="translate(-45.77 -41.11)"/><path d="M390.19,322.66c-77.71,0-140.92-63.15-140.92-140.77S312.49,41.11,390.19,41.11s140.92,63.15,140.92,140.77S467.9,322.66,390.19,322.66Zm0-261.55c-66.68,0-120.92,54.18-120.92,120.78s54.25,120.78,120.92,120.78,120.92-54.18,120.92-120.78S456.87,61.1,390.19,61.1Z" transform="translate(-45.77 -41.11)"/><path d="M345.94,297.27l-19.8-2.83c1.28-8.94,1.08-14.91-.6-18.26-1.34-2.66-4.06-4.64-9.17-8.18-2.58-1.79-5.5-3.82-8.66-6.35-14.31-11.44-10.46-28.35-7.64-40.69,1.59-7,3.23-14.14,2-19.57-1.62-7.3-4.45-10.5-8-14.56-4-4.5-8.9-10.1-10.95-20.32-1.15-5.74-1-16.47,13.17-23.86,6.69-3.5,14.84-5.43,22-7.14,3.57-.85,6.94-1.65,9-2.41,4.42-1.6,6.92-3.42,7.87-4.45a11.44,11.44,0,0,0-1.71-1.87c-12.57-11.42-11.75-22-11-31.26.19-2.43.39-4.94.39-7.65,0-5.85-6.64-7.64-6.71-7.65l5-19.36c7.5,1.94,21.69,10.09,21.69,27,0,3.49-.24,6.52-.45,9.21-.64,8.14-.79,10.08,4.53,14.91,8.55,7.77,9.18,15.32,8.2,20.29-1.64,8.33-9.09,15.3-21,19.61A107.92,107.92,0,0,1,322.95,155c-5.49,1.3-18.25,4.34-20.26,7.42,0,.05,0,.12,0,.21,1,5,3,7.24,6.34,11,4.37,5,9.8,11.12,12.54,23.44,2.18,9.82-.06,19.67-2,28.36-3,13-3.26,17.52.63,20.63,2.64,2.11,5.16,3.86,7.59,5.55C341.76,261.28,350,269.2,345.94,297.27Z" transform="translate(-45.77 -41.11)"/><path d="M390.18,106.1a38.08,38.08,0,0,1-13.27-2.35c-12.95-4.79-21.46-16-24.16-25-1.43-4.76-7.93-8.51-10.1-9.45L350.4,50.8c1.74.73,17.12,7.51,21.51,22.15a21.16,21.16,0,0,0,11.94,12c6.7,2.48,14.63.83,23.55-4.92l.34-.21c.91-.54,22.75-13,54.47,1.64l1,.47.63.49c.91.61,6.61,4.12,11.93.73l10.73,16.91c-13,8.29-26.69,3.7-33.44-.75-20.69-9.26-34-2.86-35.14-2.27C407.27,103.87,397.89,106.1,390.18,106.1Z" transform="translate(-45.77 -41.11)"/><path d="M417.4,308.16c-.29-.76-7.31-18.68-36.81-28.9l-.75-.29c-1.27-.56-12.64-5.88-20.51-20.68-1-1.86-5.68-4.31-9.45-6.28-9.58-5-25.62-13.36-23-34.11,1.59-12.81,7.32-23.37,16.57-30.54,10.54-8.17,25.09-11.34,42.09-9.15a16.6,16.6,0,0,0,18.35-13.32,35.46,35.46,0,0,0,.5-4.89c.8-22.77,14-30.7,26.11-30.52a8.69,8.69,0,0,0,6.84-3.37,22,22,0,0,0,2.26-3.65c4.21-8.48,14.63-11.43,27.86-7.89,16.5,4.41,33.55,17.19,32.64,32.21-.68,11.25-7.71,18.39-12.85,23.6-1.76,1.79-4.7,4.77-5,5.92l0,.1c.69,3,2,5.11,3.73,7.76,3.37,5.26,8,12.46,5.59,25.64-2.27,12.45.27,23.92,10.86,49.11L484,266.64c-10.93-26-15.53-41.66-12.1-60.45,1-5.43,0-7-2.75-11.27a41.8,41.8,0,0,1-6.4-14.12c-2.62-11.49,4.78-19,10.18-24.48,4.3-4.36,6.92-7.26,7.13-10.78-.11-.77-2-3.72-7-6.88-6.62-4.21-13.61-5.75-16.52-5.62a41.17,41.17,0,0,1-3.46,5.29,28.68,28.68,0,0,1-23,11.14c-1.5,0-5.43-.08-5.83,11.23a55.55,55.55,0,0,1-.79,7.66,36.33,36.33,0,0,1-35.85,30,37.29,37.29,0,0,1-4.75-.31c-11.61-1.49-21,.28-27.29,5.12s-8.34,12-9,17.2c-.76,6.15,1.81,8.37,12.45,13.92,6.54,3.41,14,7.28,17.86,14.62,4.11,7.73,9.47,11,10.76,11.68,38.73,13.66,48.13,39.83,48.52,40.95L417.35,308Z" transform="translate(-45.77 -41.11)"/></svg>