<svg id="Layer_1" data-name="Layer 1" xmlns="http://www.w3.org/2000/svg" viewBox="0 0 512 512"><defs><style>.cls-1{fill:#231f20;}</style></defs><title>BOS_4</title><path d="M179.31,452.59a9.6,9.6,0,0,1-6.79-2.8c-69.3-69-78.78-109-79.65-123L46.83,281a9.62,9.62,0,0,1,0-13.64L162,152.61a9.62,9.62,0,0,1,13.58,0l36.11,36a87.51,87.51,0,0,1,26.11-8.83c18.09-3,45-.95,70.6,25.67,13.13,13.66,22.68,23,29.66,29.76,16.85,16.4,21.38,20.81,20.38,35.65-.69,10.34-6.93,19.45-16.68,24.37a31.57,31.57,0,0,1-31.52-1.52c-14.47-9.26-46.92-42.33-50.57-46.07a9.62,9.62,0,0,1,13.77-13.45c9.5,9.73,36.49,36.47,47.18,43.31a12.49,12.49,0,0,0,12.48.54c3.62-1.83,5.92-5,6.15-8.47.4-6,.4-6-14.6-20.57-7.08-6.89-16.77-16.32-30.12-30.22-37.37-38.9-77.05-11.45-78.72-10.27a9.67,9.67,0,0,1-12.4-1L168.83,173,67.26,274.14l42,41.84a8.64,8.64,0,0,1,2.77,8c-.07,2.54.38,38.79,74,112.13a9.62,9.62,0,0,1-6.79,16.45ZM112,324.17Z" transform="translate(-44 -37.84)"/><path d="M319.57,521.41a34.24,34.24,0,0,1-24.31-58.51l60.29-60a9.62,9.62,0,0,1,13.58,13.64l-60.29,60a15,15,0,0,0,0,21.24,15.25,15.25,0,0,0,21.38.07C364,464.65,444.94,384.71,467.95,359.51c26.44-29,21.61-59.11,21.56-59.41a9.62,9.62,0,0,1,2.69-8.45l40.53-40.35L432.17,151.16l-35.1,35a9.62,9.62,0,0,1-11.14,1.76c-18.94-9.61-38-9.35-56.78.76A84.63,84.63,0,0,0,306,207.15a9.62,9.62,0,1,1-15-12,102.52,102.52,0,0,1,29-23.44c22.17-12,45.62-13.28,68.22-3.93l37.16-37a9.62,9.62,0,0,1,13.58,0L553.17,244.47a9.62,9.62,0,0,1,0,13.64l-44.16,44c.64,11.9-.81,41.9-26.84,70.41C458.84,398,377.58,478.26,343.72,511.57A34.34,34.34,0,0,1,319.57,521.41Z" transform="translate(-44 -37.84)"/><path d="M252.12,519.34A35.36,35.36,0,0,1,217,488.79a36.92,36.92,0,0,1-38.7-8.46,36.6,36.6,0,0,1-4.77-46.06,36.14,36.14,0,0,1-15.84-60.44L278.91,253.08a9.62,9.62,0,0,1,13.58,13.64L171.22,387.47a16.86,16.86,0,0,0,0,23.93,17.15,17.15,0,0,0,24.16,0l76.39-76.06A9.62,9.62,0,0,1,285.34,349L209,425l0,0-17.1,17a17.33,17.33,0,0,0,0,24.59,17.62,17.62,0,0,0,24.82,0l95-94.6a9.62,9.62,0,0,1,13.68,13.54l-84.93,87a16.19,16.19,0,0,0,.16,22.7,16.39,16.39,0,0,0,23.06,0l48.46-49.24a9.62,9.62,0,1,1,13.72,13.5l-48.5,49.28-.07.07A35.5,35.5,0,0,1,252.12,519.34Z" transform="translate(-44 -37.84)"/><path d="M289.69,549.84a29.8,29.8,0,0,1-21.09-8.68L246,518.65A9.62,9.62,0,0,1,259.58,505l22.61,22.51a10.66,10.66,0,0,0,15,0,9.29,9.29,0,0,0,0-13.84l-17.29-17.21a9.62,9.62,0,0,1,13.58-13.64L310.78,500a28.51,28.51,0,0,1,0,41.12A29.8,29.8,0,0,1,289.69,549.84Z" transform="translate(-44 -37.84)"/><path d="M359,545.27a34.85,34.85,0,0,1-24.66-10.15L320.14,521a9.62,9.62,0,0,1,13.58-13.64l14.21,14.15a15.74,15.74,0,0,0,22.16,0,15.46,15.46,0,0,0,0-21.95L357.21,486.7a9.62,9.62,0,0,1,13.58-13.64l21.36,21.27a15.74,15.74,0,0,0,22.16,0l1.66-1.66a15.46,15.46,0,0,0,0-21.95l-15.91-15.84-.05-.05-4.07-4.06a9.62,9.62,0,0,1,13.58-13.64l4.11,4.09a15.74,15.74,0,0,0,22.13,0l2.66-2.65a15.46,15.46,0,0,0,0-21.95l-5.07-5a9.62,9.62,0,0,1,13.58-13.64l5.07,5a34.71,34.71,0,0,1,0,49.23l-2.66,2.65a34.68,34.68,0,0,1-14.66,8.71,34.74,34.74,0,0,1-5.12,42.77L427.9,508a35,35,0,0,1-34.54,8.74A34.85,34.85,0,0,1,359,545.27Z" transform="translate(-44 -37.84)"/><path class="cls-1" d="M288.86,118.59a9.59,9.59,0,0,1-6.79-2.8l-32-31.9a9.62,9.62,0,0,1,13.58-13.64l25.25,25.14,55-54.74a9.62,9.62,0,1,1,13.58,13.64l-61.77,61.5A9.59,9.59,0,0,1,288.86,118.59Z" transform="translate(-44 -37.84)"/></svg>