<svg id="Layer_2" data-name="Layer 2" xmlns="http://www.w3.org/2000/svg" viewBox="0 0 354 512"><title>10</title><path d="M176.8,555.5h-7.16c-18.4,0-35.71-9.39-45.17-24.52A9.56,9.56,0,0,1,123,525.9V142.15a9.85,9.85,0,0,1,5.83-8.89L321.26,44.48a10.67,10.67,0,0,1,9.94.53A9.78,9.78,0,0,1,336,53.37V93.81a10.3,10.3,0,0,1-20.58,0V69.06L150.93,145,160,153a50.93,50.93,0,0,0,32.73,12.79L464.08,97.1A10.65,10.65,0,0,1,473,98.82a9.74,9.74,0,0,1,4,7.82v379.8a10,10,0,0,1-8.11,9.65l-280.31,58.2A58.14,58.14,0,0,1,176.8,555.5ZM143.58,523a32.74,32.74,0,0,0,26.06,12.81h7.16a37.1,37.1,0,0,0,7.43-.76l272.19-56.52v-359L196.63,185.23a10.51,10.51,0,0,1-2.62.33,72,72,0,0,1-48-18.08l-2.41-2.14Z" transform="translate(-123 -43.5)"/><path d="M157.76,173.93a10.34,10.34,0,0,1-9.49-6A9.73,9.73,0,0,1,153.74,155L399.93,55.13a10.69,10.69,0,0,1,9.69.86,9.77,9.77,0,0,1,4.61,8.23v58.31a10.3,10.3,0,0,1-20.58,0V79.1L161.76,173.15A10.66,10.66,0,0,1,157.76,173.93Z" transform="translate(-123 -43.5)"/><path d="M260.9,375a10.56,10.56,0,0,1-6.36-2.11,9.74,9.74,0,0,1-3.94-7.76V248.69a10,10,0,0,1,7.72-9.55l143-35.51a10.62,10.62,0,0,1,8.88,1.75,9.75,9.75,0,0,1,4,7.8V331.56a10,10,0,0,1-7.85,9.58l-143,33.55A10.69,10.69,0,0,1,260.9,375Zm10.29-118.64v96.2l122.46-28.71V225.93Z" transform="translate(-123 -43.5)"/><path d="M189.89,514.07a10.09,10.09,0,0,1-10.29-9.87v-291a10.3,10.3,0,0,1,20.58,0v291A10.09,10.09,0,0,1,189.89,514.07Z" transform="translate(-123 -43.5)"/></svg>