<svg id="Layer_1" data-name="Layer 1" xmlns="http://www.w3.org/2000/svg" viewBox="0 0 512 420"><title>12</title><path d="M387.08,331.42a6,6,0,0,1-1.57-.2,6.29,6.29,0,0,1-4.52-4.38,17,17,0,0,0-28.44-7.21,6.36,6.36,0,0,1-6.08,1.7A6.29,6.29,0,0,1,342,317a29.22,29.22,0,0,1-.2-15.25,29.64,29.64,0,0,1,36-21.25,29.43,29.43,0,0,1,21.37,35.79h0a29.47,29.47,0,0,1-7.52,13.3A6.35,6.35,0,0,1,387.08,331.42ZM364.73,302a29.6,29.6,0,0,1,22.35,10.22A16.65,16.65,0,0,0,385,300.36a16.84,16.84,0,0,0-10.39-7.74,17,17,0,0,0-20.36,11.25A29.81,29.81,0,0,1,364.73,302Z" transform="translate(-44.7 -94.46)"/><path d="M300.91,417.37c-36.31,0-65.85-29.38-65.85-65.48s29.54-65.48,65.85-65.48,65.85,29.37,65.85,65.48S337.22,417.37,300.91,417.37Zm0-118.4a52.92,52.92,0,1,0,53.21,52.92A53.13,53.13,0,0,0,300.91,299Z" transform="translate(-44.7 -94.46)"/><path d="M359.07,368.88c-19.44-1.16-38.81-20.74-48.24-31.77-7.54,9.34-20.09,17.94-23.21,20a6.31,6.31,0,0,1-9.82-5.22v-4.33a89.9,89.9,0,0,1-12.79,10,132.35,132.35,0,0,1-20.22,10.85L240,356.8c9.49-3.91,34.81-17.3,38-32a6.32,6.32,0,0,1,12.5,1.31v13.3c6.46-5.27,12.46-11.22,13.55-15a6.33,6.33,0,0,1,11.2-2c6.62,9.09,27.54,32.92,44.63,33.93Z" transform="translate(-44.7 -94.46)"/><path d="M375.72,514.46H226.1a6.31,6.31,0,0,1-6.21-5.12A71.91,71.91,0,0,1,218.65,496c0-32.44,22-61.54,54.64-72.43a88.13,88.13,0,0,1,55.24,0c32.68,10.89,54.64,40,54.64,72.43a71.91,71.91,0,0,1-1.24,13.32A6.31,6.31,0,0,1,375.72,514.46ZM231.58,501.89H370.24q.28-2.91.29-5.87c0-27-18.49-51.35-46-60.52a75.59,75.59,0,0,0-47.21,0c-27.53,9.17-46,33.49-46,60.52Q231.29,499,231.58,501.89Z" transform="translate(-44.7 -94.46)"/><path d="M300.91,457.52a32,32,0,0,1-31.85-27,6.28,6.28,0,0,1,4.23-7,88.13,88.13,0,0,1,55.24,0,6.28,6.28,0,0,1,4.23,7A32,32,0,0,1,300.91,457.52Zm-17.75-23.7a19.71,19.71,0,0,0,35.5,0,76.06,76.06,0,0,0-35.5,0Z" transform="translate(-44.7 -94.46)"/><path d="M214.68,332.36a6.33,6.33,0,0,1-3.94-1.37,29.51,29.51,0,1,1,46.07-33.64h0a29.11,29.11,0,0,1,1.66,15.17,6.26,6.26,0,0,1-4,4.89,6.35,6.35,0,0,1-6.24-1A17,17,0,0,0,220.92,327a6.27,6.27,0,0,1-3.94,4.9A6.37,6.37,0,0,1,214.68,332.36Zm14.53-41.2a17,17,0,0,0-6.13,1.15,16.84,16.84,0,0,0-10,20.92A29.56,29.56,0,0,1,244.66,301,17,17,0,0,0,229.21,291.16Z" transform="translate(-44.7 -94.46)"/><path d="M51.91,284.76a7.21,7.21,0,0,1-3.46-13.54L100.13,243a9.54,9.54,0,0,0,4.12-4.72l27.21-64.93A24,24,0,0,1,142,161.51L261,97.12a21.82,21.82,0,0,1,18.87-1,23.77,23.77,0,0,1,13.57,15.5c3.15,10.73-.95,22.32-10,28.18l-44.68,29.06A7.21,7.21,0,0,1,231,156.8l44.68-29.06c3.66-2.38,5.33-7.44,4-12a9.53,9.53,0,0,0-5.29-6.26,7.4,7.4,0,0,0-6.47.35l-119,64.4a9.53,9.53,0,0,0-4.15,4.73l-27.21,64.93A24,24,0,0,1,107,255.67l-51.68,28.2A7.14,7.14,0,0,1,51.91,284.76Z" transform="translate(-44.7 -94.46)"/><path d="M107.4,353.06a7.21,7.21,0,0,1-3.77-13.36l34.65-21.22a92.43,92.43,0,0,0,22.62-19.61l3.35-4a86.87,86.87,0,0,0,15.29-27l6.89-19.56a82.52,82.52,0,0,1,16.36-27.8l27.34-30.55a14.6,14.6,0,0,0-.47-19.55,10.65,10.65,0,0,0-8.1-3.26,11,11,0,0,0-7.94,4.19L167.27,228a7.21,7.21,0,0,1-11.15-9.13l46.35-56.67a25.14,25.14,0,0,1,18.37-9.46,24.87,24.87,0,0,1,19,7.47,29,29,0,0,1,1,39.36L213.52,230.1a68.22,68.22,0,0,0-13.5,23l-6.89,19.56a101.26,101.26,0,0,1-17.83,31.47l-3.35,4a106.91,106.91,0,0,1-26.15,22.66L111.15,352A7.14,7.14,0,0,1,107.4,353.06Z" transform="translate(-44.7 -94.46)"/><path d="M549.48,284.76a7.14,7.14,0,0,1-3.44-.89l-51.68-28.2a24,24,0,0,1-10.5-11.81l-27.22-64.93a9.48,9.48,0,0,0-4.15-4.73l-119-64.4a7.39,7.39,0,0,0-6.48-.34,9.45,9.45,0,0,0-5.28,6.25c-1.35,4.59.32,9.65,4,12l44.68,29.06a7.21,7.21,0,0,1-7.85,12.09L317.9,139.83c-9-5.86-13.11-17.45-10-28.18a23.79,23.79,0,0,1,13.57-15.5,21.82,21.82,0,0,1,18.87,1l119,64.39a24,24,0,0,1,10.58,11.85l27.22,64.93a9.52,9.52,0,0,0,4.11,4.72l51.68,28.21a7.21,7.21,0,0,1-3.46,13.54Z" transform="translate(-44.7 -94.46)"/><path d="M494,353.06a7.17,7.17,0,0,1-3.76-1.06l-34.65-21.22a106.91,106.91,0,0,1-26.15-22.66l-3.35-4a101.4,101.4,0,0,1-17.83-31.48l-6.89-19.55a68.22,68.22,0,0,0-13.5-23l-27.34-30.55a29,29,0,0,1,1-39.36,24.91,24.91,0,0,1,37.38,2l46.35,56.67A7.21,7.21,0,1,1,434.12,228l-46.35-56.67a11,11,0,0,0-7.94-4.19,10.66,10.66,0,0,0-8.1,3.26,14.6,14.6,0,0,0-.47,19.55l27.35,30.55A82.66,82.66,0,0,1,415,248.28l6.89,19.56a86.87,86.87,0,0,0,15.29,27l3.35,4a92.8,92.8,0,0,0,22.62,19.61l34.65,21.22A7.21,7.21,0,0,1,494,353.06Z" transform="translate(-44.7 -94.46)"/></svg>