<svg fill="#fff" id="Layer_1" data-name="Layer 1" xmlns="http://www.w3.org/2000/svg" viewBox="0 0 512 396.62"><title>Turiin niitleg uilchilgee</title><path d="M552.87,461H50.08V229.31h502.8ZM79,441H523.9a9.33,9.33,0,0,0,9.33-9.33V258.64a9.33,9.33,0,0,0-9.33-9.33H79a9.33,9.33,0,0,0-9.33,9.33V431.71A9.33,9.33,0,0,0,79,441Z" transform="translate(-45.5 -64.43)"/><path d="M557.5,248H45.5V200.57h512ZM65.14,228.91H537.86v-9.26H65.14Z" transform="translate(-45.5 -64.43)"/><path d="M479.7,219H126V172H228.8v19.63H149.3a3.67,3.67,0,0,0-3.7,3.63v4.1H460.06v-4.1a3.67,3.67,0,0,0-3.7-3.63H372.71V172h107Z" transform="translate(-45.5 -64.43)"/><path d="M175.6,219l-8.51-17.8,132.42-64.09,137.2,63-8.16,18-124-57a11.23,11.23,0,0,0-9.57.1Z" transform="translate(-45.5 -64.43)"/><path d="M226.07,249.92V440.77H174.15V249.92h51.93m19.64-20h-91.2V460.77h91.2V229.92Z" transform="translate(-45.5 -64.43)"/><path d="M428.69,249.92V440.77h-51V249.92h51m19.64-20H358.07V460.77h90.25V229.92Z" transform="translate(-45.5 -64.43)"/><path d="M153.68,419.51V441H69.94V419.51h83.74m19.64-20H50.3V461h123V399.55Z" transform="translate(-45.5 -64.43)"/><path d="M533.37,418.5V441h-85V418.5h85m19.64-20H428.7V461H553V398.54Z" transform="translate(-45.5 -64.43)"/><path d="M320.39,343.83v97.32H282.45V343.83h37.94m19.64-20H262.81V461H340V323.83Z" transform="translate(-45.5 -64.43)"/><rect x="244.68" y="28.57" width="19.64" height="55"/><path d="M371,124.82H290.18V64.43H371Zm-57.22-20h34.71a3.8,3.8,0,0,0,3.8-3.8V88.22a3.8,3.8,0,0,0-3.8-3.8H313.76a3.8,3.8,0,0,0-3.8,3.8V101A3.8,3.8,0,0,0,313.76,104.82Z" transform="translate(-45.5 -64.43)"/></svg>