<svg fill="#fff" id="Layer_1" data-name="Layer 1" xmlns="http://www.w3.org/2000/svg" viewBox="0 0 512 512"><title>BSH_7</title><path d="M305.72,383.62c-13.9,0-27.09-2.51-37.14-7.07-18.15-8.23-20.86-20.59-20.86-27.22,0-23.12-7.84-45.76-22.66-65.46a103.53,103.53,0,0,1-20.54-65.23c1.6-51.89,42.59-95.11,93.32-98.39a98,98,0,0,1,74,26.63,103.38,103.38,0,0,1,11.75,136.94,112.09,112.09,0,0,0-22.69,66.78C360.93,370.35,338.74,383.62,305.72,383.62Zm-1.38-244.33q-2.62,0-5.26.17c-40.94,2.64-74,37.68-75.33,79.77a83.09,83.09,0,0,0,16.68,53.07C257.79,295.36,267,322,267,349.33c0,8,18.11,15,38.76,15,19.49,0,36-6.3,36-13.77a131.45,131.45,0,0,1,26.55-78.34,84.13,84.13,0,0,0-9.52-111.34A78.89,78.89,0,0,0,304.34,139.28Z" transform="translate(-42.75 -48.67)"/><path d="M317.06,358.39a9.62,9.62,0,0,1-9.62-9.62c0-27.42,9.38-54.41,17.38-72.44a97.24,97.24,0,0,1-39.94,0c8,18,17.38,45,17.38,72.44a9.62,9.62,0,1,1-19.25,0c0-41.44-25.4-83.8-25.66-84.22a9.62,9.62,0,0,1,12.48-13.63,78.73,78.73,0,0,0,70,0,9.62,9.62,0,0,1,12.49,13.61c-.26.43-25.67,43-25.67,84.24A9.62,9.62,0,0,1,317.06,358.39Z" transform="translate(-42.75 -48.67)"/><path d="M369.64,233.26a9.62,9.62,0,0,1-9.62-9.62,59.42,59.42,0,0,0-31.45-52.85,9.62,9.62,0,0,1,9-17,78.62,78.62,0,0,1,41.71,69.88A9.62,9.62,0,0,1,369.64,233.26Z" transform="translate(-42.75 -48.67)"/><path d="M544.8,560.67H52.37A9.62,9.62,0,0,1,42.75,551v-40.3a9.64,9.64,0,0,1,5.13-8.64,9.43,9.43,0,0,1,9.86.65c1.19.72,22.65,13.21,69.3,5.41,11-1.83,22.82-4.8,35.36-7.95,24.06-6,48.94-12.27,73.85-12.34h.41c26.08,0,47.62,7,65.58,21.33,16.4-12.49,61.84-34.31,157.67-1.65h0c45.45,15.49,80-4.4,80.32-4.61a9.62,9.62,0,0,1,14.52,8.37l-.32,39.8A9.62,9.62,0,0,1,544.8,560.67ZM62,541.42H535.26l.12-15.45a124.91,124.91,0,0,1-81.68-.19h0C394.67,505.66,358,508,337.57,513.5,317.8,518.84,310,527.92,310,528a9.62,9.62,0,0,1-14.23,1.06c-35.25-33.58-82.73-21.68-128.65-10.18-12.93,3.24-25.14,6.3-36.87,8.26-32.52,5.44-54.91,2-68.22-2Z" transform="translate(-42.75 -48.67)"/><path d="M304.78,105.41a9.62,9.62,0,0,1-9.62-9.62V58.29a9.62,9.62,0,0,1,19.25,0v37.5A9.62,9.62,0,0,1,304.78,105.41Z" transform="translate(-42.75 -48.67)"/><path d="M344.36,410.34H266.17a9.62,9.62,0,1,1,0-19.25h78.18a9.62,9.62,0,1,1,0,19.25Z" transform="translate(-42.75 -48.67)"/><path d="M344.36,437H266.17a9.62,9.62,0,1,1,0-19.25h78.18a9.62,9.62,0,1,1,0,19.25Z" transform="translate(-42.75 -48.67)"/><path d="M332.77,462.64h-55a9.62,9.62,0,1,1,0-19.25h55a9.62,9.62,0,1,1,0,19.25Z" transform="translate(-42.75 -48.67)"/><path d="M468.87,229.26H432.19a9.62,9.62,0,1,1,0-19.25h36.68a9.62,9.62,0,1,1,0,19.25Z" transform="translate(-42.75 -48.67)"/><path d="M176.41,229.26H139.73a9.62,9.62,0,1,1,0-19.25h36.68a9.62,9.62,0,1,1,0,19.25Z" transform="translate(-42.75 -48.67)"/><path d="M211.19,142.22a9.59,9.59,0,0,1-6.56-2.58l-27.11-25.26a9.62,9.62,0,1,1,13.12-14.08l27.11,25.26a9.62,9.62,0,0,1-6.56,16.67Z" transform="translate(-42.75 -48.67)"/><path d="M399.58,143.46a9.62,9.62,0,0,1-7.19-16L417.08,99.7a9.62,9.62,0,0,1,14.38,12.8l-24.69,27.74A9.6,9.6,0,0,1,399.58,143.46Z" transform="translate(-42.75 -48.67)"/><path d="M433.92,335.28a9.6,9.6,0,0,1-6.88-2.89L401.1,305.87a9.62,9.62,0,1,1,13.76-13.46l25.93,26.52a9.62,9.62,0,0,1-6.88,16.35Z" transform="translate(-42.75 -48.67)"/><path d="M175,335.89a9.62,9.62,0,0,1-7.19-16l24.68-27.74a9.62,9.62,0,0,1,14.38,12.8l-24.68,27.74A9.6,9.6,0,0,1,175,335.89Z" transform="translate(-42.75 -48.67)"/></svg>