<svg fill="#fff" id="nas" xmlns="http://www.w3.org/2000/svg" viewBox="0 0 512 512"><title>1</title><path d="M995.65,778c-75.15,0-145.8-26.63-198.94-75s-82.4-112.64-82.4-181,29.26-132.67,82.4-181,123.79-75,198.94-75c81.34,0,158.67,32,212.16,87.87l-16.13,12.79c-49.42-51.6-120.87-81.19-196-81.19-143.33,0-259.94,106.11-259.94,236.53S852.32,758.53,995.65,758.53c83.52,0,162.5-36.9,211.27-98.7l17.38,11.35c-25.53,32.35-59.46,59.2-98.13,77.66A304.6,304.6,0,0,1,995.65,778Z" transform="translate(-714.31 -266)"/><path d="M995.65,778c-75.15,0-145.8-26.63-198.94-75s-82.4-112.64-82.4-181,29.26-132.67,82.4-181,123.79-75,198.94-75c81.34,0,158.67,32,212.16,87.87a9.14,9.14,0,0,1-1,13.73,11.46,11.46,0,0,1-15.1-.94c-49.42-51.6-120.87-81.19-196-81.19-143.33,0-259.94,106.11-259.94,236.53S852.32,758.53,995.65,758.53c83.52,0,162.5-36.9,211.27-98.7a11.4,11.4,0,0,1,14.93-2.23,9.18,9.18,0,0,1,2.45,13.58c-25.53,32.35-59.46,59.2-98.13,77.66A304.6,304.6,0,0,1,995.65,778Z" transform="translate(-714.31 -266)"/><path d="M1211.52,371.13h-65c-5.91,0-10.7-4.36-10.7-9.74s4.79-9.73,10.7-9.73h43.63V312.72c0-5.37,4.79-9.73,10.7-9.73s10.7,4.36,10.7,9.73Z" transform="translate(-714.31 -266)"/><path d="M816.06,608.63c-5.91,0-10.7-4.36-10.7-9.73V440.24c0-5.38,4.79-9.74,10.7-9.74s10.7,4.36,10.7,9.74V598.9C826.76,604.27,822,608.63,816.06,608.63Z" transform="translate(-714.31 -266)"/><path d="M901.84,608.63c-5.9,0-10.69-4.36-10.69-9.73V440.24c0-5.38,4.79-9.74,10.69-9.74s10.7,4.36,10.7,9.74V598.9C912.54,604.27,907.75,608.63,901.84,608.63Z" transform="translate(-714.31 -266)"/><path d="M901.84,531.42H816.06c-5.91,0-10.7-4.36-10.7-9.73s4.79-9.74,10.7-9.74h85.78c5.91,0,10.7,4.36,10.7,9.74S907.75,531.42,901.84,531.42Z" transform="translate(-714.31 -266)"/><path d="M933.55,608.63a11.85,11.85,0,0,1-3.56-.55c-5.57-1.79-8.5-7.35-6.53-12.42L985,437c2-5.07,8.08-7.73,13.65-5.94s8.49,7.35,6.53,12.42L943.63,602.14A10.69,10.69,0,0,1,933.55,608.63Z" transform="translate(-714.31 -266)"/><path d="M1060.36,608.63a10.72,10.72,0,0,1-10-6.32L985.07,443.65c-2.07-5,.74-10.65,6.27-12.53s11.7.67,13.77,5.7l65.27,158.66c2.07,5-.74,10.65-6.27,12.53A11.61,11.61,0,0,1,1060.36,608.63Z" transform="translate(-714.31 -266)"/><path d="M1028.66,531.42H963.39c-5.91,0-10.7-4.36-10.7-9.73s4.79-9.74,10.7-9.74h65.27c5.9,0,10.69,4.36,10.69,9.74S1034.56,531.42,1028.66,531.42Z" transform="translate(-714.31 -266)"/><path d="M1130.76,608.63c-19.69,0-37.92-9.75-51.33-27.44-12.58-16.59-19.51-38.48-19.51-61.62s6.93-45,19.51-61.63c13.41-17.69,31.64-27.44,51.33-27.44,14.91,0,29.12,5.65,41.11,16.33a9.14,9.14,0,0,1,.16,13.77,11.48,11.48,0,0,1-15.13.14c-5.51-4.91-14.52-10.77-26.14-10.77-12.44,0-24.42,6.76-33.72,19-10.14,13.37-15.73,31.33-15.73,50.57s5.59,37.19,15.73,50.56c9.3,12.28,21.28,19,33.72,19s22.09-6.74,27.89-12.39a11.46,11.46,0,0,1,15.12-.48,9.13,9.13,0,0,1,.52,13.76C1161.82,602.21,1146.77,608.63,1130.76,608.63Z" transform="translate(-714.31 -266)"/></svg>