<svg fill="#fff" id="Layer_1" data-name="Layer 1" xmlns="http://www.w3.org/2000/svg" viewBox="0 0 512 400"><title>13</title><path d="M254.05,287.17a7.42,7.42,0,0,1-1.86-.24,7.59,7.59,0,0,1-5.33-5.37,20.4,20.4,0,0,0-14.34-14.42,19.74,19.74,0,0,0-19.3,5.59,7.33,7.33,0,0,1-7.18,2.09,7.57,7.57,0,0,1-5.35-5.36,36.87,36.87,0,0,1-.24-18.66c4.77-19.24,23.86-30.9,42.56-26a34.92,34.92,0,0,1,21.45,16.51,36.68,36.68,0,0,1,3.82,27.28h0a36.19,36.19,0,0,1-8.9,16.27A7.37,7.37,0,0,1,254.05,287.17Zm-26.43-36a34,34,0,0,1,8.59,1.1,34.9,34.9,0,0,1,17.84,11.4,21,21,0,0,0-2.44-14.48,19.84,19.84,0,0,0-36.37,4.3A34.25,34.25,0,0,1,227.62,251.14Z" transform="translate(-32.37 -111.12)"/><path d="M152.15,392.32c-42.93,0-77.87-35.94-77.87-80.11s34.94-80.12,77.87-80.12S230,268,230,312.21,195.09,392.32,152.15,392.32Zm0-144.86c-34.69,0-62.92,29-62.92,64.75S117.46,377,152.15,377s62.93-29,62.93-64.74S186.85,247.46,152.15,247.46Z" transform="translate(-32.37 -111.12)"/><path d="M220.93,333c-23-1.42-45.9-25.38-57.05-38.87-8.91,11.42-23.75,21.95-27.44,24.47a7.27,7.27,0,0,1-7.67.38,7.7,7.7,0,0,1-3.94-6.77v-5.3a106.17,106.17,0,0,1-15.13,12.23,156.38,156.38,0,0,1-23.92,13.29l-5.71-14.21c11.22-4.79,41.17-21.17,44.92-39.2a7.5,7.5,0,0,1,8.09-6,7.62,7.62,0,0,1,6.69,7.64v16.28c7.64-6.45,14.74-13.73,16-18.39a7.55,7.55,0,0,1,5.89-5.46,7.38,7.38,0,0,1,7.35,3.07c7.83,11.13,32.57,40.27,52.78,41.52Z" transform="translate(-32.37 -111.12)"/><path d="M240.62,511.12H63.69a7.53,7.53,0,0,1-7.34-6.27,89.93,89.93,0,0,1-1.47-16.3c0-39.68,26-75.29,64.61-88.61a101,101,0,0,1,65.33,0c38.64,13.32,64.61,48.93,64.61,88.61a90.83,90.83,0,0,1-1.47,16.3A7.54,7.54,0,0,1,240.62,511.12ZM70.16,495.74h164c.23-2.37.34-4.78.34-7.19,0-33.06-21.86-62.81-54.41-74a86.38,86.38,0,0,0-55.83,0c-32.55,11.23-54.42,41-54.42,74C69.82,491,69.94,493.37,70.16,495.74Z" transform="translate(-32.37 -111.12)"/><path d="M152.15,441.45c-18.86,0-34.7-13.88-37.66-33a7.71,7.71,0,0,1,5-8.5,101,101,0,0,1,65.33,0,7.72,7.72,0,0,1,5,8.5C186.86,427.57,171,441.45,152.15,441.45Zm-21-29a23,23,0,0,0,42,0,87,87,0,0,0-42,0Z" transform="translate(-32.37 -111.12)"/><path d="M50.18,288.32a7.29,7.29,0,0,1-4.66-1.68,36,36,0,0,1-10.75-15A36.76,36.76,0,0,1,35.35,244,35.28,35.28,0,0,1,54.7,225c18-7.2,38.31,2,45.31,20.5h0A36.9,36.9,0,0,1,102,264a7.65,7.65,0,0,1-4.68,6,7.3,7.3,0,0,1-7.38-1.17A19.65,19.65,0,0,0,70.1,265.7a20.6,20.6,0,0,0-12.54,16.1,7.62,7.62,0,0,1-4.66,6A7.16,7.16,0,0,1,50.18,288.32ZM67.37,237.9a19.51,19.51,0,0,0-7.25,1.41A20.23,20.23,0,0,0,49,250.23a21,21,0,0,0-.72,14.68,35.18,35.18,0,0,1,16.37-13.53A34,34,0,0,1,85.63,250,20.06,20.06,0,0,0,67.37,237.9Z" transform="translate(-32.37 -111.12)"/><path d="M534,341.08H218.24V319.59H523.61v-187H139.55V247.46H118.79V121.86a10.57,10.57,0,0,1,10.38-10.74H534a10.56,10.56,0,0,1,10.38,10.74V330.33A10.56,10.56,0,0,1,534,341.08Z" transform="translate(-32.37 -111.12)"/><path d="M376.22,184.19H281.76a10.75,10.75,0,0,1,0-21.49h94.46a10.75,10.75,0,0,1,0,21.49Z" transform="translate(-32.37 -111.12)"/><path d="M329.16,299.17h0a10.56,10.56,0,0,1-10.34-10.78l.35-113.91a10.56,10.56,0,0,1,10.38-10.71h0a10.58,10.58,0,0,1,10.35,10.78l-.35,113.91A10.57,10.57,0,0,1,329.16,299.17Z" transform="translate(-32.37 -111.12)"/><path d="M291.09,233.54a10.46,10.46,0,0,1-10.1-8.33,10.76,10.76,0,0,1,7.78-12.89l75.77-18.1A10.38,10.38,0,0,1,377,202.27a10.76,10.76,0,0,1-7.78,12.89l-75.78,18.1A9.91,9.91,0,0,1,291.09,233.54Z" transform="translate(-32.37 -111.12)"/><path d="M291.09,260.4a10.46,10.46,0,0,1-10.1-8.33,10.75,10.75,0,0,1,7.78-12.88l75.77-18.11A10.38,10.38,0,0,1,377,229.14,10.76,10.76,0,0,1,369.21,242l-75.78,18.11A10.44,10.44,0,0,1,291.09,260.4Z" transform="translate(-32.37 -111.12)"/></svg>