<svg fill="#fff" id="Layer_1" data-name="Layer 1" xmlns="http://www.w3.org/2000/svg" viewBox="0 0 522 522"><defs><style>.cls-1,.cls-2{fill:none;stroke:#fff;stroke-width:20px;}.cls-1{stroke-miterlimit:10;}.cls-2{stroke-linecap:round;stroke-linejoin:round;}</style></defs><title>3</title><path class="cls-1" d="M87,117.24H75.55c-15.56,0-28.17,12-28.17,26.75V517.74c0,14.78,12.61,26.76,28.17,26.76H344.1c15.56,0,28.18-12,28.18-26.76" transform="translate(-37.38 -32.5)"/><path d="M542.27,286.79a8.56,8.56,0,0,1-2.07-.25,8.13,8.13,0,0,1-6-5.53,21.94,21.94,0,0,0-16-14.86,23.23,23.23,0,0,0-21.54,5.76,8.61,8.61,0,0,1-8,2.15,8.15,8.15,0,0,1-6-5.52,35.23,35.23,0,0,1-.26-19.24c5.32-19.83,26.64-31.84,47.51-26.79a38.65,38.65,0,0,1,23.94,17,35.25,35.25,0,0,1,4.27,28.11h0a36.65,36.65,0,0,1-9.93,16.77A8.56,8.56,0,0,1,542.27,286.79Zm-29.51-37.14a41.14,41.14,0,0,1,9.59,1.14,39.54,39.54,0,0,1,19.92,11.74,20.19,20.19,0,0,0-2.73-14.92,22.15,22.15,0,0,0-13.72-9.75c-11.54-2.8-23.32,3.52-26.87,14.18A41.14,41.14,0,0,1,512.76,249.65Z" transform="translate(-37.38 -32.5)"/><path class="cls-1" d="M333,117.24h11.1c15.56,0,28.18,12,28.18,26.75V259.2" transform="translate(-37.38 -32.5)"/><line class="cls-1" x1="334.9" y1="389.12" x2="334.9" y2="332.45"/><path d="M210.06,98.5a8.93,8.93,0,1,0,9.39,8.92,9.17,9.17,0,0,0-9.39-8.92Z" transform="translate(-37.38 -32.5)"/><polyline class="cls-2" points="57.25 216.13 89.2 242.62 126.6 205.16"/><polyline class="cls-2" points="57.25 299.09 89.2 325.57 126.6 288.11"/><polyline class="cls-2" points="57.25 382.05 89.2 408.53 126.6 371.06"/><line class="cls-2" x1="163.29" y1="223.89" x2="262.83" y2="223.89"/><line class="cls-2" x1="163.29" y1="306.84" x2="279.73" y2="306.84"/><line class="cls-2" x1="163.29" y1="389.8" x2="279.73" y2="389.8"/><path d="M428.51,395.17c-47.93,0-86.93-37-86.93-82.57s39-82.58,86.93-82.58,86.93,37,86.93,82.58S476.45,395.17,428.51,395.17Zm0-149.3c-38.73,0-70.25,29.93-70.25,66.73s31.52,66.73,70.25,66.73,70.25-29.94,70.25-66.73S467.25,245.87,428.51,245.87Z" transform="translate(-37.38 -32.5)"/><path d="M505.29,334c-25.66-1.46-51.23-26.15-63.68-40.06-10,11.78-26.52,22.62-30.64,25.23a8.71,8.71,0,0,1-8.56.39,7.87,7.87,0,0,1-4.4-7v-5.46a118.71,118.71,0,0,1-16.89,12.61,180.19,180.19,0,0,1-26.7,13.69L348,318.8c12.53-4.94,46-21.82,50.15-40.41a8.3,8.3,0,0,1,9-6.21,8.08,8.08,0,0,1,7.46,7.88v16.77c8.53-6.65,16.45-14.16,17.89-18.95a8.22,8.22,0,0,1,6.58-5.63,8.57,8.57,0,0,1,8.21,3.17c8.73,11.46,36.35,41.5,58.92,42.79Z" transform="translate(-37.38 -32.5)"/><path d="M527.27,517.61H329.75a8.23,8.23,0,0,1-8.19-6.45,86.21,86.21,0,0,1-1.64-16.8c0-40.9,29-77.61,72.13-91.34A121.52,121.52,0,0,1,465,403c43.14,13.73,72.13,50.44,72.13,91.34a86.21,86.21,0,0,1-1.64,16.8A8.24,8.24,0,0,1,527.27,517.61ZM337,501.77H520.05a73.1,73.1,0,0,0,.38-7.41c0-34.08-24.42-64.75-60.75-76.31a104.09,104.09,0,0,0-62.33,0C361,429.61,336.6,460.28,336.6,494.36A73.1,73.1,0,0,0,337,501.77Z" transform="translate(-37.38 -32.5)"/><path d="M428.51,445.81c-21.06,0-38.74-14.31-42.05-34A7.9,7.9,0,0,1,392,403,121.56,121.56,0,0,1,465,403a7.9,7.9,0,0,1,5.58,8.76C467.26,431.5,449.57,445.81,428.51,445.81Zm-23.43-29.89a26.58,26.58,0,0,0,46.87,0,104.95,104.95,0,0,0-46.87,0Z" transform="translate(-37.38 -32.5)"/><path d="M314.67,288a8.6,8.6,0,0,1-5.2-1.73,37.36,37.36,0,0,1-12-15.51,35.2,35.2,0,0,1,.65-28.4,38,38,0,0,1,21.6-19.65c20.07-7.42,42.76,2.06,50.58,21.13h0A35.33,35.33,0,0,1,372.49,263a8,8,0,0,1-5.23,6.17,8.69,8.69,0,0,1-8.23-1.21,23.39,23.39,0,0,0-22.12-3.25,21.57,21.57,0,0,0-14,16.6,8,8,0,0,1-5.21,6.17A8.64,8.64,0,0,1,314.67,288Zm19.19-52a23.35,23.35,0,0,0-8.09,1.45,21.81,21.81,0,0,0-12.38,11.26,20.13,20.13,0,0,0-.8,15.12,38.79,38.79,0,0,1,18.27-13.94,41.12,41.12,0,0,1,23.39-1.46A22.54,22.54,0,0,0,333.86,236Z" transform="translate(-37.38 -32.5)"/><path d="M316.4,158.54H103.6c-14.67,0-26.6-11.71-26.6-26.09v-41c0-14.39,11.93-26.09,26.6-26.09h51.26c8.92-19.67,30.45-32.86,55-32.86s46,13.21,55,32.86H316.4c14.67,0,26.6,11.7,26.6,26.09v41C343,146.83,331.07,158.54,316.4,158.54ZM103.6,85A6.54,6.54,0,0,0,97,91.45v41a6.54,6.54,0,0,0,6.6,6.47H316.4a6.54,6.54,0,0,0,6.6-6.47v-41A6.54,6.54,0,0,0,316.4,85H251l-2.51-6.17a11.85,11.85,0,0,1-.52-1.52c-4.31-14.83-20-25.17-38.16-25.17s-34.22,10.76-38.28,25.6l-2,7.26Z" transform="translate(-37.38 -32.5)"/></svg>