<?xml version="1.0" encoding="utf-8"?>
<!-- Generator: Adobe Illustrator 23.0.5, SVG Export Plug-In . SVG Version: 6.00 Build 0)  -->
<svg version="1.1" id="Layer_1" xmlns="http://www.w3.org/2000/svg" xmlns:xlink="http://www.w3.org/1999/xlink" x="0px" y="0px"
	 viewBox="0 0 512 512" style="enable-background:new 0 0 512 512;" xml:space="preserve">
<g>
	<path d="M277.22,405.76c-14.22,0-27.67,0-41.74,0c-0.08,1.8-0.19,3.55-0.23,5.3c-0.28,12.97,0.16,26-0.95,38.89
		c-2.45,28.48-30.26,53.7-58.77,54.8c-26.59,1.02-46.97-9.39-60.08-32.42c-3.98-7-6.49-15.39-7.46-23.42
		c-1.26-10.46-0.31-21.18-0.31-32.17c1.38-0.11,2.82-0.32,4.27-0.32c11-0.02,22,0.17,32.99-0.06c4.03-0.08,5.63,0.92,5.43,5.24
		c-0.32,6.82,0.01,13.66,0.01,20.49c0,9.47,7.98,20.27,21.22,19.55c11.5-0.62,20.43-8.6,20.46-20.09
		c0.09-38.99-0.03-77.99-0.09-116.98c0-1.13-0.25-2.26-0.42-3.68c-13.63,0-27.04,0-41.28,0c0,7.76,0.08,15.35-0.02,22.93
		c-0.12,9.92,1.64,8.89-9.11,8.97c-11.14,0.08-22.28,0.02-34.72,0.02c0-9.27-0.28-18.17,0.14-27.04c0.16-3.33-0.37-4.62-3.74-4.6
		c-10.32,0.07-20.65-0.2-30.97,0.05c-16.18,0.39-25.88,15.55-19.2,29.8c4.04,8.61,11.55,11.39,20.41,11.4
		c33.66,0.05,67.32,0.14,100.98-0.06c4.86-0.03,6.68,0.89,6.48,6.22c-0.45,12.11-0.14,24.26-0.14,37.04c-2.21,0-3.98,0-5.75,0
		c-34.49,0.02-68.99,0.05-103.48,0.07c-32.41,0.02-59.47-22.54-63.62-54.77c-4.99-38.73,22.43-68.55,54.54-72.33
		c13.15-1.55,26.56-0.92,39.85-1.04c3.84-0.03,4.99-0.68,4.55-5.08c-0.75-7.54-0.22-15.2-0.23-22.81c0-4.65,0-9.31,0-14.52
		c-2.22-0.13-4.15-0.33-6.08-0.33c-9.83-0.04-19.66,0.03-29.49-0.03c-27.91-0.17-53.81-19.71-61.08-46.01
		c-7.93-28.72,3.15-57.45,27.9-72.89c10.16-6.34,21.21-9.3,33.03-9.34c34.99-0.11,69.99,0.02,104.98-0.12
		c3.99-0.02,5.17,1.2,5.09,5.13c-0.22,10.83-0.24,21.67,0.05,32.49c0.12,4.37-1.17,5.66-5.62,5.63
		c-33.16-0.18-66.32-0.09-99.48-0.09c-7.35,0-14.31,1.13-19.58,6.97c-5.86,6.5-6.89,14.16-3.7,21.87
		c3.26,7.89,9.63,12.74,18.46,12.98c10.49,0.29,21-0.06,31.49,0.11c3.86,0.06,4.59-1.25,4.39-5.02c-0.44-8.38-0.14-16.8-0.14-25.3
		c15.19,0,29.26,0,43.85,0c0,10.14,0,19.89,0,29.95c13.93,0,27.35,0,41.23,0c0.13-2.17,0.37-4.28,0.37-6.4
		c0.04-37.33,0.05-74.65,0.06-111.98c0-10.6-6.32-19-16.06-21.39c-9.59-2.35-19.08,1.87-23.31,10.9c-1.36,2.91-1.92,6.39-2.08,9.64
		c-0.34,6.98-0.34,14-0.16,20.99c0.08,3.12-0.79,4.65-4.07,4.64c-12-0.05-24,0.06-35.99-0.13c-1.09-0.02-3.09-1.73-3.08-2.62
		c0.28-16.37-2.02-32.89,4.71-48.78c9.82-23.17,34.28-38.82,59.35-38.93c34.37-0.16,65.71,29.75,64.18,67.25
		c-0.43,10.46-0.07,20.95-0.07,31.83c13.8,0,27.37,0,41.8,0c0-1.79-0.01-3.71,0-5.62c0.06-11.99-0.66-24.05,0.33-35.97
		c2.31-27.72,25.54-51.47,51.96-56.41c31.16-5.83,64.94,13.84,73.16,44.3c2.54,9.42,3.82,35.2,2.01,44.9
		c-13.12,0-26.4,0.09-39.69-0.18c-0.99-0.02-2.7-2.59-2.76-4.03c-0.29-6.99,0-14-0.16-20.99c-0.34-15.2-12.08-24.22-26.67-20.41
		c-7.6,1.99-12.03,7.42-14.12,14.77c-0.63,2.21-0.86,4.6-0.86,6.92c-0.06,38.16-0.06,76.32-0.07,114.48c0,0.97,0.13,1.94,0.23,3.24
		c13.43,0,26.66,0,40.64,0c0-8.35,0.21-16.61-0.09-24.86c-0.15-4.15,1.12-5.42,5.31-5.33c12.46,0.26,24.93,0.09,38.27,0.09
		c0,10.28,0,20.01,0,29.82c1.61,0.32,2.39,0.6,3.16,0.6c11.33,0.03,22.67,0.17,33.99-0.02c10.91-0.18,19.39-8.6,20.1-19.53
		c0.73-11.3-6.26-20.05-17.48-21.79c-1.96-0.3-3.98-0.37-5.97-0.37c-33.66-0.01-67.32,0.02-100.98,0.03c-1.62,0-3.24,0-5.45,0
		c0-2.09,0-3.71,0-5.32c-0.01-10.16,0.01-20.33-0.05-30.49c-0.04-7.42-0.09-7.43,7.06-7.43c32.47,0,64.95,0.15,97.42-0.04
		c19.82-0.12,37.41,5.27,51.2,20c9.14,9.76,15.01,21.33,16.72,34.82c3.33,26.26-6.71,46.69-27.49,62.11
		c-9.66,7.16-20.93,10.82-33,11.1c-12.64,0.3-25.29,0.07-38.71,0.07c0,14.33,0,28.26,0,42.93c1.62,0,3.55-0.07,5.47,0.01
		c14.58,0.6,29.32,0.05,43.7,2.11c25.54,3.67,47.28,28.44,50.12,54.25c2.73,24.82-5.88,44.61-25.51,59.58
		c-10.69,8.15-22.96,12.19-36.56,12.15c-34.83-0.11-69.65-0.06-104.48-0.08c-1.66,0-3.31,0-5.76,0c0-4.13,0-8.04,0-11.96
		c-0.01-9,0.07-18-0.06-26.99c-0.04-3.07,1.11-3.92,4.13-3.91c33.11,0.19,66.22,0.32,99.33,0.3c8.16,0,16.3-0.6,22-7.86
		c5.09-6.48,5.85-13.69,3.02-21.09c-2.97-7.77-9.12-12.66-17.3-13.09c-12.43-0.66-24.93-0.17-38.27-0.17c0,10.56,0,20.77,0,31.32
		c-2.09,0.23-3.35,0.49-4.6,0.49c-11.5,0.03-23-0.05-34.49,0.07c-3.73,0.04-4.62-1.09-4.38-5.02c0.52-8.75,0.16-17.55,0.16-26.72
		c-14.12,0-27.35,0-40.93,0c-0.12,1.28-0.35,2.56-0.36,3.84c-0.04,38.49,0.09,76.99-0.17,115.48c-0.07,9.66,6.56,20.36,18,21.46
		c12.4,1.19,22.73-4.88,23.75-19.26c0.51-7.3,0.23-14.66,0.11-21.99c-0.05-3.05,1.1-4.08,4.11-4.05
		c11.66,0.12,23.33-0.05,34.99,0.18c1.37,0.03,3.9,1.83,3.89,2.79c-0.13,13.56,1.51,27.23-2.53,40.58
		c-7.35,24.3-30.42,43.49-56.23,44.82c-19.52,1.01-36.36-4.72-50.07-18.64c-10.1-10.25-17.24-22.32-18.13-37.05
		c-0.74-12.27-0.66-24.59-0.92-36.88C277.19,410.26,277.22,408.28,277.22,405.76z M235.23,150.78c0,28.14,0,55.86,0,84.51
		c-28.55,0-56.57,0-84.62,0c0,14.5,0,28.06,0,42.16c2.11,0,3.91,0,5.7,0c24.65,0.01,49.3,0.11,73.95-0.05
		c3.97-0.03,5.11,1.11,5.08,5.08c-0.17,24.32-0.09,48.64-0.09,72.96c0,1.92,0,3.84,0,5.8c14.35,0,27.92,0,41.96,0
		c0-2.11,0-3.9,0-5.69c-0.01-24.15,0.09-48.3-0.11-72.46c-0.04-4.3,1-5.74,5.53-5.69c24.15,0.23,48.3,0.11,72.46,0.12
		c1.92,0,3.85,0,6.11,0c0-13.74,0.08-26.71-0.15-39.67c-0.02-1.02-2.24-2.86-3.43-2.86c-20.13,0.03-40.26,0.32-60.39,0.5
		c-6.56,0.06-13.12,0.01-20.21,0.01c0-29.04,0-56.77,0-84.7C263.02,150.78,249.57,150.78,235.23,150.78z"/>
</g>
</svg>
