<?xml version="1.0" encoding="utf-8"?>
<!-- Generator: Adobe Illustrator 23.0.5, SVG Export Plug-In . SVG Version: 6.00 Build 0)  -->
<svg version="1.1" id="Layer_1" xmlns="http://www.w3.org/2000/svg" fill="#c7c7c7" xmlns:xlink="http://www.w3.org/1999/xlink" x="0px" y="0px"
	 viewBox="0 0 512 512" style="enable-background:new 0 0 512 512;" xml:space="preserve">
<g>
	<path d="M489.25,502.65c-155.5,0-311,0-466.5,0c-0.58-0.21-1.14-0.5-1.74-0.63c-10.12-2.29-16.75-8.26-19.45-18.38
		c-0.41-1.53-0.77-3.06-1.15-4.6c0-22.97,0-45.95,0-68.92c0.2-1.45,0.5-2.9,0.6-4.36c1.05-15.38,5.05-29.86,13.1-43.1
		c10.04-16.53,24.55-27.96,41.76-36.23c35.36-16.98,70.75-33.91,106.13-50.86c1.48-0.71,2.94-1.47,3.62-1.81
		c-6.2-13.24-12.43-26-18.11-38.98c-1.69-3.87-3.86-6.89-7.04-9.52c-3.26-2.69-6.72-5.36-9.23-8.69
		c-11.35-15.03-15.06-32.07-11.99-50.55c1.52-9.13,5.66-16.57,15.4-19.06c3.12-0.8,3.83-2.37,3.6-5.21
		c-0.76-9.32-1.37-18.65-2.09-27.97c-1.13-14.62-0.44-29.11,3.49-43.29c6.16-22.2,19.48-37.46,42.74-42.34
		c7.32-1.54,14.35-3.56,21.05-6.91c10.42-5.2,21.46-8.49,33-10.04c5.14-0.69,10.29-1.24,15.44-1.85c7.45,0,14.89,0,22.34,0
		c5.86,0.84,11.77,1.42,17.57,2.55c36.41,7.06,64.59,25.81,82.88,58.57c6.67,11.94,11.04,24.75,14.33,37.95
		c1.2,4.8-0.16,8.86-3.93,10.37c-2.26,0.9-5.17,0.82-7.65,0.39c-3.69-0.64-7.26-1.98-10.93-3.04c2.48,9.4,4.77,18.41,7.34,27.34
		c0.37,1.28,1.96,2.73,3.29,3.14c7.41,2.29,12.52,6.97,14.39,14.4c1.31,5.19,2.12,10.67,2.1,16.01
		c-0.08,20.53-6.76,38.01-24.36,50.17c-1.6,1.11-2.92,3.12-3.6,4.99c-4.87,13.29-10.94,25.98-18.35,38.04
		c-0.59,0.95-1.13,1.94-1.78,3.05c1.64,0.84,2.94,1.55,4.27,2.18c12.64,6.01,25.3,11.95,37.91,18.02
		c24.55,11.81,49.31,23.23,73.53,35.68c26.05,13.38,42.51,34.6,48.11,63.68c1.02,5.29,1.53,10.68,2.28,16.02
		c0,23.61,0,47.22,0,70.84c-0.21,0.57-0.5,1.12-0.62,1.71c-2.06,10.66-8.29,17.47-18.75,20.4
		C491.22,502.06,490.24,502.36,489.25,502.65z M368.38,99.14c-0.33-1.2-0.54-2.23-0.88-3.2c-16.52-46.36-53.46-66.99-95.46-69.23
		C261.59,26.15,251,26.96,240.56,28c-13.21,1.32-25.64,5.43-37.09,12.45c-2.77,1.7-6.22,2.92-9.44,3.13
		c-19.18,1.25-31.13,11.49-37.28,29.18c-5.13,14.76-4.01,30.06-2.79,45.15c1.06,13.07,1.83,26.03,0.26,39.09
		c-0.85,7.06-5.78,10.28-12.37,7.8c-3.57-1.34-4.35-0.98-5.41,2.62c-0.27,0.91-0.49,1.86-0.6,2.8
		c-1.67,14.27,1.43,27.26,10.78,38.38c1.4,1.67,3.61,3.07,5.71,3.66c4.07,1.15,6.69,3.49,8.11,7.35c1.35,3.68,2.63,7.38,4.01,11.05
		c9.98,26.61,24.42,50.15,47.1,67.97c13.38,10.51,28.24,17.3,45.61,16.95c13.42-0.27,25.5-4.96,36.65-12.21
		c18.47-12.01,31.6-28.78,42.35-47.65c6.43-11.28,11.47-23.16,15.31-35.56c1.03-3.32,2.38-6.55,6.37-7.18
		c4.21-0.66,7.13-3.04,9.47-6.39c3.87-5.54,6.75-11.57,8.08-18.19c1.49-7.43,2.33-14.91-0.37-22.31c-0.68-1.86-1.61-3.03-3.76-1.69
		c-6.63,4.14-13.62-1.49-13.58-8.49c0.03-4.41-0.58-8.94-1.66-13.22c-1.97-7.79-4.64-15.41-6.76-23.16
		c-2.83-10.36,1.9-18.23,11.88-19.99C363.4,99.13,365.76,99.27,368.38,99.14z M382.52,310.12c-0.27,1.01-0.45,1.49-0.52,1.99
		c-1.7,11.87-3.03,23.8-5.23,35.58c-1.16,6.21,0.52,10.76,4.32,15.42c5.63,6.91,10.78,14.22,16.1,21.38
		c4.94,6.65,4.81,9.24-0.5,15.72c-20.62,25.15-41.24,50.3-61.84,75.46c-2.51,3.07-4.94,6.2-7.82,9.81c1.97,0,3.13,0,4.29,0
		c50.83,0,101.66,0,152.49,0c7.8,0,10.55-2.75,10.56-10.55c0.01-20.42,0.24-40.84-0.14-61.25c-0.14-7.47-1.05-15.09-2.83-22.35
		c-5.61-22.9-20.41-38.49-41.08-48.75c-18.33-9.1-36.88-17.73-55.34-26.57C390.95,314.1,386.94,312.22,382.52,310.12z
		 M179.04,485.47c-1.3-1.82-2.08-2.95-2.91-4.05c-20.47-27.28-40.94-54.55-61.42-81.82c-4.59-6.11-4.71-8.67-0.34-14.51
		c5.73-7.65,11.55-15.24,17.32-22.85c3.45-4.56,4.84-9.58,3.56-15.27c-0.63-2.79-1.04-5.63-1.46-8.46
		c-1.36-9.32-2.68-18.64-4.05-28.27c-1.21,0.46-2.21,0.76-3.14,1.21c-21.81,10.44-43.73,20.65-65.37,31.4
		c-27.15,13.49-42.06,35.68-43.31,65.95c-0.93,22.61-0.31,45.29-0.21,67.94c0.02,5.66,3.2,8.48,8.86,8.7
		c1.06,0.04,2.13,0.03,3.19,0.03c48.38,0,96.77,0,145.15,0C176.03,485.47,177.16,485.47,179.04,485.47z M212.54,408.15
		c0.82-1.31,1.25-1.9,1.58-2.54c4.66-9.29,9.26-18.62,13.97-27.88c1.2-2.36,1.22-4.53,0.37-7.01c-2.19-6.41-4.38-12.84-6.14-19.38
		c-1.44-5.36,2.48-10.04,7.99-10.18c3.92-0.1,6.83,2,8.43,6.46c1.9,5.28,3.69,10.61,5.35,15.97c0.72,2.33,2,3.23,4.4,3.14
		c3.61-0.14,7.23-0.05,10.85-0.06c8.29-0.02,7.21,1.08,9.83-7c1.43-4.43,2.81-8.9,4.55-13.22c1.78-4.43,6.17-6.32,10.44-4.91
		c4.48,1.48,6.77,5.54,5.46,10.35c-1.05,3.87-2.17,7.79-3.83,11.42c-3.18,6.92-2.87,13.5,0.67,20.15
		c3.88,7.3,7.61,14.68,11.42,22.02c0.42,0.8,0.89,1.57,1.5,2.62c0.59-1.47,1.07-2.53,1.45-3.63
		c12.97-37.21,25.91-74.44,38.91-111.64c0.76-2.18,0.27-3.25-1.87-4.14c-2.57-1.07-3.92,0.11-5.38,1.91
		c-9.36,11.59-20.23,21.48-33.05,29.18c-13.95,8.37-28.88,13.36-45.29,12.84c-16.9-0.54-32.12-6.25-46.09-15.62
		c-10.87-7.29-19.91-16.55-28.64-26.17c-3.28-3.61-3.99-3.57-7.83-0.28C185.15,329.52,198.74,368.53,212.54,408.15z M155.92,297.6
		c-2.45,1.1-4.43,2.1-6.51,2.88c-2.46,0.92-3.41,2.36-2.99,5.11c2.15,14.26,3.84,28.6,6.33,42.79c1.42,8.07,0.59,14.8-5.18,21.17
		c-5.4,5.96-9.71,12.88-14.71,19.22c-1.93,2.46-1.88,4.31,0,6.74c5.8,7.46,11.43,15.05,17.11,22.61
		c16.08,21.39,32.14,42.79,48.28,64.14c0.96,1.27,2.45,2.96,3.77,3.02c6.31,0.32,12.64,0.14,19.3,0.14
		C199.47,422.64,177.75,360.26,155.92,297.6z M290.66,485.5c3.01,0,5.46-0.15,7.88,0.03c3.73,0.28,6.33-1.14,8.74-4.06
		c23.85-28.94,47.81-57.8,71.8-86.63c1.83-2.2,1.77-3.85,0.03-6.12c-5.96-7.74-11.65-15.69-17.58-23.45
		c-2.63-3.44-3.56-7.21-2.98-11.36c1.29-9.13,2.73-18.25,4.06-27.38c0.99-6.82,2.02-13.64,2.77-20.49c0.16-1.48-0.28-3.72-1.29-4.48
		c-2.29-1.72-5.11-2.73-7.94-4.13C334.26,360.29,312.54,422.67,290.66,485.5z M272.62,485.42c6.03-17.39,12.04-34.57,17.88-51.82
		c0.49-1.44,0.3-3.51-0.37-4.89c-6.91-14.09-13.93-28.12-21.13-42.07c-0.67-1.3-2.7-2.58-4.17-2.68
		c-5.83-0.37-11.69-0.25-17.53-0.35c-2.16-0.04-3.52,0.85-4.5,2.82c-6.9,13.98-13.95,27.89-20.76,41.92
		c-0.75,1.54-0.91,3.84-0.37,5.46c5.57,16.57,11.31,33.08,17.13,49.56c0.31,0.87,1.67,1.94,2.55,1.95
		C251.66,485.47,261.97,485.42,272.62,485.42z"/>
	<path d="M303.29,120.02c-32.66,0.62-63.18-7.54-91.88-22.82c-2.68-1.43-3.98-1.14-5.56,1.4c-3.58,5.77-7.38,11.41-11.23,17
		c-2.89,4.2-7.1,5.46-11.04,3.6c-4.53-2.14-6.53-6.97-3.79-11.48c4.95-8.15,10.12-16.23,15.96-23.74c4.82-6.18,12.32-6.99,20.3-3.4
		c6.86,3.09,13.58,6.5,20.48,9.49c20.54,8.92,42.11,12.81,64.42,12.97c6.48,0.05,12.97-0.01,19.45,0.05
		c5.54,0.05,9.15,3.15,9.34,7.9c0.2,5.17-2.87,8.65-8.61,8.95C315.21,120.26,309.24,120.02,303.29,120.02z"/>
</g>
</svg>
