<?xml version="1.0" encoding="utf-8"?>
<!-- Generator: Adobe Illustrator 23.0.5, SVG Export Plug-In . SVG Version: 6.00 Build 0)  -->
<svg version="1.1" id="Layer_1" xmlns="http://www.w3.org/2000/svg" fill="#c7c7c7"  xmlns:xlink="http://www.w3.org/1999/xlink" x="0px" y="0px"
	 viewBox="0 0 512 512" style="enable-background:new 0 0 512 512;" xml:space="preserve">
<g>
	<path d="M0,250.4c0.9-10.3,1.5-20.6,2.9-30.8c5.8-41.8,21.3-79.8,46.2-113.7c35.9-48.8,83.1-81.7,141.8-97
		C251.5-7,310.6-1.7,367,25.8c66.2,32.4,110.6,84.2,133.4,154.3c7.7,23.6,11.3,47.9,11.5,72.7c0.4,73.2-25.5,135.9-77.7,187
		c-43.6,42.7-96.4,66.8-157.4,71.4c-74.1,5.6-139.2-16.8-194.1-67c-43.2-39.5-69.5-88.7-79.1-146.5c-1.8-10.7-2.2-21.5-3.3-32.3
		c-0.1-1.1-0.2-2.2-0.3-3.3C0,258.1,0,254.3,0,250.4z M15.2,256.3c0.2,132,106.4,238.9,237.3,240.7
		c133.6,1.9,242.2-105.1,244.3-236.8c2.1-134.2-105.1-242-235.4-244.7C126.1,12.6,15.4,121.8,15.2,256.3z"/>
	<path d="M221.7,220.6c-0.5-1.1-0.9-2-1.4-3.1c3.8-2.2,7.5-4.2,11.3-6.4c0.8,1.2,1.6,2.3,2.4,3.4c13.7-4.4,26.6-2.5,38.8,5.4
		c1.4-1.3,2.7-2.4,4-3.7c23.2-22.9,46.3-45.9,69.5-68.8c1.8-1.8,2-3,1-5.5c-4.6-10.9-3.3-21.3,4.6-30.3c7.9-9.1,18.3-11.9,29.8-8.5
		c11.3,3.3,18.2,11.3,19.9,22.9c1.7,11.2-2,20.7-11.2,27.4c-9.2,6.7-19.2,7.4-29.5,2.6c-0.8-0.4-1.6-0.8-2.7-1.4
		c-25.1,24.8-50.2,49.6-75,74.2c2.4,5.2,5.1,9.9,6.8,14.9c2.7,7.8,2.7,15.9,0.3,23.8c-0.6,2.2-1,4,2,4.8c-2,4-4,7.8-6,11.7
		c-1.1-0.4-2-0.7-2.6-0.9c-4.3,3.6-8.4,7-12.5,10.5c-0.5,0.4-0.7,1.5-0.5,2.1c4.5,19.1,9,38.1,13.6,57.2c0,0.1,0.2,0.1,0.5,0.3
		c7,0,13.4,2.1,19,6.7c9.9,8.2,13,22.7,7.3,34.5c-5.8,11.9-19.2,18.3-32.4,15.3c-12.5-2.8-21.7-14.1-22-26.9
		c-0.2-10.6,4.2-18.7,12.8-24.7c1.3-0.9,1.8-1.6,1.4-3.2c-4.3-18.1-8.6-36.1-12.9-54.2c-0.1-0.4-0.3-0.8-0.5-1.4
		c-8.8,1.8-17.5,1.3-25.8-1.9c-8.3-3.2-15-8.6-20.2-15.9c-1.8,0.9-3.5,1.6-5.5,2.5c-2-3.9-3.9-7.7-6-11.8c1.9-1,3.6-2,5.4-3
		C200.5,249.7,206,233.6,221.7,220.6z M247.6,287.2c16.8,0.2,30.9-13.7,31.1-30.6c0.2-16.8-13.6-30.8-30.6-31.1
		c-16.4-0.3-30.9,13.7-31,30C216.9,273,230.4,287,247.6,287.2z M373.5,115.3c-8.3,0-15.3,7-15.2,15.2c0,8.2,7,15.2,15.2,15.3
		c8.2,0.1,15.5-7.2,15.4-15.4C388.7,122,381.8,115.2,373.5,115.3z M270.1,382.2c0,8.2,7.1,15.2,15.3,15.2c8.2,0,15.2-7.1,15.3-15.3
		c0-8.3-7.1-15.4-15.5-15.3C276.8,366.9,270.1,373.8,270.1,382.2z"/>
	<path d="M164.1,309.3c0.1,12.2-9.6,22.2-21.8,22.2c-12.6,0.1-22.5-9.4-22.6-21.7c-0.1-12.7,9.5-22.5,22-22.6
		C154.2,287.2,164,296.9,164.1,309.3z"/>
	<path d="M369.7,330.9c0.4-12.7,10.3-22.1,23.2-21.7c12.1,0.3,21.5,10.6,21.1,23.2c-0.4,12.1-10.5,21.4-23.2,21.1
		C379,353.2,369.4,342.9,369.7,330.9z"/>
	<path d="M175.6,147.5c-12.3,0-22.2-9.8-22.2-22.2c0-12.4,9.8-22.2,22.1-22.2c12.2,0,22.1,9.7,22.1,21.9
		C197.7,137.8,188.2,147.5,175.6,147.5z"/>
	<path d="M330.1,291.8c-2.2,4.2-4.1,7.9-6.1,12c-6.5-3.3-12.8-6.6-19.3-9.9c2-4,4-7.8,6.1-11.9C317.2,285.3,323.5,288.5,330.1,291.8
		z"/>
	<path d="M348.4,301.4c6.6,3.4,12.8,6.6,19.4,9.9c-2,4-4,7.8-6.1,11.9c-6.4-3.3-12.7-6.5-19.3-9.9
		C344.4,309.3,346.3,305.6,348.4,301.4z"/>
	<path d="M170.9,302.2c-2.1-4.1-4-7.8-6.1-11.9c5.9-3,11.8-6,18-9.2c2,4,4,7.8,6.1,12C183,296.1,177.1,299,170.9,302.2z"/>
	<path d="M184.1,153.5c4.1-2.3,7.8-4.3,11.7-6.5c3.1,5.6,6.1,10.8,9.2,16.4c-3.9,2.2-7.6,4.3-11.7,6.6
		C190.3,164.5,187.3,159.2,184.1,153.5z"/>
	<path d="M213.9,179c3.2,5.7,6.2,11,9.2,16.5c-4,2.2-7.7,4.3-11.7,6.6c-3.1-5.5-6.1-10.8-9.3-16.5C206,183.4,209.8,181.3,213.9,179z
		"/>
</g>
</svg>
