<?xml version="1.0" encoding="utf-8"?>
<!-- Generator: Adobe Illustrator 24.1.2, SVG Export Plug-In . SVG Version: 6.00 Build 0)  -->
<svg version="1.1" id="Capa_1" fill='#c7c7c7' xmlns="http://www.w3.org/2000/svg" xmlns:xlink="http://www.w3.org/1999/xlink" x="0px" y="0px"
	 viewBox="0 0 512 512" style="enable-background:new 0 0 512 512;" xml:space="preserve">
<g id="XMLID_629_">
	<g id="XMLID_624_">
		<path id="XMLID_1043_" d="M470.3,225.8c-15.3,0-28.4,9.6-33.6,23.2h-16c-1.4-18.2-5.7-35.9-13-52.7c-2.8-6.5-10.3-9.5-16.8-6.7
			c-6.5,2.8-9.5,10.3-6.7,16.8c7.6,17.5,11.4,36.1,11.4,55.3c0,33.9-12.1,65-32.3,89.2l-8.1-8.1c-5-5-13.1-5-18.1,0
			c-5,5-5,13.1,0,18.1l8.1,8.1c-24.2,20.2-55.3,32.3-89.2,32.3s-65-12.1-89.2-32.3l1.3-1.3c5-5,5-13.1,0-18.1c-5-5-13.1-5-18.1,0
			l-1.3,1.3c-20.2-24.2-32.3-55.3-32.3-89.2s12.1-65,32.3-89.2l10.5,10.5c2.5,2.5,5.8,3.7,9,3.7c3.3,0,6.6-1.2,9-3.7
			c5-5,5-13.1,0-18.1l-10.5-10.5c24.2-20.2,55.3-32.3,89.2-32.3c19,0,37.5,3.8,54.8,11.2c6.5,2.8,14-0.2,16.8-6.7
			c2.8-6.5-0.2-14-6.7-16.8c-16.6-7.1-34.1-11.4-52-12.7V81.4c16.7-5.4,28.9-21.1,28.9-39.7C297.7,18.7,279,0,256,0
			c-23,0-41.7,18.7-41.7,41.7c0,18.5,12.1,34.3,28.9,39.7V97c-35.9,2.8-68.7,17.1-94.6,39.3l-10.2-10.2c2.6-5.3,4.1-11.3,4.1-17.6
			c0-22-17.9-39.8-39.8-39.8c-22,0-39.8,17.9-39.8,39.8s17.9,39.8,39.8,39.8c6.3,0,12.3-1.5,17.6-4.1l10.2,10.2
			c-22.2,25.9-36.5,58.6-39.3,94.6h-16c-5.2-13.5-18.3-23.2-33.6-23.2c-19.8,0-36,16.1-36,36s16.1,36,36,36
			c15.3,0,28.4-9.6,33.6-23.2h16c2.8,35.9,17.1,68.7,39.3,94.6l-19.5,19.5c-5.3-2.6-11.3-4.1-17.6-4.1c-22,0-39.8,17.9-39.8,39.8
			s17.9,39.8,39.8,39.8s39.8-17.9,39.8-39.8c0-6.3-1.5-12.3-4.1-17.6l19.5-19.5c25.9,22.2,58.6,36.5,94.6,39.3v16
			c-13.5,5.2-23.2,18.3-23.2,33.6c0,19.8,16.1,36,36,36s36-16.1,36-36c0-15.3-9.6-28.4-23.2-33.6v-16c35.9-2.8,68.7-17.1,94.6-39.3
			l9.3,9.3c-2.6,5.3-4.1,11.3-4.1,17.6c0,22,17.9,39.8,39.8,39.8c22,0,39.8-17.9,39.8-39.8c0-22-17.9-39.8-39.8-39.8
			c-6.3,0-12.3,1.5-17.6,4.1l-9.3-9.3c22.2-25.9,36.5-58.6,39.3-94.6h16c5.2,13.5,18.3,23.2,33.6,23.2c19.8,0,36-16.1,36-36
			C506.3,241.9,490.1,225.8,470.3,225.8L470.3,225.8z M256,25.6c8.9,0,16.1,7.2,16.1,16.1s-7.2,16.1-16.1,16.1
			c-8.9,0-16.1-7.2-16.1-16.1S247.1,25.6,256,25.6L256,25.6z M102.8,122.7c-7.8,0-14.2-6.4-14.2-14.2s6.4-14.2,14.2-14.2
			s14.2,6.4,14.2,14.2S110.6,122.7,102.8,122.7z M41.7,272.1c-5.7,0-10.4-4.7-10.4-10.4s4.7-10.4,10.4-10.4s10.4,4.7,10.4,10.4
			S47.4,272.1,41.7,272.1z M93.5,438.5c-7.8,0-14.2-6.4-14.2-14.2S85.6,410,93.5,410s14.2,6.4,14.2,14.2
			C107.7,432.1,101.3,438.5,93.5,438.5z M256,486.4c-5.7,0-10.4-4.7-10.4-10.4c0-5.7,4.7-10.4,10.4-10.4s10.4,4.7,10.4,10.4
			C266.4,481.8,261.7,486.4,256,486.4L256,486.4z M408.4,399.9c7.8,0,14.2,6.4,14.2,14.2s-6.4,14.2-14.2,14.2
			c-7.8,0-14.2-6.4-14.2-14.2S400.6,399.9,408.4,399.9z M470.3,272.1c-5.7,0-10.4-4.7-10.4-10.4s4.7-10.4,10.4-10.4
			c5.7,0,10.4,4.7,10.4,10.4C480.7,267.4,476,272.1,470.3,272.1z"/>
		<path id="XMLID_1052_" d="M146.2,261.7c0,22,17.9,39.8,39.8,39.8s39.8-17.9,39.8-39.8S208,221.9,186,221.9
			S146.2,239.8,146.2,261.7z M200.3,261.7c0,7.8-6.4,14.2-14.2,14.2c-7.8,0-14.2-6.4-14.2-14.2c0-7.8,6.4-14.2,14.2-14.2
			C193.9,247.5,200.3,253.9,200.3,261.7z"/>
		<path id="XMLID_1055_" d="M283.2,167.8c-22,0-39.8,17.9-39.8,39.8c0,22,17.9,39.8,39.8,39.8c22,0,39.8-17.9,39.8-39.8
			S305.2,167.8,283.2,167.8z M283.2,221.9c-7.8,0-14.2-6.4-14.2-14.2c0-7.8,6.4-14.2,14.2-14.2c7.8,0,14.2,6.4,14.2,14.2
			C297.4,215.5,291,221.9,283.2,221.9z"/>
		<path id="XMLID_1058_" d="M272.1,291.9c-22,0-39.8,17.9-39.8,39.8c0,22,17.9,39.8,39.8,39.8c22,0,39.8-17.9,39.8-39.8
			C312,309.7,294.1,291.9,272.1,291.9z M272.1,345.9c-7.8,0-14.2-6.4-14.2-14.2s6.4-14.2,14.2-14.2s14.2,6.4,14.2,14.2
			C286.4,339.5,280,345.9,272.1,345.9z"/>
		<path id="XMLID_1061_" d="M423.6,134c22,0,39.8-17.9,39.8-39.8s-17.9-39.8-39.8-39.8c-22,0-39.8,17.9-39.8,39.8
			S401.6,134,423.6,134z M423.6,79.9c7.8,0,14.2,6.4,14.2,14.2s-6.4,14.2-14.2,14.2c-7.8,0-14.2-6.4-14.2-14.2
			C409.4,86.3,415.7,79.9,423.6,79.9z"/>
		<path id="XMLID_1062_" d="M363.5,166.5c3.4,0,6.7-1.4,9-3.7s3.7-5.7,3.7-9.1c0-3.4-1.4-6.7-3.7-9c-2.4-2.4-5.7-3.7-9-3.7
			c-3.4,0-6.7,1.4-9,3.7c-2.4,2.4-3.7,5.7-3.7,9c0,3.4,1.4,6.7,3.7,9.1C356.9,165.2,360.2,166.5,363.5,166.5z"/>
	</g>
</g>
</svg>
