<?xml version="1.0" encoding="utf-8"?>
<!-- Generator: Adobe Illustrator 24.2.3, SVG Export Plug-In . SVG Version: 6.00 Build 0)  -->
<svg version="1.1" id="Layer_1" xmlns="http://www.w3.org/2000/svg" xmlns:xlink="http://www.w3.org/1999/xlink" x="0px" y="0px"
	fill="#fff" viewBox="0 0 450 450" style="enable-background:new 0 0 450 450;" xml:space="preserve">
<g>
	<path d="M225,0c4.4,0.3,8.7,0.6,13.1,0.9c41.9,2.3,83.4,6.8,123.4,20.3c14.4,4.9,28.3,11,39.7,21.6c7.5,7.1,11.2,15.4,11.2,26
		c-0.3,47.9-0.1,95.8-0.1,143.7c0,4.9-2.5,8.5-6.7,9.6c-4.1,1-7.7-0.2-9.9-3.9c-1.2-2-1.7-4.7-1.8-7c-0.2-7.4-0.1-14.8-0.1-22.3
		c-8.3,4-16.1,8.1-24.2,11.7c-5,2.2-10.3,3.9-15.6,5.5c-5.6,1.7-10.6-0.8-12.1-5.6c-1.7-5.3,0.8-9.6,6.6-11.9
		c10.1-4.1,20.2-8.3,30.1-12.7c3.1-1.4,5.9-3.8,8.6-6c4.5-3.5,6.8-7.8,6.7-13.9c-0.3-20.2-0.1-40.4-0.1-60.6
		c-7.8,3.8-15.2,7.8-22.9,11c-19.8,8.4-40.7,13.4-61.8,16.5c-20,3-40.2,5.8-60.4,6.8c-23.8,1.2-47.7,1-71.5,0.5
		c-16.3-0.4-32.7-1.8-48.9-3.7c-33.8-4.1-67.1-9.9-98-25.3c-3.7-1.9-7.3-4.1-11.4-6.4c-0.1,1.9-0.2,3.4-0.2,4.9
		c0,18.7,0.1,37.5-0.1,56.2c-0.1,5.8,2.1,10.2,6.4,13.7c11.1,9.3,24.5,14,38,18.3c20.7,6.6,42,10.5,63.6,13.3
		c29.9,3.9,60,5.7,90.2,5c18-0.4,35.9-2,53.8-3.3c7.8-0.5,12.5,2.4,12.8,8.4c0.2,5.2-3.1,9.4-8.4,9.9c-29.6,2.5-59.2,4.7-89,3
		c-15.8-0.9-31.6-1.4-47.3-3c-35.7-3.7-71.1-9.3-104.1-24.4c-5.1-2.3-10-5.3-15.4-8.1c-0.1,1.2-0.4,2.3-0.4,3.4
		c0,19.8,0,39.5-0.1,59.3c0,4.5,2,7.8,5,10.8c7.6,7.4,17.1,11.6,26.8,15.3c20.9,8,42.6,12.7,64.7,16c27.1,4.1,54.3,6.2,81.7,6.3
		c1.7,0,3.5,0.2,5.2,0.6c4.5,1,7.8,5.4,7.3,9.5c-0.5,4.6-4.2,8.3-8.8,8.2c-14.2-0.4-28.4-0.6-42.5-1.7c-14.5-1.1-29.1-2.5-43.5-4.6
		c-29-4.3-57.6-10.3-84.1-23.6c-3.7-1.9-7.3-4.1-11.6-6.5c0,2,0,3.6,0,5.1c0,18.5,0.3,36.9-0.1,55.4c-0.2,7.5,2.9,12.5,8.5,16.7
		c12.1,8.8,26,13.7,40.1,17.9c21,6.2,42.5,10,64.2,12.6c26.8,3.2,53.6,4.6,80.6,4.3c6.3-0.1,10.6,3.6,10.6,9.1
		c0,5.4-4.2,9.5-10.4,9.3c-24.5-1-49.1-1.7-73.6-3.5c-29.1-2.1-57.8-7.4-85.5-16.8c-9.6-3.3-18.9-7.6-27.9-12.3
		C13,373.2,3.5,364.4,0,350.7c0-96.1,0-192.2,0-288.3c3-14,12.6-22.8,24.4-29.1c9.5-5,19.3-9.6,29.5-12.9
		c39.1-13,79.8-17.2,120.7-19.5c4.2-0.2,8.4-0.6,12.6-0.9C199.8,0,212.4,0,225,0z M206.3,113.3c29.6-0.6,59-2.6,88.3-6.9
		c22.5-3.3,44.7-7.9,66-15.9c10.7-4,21.2-8.4,29.4-16.8c5.1-5.3,5.2-10.4,0.4-15.9c-1.3-1.5-2.9-2.9-4.5-4.1
		c-12.5-9.3-27-14.3-41.7-18.5c-40.8-11.7-82.8-15.5-125-16.5c-33.1-0.8-66,1.1-98.8,5.8c-21.4,3-42.4,7.3-62.9,14.2
		c-11.8,4-23.3,8.6-32.9,16.8c-7.7,6.6-7.8,13-0.4,19.9c0.7,0.7,1.5,1.4,2.4,1.9c6.9,3.8,13.5,8.3,20.7,11.2
		c31.3,12.8,64.4,18,97.8,21.1C165.3,111.6,185.8,112.2,206.3,113.3z"/>
	<path d="M329.6,450c-7.1-1.3-14.4-2-21.3-4.1c-45.5-13.9-73.4-44-81.5-91c-10.2-58.7,29.7-115.4,88-127.4
		c59.4-12.2,118.4,25.1,132.3,85c1.3,5.6,2,11.4,3,17.1c0,5.3,0,10.5,0,15.8c-0.6,4.1-1,8.3-1.9,12.4c-10.1,44.9-36.7,74.6-81,87.9
		c-7,2.1-14.5,2.9-21.7,4.3C340.1,450,334.9,450,329.6,450z M243.5,337.5c0,51.4,42.2,93.9,93.4,94c51.9,0.1,94.5-42.2,94.6-93.8
		c0.1-51.6-42.3-94.2-93.7-94.2C285.9,243.4,243.5,285.7,243.5,337.5z"/>
	<path d="M346.6,362.4c7.8-7.9,14.6-14.7,21.4-21.5c3.5-3.4,7.2-4,11.1-1.9c3.6,1.9,5.5,5.1,4.8,9c-0.4,2.3-1.7,4.7-3.4,6.4
		c-11.8,12-23.7,23.9-35.7,35.8c-5,5-9.8,4.9-14.9-0.1c-11.8-11.7-23.6-23.6-35.4-35.4c-4.7-4.8-5-10.3-0.8-14.3
		c4.1-3.8,9.2-3.4,13.9,1.3c5.6,5.6,11.2,11.2,16.8,16.8c1,1,2,1.9,3.9,3.6c0-2.6,0-4.2,0-5.7c0-20.8,0-41.6,0-62.4
		c0-2.3,0-4.8,0.7-6.9c1.1-3.4,5.7-6,9.1-5.6c4.3,0.5,7.6,3.6,8.2,7.9c0.2,1.7,0.2,3.5,0.2,5.3c0,20.6,0,41.3,0,61.9
		C346.6,357.9,346.6,359.4,346.6,362.4z"/>
</g>
</svg>
