<svg id="Layer_1" data-name="Layer 1" xmlns="http://www.w3.org/2000/svg" viewBox="0 0 512 400"><defs><style>.cls-1{fill:none;stroke:#000;stroke-linecap:round;stroke-linejoin:round;stroke-width:20px;}</style></defs><title>EH_2</title><path d="M52.8,421a9.42,9.42,0,0,1-7.7-4.09A10.71,10.71,0,0,1,47,402.55L203.92,276.81a9.16,9.16,0,0,1,11.69.1l149,123.43a10.71,10.71,0,0,1,1.69,14.39,9.23,9.23,0,0,1-13.5,1.8L209.6,297.92l-151,121A9.2,9.2,0,0,1,52.8,421Z" transform="translate(-43.17 -111)"/><path d="M328.07,508.72H85.82c-5.32,0-9.62-4.59-9.62-10.26V390c0-5.66,4.31-10.26,9.62-10.26s9.62,4.59,9.62,10.26v98.24h223V391c0-5.66,4.31-10.26,9.62-10.26s9.62,4.59,9.62,10.26V498.47C337.69,504.13,333.38,508.72,328.07,508.72Z" transform="translate(-43.17 -111)"/><path d="M114.22,366.38c-5.3,0-9.6-4.57-9.62-10.22l-.18-53.58a10.61,10.61,0,0,1,2.81-7.28,9.33,9.33,0,0,1,6.82-3h29.59c5.32,0,9.62,4.59,9.62,10.26v35.09c0,5.66-4.31,10.26-9.62,10.26S134,343.31,134,337.64V312.81H123.7l.15,43.28c0,5.67-4.27,10.27-9.59,10.29Z" transform="translate(-43.17 -111)"/><path d="M126.66,508.72c-5.32,0-9.62-4.59-9.62-10.26V452c0-23.58,18-42.77,40.13-42.77S197.3,428.45,197.3,452v43.51c0,5.66-4.31,10.26-9.62,10.26s-9.62-4.59-9.62-10.26V452c0-12.27-9.37-22.26-20.89-22.26s-20.89,10-20.89,22.26v46.44C136.28,504.13,132,508.72,126.66,508.72Z" transform="translate(-43.17 -111)"/><path d="M263.14,477H238.85c-9.24,0-16.75-8-16.75-17.85V410c0-9.84,7.51-17.85,16.75-17.85h24.29c9.24,0,16.75,8,16.75,17.85v49.14C279.89,469,272.37,477,263.14,477Zm-21.79-20.51h19.29V412.64H241.35Z" transform="translate(-43.17 -111)"/><path d="M463.58,511c-5.31,0-9.62-4.59-9.62-10.26V121.26c0-5.66,4.31-10.26,9.62-10.26s9.62,4.59,9.62,10.26V500.74C473.2,506.41,468.89,511,463.58,511Z" transform="translate(-43.17 -111)"/><path d="M545.54,184.15H380.37c-5.31,0-9.62-4.59-9.62-10.26s4.31-10.26,9.62-10.26H545.54c5.31,0,9.62,4.59,9.62,10.26S550.86,184.15,545.54,184.15Z" transform="translate(-43.17 -111)"/><path d="M432.78,175.43H422.45c-5.31,0-9.62-4.59-9.62-10.26v-11c0-5.66,4.31-10.26,9.62-10.26h10.33c5.31,0,9.62,4.59,9.62,10.26v11C442.4,170.84,438.1,175.43,432.78,175.43Z" transform="translate(-43.17 -111)"/><path d="M398.13,175.43H387.8c-5.31,0-9.62-4.59-9.62-10.26v-11c0-5.66,4.31-10.26,9.62-10.26h10.33c5.31,0,9.62,4.59,9.62,10.26v11C407.76,170.84,403.45,175.43,398.13,175.43Z" transform="translate(-43.17 -111)"/><path d="M504,175.43H493.63c-5.31,0-9.62-4.59-9.62-10.26v-11c0-5.66,4.31-10.26,9.62-10.26H504c5.31,0,9.62,4.59,9.62,10.26v11C513.59,170.84,509.28,175.43,504,175.43Z" transform="translate(-43.17 -111)"/><path d="M538.61,175.43H528.28c-5.31,0-9.62-4.59-9.62-10.26v-11c0-5.66,4.31-10.26,9.62-10.26h10.33c5.31,0,9.62,4.59,9.62,10.26v11C548.23,170.84,543.92,175.43,538.61,175.43Z" transform="translate(-43.17 -111)"/><path d="M296.88,366.91a9.54,9.54,0,0,1-8.44-5.31,10.62,10.62,0,0,1,3.79-13.93c33.94-19.92,59.53-54,76.07-101.19A288.15,288.15,0,0,0,383.16,180c.4-5.64,5-9.89,10.32-9.45s9.27,5.34,8.87,11c-.09,1.33-2.43,33.07-15.83,71.57-17.92,51.51-47.32,90.43-85,112.56A9.12,9.12,0,0,1,296.88,366.91Z" transform="translate(-43.17 -111)"/><path class="cls-1" d="M423.5,191.44" transform="translate(-43.17 -111)"/><path d="M305.13,362a9.64,9.64,0,0,1-8.92-6.4,10.5,10.5,0,0,1,5.29-13.36C344.16,323.81,376.63,290,398,241.72c16-36.21,19.39-66.93,19.42-67.23.59-5.63,5.35-9.68,10.63-9.06s9.09,5.7,8.5,11.33c-.14,1.39-3.75,34.46-21.15,73.73-23.19,52.31-60.07,90.63-106.67,110.8A9.08,9.08,0,0,1,305.13,362Z" transform="translate(-43.17 -111)"/></svg>