<svg id="Layer_1" data-name="Layer 1" xmlns="http://www.w3.org/2000/svg" viewBox="0 0 400 512"><title>11</title><path d="M462.31,177.1a10.71,10.71,0,0,1-5.91-1.77L333.63,94.62a10.83,10.83,0,0,1-3.11-15l23.09-35.3a10.77,10.77,0,0,1,14.94-3.11l122.77,80.7a10.85,10.85,0,0,1,3.11,15l-23.09,35.29A10.77,10.77,0,0,1,462.31,177.1ZM354.5,82.46l104.71,68.83,11.25-17.19L365.74,65.26Z" transform="translate(-96.2 -39.45)"/><polygon points="258.58 125.54 240.82 113.25 273.58 65.66 291.34 77.96 258.58 125.54"/><polygon points="296.37 149.35 278.6 137.05 311.36 89.47 329.12 101.77 296.37 149.35"/><path d="M449.93,282.87A10.8,10.8,0,0,1,444,281.1L231.88,141.65a10.85,10.85,0,0,1-3.11-15l26-39.82a10.79,10.79,0,0,1,14.95-3.12L481.89,223.17a10.84,10.84,0,0,1,3.11,15L459,278a10.79,10.79,0,0,1-6.83,4.66A11,11,0,0,1,449.93,282.87ZM252.74,129.48,446.82,257.06,461,235.34,267,107.76Z" transform="translate(-96.2 -39.45)"/><path d="M261.34,453a10.67,10.67,0,0,1-6-1.86L142,374.27a10.84,10.84,0,0,1-2.79-15.18L279,159.25l17.68,12.43L163.15,362.51l95.57,64.79L396.18,236.14,413.7,248.8,270.11,448.48A10.8,10.8,0,0,1,261.34,453Z" transform="translate(-96.2 -39.45)"/><path d="M204.13,455.13a10.72,10.72,0,0,1-6.09-1.89l-37.78-26A10.83,10.83,0,0,1,157.6,412l19.6-27.31,17.52,12.65-13.15,18.31,19.89,13.68,13.38-19,17.63,12.48L213,450.55A10.76,10.76,0,0,1,204.13,455.13Z" transform="translate(-96.2 -39.45)"/><path d="M107,551.45a10.69,10.69,0,0,1-6.25-2,10.83,10.83,0,0,1-2.53-15.09l77.89-109.56a10.8,10.8,0,1,1,17.58,12.56L115.78,546.91A10.77,10.77,0,0,1,107,551.45Z" transform="translate(-96.2 -39.45)"/><path d="M314.24,231.11a10.76,10.76,0,0,1-6.29-2l-43.1-31a10.81,10.81,0,0,1,12.59-17.58l43.1,31a10.82,10.82,0,0,1-6.3,19.61Z" transform="translate(-96.2 -39.45)"/><path d="M292.65,262.5a10.76,10.76,0,0,1-6.29-2l-43.1-31a10.82,10.82,0,0,1,12.59-17.59l43.1,31a10.83,10.83,0,0,1-6.3,19.62Z" transform="translate(-96.2 -39.45)"/><path d="M271.06,293.88a10.76,10.76,0,0,1-6.29-2l-43.1-31a10.81,10.81,0,0,1,12.59-17.58l43.1,31a10.82,10.82,0,0,1-6.3,19.61Z" transform="translate(-96.2 -39.45)"/><path d="M245.15,329.6a10.71,10.71,0,0,1-6.28-2l-43.11-31A10.82,10.82,0,0,1,208.35,279l43.1,31a10.83,10.83,0,0,1-6.3,19.62Z" transform="translate(-96.2 -39.45)"/><path d="M223.56,365.31a10.71,10.71,0,0,1-6.28-2l-43.1-31a10.81,10.81,0,0,1,12.58-17.59l43.11,31a10.83,10.83,0,0,1-6.31,19.62Z" transform="translate(-96.2 -39.45)"/></svg>