<svg id="Layer_1" fill="#fff" data-name="Layer 1" xmlns="http://www.w3.org/2000/svg" viewBox="0 0 512 512"><defs><style>.cls-1,.cls-2{fill:none;stroke:#000;stroke-width:20px;}.cls-1{stroke-miterlimit:10;}.cls-2{stroke-linecap:round;stroke-linejoin:round;}</style></defs><title>4_4</title><path d="M308,549A256,256,0,0,1,127,112,256,256,0,0,1,489,474,254.33,254.33,0,0,1,308,549Zm0-492.75C177.45,56.25,71.25,162.45,71.25,293S177.45,529.75,308,529.75,544.75,423.55,544.75,293,438.55,56.25,308,56.25Z" transform="translate(-52 -37)"/><rect x="64.48" y="283.55" width="482.9" height="19.25" transform="translate(-169.67 266.47) rotate(-45.17)"/><path d="M370.86,229.62H247.17a9.63,9.63,0,0,1-9.63-9.62V110.5a9.62,9.62,0,0,1,9.63-9.62H370.86a9.61,9.61,0,0,1,9.62,9.62V220A9.62,9.62,0,0,1,370.86,229.62ZM256.79,210.38H361.24V120.12H256.79Z" transform="translate(-52 -37)"/><path d="M306,484.11h-.09a9.65,9.65,0,0,1-7-3.08l-76-82.13a9.6,9.6,0,0,1-2.38-8.39L254,220.17a9.62,9.62,0,1,1,18.88,3.71L240.32,389.41l65.79,71.06,68.61-71.25-29.56-165.5a9.62,9.62,0,1,1,18.95-3.38l30.42,170.33A9.63,9.63,0,0,1,392,399L312.9,481.16A9.58,9.58,0,0,1,306,484.11Z" transform="translate(-52 -37)"/><path class="cls-1" d="M370.86,159.17" transform="translate(-52 -37)"/><path class="cls-1" d="M289.75,110.5" transform="translate(-52 -37)"/><path class="cls-1" d="M368.83,201.75" transform="translate(-52 -37)"/><path class="cls-1" d="M245.14,127.74" transform="translate(-52 -37)"/><path class="cls-1" d="M330.31,220" transform="translate(-52 -37)"/><path class="cls-1" d="M247.17,173.36" transform="translate(-52 -37)"/><path class="cls-2" d="M366.81,275.76" transform="translate(-52 -37)"/><path class="cls-2" d="M261.43,212.72" transform="translate(-52 -37)"/></svg>