<svg height="503pt" fill='#fff'  viewBox="0 0 503 503.84107" width="503pt" xmlns="http://www.w3.org/2000/svg"><path d="m487.238281 126.136719h-149.097656c15.152344-38.507813 2.832031-82.394531-30.148437-107.390625-32.976563-24.996094-78.558594-24.996094-111.539063 0-32.976563 24.996094-45.296875 68.882812-30.144531 107.390625h-149.101563c-9.265625.011719-16.777343 7.519531-16.785156 16.785156v25.179687c.007813 9.269532 7.519531 16.777344 16.785156 16.789063h16.789063v260.195313h-8.394532c-13.902343.015624-25.164062 11.28125-25.179687 25.179687v20.984375c.007813 6.949219 5.640625 12.582031 12.589844 12.589844h478.425781c6.949219-.007813 12.582031-5.640625 12.589844-12.589844v-20.984375c-.015625-13.898437-11.28125-25.164063-25.179688-25.179687h-8.394531v-260.195313h16.785156c9.269531-.011719 16.777344-7.519531 16.789063-16.789063v-25.179687c-.011719-9.265625-7.519532-16.773437-16.789063-16.785156zm-176.617187-81.425781c9.257812 11.261718 15.042968 24.96875 16.648437 39.457031h-24.464843c.574218-13.472657 3.210937-26.78125 7.816406-39.457031zm16.648437 56.246093c-1.605469 14.488281-7.390625 28.195313-16.648437 39.457031-4.605469-12.675781-7.242188-25.984374-7.816406-39.457031zm-66.652343-83.441406c13.433593 1.511719 26.207031 6.621094 36.976562 14.789063-7.109375 16.398437-11.035156 34-11.578125 51.863281h-25.398437zm0 83.441406h25.398437c.542969 17.863281 4.46875 35.460938 11.578125 51.863281-10.769531 8.167969-23.542969 13.277344-36.976562 14.789063zm193.050781 83.933594v260.195313h-260.199219v-100.71875c-.007812-9.269532-7.519531-16.777344-16.785156-16.789063h-83.933594c-9.269531.011719-16.777344 7.519531-16.789062 16.789063v100.71875h-25.179688v-260.195313zm-302.164063 193.046875h-8.394531v-33.570312h33.574219v100.71875h-33.574219v-50.359376h8.394531c4.632813 0 8.390625-3.757812 8.390625-8.394531 0-4.632812-3.757812-8.394531-8.390625-8.394531zm-33.574218 16.789062h8.390624v50.359376h-33.570312v-100.71875h33.570312v33.570312h-8.390624c-4.636719 0-8.394532 3.761719-8.394532 8.394531 0 4.636719 3.757813 8.394531 8.394532 8.394531zm125.902343-377.210937v66.652344h-25.402343c-.539063-17.863281-4.46875-35.464844-11.574219-51.863281 10.769531-8.167969 23.542969-13.277344 36.976562-14.789063zm-25.402343 83.441406h25.402343v66.652344c-13.433593-1.511719-26.207031-6.621094-36.976562-14.789063 7.105469-16.402343 11.035156-34 11.574219-51.863281zm-24.605469-56.246093c4.609375 12.675781 7.242187 25.984374 7.820312 39.457031h-24.464843c1.605468-14.488281 7.390624-28.195313 16.644531-39.457031zm7.820312 56.246093c-.578125 13.472657-3.210937 26.78125-7.820312 39.457031-9.253907-11.261718-15.039063-24.96875-16.644531-39.457031zm-184.4375 67.144531v-25.179687h157.734375c6.453125 9.863281 14.71875 18.40625 24.363282 25.179687zm461.640625 293.773438c4.632813.003906 8.386719 3.757812 8.390625 8.390625v16.789063h-470.03125v-16.789063c.003907-4.632813 3.761719-8.386719 8.394531-8.390625zm8.390625-293.773438h-182.097656c9.644531-6.773437 17.914063-15.316406 24.367187-25.179687h157.730469zm0 0"/><path d="m352.945312 428.300781h67.148438c9.265625-.011719 16.773438-7.519531 16.785156-16.789062v-67.144531c-.015625-4.023438-1.488281-7.90625-4.144531-10.925782-.386719-.910156-1.121094-1.625-2.042969-1.984375-2.972656-2.488281-6.722656-3.859375-10.597656-3.878906h-67.148438c-9.265624.011719-16.777343 7.519531-16.785156 16.789063v67.144531c.007813 9.269531 7.519532 16.777343 16.785156 16.789062zm0-83.933593h55.121094l-35.875 35.875c-2.175781 2.109374-3.042968 5.226562-2.273437 8.15625.769531 2.929687 3.054687 5.21875 5.984375 5.988281 2.929687.769531 6.046875-.101563 8.15625-2.273438l36.035156-36.035156.007812 55.433594h-67.15625zm0 0"/><path d="m227.042969 310.792969h67.148437c9.265625-.011719 16.777344-7.519531 16.785156-16.789063v-67.144531c-.003906-4.316406-1.679687-8.460937-4.671874-11.566406-.09375-.101563-.125-.234375-.21875-.328125-.097657-.097656-.230469-.128906-.328126-.21875-3.105468-2.992188-7.253906-4.667969-11.566406-4.675782h-67.148437c-9.265625.011719-16.777344 7.519532-16.785157 16.789063v67.144531c.007813 9.269532 7.519532 16.777344 16.785157 16.789063zm0-83.933594h55.277343l-36.03125 36.03125c-2.179687 2.105469-3.054687 5.226563-2.289062 8.164063.769531 2.933593 3.0625 5.226562 5.996094 5.992187 2.933594.769531 6.054687-.105469 8.160156-2.289063l36.035156-36.03125.007813 55.277344h-67.15625zm0 0"/><path d="m352.945312 310.792969h67.148438c9.265625-.011719 16.773438-7.519531 16.785156-16.789063v-67.144531c-.003906-4.316406-1.679687-8.460937-4.675781-11.566406-.089844-.101563-.121094-.234375-.21875-.328125-.09375-.097656-.226563-.128906-.324219-.21875-3.109375-2.992188-7.253906-4.667969-11.566406-4.675782h-67.148438c-9.265624.011719-16.777343 7.519532-16.785156 16.789063v67.144531c.007813 9.269532 7.519532 16.777344 16.785156 16.789063zm0-83.933594h55.277344l-36.03125 36.03125c-2.183594 2.105469-3.058594 5.226563-2.289062 8.164063.769531 2.933593 3.058594 5.226562 5.996094 5.992187 2.933593.769531 6.054687-.105469 8.160156-2.289063l36.035156-36.03125.007812 55.277344h-67.15625zm0 0"/><path d="m101.140625 310.792969h67.148437c9.265626-.011719 16.777344-7.519531 16.789063-16.789063v-67.144531c-.007813-4.316406-1.683594-8.460937-4.675781-11.566406-.09375-.101563-.121094-.234375-.21875-.328125-.097656-.097656-.226563-.128906-.328125-.21875-3.105469-2.992188-7.25-4.667969-11.566407-4.675782h-67.148437c-9.265625.011719-16.773437 7.519532-16.785156 16.789063v67.144531c.011719 9.269532 7.519531 16.777344 16.785156 16.789063zm0-83.933594h55.28125l-36.035156 36.03125c-2.179688 2.105469-3.054688 5.226563-2.289063 8.164063.769532 2.933593 3.0625 5.226562 5.996094 5.992187 2.933594.769531 6.054688-.105469 8.164062-2.289063l36.03125-36.03125.007813 55.277344h-67.15625zm0 0"/><path d="m227.042969 428.300781h67.148437c9.265625-.011719 16.777344-7.519531 16.785156-16.789062v-67.144531c-.015624-4.023438-1.488281-7.90625-4.144531-10.925782-.386719-.910156-1.121093-1.625-2.042969-1.984375-2.972656-2.488281-6.722656-3.859375-10.597656-3.878906h-67.148437c-9.265625.011719-16.777344 7.519531-16.785157 16.789063v67.144531c.007813 9.269531 7.519532 16.777343 16.785157 16.789062zm0-83.933593h55.125l-35.878907 35.875c-2.171874 2.109374-3.042968 5.226562-2.273437 8.15625.769531 2.929687 3.054687 5.21875 5.988281 5.988281 2.929688.769531 6.042969-.101563 8.152344-2.273438l36.035156-36.035156.007813 55.433594h-67.15625zm0 0"/></svg>