<?xml version="1.0" encoding="utf-8"?>
<!-- Generator: Adobe Illustrator 23.0.5, SVG Export Plug-In . SVG Version: 6.00 Build 0)  -->
<svg fill="#ccc" version="1.1" id="Layer_1" xmlns="http://www.w3.org/2000/svg" xmlns:xlink="http://www.w3.org/1999/xlink" x="0px" y="0px"
	 viewBox="0 0 512 512" style="enable-background:new 0 0 512 512;" xml:space="preserve">
<g>
	<path d="M242.3,108.5V68.7c0-30.3-24.6-54.9-54.9-54.9H17c-0.9-2.6-3.4-4.4-6.3-4.4C7,9.3,4,12.3,4,16s3,6.7,6.7,6.7
		c2.7,0,5-1.6,6.1-3.9h170.6c27.5,0,49.9,22.4,49.9,49.9v39.9c-2.4,1-4.1,3.4-4.1,6.2c0,3.7,3,6.7,6.7,6.7c3.7,0,6.7-3,6.7-6.7
		C246.6,111.9,244.8,109.4,242.3,108.5z"/>
	<path d="M272.1,121.4c3.7,0,6.7-3,6.7-6.7c0-2.8-1.7-5.1-4.1-6.2V68.7c0-27.5,22.4-49.9,49.9-49.9h170.6c1,2.3,3.4,3.9,6.1,3.9
		c3.7,0,6.7-3,6.7-6.7s-3-6.7-6.7-6.7c-2.9,0-5.3,1.8-6.3,4.4H324.6c-30.3,0-54.9,24.6-54.9,54.9v39.8c-2.5,1-4.3,3.4-4.3,6.2
		C265.4,118.4,268.4,121.4,272.1,121.4z"/>
	<path d="M239.9,390.6c-3.7,0-6.7,3-6.7,6.7c0,2.8,1.7,5.1,4.1,6.2v39.9c0,27.5-22.4,49.9-49.9,49.9H16.8c-1-2.3-3.4-3.9-6.1-3.9
		c-3.7,0-6.7,3-6.7,6.7s3,6.7,6.7,6.7c2.9,0,5.3-1.8,6.3-4.4h170.4c30.3,0,54.9-24.6,54.9-54.9v-39.8c2.5-1,4.3-3.4,4.3-6.2
		C246.6,393.6,243.6,390.6,239.9,390.6z"/>
	<path d="M501.3,489.3c-2.7,0-5,1.6-6.1,3.9H324.6c-27.5,0-49.9-22.4-49.9-49.9v-39.9c2.4-1,4.1-3.4,4.1-6.2c0-3.7-3-6.7-6.7-6.7
		c-3.7,0-6.7,3-6.7,6.7c0,2.8,1.8,5.3,4.3,6.2v39.8c0,30.3,24.6,54.9,54.9,54.9H495c0.9,2.6,3.4,4.4,6.3,4.4c3.7,0,6.7-3,6.7-6.7
		S505,489.3,501.3,489.3z"/>
</g>
</svg>
