<?xml version="1.0" encoding="utf-8"?>
<!-- Generator: Adobe Illustrator 16.0.0, SVG Export Plug-In . SVG Version: 6.00 Build 0)  -->
<!DOCTYPE svg PUBLIC "-//W3C//DTD SVG 1.1//EN" "http://www.w3.org/Graphics/SVG/1.1/DTD/svg11.dtd">
<svg version="1.1" id="Layer_1" xmlns="http://www.w3.org/2000/svg" xmlns:xlink="http://www.w3.org/1999/xlink" x="0px" y="0px"
	 width="561.27px" height="219.789px" viewBox="-0.5 608.87 561.27 219.789" enable-background="new -0.5 608.87 561.27 219.789"
	 xml:space="preserve">
<g>
	<path fill="#10266D" stroke="#FFFFFF" stroke-miterlimit="10" d="M109.343,828.159c-35.649,0-71.284,0-106.928-0.01
		c-2.664,0-2.396,0.282-2.396-2.339c0-71.295-0.007-142.589,0-213.873c0-2.89-0.401-2.556,2.547-2.556c71.224,0,142.448,0,213.671,0
		c2.824,0,2.486-0.307,2.486,2.438c0.009,71.291,0.009,142.576,0,213.86c0,2.737,0.37,2.469-2.451,2.469
		C180.628,828.159,144.984,828.159,109.343,828.159z"/>
	<g enable-background="new    ">
		<path fill="#F6F7F8" d="M33.624,779.751h-3.912v-10.379l-2.85,6.699h-2.682l-2.85-6.699v10.379H17.63v-15.658h4.532l3.47,7.73
			l3.459-7.73h4.533V779.751z"/>
		<path fill="#F6F7F8" d="M51.122,771.927c0,2.531-0.677,4.523-2.029,5.975c-1.354,1.451-3.208,2.176-5.563,2.176
			c-2.363,0-4.217-0.734-5.563-2.203s-2.019-3.451-2.019-5.947c0-2.516,0.673-4.506,2.019-5.967s3.2-2.193,5.563-2.193
			c2.355,0,4.209,0.729,5.563,2.184C50.446,767.404,51.122,769.398,51.122,771.927z M47.063,771.917
			c0-0.932-0.096-1.727-0.289-2.381c-0.193-0.656-0.451-1.195-0.773-1.615c-0.336-0.428-0.717-0.734-1.141-0.92
			s-0.864-0.279-1.32-0.279c-0.483,0-0.922,0.086-1.314,0.258s-0.771,0.479-1.136,0.92c-0.322,0.408-0.583,0.947-0.783,1.619
			c-0.2,0.674-0.3,1.477-0.3,2.408c0,0.961,0.095,1.76,0.284,2.393c0.189,0.635,0.448,1.166,0.778,1.594
			c0.336,0.436,0.719,0.744,1.146,0.932c0.427,0.186,0.869,0.277,1.325,0.277c0.463,0,0.912-0.1,1.346-0.299
			c0.435-0.201,0.81-0.51,1.125-0.932c0.337-0.455,0.596-0.986,0.778-1.592C46.972,773.693,47.063,772.9,47.063,771.917z"/>
		<path fill="#F6F7F8" d="M66.665,779.751h-3.933v-6.939h-5.353v6.939h-3.933v-15.658h3.933v5.732h5.353v-5.732h3.933V779.751z"/>
		<path fill="#F6F7F8" d="M80.462,767.08h-6.625v12.672h-3.933v-15.658h10.558V767.08z"/>
		<path fill="#F6F7F8" d="M96.341,771.927c0,2.531-0.677,4.523-2.029,5.975c-1.354,1.451-3.208,2.176-5.563,2.176
			c-2.363,0-4.217-0.734-5.563-2.203s-2.019-3.451-2.019-5.947c0-2.516,0.673-4.506,2.019-5.967s3.2-2.193,5.563-2.193
			c2.355,0,4.209,0.729,5.563,2.184C95.664,767.404,96.341,769.398,96.341,771.927z M92.281,771.917
			c0-0.932-0.096-1.727-0.289-2.381c-0.193-0.656-0.451-1.195-0.773-1.615c-0.336-0.428-0.717-0.734-1.141-0.92
			s-0.864-0.279-1.32-0.279c-0.483,0-0.922,0.086-1.314,0.258s-0.771,0.479-1.136,0.92c-0.322,0.408-0.583,0.947-0.783,1.619
			c-0.2,0.674-0.3,1.477-0.3,2.408c0,0.961,0.095,1.76,0.284,2.393c0.189,0.635,0.448,1.166,0.778,1.594
			c0.336,0.436,0.719,0.744,1.146,0.932c0.427,0.186,0.869,0.277,1.325,0.277c0.463,0,0.912-0.1,1.346-0.299
			c0.435-0.201,0.81-0.51,1.125-0.932c0.337-0.455,0.596-0.986,0.778-1.592C92.19,773.693,92.281,772.9,92.281,771.917z"/>
		<path fill="#F6F7F8" d="M112.146,779.751h-3.933V767.08h-3.954c-0.028,0.611-0.054,1.18-0.079,1.709
			c-0.025,0.529-0.051,1.033-0.079,1.51c-0.077,1.367-0.204,2.547-0.378,3.539c-0.175,0.992-0.375,1.803-0.6,2.434
			c-0.246,0.674-0.494,1.203-0.747,1.588c-0.252,0.387-0.491,0.691-0.715,0.916c-0.337,0.336-0.757,0.6-1.262,0.793
			s-1.002,0.289-1.493,0.289c-0.33,0-0.69-0.014-1.083-0.041c-0.393-0.029-0.642-0.051-0.747-0.064v-3.459h0.147
			c0.07,0.006,0.138,0.014,0.205,0.021c0.066,0.006,0.152,0.01,0.258,0.01c0.175,0,0.399-0.027,0.673-0.084s0.48-0.15,0.621-0.283
			c0.504-0.477,0.85-1.215,1.036-2.215c0.186-0.998,0.328-2.441,0.426-4.326c0.042-0.863,0.068-1.637,0.079-2.324
			c0.01-0.688,0.037-1.686,0.079-2.998h11.547V779.751z"/>
		<path fill="#F6F7F8" d="M134.629,764.093l-5.227,12.525c-0.309,0.729-0.653,1.303-1.035,1.725c-0.383,0.42-0.783,0.74-1.204,0.957
			s-0.841,0.361-1.263,0.436c-0.42,0.074-0.861,0.111-1.324,0.111c-0.484,0-1.047-0.012-1.688-0.031
			c-0.643-0.021-1.071-0.043-1.289-0.064v-3.322h0.242c0.062,0.014,0.161,0.031,0.295,0.053c0.133,0.021,0.301,0.041,0.504,0.062
			c0.168,0.014,0.352,0.027,0.547,0.043c0.197,0.014,0.375,0.02,0.537,0.02c0.469,0,0.912-0.057,1.33-0.172
			c0.417-0.117,0.695-0.314,0.836-0.596l-5.795-11.746h4.249l3.354,7.34l2.84-7.34H134.629z"/>
		<path fill="#F6F7F8" d="M149.582,779.751h-3.932V767.08h-3.955c-0.027,0.611-0.054,1.18-0.078,1.709
			c-0.025,0.529-0.051,1.033-0.079,1.51c-0.077,1.367-0.204,2.547-0.378,3.539c-0.176,0.992-0.376,1.803-0.6,2.434
			c-0.246,0.674-0.494,1.203-0.747,1.588c-0.253,0.387-0.491,0.691-0.715,0.916c-0.337,0.336-0.757,0.6-1.263,0.793
			c-0.504,0.193-1.002,0.289-1.492,0.289c-0.33,0-0.691-0.014-1.084-0.041c-0.393-0.029-0.641-0.051-0.746-0.064v-3.459h0.146
			c0.07,0.006,0.139,0.014,0.205,0.021c0.066,0.006,0.152,0.01,0.258,0.01c0.176,0,0.4-0.027,0.674-0.084s0.479-0.15,0.62-0.283
			c0.505-0.477,0.85-1.215,1.036-2.215c0.186-0.998,0.327-2.441,0.426-4.326c0.041-0.863,0.068-1.637,0.078-2.324
			c0.011-0.688,0.037-1.686,0.079-2.998h11.546V779.751z"/>
		<path fill="#F6F7F8" d="M159.572,780.056c-2.348,0-4.213-0.709-5.594-2.129s-2.072-3.416-2.072-5.988
			c0-2.482,0.693-4.461,2.077-5.936c1.385-1.477,3.251-2.215,5.601-2.215c0.623,0,1.184,0.035,1.682,0.105s0.975,0.168,1.43,0.295
			c0.358,0.105,0.748,0.248,1.168,0.43c0.42,0.184,0.761,0.342,1.02,0.475v3.732h-0.398c-0.189-0.168-0.428-0.369-0.716-0.604
			c-0.288-0.236-0.613-0.465-0.978-0.689c-0.365-0.225-0.767-0.416-1.205-0.574c-0.438-0.156-0.895-0.236-1.371-0.236
			c-0.568,0-1.089,0.09-1.562,0.27c-0.473,0.178-0.924,0.488-1.352,0.93c-0.393,0.4-0.713,0.939-0.961,1.619
			c-0.25,0.68-0.374,1.482-0.374,2.408c0,0.975,0.13,1.793,0.39,2.455c0.259,0.664,0.599,1.197,1.02,1.605
			c0.406,0.393,0.86,0.676,1.361,0.852c0.502,0.174,1.001,0.262,1.499,0.262c0.519,0,1.013-0.086,1.483-0.258
			c0.469-0.172,0.865-0.361,1.188-0.572c0.351-0.217,0.659-0.438,0.926-0.662c0.266-0.225,0.498-0.424,0.693-0.6h0.357v3.68
			c-0.287,0.133-0.62,0.287-0.998,0.457c-0.379,0.172-0.768,0.318-1.168,0.438c-0.49,0.146-0.949,0.26-1.377,0.336
			C160.912,780.019,160.322,780.056,159.572,780.056z"/>
		<path fill="#F6F7F8" d="M179.543,774.746c0,0.766-0.146,1.467-0.437,2.109c-0.291,0.641-0.688,1.166-1.194,1.572
			c-0.603,0.484-1.252,0.826-1.95,1.025s-1.548,0.299-2.55,0.299h-6.215v-15.658h3.922v5.879h2.355c0.919,0,1.75,0.064,2.492,0.195
			c0.744,0.129,1.42,0.432,2.03,0.908c0.54,0.422,0.933,0.949,1.178,1.584S179.543,773.99,179.543,774.746z M175.483,774.863
			c0-0.26-0.028-0.506-0.084-0.736c-0.056-0.232-0.179-0.445-0.368-0.643c-0.189-0.195-0.449-0.348-0.777-0.457
			c-0.33-0.109-0.786-0.162-1.367-0.162h-1.768v3.984h1.768c0.799,0,1.432-0.17,1.897-0.51S175.483,775.507,175.483,774.863z
			 M184.642,779.751h-3.933v-15.658h3.933V779.751z"/>
		<path fill="#F6F7F8" d="M201.099,779.751h-3.933v-6.939h-5.353v6.939h-3.933v-15.658h3.933v5.732h5.353v-5.732h3.933V779.751z"/>
		<path fill="#F6F7F8" d="M30.779,798.181c0.351,0.303,0.631,0.676,0.841,1.121s0.315,0.986,0.315,1.625
			c0,1.562-0.601,2.783-1.803,3.658c-1.203,0.877-2.929,1.314-5.179,1.314c-1.023,0-2-0.09-2.929-0.273
			c-0.929-0.182-1.779-0.43-2.55-0.746v-3.502h0.357c0.526,0.365,1.218,0.721,2.077,1.068c0.859,0.346,1.698,0.52,2.519,0.52
			c1.059,0,1.9-0.189,2.524-0.568c0.624-0.377,0.936-0.959,0.936-1.744c0-0.68-0.228-1.184-0.684-1.51
			c-0.456-0.326-1.276-0.488-2.461-0.488h-2.25v-2.797h2.145c0.981,0,1.7-0.15,2.156-0.447c0.456-0.299,0.684-0.746,0.684-1.342
			c0-0.525-0.251-0.908-0.752-1.146c-0.501-0.238-1.169-0.357-2.003-0.357c-0.47,0-0.917,0.049-1.341,0.148
			c-0.424,0.098-0.839,0.221-1.246,0.367c-0.378,0.141-0.727,0.295-1.046,0.463c-0.319,0.168-0.562,0.295-0.73,0.379H19.99v-3.26
			c0.456-0.189,1.2-0.408,2.234-0.658c1.034-0.248,2.119-0.373,3.255-0.373c2.019,0,3.53,0.336,4.532,1.004
			c1.002,0.67,1.504,1.602,1.504,2.793c0,0.891-0.275,1.658-0.826,2.303s-1.26,1.076-2.129,1.293v0.158
			c0.322,0.057,0.698,0.172,1.125,0.348C30.113,797.705,30.478,797.923,30.779,798.181z"/>
		<path fill="#F6F7F8" d="M32.662,805.595l5.29-15.658h4.291l5.289,15.658h-4.048l-0.978-3.197h-4.921l-0.978,3.197H32.662z
			 M41.642,799.56l-1.599-5.164l-1.598,5.164H41.642z"/>
		<path fill="#F6F7F8" d="M55.839,805.9c-2.349,0-4.213-0.709-5.594-2.129c-1.381-1.42-2.072-3.416-2.072-5.988
			c0-2.482,0.692-4.461,2.077-5.936c1.385-1.477,3.251-2.215,5.6-2.215c0.624,0,1.185,0.035,1.682,0.105
			c0.498,0.07,0.975,0.168,1.43,0.295c0.358,0.105,0.747,0.248,1.167,0.43c0.42,0.184,0.761,0.342,1.02,0.475v3.732H60.75
			c-0.189-0.168-0.428-0.369-0.715-0.604c-0.288-0.236-0.613-0.465-0.978-0.689c-0.364-0.225-0.766-0.416-1.204-0.574
			c-0.438-0.156-0.896-0.236-1.372-0.236c-0.568,0-1.088,0.09-1.562,0.27c-0.474,0.178-0.924,0.488-1.352,0.93
			c-0.393,0.4-0.713,0.939-0.962,1.619c-0.249,0.68-0.374,1.482-0.374,2.408c0,0.975,0.13,1.793,0.389,2.455
			c0.259,0.664,0.599,1.197,1.02,1.605c0.406,0.393,0.86,0.676,1.362,0.852c0.501,0.174,1,0.262,1.499,0.262
			c0.519,0,1.013-0.086,1.483-0.258c0.469-0.172,0.866-0.361,1.188-0.572c0.351-0.217,0.659-0.438,0.925-0.662
			c0.267-0.225,0.498-0.424,0.694-0.6h0.357v3.68c-0.288,0.133-0.621,0.287-0.999,0.457c-0.378,0.172-0.768,0.318-1.167,0.438
			c-0.491,0.146-0.95,0.26-1.377,0.336C57.177,805.863,56.589,805.9,55.839,805.9z"/>
		<path fill="#F6F7F8" d="M74.02,792.923h-6.625v12.672h-3.933v-15.658H74.02V792.923z"/>
		<path fill="#F6F7F8" d="M89.163,805.595h-3.87v-10.316l-6.015,10.316H75.64v-15.658h3.87v9.328l5.563-9.328h4.091V805.595z"/>
		<path fill="#F6F7F8" d="M105.863,805.595h-3.87v-10.316l-6.015,10.316h-3.638v-15.658h3.87v9.328l5.563-9.328h4.091V805.595z
			 M104.674,784.775c-0.007,1.262-0.461,2.271-1.362,3.027c-0.901,0.758-2.298,1.137-4.19,1.137c-1.858,0-3.246-0.385-4.165-1.152
			s-1.381-1.771-1.388-3.012h3.449c0.014,0.764,0.175,1.318,0.484,1.666s0.848,0.521,1.62,0.521c0.771,0,1.311-0.176,1.619-0.527
			c0.309-0.35,0.47-0.904,0.484-1.66H104.674z"/>
		<path fill="#F6F7F8" d="M122.257,805.595h-3.933v-6.939h-5.354v6.939h-3.932v-15.658h3.932v5.732h5.354v-5.732h3.933V805.595z"/>
		<path fill="#F6F7F8" d="M142.363,792.923h-6.625v12.672h-3.933v-15.658h10.558V792.923z"/>
		<path fill="#F6F7F8" d="M142.301,805.595l5.289-15.658h4.291l5.289,15.658h-4.049l-0.979-3.197h-4.921l-0.978,3.197H142.301z
			 M151.281,799.56l-1.6-5.164l-1.598,5.164H151.281z"/>
		<path fill="#F6F7F8" d="M168.852,798.181c0.351,0.303,0.631,0.676,0.841,1.121c0.211,0.445,0.316,0.986,0.316,1.625
			c0,1.562-0.602,2.783-1.804,3.658c-1.202,0.877-2.929,1.314-5.179,1.314c-1.023,0-2-0.09-2.93-0.273
			c-0.928-0.182-1.778-0.43-2.549-0.746v-3.502h0.357c0.525,0.365,1.217,0.721,2.076,1.068c0.859,0.346,1.698,0.52,2.519,0.52
			c1.059,0,1.899-0.189,2.524-0.568c0.623-0.377,0.936-0.959,0.936-1.744c0-0.68-0.229-1.184-0.684-1.51
			c-0.456-0.326-1.275-0.488-2.461-0.488h-2.25v-2.797h2.145c0.982,0,1.7-0.15,2.156-0.447c0.455-0.299,0.684-0.746,0.684-1.342
			c0-0.525-0.251-0.908-0.752-1.146c-0.502-0.238-1.169-0.357-2.004-0.357c-0.469,0-0.916,0.049-1.34,0.148
			c-0.425,0.098-0.84,0.221-1.246,0.367c-0.379,0.141-0.728,0.295-1.047,0.463c-0.318,0.168-0.562,0.295-0.73,0.379h-0.368v-3.26
			c0.456-0.189,1.2-0.408,2.234-0.658c1.034-0.248,2.119-0.373,3.255-0.373c2.02,0,3.529,0.336,4.532,1.004
			c1.003,0.67,1.504,1.602,1.504,2.793c0,0.891-0.275,1.658-0.825,2.303c-0.551,0.645-1.261,1.076-2.13,1.293v0.158
			c0.322,0.057,0.698,0.172,1.125,0.348C168.186,797.705,168.551,797.923,168.852,798.181z"/>
		<path fill="#F6F7F8" d="M170.735,805.595l5.29-15.658h4.29l5.289,15.658h-4.048l-0.979-3.197h-4.922l-0.978,3.197H170.735z
			 M179.716,799.56l-1.599-5.164l-1.598,5.164H179.716z"/>
		<path fill="#F6F7F8" d="M199.212,794.88c0,0.729-0.115,1.424-0.347,2.082s-0.564,1.209-0.999,1.65
			c-0.267,0.273-0.56,0.525-0.878,0.758c-0.319,0.23-0.672,0.428-1.057,0.588c-0.387,0.162-0.805,0.289-1.258,0.379
			c-0.451,0.092-0.958,0.137-1.52,0.137h-2.061v5.121h-3.933v-15.658h6.078c0.904,0,1.685,0.084,2.34,0.248s1.249,0.426,1.782,0.783
			c0.589,0.393,1.045,0.916,1.367,1.572S199.212,793.976,199.212,794.88z M195.174,794.974c0-0.441-0.105-0.822-0.315-1.141
			s-0.462-0.537-0.757-0.656c-0.371-0.162-0.728-0.254-1.067-0.279c-0.341-0.025-0.802-0.037-1.383-0.037h-0.558v4.689h0.273
			c0.371,0,0.723-0.002,1.052-0.01s0.616-0.031,0.862-0.074c0.211-0.035,0.433-0.104,0.668-0.205
			c0.234-0.102,0.415-0.215,0.541-0.342c0.267-0.258,0.447-0.529,0.542-0.809C195.127,795.83,195.174,795.451,195.174,794.974z"/>
	</g>
	<path id="rect2887_6_" fill="#F3C30E" d="M110.42,618.157c0,0-1.833,0.836-2.104,1.698c-0.391,1.252,1.161,2.478,1.101,3.794
		c-0.076,1.717-1.828,3.078-1.893,4.801c-0.052,1.25,1.377,2.373,1.091,3.598c-0.19,0.801-0.868,1.816-1.698,1.799
		c-0.801-0.018-1.48-1.01-1.596-1.799c-0.212-1.413,1.791-2.473,1.8-3.901c0.009-0.983-1.248-1.706-1.193-2.698
		c0.021-0.615,0.891-1.599,0.891-1.599s-2.244,1.112-2.592,2.2c-0.259,0.783,0.688,1.578,0.6,2.4
		c-0.242,2.014-2.724,3.369-2.807,5.396c-0.074,1.95,0.91,4.024,2.304,5.394c1.302,1.303,3.257,2.078,5.094,2.1
		c1.933,0.019,4.016-0.758,5.401-2.1c1.404-1.365,2.229-3.441,2.302-5.394c0.054-1.724-1.693-3.171-1.7-4.912
		c-0.013-0.933,1.04-1.749,0.897-2.687c-0.197-1.229-2.196-3.002-2.196-3.002s0.451,1.678,0.294,2.494
		c-0.208,1.133-1.503,1.873-1.598,3.004c-0.091,1.162,1.295,2.162,1.1,3.305c-0.134,0.744-0.637,1.779-1.395,1.798
		c-0.789,0.019-1.343-1.03-1.507-1.798c-0.336-1.633,1.485-3.137,1.402-4.809c-0.13-2.576-2.577-4.6-2.503-7.189
		C109.935,619.349,110.42,618.157,110.42,618.157z M109.363,643.886c-6.488,0-11.764,5.255-11.764,11.747
		c0,6.49,5.275,11.773,11.764,11.773c6.5,0,11.747-5.283,11.747-11.773C121.11,649.141,115.862,643.886,109.363,643.886z
		 M92.873,657.309c-0.043,0.523-0.074,1.061-0.074,1.594c0,9.152,7.416,16.582,16.563,16.582c9.152,0,16.572-7.43,16.572-16.582
		c0-0.511-0.022-1.035-0.083-1.549c-2.025,7.188-8.642,12.443-16.49,12.443S94.894,664.526,92.873,657.309L92.873,657.309z
		 M77.956,678.116v69.404h14.543v-69.404H77.956z M94.976,678.116l14.387,9.424l14.4-9.424H94.976z M126.216,678.116v69.404h14.559
		v-69.404H126.216z M94.976,689.946v5.969h6.289h16.171h6.326v-5.969h-6.326h-16.171H94.976z M107.041,698.069
		c-0.622,0.02-1.241,0.1-1.841,0.225c-6.268,1.287-10.703,7.486-10.703,14.24c0,6.711,4.461,12.351,10.573,14.197
		c-2.309-1.396-3.87-3.833-3.924-6.648v-0.076c-0.035-3.358,2.063-6.268,5.05-7.473c0.914-0.369,1.958-0.574,3.119-0.574h0.078
		c3.853,0,6.94-3.118,6.897-6.9C115.838,700.172,111.403,697.882,107.041,698.069L107.041,698.069z M113.642,698.319
		c2.302,1.385,3.863,3.829,3.922,6.645v0.074c0.037,3.358-2.064,6.264-5.044,7.467c-0.916,0.369-1.962,0.578-3.127,0.578h-0.078
		c-3.852,0-6.939,3.115-6.896,6.897c0.455,4.878,4.889,7.171,9.252,6.996c0.615-0.026,1.239-0.092,1.846-0.226
		c6.263-1.301,10.693-7.493,10.693-14.246C124.211,705.8,119.748,700.151,113.642,698.319L113.642,698.319z M109.363,702.23
		c1.507,0,2.699,1.226,2.699,2.733c0,1.496-1.191,2.689-2.699,2.689c-1.497,0-2.722-1.193-2.722-2.689
		C106.641,703.456,107.866,702.23,109.363,702.23z M109.343,717.382c1.497,0,2.719,1.192,2.719,2.7c0,1.496-1.223,2.719-2.719,2.719
		c-1.501,0-2.702-1.223-2.702-2.719C106.641,718.575,107.842,717.382,109.343,717.382z M94.976,729.73v5.961h6.289h16.171h6.326
		v-5.961h-6.326h-16.171H94.976z M94.976,738.091l14.387,9.43l14.4-9.43H94.976z"/>
	<g>
		<g>
			<path fill="#10266D" d="M267.469,789.666l6.028,1.911c-0.924,3.361-2.461,5.857-4.61,7.488c-2.149,1.632-4.876,2.447-8.181,2.447
				c-4.089,0-7.45-1.397-10.082-4.19c-2.633-2.794-3.949-6.613-3.949-11.458c0-5.125,1.323-9.105,3.97-11.94
				c2.646-2.836,6.126-4.254,10.439-4.254c3.767,0,6.826,1.113,9.179,3.34c1.4,1.316,2.45,3.207,3.15,5.671l-6.154,1.471
				c-0.364-1.597-1.123-2.856-2.278-3.781c-1.155-0.924-2.56-1.386-4.212-1.386c-2.282,0-4.134,0.819-5.556,2.457
				c-1.421,1.639-2.132,4.292-2.132,7.961c0,3.893,0.7,6.665,2.101,8.317s3.221,2.479,5.461,2.479c1.652,0,3.073-0.525,4.264-1.575
				S266.952,791.92,267.469,789.666z"/>
			<path fill="#10266D" d="M305.53,800.987h-6.764l-2.688-6.994h-12.309l-2.541,6.994h-6.596l11.993-30.792h6.574L305.53,800.987z
				 M294.083,788.804l-4.243-11.426l-4.159,11.426H294.083z"/>
			<path fill="#10266D" d="M308.847,800.987v-30.792h6.218v12.119h12.182v-12.119h6.218v30.792h-6.218v-13.464h-12.182v13.464
				H308.847z"/>
			<path fill="#10266D" d="M340.207,770.195h20.857v5.167h-14.64v25.625h-6.218V770.195z"/>
			<path fill="#10266D" d="M364.362,770.195h5.818v20.5l12.476-20.5h6.196v30.792h-5.817v-20.101l-12.456,20.101h-6.217V770.195z"/>
			<path fill="#10266D" d="M395.28,770.195h5.818v20.5l12.476-20.5h6.196v30.792h-5.817v-20.101l-12.456,20.101h-6.217V770.195z
				 M411.243,762.529h2.878c-0.168,1.904-0.837,3.398-2.006,4.484c-1.17,1.085-2.686,1.627-4.548,1.627s-3.378-0.542-4.547-1.627
				c-1.17-1.086-1.838-2.58-2.007-4.484h2.878c0.098,0.994,0.448,1.746,1.051,2.258c0.602,0.511,1.477,0.767,2.625,0.767
				s2.023-0.256,2.626-0.767C410.795,764.275,411.144,763.523,411.243,762.529z"/>
			<path fill="#10266D" d="M426.135,800.987v-30.792h6.218v12.119h12.182v-12.119h6.218v30.792h-6.218v-13.464h-12.182v13.464
				H426.135z"/>
			<path fill="#10266D" d="M487.551,800.987v-12.854h-1.26c-1.961,0-3.344,0.294-4.148,0.882c-0.806,0.589-2.181,2.346-4.127,5.272
				l-4.495,6.7h-7.436l3.76-6.007c1.484-2.381,2.668-4.051,3.55-5.01s1.988-1.816,3.318-2.573c-2.87-0.448-4.943-1.445-6.217-2.993
				c-1.274-1.547-1.911-3.398-1.911-5.556c0-1.876,0.472-3.539,1.417-4.988s2.191-2.422,3.739-2.919
				c1.547-0.497,3.861-0.746,6.941-0.746h13.086v30.792H487.551z M487.551,775.404h-4.852c-2.465,0-4.085,0.057-4.862,0.168
				c-0.777,0.112-1.446,0.49-2.006,1.135c-0.561,0.644-0.84,1.484-0.84,2.521c0,1.078,0.269,1.936,0.809,2.572
				c0.538,0.638,1.225,1.033,2.058,1.187c0.833,0.154,2.531,0.231,5.094,0.231h4.6V775.404z"/>
			<path fill="#10266D" d="M527.816,800.987h-6.764l-2.688-6.994h-12.309l-2.541,6.994h-6.596l11.993-30.792h6.574L527.816,800.987z
				 M516.369,788.804l-4.243-11.426l-4.159,11.426H516.369z"/>
			<path fill="#10266D" d="M531.029,800.987v-30.792h9.305l5.587,21.004l5.524-21.004h9.325v30.792h-5.775v-24.238l-6.112,24.238
				h-5.986l-6.092-24.238v24.238H531.029z"/>
		</g>
	</g>
</g>
</svg>
