<?xml version="1.0" encoding="utf-8"?>
<!-- Generator: Adobe Illustrator 16.0.0, SVG Export Plug-In . SVG Version: 6.00 Build 0)  -->
<!DOCTYPE svg PUBLIC "-//W3C//DTD SVG 1.1//EN" "http://www.w3.org/Graphics/SVG/1.1/DTD/svg11.dtd">
<svg version="1.1" id="Layer_1" xmlns="http://www.w3.org/2000/svg" xmlns:xlink="http://www.w3.org/1999/xlink" x="0px" y="0px"
	 width="218.738px" height="218.789px" viewBox="810 279.386 218.738 218.789" enable-background="new 810 279.386 218.738 218.789"
	 xml:space="preserve">
<g>
	<path fill="#10266D" d="M919.343,498.175c-35.649,0-71.284,0-106.928-0.01c-2.664,0-2.396,0.282-2.396-2.339
		c0-71.295-0.007-142.589,0-213.873c0-2.89-0.401-2.556,2.547-2.556c71.224,0,142.448,0,213.671,0c2.824,0,2.486-0.307,2.486,2.438
		c0.009,71.291,0.009,142.576,0,213.86c0,2.737,0.37,2.469-2.451,2.469C990.628,498.175,954.984,498.175,919.343,498.175z"/>
	<g enable-background="new    ">
		<path fill="#F6F7F8" d="M843.625,449.769h-3.912V439.39l-2.85,6.697h-2.682l-2.851-6.697v10.379h-3.701v-15.658h4.532l3.471,7.729
			l3.459-7.729h4.533V449.769z"/>
		<path fill="#F6F7F8" d="M861.123,441.945c0,2.531-0.678,4.521-2.029,5.973c-1.354,1.451-3.208,2.178-5.563,2.178
			c-2.362,0-4.217-0.734-5.563-2.203c-1.346-1.469-2.019-3.451-2.019-5.947c0-2.518,0.673-4.506,2.019-5.969
			c1.347-1.461,3.201-2.191,5.563-2.191c2.355,0,4.21,0.727,5.563,2.182C860.445,437.421,861.123,439.414,861.123,441.945z
			 M857.063,441.935c0-0.934-0.097-1.727-0.289-2.383s-0.45-1.193-0.772-1.613c-0.337-0.428-0.717-0.734-1.142-0.922
			c-0.425-0.186-0.864-0.277-1.319-0.277c-0.484,0-0.922,0.086-1.314,0.258s-0.771,0.479-1.137,0.92
			c-0.322,0.406-0.583,0.945-0.783,1.619c-0.199,0.674-0.299,1.477-0.299,2.408c0,0.961,0.094,1.758,0.283,2.393
			s0.449,1.166,0.778,1.594c0.337,0.434,0.719,0.744,1.146,0.93c0.427,0.186,0.869,0.279,1.325,0.279c0.463,0,0.911-0.1,1.346-0.301
			c0.435-0.199,0.81-0.51,1.125-0.93c0.337-0.457,0.596-0.986,0.778-1.594C856.972,443.71,857.063,442.916,857.063,441.935z"/>
		<path fill="#F6F7F8" d="M876.665,449.769h-3.933v-6.941h-5.354v6.941h-3.932v-15.658h3.932v5.73h5.354v-5.73h3.933V449.769z"/>
		<path fill="#F6F7F8" d="M890.462,437.097h-6.625v12.672h-3.933v-15.658h10.558V437.097z"/>
		<path fill="#F6F7F8" d="M906.341,441.945c0,2.531-0.677,4.521-2.029,5.973c-1.354,1.451-3.208,2.178-5.563,2.178
			c-2.362,0-4.217-0.734-5.562-2.203s-2.02-3.451-2.02-5.947c0-2.518,0.674-4.506,2.02-5.969c1.346-1.461,3.2-2.191,5.562-2.191
			c2.355,0,4.21,0.727,5.563,2.182C905.664,437.421,906.341,439.414,906.341,441.945z M902.281,441.935
			c0-0.934-0.096-1.727-0.289-2.383c-0.192-0.656-0.45-1.193-0.772-1.613c-0.337-0.428-0.717-0.734-1.142-0.922
			c-0.424-0.186-0.863-0.277-1.319-0.277c-0.483,0-0.922,0.086-1.314,0.258s-0.771,0.479-1.136,0.92
			c-0.322,0.406-0.584,0.945-0.783,1.619s-0.3,1.477-0.3,2.408c0,0.961,0.095,1.758,0.284,2.393s0.448,1.166,0.777,1.594
			c0.337,0.434,0.719,0.744,1.146,0.93s0.869,0.279,1.325,0.279c0.463,0,0.911-0.1,1.347-0.301c0.434-0.199,0.809-0.51,1.125-0.93
			c0.336-0.457,0.596-0.986,0.777-1.594C902.19,443.71,902.281,442.916,902.281,441.935z"/>
		<path fill="#F6F7F8" d="M922.146,449.769h-3.934v-12.672h-3.953c-0.028,0.609-0.055,1.18-0.079,1.709s-0.052,1.031-0.079,1.508
			c-0.077,1.367-0.203,2.547-0.379,3.539c-0.175,0.992-0.375,1.805-0.6,2.436c-0.245,0.672-0.494,1.201-0.746,1.588
			c-0.252,0.385-0.49,0.689-0.715,0.914c-0.337,0.336-0.758,0.602-1.262,0.795c-0.506,0.191-1.003,0.289-1.494,0.289
			c-0.329,0-0.689-0.016-1.082-0.043c-0.394-0.027-0.643-0.049-0.747-0.062v-3.461h0.147c0.069,0.008,0.138,0.016,0.205,0.021
			c0.066,0.008,0.152,0.012,0.258,0.012c0.174,0,0.398-0.029,0.672-0.086c0.273-0.055,0.48-0.15,0.621-0.283
			c0.504-0.477,0.85-1.215,1.035-2.213c0.186-1,0.328-2.441,0.426-4.328c0.043-0.861,0.068-1.637,0.08-2.324
			c0.01-0.686,0.036-1.686,0.078-2.996h11.547V449.769z"/>
		<path fill="#F6F7F8" d="M944.629,434.111l-5.227,12.523c-0.309,0.73-0.653,1.305-1.035,1.725c-0.383,0.422-0.783,0.74-1.204,0.957
			c-0.421,0.219-0.841,0.363-1.263,0.438c-0.42,0.072-0.861,0.109-1.324,0.109c-0.484,0-1.047-0.01-1.688-0.031
			c-0.643-0.021-1.071-0.041-1.289-0.062v-3.324h0.242c0.062,0.016,0.161,0.033,0.295,0.053c0.133,0.021,0.301,0.043,0.504,0.064
			c0.168,0.014,0.352,0.027,0.547,0.041c0.197,0.014,0.375,0.021,0.537,0.021c0.469,0,0.912-0.059,1.33-0.174
			c0.417-0.115,0.695-0.314,0.836-0.594l-5.795-11.746h4.249l3.354,7.34l2.84-7.34H944.629z"/>
		<path fill="#F6F7F8" d="M959.582,449.769h-3.932v-12.672h-3.955c-0.027,0.609-0.054,1.18-0.078,1.709
			c-0.025,0.529-0.051,1.031-0.079,1.508c-0.077,1.367-0.204,2.547-0.378,3.539c-0.176,0.992-0.376,1.805-0.6,2.436
			c-0.246,0.672-0.494,1.201-0.747,1.588c-0.253,0.385-0.491,0.689-0.715,0.914c-0.337,0.336-0.757,0.602-1.263,0.795
			c-0.504,0.191-1.002,0.289-1.492,0.289c-0.33,0-0.691-0.016-1.084-0.043s-0.641-0.049-0.746-0.062v-3.461h0.146
			c0.07,0.008,0.139,0.016,0.205,0.021c0.066,0.008,0.152,0.012,0.258,0.012c0.176,0,0.4-0.029,0.674-0.086
			c0.273-0.055,0.479-0.15,0.62-0.283c0.505-0.477,0.85-1.215,1.036-2.213c0.186-1,0.327-2.441,0.426-4.328
			c0.041-0.861,0.068-1.637,0.078-2.324c0.011-0.686,0.037-1.686,0.079-2.996h11.546V449.769z"/>
		<path fill="#F6F7F8" d="M969.572,450.074c-2.348,0-4.213-0.711-5.594-2.129c-1.381-1.42-2.072-3.416-2.072-5.99
			c0-2.48,0.693-4.459,2.077-5.936c1.385-1.477,3.251-2.213,5.601-2.213c0.623,0,1.184,0.035,1.682,0.104
			c0.498,0.07,0.975,0.17,1.43,0.295c0.358,0.105,0.748,0.25,1.168,0.432s0.761,0.34,1.02,0.473v3.734h-0.398
			c-0.189-0.17-0.428-0.371-0.716-0.605s-0.613-0.465-0.978-0.689c-0.365-0.223-0.767-0.414-1.205-0.572
			c-0.438-0.158-0.895-0.236-1.371-0.236c-0.568,0-1.089,0.09-1.562,0.268c-0.473,0.18-0.924,0.488-1.352,0.932
			c-0.393,0.398-0.713,0.939-0.961,1.619c-0.25,0.68-0.374,1.482-0.374,2.408c0,0.975,0.13,1.793,0.39,2.455
			c0.259,0.662,0.599,1.197,1.02,1.604c0.406,0.393,0.86,0.676,1.361,0.852c0.502,0.176,1.001,0.264,1.499,0.264
			c0.519,0,1.013-0.086,1.483-0.258c0.469-0.172,0.865-0.363,1.188-0.574c0.351-0.217,0.659-0.438,0.926-0.662
			c0.266-0.225,0.498-0.424,0.693-0.6h0.357v3.682c-0.287,0.133-0.62,0.285-0.998,0.457c-0.379,0.172-0.768,0.316-1.168,0.436
			c-0.49,0.148-0.949,0.26-1.377,0.338C970.912,450.035,970.322,450.074,969.572,450.074z"/>
		<path fill="#F6F7F8" d="M989.543,444.763c0,0.764-0.146,1.467-0.437,2.107c-0.291,0.643-0.688,1.166-1.194,1.572
			c-0.603,0.484-1.252,0.826-1.95,1.025c-0.698,0.201-1.548,0.301-2.55,0.301h-6.215v-15.658h3.922v5.879h2.355
			c0.919,0,1.75,0.064,2.492,0.193c0.744,0.131,1.42,0.434,2.03,0.91c0.54,0.42,0.933,0.947,1.178,1.582
			S989.543,444.005,989.543,444.763z M985.483,444.878c0-0.26-0.028-0.504-0.084-0.736c-0.056-0.23-0.179-0.445-0.368-0.641
			c-0.189-0.197-0.449-0.35-0.777-0.457c-0.33-0.109-0.786-0.164-1.367-0.164h-1.768v3.986h1.768c0.799,0,1.432-0.17,1.897-0.51
			S985.483,445.523,985.483,444.878z M994.642,449.769h-3.933v-15.658h3.933V449.769z"/>
		<path fill="#F6F7F8" d="M1011.099,449.769h-3.933v-6.941h-5.353v6.941h-3.933v-15.658h3.933v5.73h5.353v-5.73h3.933V449.769z"/>
		<path fill="#F6F7F8" d="M840.779,468.199c0.351,0.301,0.631,0.674,0.842,1.119c0.21,0.445,0.314,0.988,0.314,1.625
			c0,1.564-0.601,2.783-1.803,3.66c-1.203,0.877-2.929,1.314-5.18,1.314c-1.023,0-2-0.092-2.928-0.273
			c-0.93-0.182-1.779-0.432-2.551-0.746v-3.502h0.357c0.526,0.363,1.219,0.721,2.077,1.066c0.858,0.348,1.698,0.521,2.519,0.521
			c1.059,0,1.9-0.189,2.523-0.568c0.625-0.379,0.937-0.961,0.937-1.746c0-0.68-0.228-1.184-0.684-1.508
			c-0.456-0.326-1.276-0.49-2.461-0.49h-2.25v-2.797h2.146c0.98,0,1.699-0.148,2.155-0.447c0.456-0.297,0.684-0.744,0.684-1.34
			c0-0.525-0.251-0.908-0.752-1.146s-1.169-0.357-2.003-0.357c-0.471,0-0.917,0.049-1.342,0.146c-0.424,0.1-0.839,0.221-1.246,0.369
			c-0.378,0.139-0.727,0.293-1.046,0.463c-0.319,0.168-0.562,0.293-0.73,0.377h-0.368v-3.26c0.455-0.189,1.2-0.408,2.234-0.656
			c1.034-0.25,2.119-0.373,3.255-0.373c2.019,0,3.53,0.334,4.532,1.004s1.504,1.6,1.504,2.791c0,0.891-0.275,1.658-0.826,2.303
			c-0.55,0.646-1.26,1.076-2.129,1.295v0.156c0.322,0.057,0.697,0.172,1.125,0.348S840.478,467.939,840.779,468.199z"/>
		<path fill="#F6F7F8" d="M842.662,475.613l5.289-15.658h4.291l5.289,15.658h-4.049l-0.978-3.197h-4.921l-0.979,3.197H842.662z
			 M851.642,469.576l-1.599-5.162l-1.599,5.162H851.642z"/>
		<path fill="#F6F7F8" d="M865.839,475.917c-2.349,0-4.214-0.711-5.595-2.129c-1.381-1.42-2.071-3.416-2.071-5.99
			c0-2.48,0.692-4.459,2.077-5.936s3.251-2.213,5.6-2.213c0.623,0,1.185,0.035,1.682,0.104c0.498,0.07,0.975,0.17,1.431,0.295
			c0.358,0.105,0.747,0.25,1.167,0.432c0.421,0.182,0.762,0.34,1.021,0.473v3.734h-0.399c-0.189-0.17-0.428-0.371-0.715-0.605
			c-0.288-0.234-0.613-0.465-0.979-0.689c-0.364-0.223-0.766-0.414-1.204-0.572s-0.896-0.236-1.372-0.236
			c-0.568,0-1.088,0.09-1.562,0.268c-0.474,0.18-0.924,0.488-1.352,0.932c-0.393,0.398-0.714,0.939-0.962,1.619
			c-0.249,0.68-0.373,1.482-0.373,2.408c0,0.975,0.129,1.793,0.389,2.455s0.6,1.197,1.02,1.604c0.406,0.393,0.861,0.676,1.362,0.852
			s1.001,0.264,1.499,0.264c0.518,0,1.012-0.086,1.482-0.258c0.469-0.172,0.865-0.363,1.188-0.574
			c0.352-0.217,0.66-0.438,0.926-0.662c0.267-0.225,0.498-0.424,0.694-0.6h0.357v3.682c-0.288,0.133-0.62,0.285-0.999,0.457
			s-0.768,0.316-1.168,0.436c-0.49,0.148-0.949,0.26-1.377,0.338C867.177,475.878,866.589,475.917,865.839,475.917z"/>
		<path fill="#F6F7F8" d="M884.02,462.941h-6.625v12.672h-3.933v-15.658h10.558V462.941z"/>
		<path fill="#F6F7F8" d="M899.164,475.613h-3.871v-10.316l-6.015,10.316h-3.638v-15.658h3.869v9.328l5.562-9.328h4.092V475.613z"/>
		<path fill="#F6F7F8" d="M915.863,475.613h-3.871v-10.316l-6.015,10.316h-3.638v-15.658h3.869v9.328l5.562-9.328h4.092V475.613z
			 M914.674,454.791c-0.007,1.262-0.461,2.271-1.361,3.029c-0.9,0.756-2.298,1.135-4.19,1.135c-1.858,0-3.246-0.383-4.165-1.15
			c-0.918-0.768-1.381-1.771-1.388-3.014h3.449c0.015,0.764,0.175,1.32,0.483,1.668c0.309,0.346,0.849,0.52,1.62,0.52
			c0.771,0,1.311-0.176,1.619-0.525c0.309-0.352,0.47-0.904,0.483-1.662H914.674z"/>
		<path fill="#F6F7F8" d="M932.257,475.613h-3.933v-6.941h-5.354v6.941h-3.932v-15.658h3.932v5.73h5.354v-5.73h3.933V475.613z"/>
		<path fill="#F6F7F8" d="M952.363,462.941h-6.625v12.672h-3.933v-15.658h10.558V462.941z"/>
		<path fill="#F6F7F8" d="M952.301,475.613l5.289-15.658h4.291l5.289,15.658h-4.049l-0.979-3.197h-4.921l-0.978,3.197H952.301z
			 M961.281,469.576l-1.6-5.162l-1.598,5.162H961.281z"/>
		<path fill="#F6F7F8" d="M978.852,468.199c0.351,0.301,0.631,0.674,0.841,1.119c0.211,0.445,0.316,0.988,0.316,1.625
			c0,1.564-0.602,2.783-1.804,3.66s-2.929,1.314-5.179,1.314c-1.023,0-2-0.092-2.93-0.273c-0.928-0.182-1.778-0.432-2.549-0.746
			v-3.502h0.357c0.525,0.363,1.217,0.721,2.076,1.066c0.859,0.348,1.698,0.521,2.519,0.521c1.059,0,1.899-0.189,2.524-0.568
			c0.623-0.379,0.936-0.961,0.936-1.746c0-0.68-0.229-1.184-0.684-1.508c-0.456-0.326-1.275-0.49-2.461-0.49h-2.25v-2.797h2.145
			c0.982,0,1.7-0.148,2.156-0.447c0.455-0.297,0.684-0.744,0.684-1.34c0-0.525-0.251-0.908-0.752-1.146
			c-0.502-0.238-1.169-0.357-2.004-0.357c-0.469,0-0.916,0.049-1.34,0.146c-0.425,0.1-0.84,0.221-1.246,0.369
			c-0.379,0.139-0.728,0.293-1.047,0.463c-0.318,0.168-0.562,0.293-0.73,0.377h-0.368v-3.26c0.456-0.189,1.2-0.408,2.234-0.656
			c1.034-0.25,2.119-0.373,3.255-0.373c2.02,0,3.529,0.334,4.532,1.004s1.504,1.6,1.504,2.791c0,0.891-0.275,1.658-0.825,2.303
			c-0.551,0.646-1.261,1.076-2.13,1.295v0.156c0.322,0.057,0.698,0.172,1.125,0.348
			C978.186,467.722,978.551,467.939,978.852,468.199z"/>
		<path fill="#F6F7F8" d="M980.735,475.613l5.29-15.658h4.29l5.289,15.658h-4.048l-0.979-3.197h-4.922l-0.978,3.197H980.735z
			 M989.716,469.576l-1.599-5.162l-1.598,5.162H989.716z"/>
		<path fill="#F6F7F8" d="M1009.212,464.896c0,0.73-0.115,1.424-0.347,2.082c-0.231,0.66-0.564,1.211-0.999,1.652
			c-0.267,0.273-0.56,0.525-0.878,0.756c-0.319,0.232-0.672,0.428-1.057,0.59c-0.387,0.16-0.805,0.287-1.258,0.379
			c-0.451,0.09-0.958,0.137-1.52,0.137h-2.061v5.121h-3.933v-15.658h6.078c0.904,0,1.685,0.082,2.34,0.246
			c0.655,0.166,1.249,0.426,1.782,0.783c0.589,0.393,1.045,0.918,1.367,1.572C1009.051,463.212,1009.212,463.992,1009.212,464.896z
			 M1005.174,464.992c0-0.441-0.105-0.822-0.315-1.141c-0.21-0.32-0.462-0.539-0.757-0.658c-0.371-0.16-0.728-0.254-1.067-0.279
			c-0.341-0.023-0.802-0.035-1.383-0.035h-0.558v4.689h0.273c0.371,0,0.723-0.004,1.052-0.01c0.329-0.008,0.616-0.033,0.862-0.074
			c0.211-0.035,0.433-0.104,0.668-0.205c0.234-0.102,0.415-0.217,0.541-0.342c0.267-0.26,0.447-0.529,0.542-0.811
			C1005.127,465.847,1005.174,465.468,1005.174,464.992z"/>
	</g>
	<path id="rect2887_3_" fill="#F3C30E" d="M920.42,288.173c0,0-1.833,0.836-2.104,1.698c-0.391,1.252,1.161,2.478,1.101,3.794
		c-0.076,1.717-1.828,3.078-1.893,4.801c-0.052,1.25,1.377,2.373,1.091,3.598c-0.19,0.801-0.868,1.816-1.698,1.799
		c-0.801-0.018-1.48-1.01-1.596-1.799c-0.212-1.413,1.791-2.473,1.8-3.901c0.009-0.983-1.248-1.706-1.193-2.698
		c0.021-0.615,0.891-1.599,0.891-1.599s-2.244,1.112-2.592,2.2c-0.259,0.783,0.688,1.578,0.6,2.4
		c-0.242,2.014-2.724,3.369-2.807,5.396c-0.074,1.95,0.91,4.024,2.304,5.394c1.302,1.303,3.257,2.078,5.094,2.1
		c1.933,0.019,4.016-0.758,5.401-2.1c1.404-1.365,2.229-3.441,2.302-5.394c0.054-1.724-1.693-3.171-1.7-4.912
		c-0.013-0.933,1.04-1.749,0.897-2.687c-0.197-1.229-2.196-3.002-2.196-3.002s0.451,1.678,0.294,2.494
		c-0.208,1.133-1.503,1.873-1.598,3.004c-0.091,1.162,1.295,2.162,1.1,3.305c-0.134,0.744-0.637,1.779-1.395,1.798
		c-0.789,0.019-1.343-1.03-1.507-1.798c-0.336-1.633,1.485-3.137,1.402-4.809c-0.13-2.576-2.577-4.6-2.503-7.189
		C919.935,289.366,920.42,288.173,920.42,288.173z M919.363,313.903c-6.488,0-11.764,5.255-11.764,11.747
		c0,6.49,5.275,11.773,11.764,11.773c6.5,0,11.747-5.283,11.747-11.773C931.11,319.158,925.862,313.903,919.363,313.903z
		 M902.873,327.326c-0.043,0.523-0.074,1.061-0.074,1.594c0,9.152,7.416,16.582,16.563,16.582c9.152,0,16.572-7.43,16.572-16.582
		c0-0.511-0.022-1.035-0.083-1.549c-2.025,7.188-8.642,12.443-16.49,12.443S904.894,334.542,902.873,327.326L902.873,327.326z
		 M887.956,348.132v69.404h14.543v-69.404H887.956z M904.976,348.132l14.387,9.424l14.4-9.424H904.976z M936.216,348.132v69.404
		h14.559v-69.404H936.216z M904.976,359.962v5.969h6.289h16.171h6.326v-5.969h-6.326h-16.171H904.976z M917.041,368.085
		c-0.622,0.02-1.241,0.1-1.841,0.225c-6.268,1.287-10.703,7.486-10.703,14.24c0,6.711,4.461,12.351,10.573,14.197
		c-2.309-1.396-3.87-3.833-3.924-6.648v-0.076c-0.035-3.358,2.063-6.268,5.05-7.473c0.914-0.369,1.958-0.574,3.119-0.574h0.078
		c3.853,0,6.94-3.118,6.897-6.9C925.838,370.189,921.403,367.899,917.041,368.085L917.041,368.085z M923.642,368.335
		c2.302,1.385,3.863,3.829,3.922,6.645v0.074c0.037,3.358-2.064,6.264-5.044,7.467c-0.916,0.369-1.962,0.578-3.127,0.578h-0.078
		c-3.852,0-6.939,3.115-6.896,6.897c0.455,4.878,4.889,7.171,9.252,6.996c0.615-0.026,1.239-0.092,1.846-0.226
		c6.263-1.301,10.693-7.493,10.693-14.246C934.211,375.817,929.748,370.167,923.642,368.335L923.642,368.335z M919.363,372.247
		c1.507,0,2.699,1.226,2.699,2.733c0,1.496-1.191,2.689-2.699,2.689c-1.497,0-2.722-1.193-2.722-2.689
		C916.641,373.472,917.866,372.247,919.363,372.247z M919.343,387.399c1.497,0,2.719,1.192,2.719,2.7
		c0,1.496-1.223,2.719-2.719,2.719c-1.501,0-2.702-1.223-2.702-2.719C916.641,388.591,917.842,387.399,919.343,387.399z
		 M904.976,399.747v5.961h6.289h16.171h6.326v-5.961h-6.326h-16.171H904.976z M904.976,408.108l14.387,9.43l14.4-9.43H904.976z"/>
</g>
</svg>
