<?xml version="1.0" encoding="utf-8"?>
<!-- Generator: Adobe Illustrator 24.2.3, SVG Export Plug-In . SVG Version: 6.00 Build 0)  -->
<svg version="1.1" id="Layer_1" xmlns="http://www.w3.org/2000/svg" xmlns:xlink="http://www.w3.org/1999/xlink" x="0px" y="0px"
	fill="#fff" viewBox="0 0 450 450" style="enable-background:new 0 0 450 450;" xml:space="preserve">
<g>
	<path d="M0.4,219.8c3.3-17.3,5-35.2,10.2-51.9C31,102.4,71.1,53.9,137,30.3c17.5-6.2,36.7-7.9,55.3-10.3c11.7-1.5,14,1.5,14,13.5
		c0,62.2-0.1,124.3,0.3,186.5c0.1,7.4,2.5,14.6,7,20.4c39.4,51.3,79.2,102.2,118.9,153.2c6.8,8.8,6.4,12.8-2.5,20
		c-25.3,20.8-54,33.3-87,34.9c-2.7,0.1-5.5,1-8.2,1.6c-0.3,0.1-0.6,0.1-1,0.1h-31.2c-0.2,0-0.4,0-0.6,0c-5.1-0.7-10.2-1.2-15.3-2.1
		c-87.9-15.5-147.2-65-176.1-149.5c-5.4-15.8-6.9-32.9-10.2-49.4C0.4,239.2,0.4,229.6,0.4,219.8z M312.1,404.3
		c1.9-1.5,2.3-4.3,0.8-6.2c0,0,0,0,0,0c-39.5-50.8-79.1-101.5-118.3-152.4c-3.9-5.1-6.1-11.4-6.1-17.9
		c-0.3-59.2-0.2-118.3-0.2-177.5c0-2.5,0-5,0-7.6c0-2.5-2-4.5-4.5-4.5c-1,0-1.9,0-2.8,0.1c-39.6,3.9-73.7,20.4-101.4,48.3
		C33.1,133.4,13,190.5,20.3,256.2c7.5,67.5,42.5,117.6,101,151.2c40.4,23.1,84.4,28.7,130,22.5C273.8,426.9,294.1,418.5,312.1,404.3
		z"/>
	<path d="M450.3,209.8c0,5.9-3.4,11.3-8.8,13.6c-1.1,0.5-2.3,0.8-3.4,0.8c-66.6,0.4-133.2,0.2-199.8,0.4c-9.1,0-12.4-3.3-12.3-12.3
		c0.2-66.6,0-133.2,0.4-199.8c0-1.1,0.3-2.3,0.8-3.4c2.3-5.4,7.7-8.8,13.6-8.8l6.5,0c0.7,0,1.3,0,2,0.1c4.9,0.7,9.7,1.2,14.6,2
		C351.7,17.9,411,67.4,440,151.9c5.3,15.6,6.9,32.5,10.1,48.9c0.2,0.9,0.3,1.9,0.3,2.8V209.8z M429.9,189.2
		C417.7,98.4,343.3,30.6,261.2,20.7c-8.9-1.1-16.7,5.9-16.7,14.8v155.7c0,8.3,6.7,14.9,14.9,14.9h155.6
		C424.2,206.2,431.1,198.2,429.9,189.2z"/>
	<path d="M450.3,267.8c0,0.3,0,0.6-0.1,0.9c-3.3,15.9-5.5,32.2-10.1,47.8c-10.2,35.1-28.8,65.4-55.1,90.8c-8.3,8-12.4,8-19.6-0.9
		c-39.3-48.5-78.6-97.1-117.6-145.8c-2.1-2.6-3.6-8.2-2.2-10.5c1.7-2.9,6.7-5.5,10.3-5.5c60.9-0.3,121.8-0.3,182.7,0
		c3.2,0,6.4,2.5,9.6,4.6c1.3,0.8,2.1,2.3,2.1,3.8V267.8z M379.4,386.9c32.4-34.3,50.6-82.9,51.4-119.4c0.1-2.5-2-4.6-4.5-4.6H282.2
		c-3.8,0-5.9,4.4-3.5,7.3c31.8,39.3,62.7,77.7,93.9,116.4C374.4,388.7,377.6,388.8,379.4,386.9z"/>
</g>
</svg>
