<?xml version="1.0" encoding="utf-8"?>
<!-- Generator: Adobe Illustrator 24.2.3, SVG Export Plug-In . SVG Version: 6.00 Build 0)  -->
<svg version="1.1" id="Layer_1" xmlns="http://www.w3.org/2000/svg" xmlns:xlink="http://www.w3.org/1999/xlink" x="0px" y="0px"
	fill="#fff" viewBox="0 0 450 450" style="enable-background:new 0 0 450 450;" xml:space="preserve">
<g>
	<path d="M47.4,5.8c3.3,0.8,6.6,1.3,9.7,2.3C71.3,13,80.5,22.7,85.2,36.9c0.2,0.7,0.4,1.5,0.7,2.2c0.1,0.2,0.2,0.4,0.4,0.8
		c13.2,0,26.5,0,39.7-0.1c0.8,0,2-1.6,2.4-2.6c4.6-12.2,12.9-20.5,25.6-24.1c19.5-5.5,39.4,4.8,46.2,23.9c0.3,0.9,0.7,1.8,1,2.9
		c11.9,0,23.8-0.4,35.7,0.1c6.6,0.3,10.1-1,13.2-7.7c7.3-15.4,20.9-22.2,37.8-20.4c15.4,1.6,25.8,10.5,31.4,25
		c0.3,0.8,0.6,1.6,0.9,2.4c0,0.1,0.1,0.2,0.5,0.5c8.2,0,16.7,0.1,25.2,0c12.9-0.2,25.7,0.4,38.1,4.2c31.4,9.7,51.5,30.9,60.8,62
		c9.8,32.7,5.3,63.8-14.8,91.8c-14.3,19.9-34.2,31.7-58.3,34.7c-15.6,1.9-31.5,1.3-47.3,1.6c-2.9,0.1-4.2,0.7-5.2,3.7
		c-5.2,15.4-19.6,25.2-36.4,25.1c-15.7-0.1-30-10.5-35.2-25.9c-0.7-2.2-1.7-2.8-3.9-2.8c-13.2,0.1-26.4,0.1-39.6,0
		c-2.3,0-3.2,0.7-3.9,2.8c-5.4,15.9-19.5,25.9-36.1,25.9c-16.3,0-30.3-10.2-35.7-26c-0.6-1.7-1.2-2.7-3.3-2.7
		c-11.6,0.3-23.4-0.3-34.9,0.7c-31.5,2.5-53.8,18.5-64.5,48.4c-9.6,26.8-7.1,53,8.8,77c11.5,17.4,28.2,27.5,48.7,30
		c14.5,1.7,29.3,1.4,43.9,2c6.5-18.8,18.9-29.2,38.5-29.2c16.4,0,27.5,9.2,35.9,28.6c10.7,0,21.5,0,32.2,0c3.5,0,7-0.1,10.5,0
		c2,0.1,2.7-0.7,3.4-2.5c4.8-13.7,14.4-22.4,28.5-25.4c18.6-4,36.9,6.7,43.2,24.8c0.9,2.5,2,3.2,4.6,3.2c13.4-0.1,26.8-0.1,40.4-0.1
		c2-7.5,5-14.3,10.2-19.8c12.3-13.1,27.5-17.5,44.6-12.6c16.9,4.9,27.2,16.7,30.4,34.1c4.4,23.7-11.8,47.1-37.4,50.6
		c-20.5,2.8-40.7-10.4-46.7-30.6c-0.7-2.4-1.6-3.3-4.1-3.2c-12.6,0.1-25.3,0.1-37.9,0c-2,0-3,0.5-3.7,2.6c-6,17.3-21,27.2-39.2,26.1
		c-14.6-0.9-27.9-11.4-32.8-26c-0.7-2.1-1.6-2.6-3.6-2.6c-13.3,0.1-26.6,0.1-39.9,0c-2.1,0-3,0.6-3.7,2.6
		c-5.5,16.1-19.4,26.1-36,26.1c-16.5,0-30.4-10-36-26.1c-0.7-2-1.6-2.6-3.7-2.6c-10.1,0.1-20.3,0.1-30.4,0
		c-44.1-0.7-79-28.1-89.3-71c-7.6-31.8-2.5-61.6,17.2-88.1c13.5-18.2,32-28.6,54.1-33.1c13.9-2.8,28-1.7,42-2c2.9,0,5.9,0,8.9,0
		c6.4-18.5,19-28.9,38.9-28.6c16.2,0.3,27.1,9.6,35.3,28.6c9.1,0,18.4,0,27.6,0c5,0,10-0.1,15,0c2,0.1,2.8-0.6,3.4-2.5
		c5.2-15.7,19.4-26.1,35.6-26.3c16.2-0.2,30.8,10.1,36.1,25.6c0.9,2.5,1.9,3.3,4.6,3.2c10.5-0.2,20.9,0.2,31.4-0.1
		c21.4-0.6,40.3-7.3,55.2-23.3c10.7-11.5,16.8-25.3,19.3-40.6c2.8-17.5,1.1-34.5-6.5-50.7c-11.2-23.9-30-38.2-56.1-41.4
		c-14.7-1.8-29.8-1-44.7-1.5c-2-0.1-2.2,1.1-2.7,2.5c-4.8,13.7-14,22.5-28.3,25.7c-18.8,4.2-37.8-6.7-43.8-25.1
		c-0.8-2.5-1.9-3.1-4.3-3.1c-13,0.1-25.9,0.1-38.9,0c-2.1,0-3.2,0.5-4,2.7c-5.3,16.2-19.6,26.6-36.1,26.5
		c-16.7-0.1-30.6-10.3-36.2-26.5c-0.4-1-1.7-2.5-2.6-2.5c-13.1-0.2-26.1-0.1-38.3-0.1c-3.5,6.4-5.8,12.9-9.9,18
		C65.9,90.6,50.6,95.5,32.6,91.3C16.4,87.5,3.6,73,0.9,56.8C-3.5,31.2,15.2,8.7,38.4,6.4c0.4,0,0.8-0.3,1.1-0.5
		C42.1,5.8,44.8,5.8,47.4,5.8z M164.4,421.7c11.7,0,21-9.2,21-20.8c0-11.7-9.2-21.1-20.7-21.1c-11.8,0-21.2,9.2-21.2,21
		C143.5,412.5,152.7,421.7,164.4,421.7z M164.5,245.8c11.7,0,20.8-9.2,20.8-20.9c0-11.6-9.3-20.9-20.9-21c-11.6,0-21,9.3-21,20.9
		C143.5,236.7,152.6,245.8,164.5,245.8z M304.5,49.3c0-11.5-9.4-21-20.9-21c-11.3,0-21,9.7-21.1,21c0,11.4,9.5,21,20.9,21.2
		C295,70.6,304.5,61.1,304.5,49.3z M304.5,225c0-11.8-9.3-21.1-21.1-21c-11.4,0-20.9,9.6-20.9,21.1c0,11.7,9.4,20.8,21.4,20.8
		C295.4,245.8,304.5,236.5,304.5,225z M185.4,49.3c0-11.5-9.5-21-21-21c-11.4,0-20.9,9.5-20.9,21c0,11.6,9.6,21.3,21.1,21.1
		C176.1,70.3,185.4,60.8,185.4,49.3z M304.5,401c0-11.7-9.2-21.1-20.7-21.2c-11.7-0.1-21.3,9.4-21.3,21c0,11.5,9.4,20.9,21,20.9
		C295.2,421.7,304.5,412.6,304.5,401z"/>
</g>
</svg>
