<svg xmlns="http://www.w3.org/2000/svg" viewBox="0 0 198 251" width="198" height="251">
	<style>
		tspan { white-space:pre }
		.shp0 { fill: #ccc } 
	</style>
	<g id="scale">
		<path id="Shape 6 copy" class="shp0" d="M115.88 55.24C113.66 58.43 111.44 61.62 109.23 64.81C107.87 66.76 106.46 68.68 105.19 70.69C104.58 71.65 103.9 71.85 102.81 71.8C98.63 71.6 94.43 71.37 90.24 71.43C86.27 71.49 82.56 72.72 79.13 74.98C76 71.3 72.91 67.68 69.84 64.06C64.15 57.37 58.52 50.63 52.76 44C50.14 40.99 49.78 37.8 51.6 34.44C55.07 28.02 60.74 24.27 67.49 21.91C68.5 21.56 68.75 22.23 69.09 22.91C72.59 29.83 76.1 36.74 79.6 43.65C79.83 44.1 80.07 44.54 80.55 44.88C79.27 40.65 77.99 36.42 76.72 32.2C74.79 25.81 72.87 19.42 70.9 13.05C70.59 12.03 70.79 11.37 71.56 10.68C74.92 7.66 78.98 6.11 83.28 5.17C98.08 1.92 112.81 2.35 127.35 6.64C129.87 7.38 132.18 8.83 134.57 9.97C135.73 10.53 135.92 11.27 135.37 12.54C132.04 20.28 128.82 28.07 125.56 35.84C125.37 36.29 125.19 36.74 125.24 37.33C128.92 32.43 132.6 27.53 136.33 22.55C140.46 25.04 144 27.97 146.07 32.32C148.25 36.87 147.65 41.21 144.4 44.99C135.91 54.87 127.31 64.67 118.72 74.47C118.45 74.79 117.75 75.01 117.36 74.91C114.69 74.16 112.05 73.32 109.13 72.42C111.47 66.78 113.83 61.09 116.19 55.4C116.08 55.34 115.98 55.29 115.88 55.24ZM186.81 165.12C178.09 145.29 165.85 127.74 151.47 111.62C142.97 102.08 133.85 93.17 123.21 85.97C119.41 83.4 115.56 80.88 110.99 79.8C110.48 79.68 109.96 79.64 109.32 79.55C111 87.07 112.62 94.32 114.24 101.57C113.82 101.32 113.62 100.99 113.45 100.65C110.9 95.29 108.4 89.9 105.77 84.57C104.76 82.51 103.92 79.75 102.19 78.83C100.35 77.85 97.54 78.69 95.16 78.71C93.97 78.73 93.24 79.29 92.54 80.25C88.07 86.38 83.53 92.46 79.01 98.55C78.73 98.92 78.43 99.26 78.13 99.61C78.05 99.55 77.96 99.49 77.88 99.43C81.52 92.94 85.16 86.46 89.04 79.56C87.37 80.06 86.16 80.33 85.01 80.78C79.82 82.81 75.41 86.14 71.13 89.57C49.36 107 31.72 127.96 17.98 152.15C9.83 166.49 3.66 181.57 2.5 198.25C1.42 213.79 5.81 227.4 17.07 238.56C20.21 241.67 23.35 244.43 27.46 246.01C32.13 247.8 36.15 248.68 38.52 248.87C44.87 249.39 70.25 248.81 82.59 248.87C104.83 248.99 104.83 248.86 139.03 248.87C148.4 248.87 157.65 248.74 166.74 246.37C171.18 245.21 175.61 243.94 179.2 240.83C190.31 231.17 195.62 218.89 195.88 204.32C196.12 190.51 192.3 177.6 186.81 165.12Z" />
	</g>
</svg>