<?xml version="1.0" encoding="utf-8"?>
<!-- Generator: Adobe Illustrator 23.0.5, SVG Export Plug-In . SVG Version: 6.00 Build 0)  -->
<svg version="1.1" id="Layer_1" xmlns="http://www.w3.org/2000/svg" xmlns:xlink="http://www.w3.org/1999/xlink" x="0px" y="0px"
	 fill="#28c66f" viewBox="0 0 512 512" style="enable-background:new 0 0 512 512;" xml:space="preserve">
<path  d="M510.51,233.25c-1.48-2.2-3.2-4.12-4.69-5.71c-1.03-1.1-2.33-1.96-3.69-2.49c-0.76-2.21-2.56-4.79-6.76-5.96
	c-0.16-0.11-0.38-0.29-0.56-0.43c-0.41-0.32-0.87-0.68-1.42-1.05c-0.32-0.21-0.64-0.43-0.96-0.65c-0.91-0.62-1.85-1.26-2.9-1.87
	c-0.76-0.45-1.49-0.73-2.04-0.94c-2.89-3.37-6.73-5.08-11.44-5.08c-1.23,0-2.54,0.11-3.99,0.35c-0.39,0.06-0.79,0.14-1.18,0.22
	c-0.53,0.1-1.13,0.22-1.4,0.22l-0.12,0c-4.81,0-6.93,3.52-7.63,4.67c-0.47,0.78-0.95,1.56-1.43,2.34c-1.67-1.25-3.46-1.89-5.32-1.89
	c-1.47,0-2.92,0.4-4.31,1.18c-1.04,0.58-1.59,0.71-1.86,0.71c-0.07,0-0.19-0.01-0.37-0.07c-0.92-0.3-1.86-0.46-2.78-0.46
	c-0.56,0-1.11,0.06-1.65,0.17c0.15-1.54-0.06-2.81-0.17-3.49c-0.07-0.42-0.16-0.84-0.25-1.27c-0.03-0.15-0.07-0.34-0.11-0.52
	c2.98-2.72,4.37-6.36,3.97-10.42c0-0.01,0.01-0.02,0.01-0.02l0.1-0.26c1.58-4.21,3.17-8.41,4.76-12.62l1.82-4.81
	c1.25-3.31,0.92-6.75-0.9-9.44c-1.86-2.74-5.03-4.35-8.69-4.42l-0.21,0c-0.32,0-0.65,0.01-0.99,0.03c-1.59-0.75-3.2-1.12-4.79-1.12
	c-4.72,0-7.71,3.26-8.73,4.39c-0.02,0-0.06,0.01-0.11,0.01c-0.22,0-0.57-0.09-0.85-0.35c-1.73-1.59-3.7-3.12-5.85-4.55
	c-1.82-1.21-3.87-1.85-5.93-1.85c-1.43,0-2.83,0.29-4.17,0.87c-0.69-0.15-1.38-0.22-2.07-0.22c-1.99,0-4.95,0.63-7.77,3.62
	c-2.45,2.59-5.2,4.5-8.39,5.82c-1.91,0.79-7.42,3.07-8.78,8.82c-0.69-0.08-1.38-0.12-2.06-0.12c-3.91,0-7.55,1.3-10.83,3.87
	c-0.04,0-0.09,0-0.13,0c-2.81,0-4.73,1.26-5.88,2.02c-0.08,0.05-0.16,0.11-0.25,0.16c-0.08,0.01-0.17,0.02-0.24,0.02
	c-1.45,0.13-4.48,0.4-6.88,3.01c-0.27,0.3-0.47,0.56-0.59,0.73c-0.55,0.61-0.8,0.61-1.01,0.61c-0.18,0-0.5-0.03-0.99-0.17
	c-0.92-0.26-1.88-0.39-2.94-0.39c-0.86,0-1.65,0.09-2.28,0.15c-0.25,0.03-0.5,0.06-0.74,0.07c-0.77,0.05-1.46,0.17-2.02,0.27
	c-0.28,0.05-0.65,0.11-0.82,0.13c-1.6-0.13-3.23-0.37-5.12-0.65c-0.13-0.02-0.25-0.04-0.38-0.06c-1.76-1.52-4.15-2.37-6.87-2.37
	c-0.51,0-1.03,0.03-1.55,0.09c-0.61,0.07-1.22,0.14-1.84,0.21c-1.24,0.15-2.42,0.28-3.59,0.4c-0.37-0.25-0.72-0.45-1.02-0.63
	c-0.03-0.02-0.05-0.03-0.08-0.05c-1.04-2.05-3.03-3.24-4.93-3.82c-0.55-5.18-4.17-8.5-9.59-8.71c-0.58-0.02-1.4-0.21-2.28-0.41
	c-0.48-0.11-0.96-0.22-1.44-0.31c-0.09-0.03-0.18-0.06-0.28-0.09c-0.44-0.14-1.02-0.33-1.72-0.45c-3.55-6.11-8.4-7.45-11.98-7.45
	c-0.81,0-1.64,0.07-2.48,0.21l-0.42,0.06c-1.1,0.17-2.61,0.4-4.16,1.15c-0.47,0.23-0.78,0.26-1.01,0.26c-0.54,0-1.25-0.2-2.13-0.61
	c-1.61-0.74-3.39-1.31-5.42-1.76l-0.33-0.07c-0.94-0.21-2.23-0.5-3.64-0.5c-1.04,0-2.02,0.16-2.93,0.46
	c-0.27,0.09-0.53,0.18-0.79,0.27c-1.15,0.4-2.24,0.78-2.92,0.78c-0.12,0-0.23-0.01-0.34-0.04c-0.5-0.12-1.02-0.18-1.55-0.18
	c-1.55,0-2.74,0.52-3.38,0.8l-0.1,0.05c-1.04,0.44-2.03,0.91-2.99,1.37c-1.85,0.88-3.61,1.7-5.23,2.13
	c-0.14,0.04-0.42,0.08-0.95,0.08c-0.63,0-1.38-0.06-2.18-0.13c-0.76-0.07-1.55-0.13-2.4-0.16c-0.13,0-0.31-0.03-0.51-0.06
	c-1.59-1.36-3.55-2.09-5.71-2.09c-0.62,0-1.24,0.06-1.89,0.18c-0.31-0.23-0.56-0.45-0.67-0.59c-0.96-1.4-2.06-2.5-3.3-3.3
	c-0.06-1.44-0.14-2.92-0.28-4.42c-0.15-1.71-0.89-3.11-1.66-4.13c0.85-2.42,0.84-4.69-0.01-6.75c-0.65-1.58-2.12-3.72-5.41-4.97
	c-2.7-1.03-6.3-2.26-10.12-2.6c-1.85-0.17-3.23-0.6-4.61-1.46c-3.63-2.25-7.96-4.66-13.38-4.66c-0.76,0-1.53,0.05-2.3,0.14
	c-1.87-2.75-4.52-4.48-7.89-5.15c-0.25-0.15-0.71-0.49-1.03-0.72c-0.53-0.39-1.12-0.83-1.81-1.25c-0.34-0.21-0.7-0.39-1.08-0.52
	c-1.49-2.5-4.04-4.05-6.86-4.05c-2.78,0-5.38,1.51-6.96,4.05c-1.4,2.24-1.99,4.59-2.24,6.17c-0.03,0.18-0.06,0.33-0.08,0.47
	c-0.1,0.03-0.23,0.06-0.36,0.1c-3.63,0.93-6.26,3.29-7.58,6.72c-3.95,2.22-6.45,6.5-6.27,11c0.02,0.4-0.02,0.95-0.06,1.53
	c-0.07,0.95-0.14,2.02-0.06,3.23l0.02,0.25c0.1,1.52,0.25,3.91,1.62,6.01c-1.04,3.94-0.06,7.29,2.71,9.55
	c-0.45,0.22-0.9,0.28-1.38,0.32c-2.17,0.16-4.97,1.16-6.61,3.37c-1.35-0.69-2.64-1.36-3.94-2.01c-0.94-0.47-1.97-0.71-3.07-0.71
	c-0.42,0-0.84,0.04-1.25,0.11c-0.2-0.09-0.47-0.21-0.68-0.31c-0.4-0.19-0.85-0.39-1.34-0.59c-0.09-0.08-0.2-0.18-0.29-0.26
	c-0.98-0.89-2.62-2.39-5.12-2.76c-0.61-0.09-1.25-0.14-1.9-0.14c-1.62,0-3.08,0.28-4.36,0.52c-0.53,0.1-1.04,0.2-1.47,0.26
	c-0.49,0.07-1.11,0.21-1.77,0.52c-0.07,0.02-0.14,0.03-0.21,0.05c-0.64,0.15-1.31,0.3-1.67,0.32c-0.22,0-0.87-0.14-1.34-0.24
	c-0.15-0.03-0.3-0.06-0.44-0.1c-1.87-1.85-4.2-2.86-6.72-2.9c-0.08-4.16-1.22-7.3-3.5-9.61c-2.39-2.41-5.72-3.59-10.19-3.6
	c-1.84,0-3.71-0.12-5.65-0.26c-0.3-0.92-0.75-1.79-1.33-2.58c-1.68-2.27-4.31-3.57-7.22-3.57c-0.36,0-0.73,0.02-1.09,0.06
	c-0.09,0.01-0.19,0.02-0.28,0.02c-0.74,0-1.73-0.31-2.88-0.67c-0.36-0.11-0.71-0.22-1.07-0.33c-1.06-0.31-2.1-0.47-3.1-0.47
	c-2.03,0-3.89,0.63-5.45,1.82c-0.71-0.18-1.48-0.3-2.29-0.3c-3.55,0-5.9,2.11-7.14,3.49c-1.86,0.56-3.42,1.55-4.6,2.88
	c-2.19,0.03-3.76,0.59-5.8,1.45c-0.38,0.05-0.76,0.13-1.12,0.24c-0.9,0.28-1.75,0.58-2.58,0.87l-0.15,0.05
	c-0.28,0.1-0.55,0.21-0.83,0.32c-0.05,0.02-0.09,0.04-0.14,0.06c-0.14,0.03-0.28,0.06-0.42,0.1c-2,0.46-5.03,1.15-7.64,3.88
	c-0.32,0.34-1.13,0.79-1.94,1.22c-0.42-0.05-0.83-0.07-1.23-0.07c-2.63,0-4.96,1.02-6.55,2.88c-0.68,0.79-1.19,1.7-1.53,2.69
	c-0.07,0-0.14,0-0.21,0c-1.67,0-2.99,0.46-4.05,1.15c-0.37-0.05-0.76-0.08-1.16-0.08c-0.45,0-0.97,0.04-1.54,0.15
	c-1.5-0.9-3.21-1.37-5.07-1.37c-1.05,0-2.15,0.15-3.35,0.46c-0.39,0.1-0.99,0.16-1.58,0.2c-4.8,0.36-7.78,2.76-8.88,7.16
	c-3.5,1.83-5.6,5.02-6.04,9.24c-0.11,0.24-0.21,0.48-0.31,0.72c-0.5,1.24-1.81,4.54-0.2,7.87c0.77,1.58,1.94,2.63,3.08,3.33
	c0.51,1.37,1.25,2.99,2.71,4.36l0.48,0.45c1.23,1.16,2.31,2.17,3.12,3.28c-0.24,3.17,0.9,5.99,3.22,8.05
	c1.03,5.33,5.12,7.28,8.85,7.28c0.2,0,0.4,0,0.61-0.01c1.79-0.08,3.52-0.34,5.15-0.62c1.01,2.6,3.09,5.98,7.69,5.98
	c0.54,0,1.07-0.05,1.6-0.15c0.05,0.06,0.09,0.13,0.14,0.19l0.06,0.08c0.2,0.28,0.48,0.67,0.63,0.91c0.02,0.28,0.01,0.71,0.01,1.04
	c-0.01,1.19-0.02,2.68,0.42,4.33c0.62,2.3,1.45,4.4,2.25,6.43c0.26,0.67,0.53,1.34,0.78,2.01c0.79,2.07,2.03,3.22,3.16,3.84
	c-1.97,1.85-3.74,4.96-2.74,9.91c0.05,0.26,0.09,0.52,0.14,0.79c0.07,0.46,0.16,0.99,0.29,1.56c-3.22,2.47-5.5,6.03-6.37,10.02
	c-0.98,4.53-0.06,9.24,2.53,12.95c2.83,4.05,6.26,5.03,8.73,5.1c0.32,0.17,0.63,0.36,0.94,0.54c0.96,0.56,2.06,1.2,3.34,1.73
	c1.09,0.45,2.16,0.7,3.01,0.9c0.34,0.08,0.83,0.2,1.1,0.29c2.44,1.97,5.16,2.94,8.31,2.94c1.01,0,2.07-0.1,3.32-0.31
	c0.03,0,0.07,0.01,0.1,0.01c1.92,0.98,3.91,1.48,5.92,1.48c0.78,0,1.57-0.07,2.37-0.22c1.48,0.68,2.9,0.91,3.94,1.08
	c0.19,0.03,0.43,0.07,0.62,0.11c0.88,0.93,2.45,2.03,4.97,2.03c0.18,0,0.35-0.01,0.53-0.02c2.01,4.06,4.66,5.96,7.16,6.77
	c0.47,0.77,1.13,1.51,2.04,2.13c1.19,0.81,2.39,1.17,3.82,1.35c2.4,3.23,5.59,4.81,8.54,5.6c0.09,0.41,0.22,0.82,0.39,1.24
	c1.06,2.58,3.2,3.96,4.8,4.7c0.91,2.56,1.75,5.18,2.53,7.67l0.09,0.3c0.19,0.6,0.47,1.5,0.48,1.82c0.11,4.25,2.05,7.84,5.47,10.11
	c2.2,1.46,2.49,2.8,2.5,3.81l4.08,5.54c1.38,0.45,2.75,0.9,4.1,1.34c4.05,1.32,7.87,2.57,11.81,3.77c0.81,0.24,1.67,0.37,2.57,0.37
	c1.09,0,2.05-0.18,2.76-0.31l0.36-0.06c0.91-0.16,1.7-0.41,2.33-0.61c0.16-0.05,0.36-0.11,0.52-0.16c3.04,0.45,6.05,1.02,9.22,1.62
	c1.54,0.29,3.09,0.59,4.63,0.86c0.81,0.15,1.68,0.35,2.59,0.56c2.2,0.51,4.69,1.09,7.34,1.09c0.44,0,0.88-0.02,1.31-0.05
	c3.38-0.25,6.46-1.12,9.43-1.96c1.14-0.32,2.23-0.63,3.29-0.89c2.15,0.27,4.31,0.56,6.46,0.85c4.77,0.63,9.7,1.29,14.6,1.8
	c2.88,0.3,3.19,0.88,3.56,1.56c1.69,3.09,4.33,5.37,7.64,6.58c5.28,1.94,10.64,3.97,15.82,5.94c3.74,1.42,7.6,2.89,11.42,4.31
	c1.15,0.43,2.41,0.65,3.74,0.65c0.69,0,1.37-0.06,2.05-0.17c1.31-0.23,2.59-0.48,3.88-0.74l2.16,2.77c0.82,0.2,1.61,0.39,2.39,0.57
	c1.53,0.35,2.85,0.66,4.05,1.06c1.69,0.57,3.22,0.85,4.67,0.85c3.47,0,6.5-1.61,8.6-4.56c0.03-0.02,0.07-0.05,0.11-0.07
	c9.59-6.17,17.29-9.81,24.96-11.83c0.64-0.17,1.37-0.31,2.14-0.46c1.87-0.36,3.98-0.76,6.11-1.77c1.55-0.73,3.54-0.89,5.84-1.08
	c1.97-0.16,4.16-0.33,6.42-0.92c0.22,0.04,0.46,0.06,0.72,0.08l0.45,0.03c3.06,0.18,6.22,0.36,9.37,0.45l0.21,0
	c1.33,0,2.66-0.39,3.91-1.15c0.93,0.25,1.86,0.38,2.8,0.38c2.62,0,5.13-0.99,7.45-2.94c2.71-2.28,4.48-3.68,6.55-3.68
	c0.06,0,0.13,0,0.19,0c0.09,0,0.18,0,0.26,0c3.06,0,5.28-1.83,6.62-2.92l0.13-0.11c1.38-1.13,2.71-2.48,3.96-4.03
	c1.31-1.62,2.56-3.24,3.52-5.23c2.18-4.49,4.13-6.36,7.2-6.89l0.12-0.02c1.1-0.19,3.38-0.58,5.12-2.5c0.41-0.46,0.84-0.91,1.26-1.36
	c1.73-1.84,3.69-3.94,5.17-6.52c2.42-4.22,1.57-9.43-2.23-13.61c-1.39-1.53-2.94-2.75-4.36-3.82c0.4-0.98,0.63-1.91,0.83-2.69
	c0.07-0.28,0.14-0.55,0.22-0.82c0.23-0.78,0.42-1.52,0.61-2.25c0.28-1.1,0.55-2.14,0.88-2.99c2.15,0.38,4.06,1.12,6.57,2.56
	c3.3,1.89,6.89,2,10.06,2.09c1.02,0.03,1.98,0.06,2.82,0.15c0.24,0.03,0.5,0.04,0.75,0.04c0.55,0,1.02-0.06,1.4-0.13
	c0.88,0.12,1.61,0.17,2.29,0.17c5.11,0,7.5-3.26,8.83-5.49c0.15-0.12,0.3-0.24,0.45-0.36c0.21-0.17,0.52-0.4,0.85-0.64
	c1.14-0.82,2.7-1.94,3.86-3.77c1.37-2.15,2.5-4.35,3.59-6.49c0.65,0.14,1.3,0.2,1.97,0.2c1.91,0,3.78-0.56,5.7-1.7
	c0.37-0.22,0.73-0.31,0.84-0.32c5.31-0.43,9.21-2.53,11.62-6.24c0.47-0.27,0.88-0.55,1.21-0.8c1.6-0.09,3.07-0.8,4.37-2.1
	c0.83-0.83,2.75-3.07,2.74-5.96c0-1.71-0.34-3.23-0.68-4.7c0.24-0.29,0.49-0.5,0.77-0.62c0.9-0.37,1.59-0.87,2.11-1.34
	c1.11,0.56,2.4,0.92,3.91,0.92c1.65,0,3.32-0.45,5.1-1.38c2.32-1.21,3.53-2.97,4.19-4.62c0.7-0.13,1.4-0.36,2.08-0.68
	c2.14-1.01,3.49-2.64,4.47-3.83c0.2-0.24,0.4-0.49,0.61-0.72c0.42-0.46,0.73-0.93,0.96-1.38c1.09-0.63,2.56-1.05,4.19-1.51
	c0.69,0.18,1.39,0.26,2.1,0.26c0.61,0,1.3-0.07,2.05-0.26c1.84,1.42,4.01,2.18,6.31,2.18c1.17,0,2.35-0.2,3.53-0.59
	c2.12-0.7,4.32-1.65,6.92-2.98c3.41-1.75,4.85-5.59,5.4-7.72C512.03,240.36,512.62,236.39,510.51,233.25z M413.17,286.03
	c-0.4,0.24-0.91,0.57-1.43,1c-0.16,0.14-0.33,0.27-0.5,0.41c-0.72,0.58-1.64,1.31-2.48,2.31c-0.36,0.03-0.71,0.09-1.06,0.17
	c-0.33-0.01-0.93-0.13-1.46-0.25c-1.01-0.21-2.26-0.47-3.66-0.47c-0.2,0-0.39,0.01-0.59,0.02l-0.07,0c-0.25,0-0.6-0.18-1.57-0.76
	c-0.67-0.4-1.5-0.9-2.49-1.34c-4.46-2-9.3-2.41-12.57-2.41c-0.29,0-0.58,0-0.88,0.01c-5.43,0.12-8.82,6.11-9.44,7.3
	c-1.23,2.37-1.97,4.84-2.61,7.02c-0.25,0.83-0.48,1.61-0.73,2.36c-0.16,0.47-0.27,0.91-0.36,1.25c-0.04,0.14-0.08,0.31-0.11,0.42
	c-3.52,6.61-1.9,13.13,4.36,17.47c0.17,0.11,0.35,0.24,0.54,0.38c-0.38,0.48-0.7,0.98-0.95,1.51c-8.58,2.36-13.02,9-15.62,13.85
	c-0.41,0.76-1.03,1.61-1.68,2.5c-0.32,0.43-0.64,0.87-0.95,1.31c-0.51,0.73-1.32,1.06-4.1,1.69c-3.6,0.81-6.5,3.01-8.84,4.78
	c-0.28,0.21-0.55,0.42-0.83,0.63c-0.57-0.09-1.16-0.14-1.76-0.14c-1.41,0-2.68,0.26-3.69,0.46c-0.3,0.06-0.61,0.13-0.9,0.17
	c-0.68,0.11-1.27,0.32-1.77,0.56c-1.96-0.09-3.96-0.21-5.9-0.34l-0.24-0.01c-0.12-0.01-0.27-0.05-0.42-0.07
	c-0.6-0.11-1.41-0.25-2.36-0.25c-0.63,0-1.26,0.07-1.85,0.2c-2.46,0.54-5.02,1.03-7.5,1.51c-3.39,0.65-6.89,1.32-10.38,2.16
	c-9.18,2.22-18.14,5.88-28.2,11.52c-2.4,1.35-4.5,2.93-6.51,4.51c-0.01-0.19-0.03-0.38-0.05-0.58l-7.02-5.17
	c-0.9,0.18-1.8,0.33-2.75,0.5c-2.31,0.4-4.69,0.81-7.12,1.59c-0.25,0.08-0.48,0.12-0.73,0.12c-0.88,0-2.1-0.46-3.52-1l-0.21-0.08
	c-2.32-0.88-4.64-1.76-6.96-2.64c-2.28-0.87-4.56-1.73-6.84-2.59c-1.06-0.4-2.12-0.79-3.18-1.19c-1.77-0.65-3.59-1.33-5.35-2.02
	c-0.58-0.73-1.15-1.48-1.76-2.28c-0.8-1.05-1.62-2.14-2.51-3.21c-1.27-1.56-3.24-2.65-5.26-2.92c-8.64-1.18-17.6-2.37-27.39-3.63
	c-0.51-0.07-1-0.1-1.49-0.1c-1.41,0-2.7,0.28-3.83,0.83c-2.58,1.26-5.38,1.87-8.58,1.87c-2.43,0-5.14-0.34-8.53-1.07
	c-4.85-1.05-9.76-1.87-14.52-2.67l-2.08-0.35c-0.42-0.07-0.85-0.11-1.28-0.11c-1.48,0-3.05,0.43-4.41,1.19
	c-2.98-1.11-5.98-1.91-8.91-2.64c-1.16-3.3-3.46-6.18-6.75-8.42c-0.25-2.1-0.92-3.9-1.51-5.49c-0.2-0.55-0.39-1.06-0.54-1.54
	c-0.21-0.66-0.43-1.27-0.65-1.85c-0.34-0.94-0.67-1.83-0.78-2.5c-0.28-1.65-0.85-4.97-3.11-7.58c0.28-1.64,0.36-3.94-0.89-6.04
	c-1.37-2.3-3.9-3.58-7.52-3.8c-0.23-0.01-0.47-0.02-0.7-0.02c-0.88,0-1.66,0.1-2.29,0.17c-0.27,0.03-0.6,0.07-0.78,0.08
	c-0.95-0.16-1.02-0.32-1.18-0.69c-1.01-2.31-2.84-3.54-4.26-4.43c-1.83-3.83-5.56-4.31-7.3-4.31c-0.13,0-0.27,0-0.41,0.01
	c-2.64-4.46-6.17-6.87-10.52-7.19c-1.8-1.03-3.6-1.43-4.92-1.73c-0.59-0.13-1.2-0.27-1.52-0.4c-1.99-0.83-3.77-1.22-5.61-1.22
	c-0.76,0-1.53,0.07-2.3,0.2c-2.09-0.91-4.1-1.35-6.13-1.35c-1.03,0-2.06,0.12-3.07,0.35c-0.02-0.01-0.03-0.02-0.05-0.03
	c-1.99-1.27-4.05-1.91-5.86-2.48c-0.59-0.18-1.15-0.36-1.66-0.54c-0.17-0.06-0.33-0.11-0.49-0.16c-1.53-1.09-3.39-2.27-5.71-2.98
	c0.38-1,0.92-1.47,1.59-1.84c5.33-2.91,6.97-6.83,5.31-12.71c-0.06-0.21-0.11-0.42-0.17-0.63c-0.09-0.35-0.19-0.73-0.31-1.13
	c3.17-3.06,4.09-7.64,2.34-12.03c0-0.01,0-0.02,0-0.03c0-3.53-1.52-6.46-4.17-8.2c-0.22-1.08-0.67-2.35-1.64-3.48
	c-0.34-0.4-0.42-1.39-0.51-2.99c-0.04-0.68-0.09-1.45-0.18-2.25c-0.37-3.26-1.76-6.14-4.11-8.55c-0.71-5.17-4.35-7.5-7.8-7.5
	c-0.51,0-1.03,0.05-1.55,0.14c-2.08-3.01-5.01-4.53-8.78-4.53c-1.26,0-2.64,0.18-4.21,0.54c-0.38-0.56-0.79-1.04-1.2-1.45
	c-0.11-2.79-1.19-5.3-3.17-7.29c-0.21-0.54-0.53-1.15-1.01-1.74c-0.1-0.12-0.19-0.25-0.29-0.39c-0.59-0.79-1.52-2.05-2.97-2.97
	c-0.19-1.01-0.52-1.93-0.99-2.77c1.55-0.99,2.78-2.31,3.65-3.9c1.24,0.88,3.14,1.99,5.63,1.99c0.96,0,1.91-0.17,2.82-0.5
	c0.51,0.08,1.02,0.12,1.53,0.12c2.02,0,3.92-0.63,5.56-1.82c0.07,0,0.14,0,0.21,0c3.62,0,6.8-1.31,8.96-3.7
	c0.82-0.91,1.46-1.94,1.92-3.06c1.42-0.55,2.66-1.37,3.7-2.45c0.04-0.02,0.09-0.04,0.13-0.06c0.45-0.21,0.85-0.42,1.2-0.6
	c0.29-0.15,0.64-0.34,0.79-0.39c0.73-0.27,1.51-0.51,2.34-0.72c0.2,0.01,0.4,0.02,0.57,0.02c2.8,0,4.4-1.45,5.19-2.48
	c0.1-0.04,0.2-0.08,0.29-0.11c0.55-0.2,1.25-0.46,2-0.85c0.26,0.01,0.57,0.04,0.88,0.07c0.86,0.09,1.7,0.17,2.51,0.17
	c4.62,0,6.71-2.81,7.87-5.05c0.37-0.21,0.74-0.42,1.12-0.64c1.14,0.37,2.19,0.59,3.34,0.59c1.81,0,3.22-0.52,4.42-1.32
	c0.57,0.34,1.26,0.62,2.09,0.8c0.37,0.66,0.81,1.27,1.34,1.82c1.85,1.97,4.47,3.05,7.37,3.05c0.18,0,0.35,0,0.53-0.01
	c0.08,0,0.15,0,0.23,0c0.56,0,1.27,0.08,2.02,0.16c0.63,0.07,1.33,0.15,2.07,0.19c1.51,0.09,3.04,0.14,4.48,0.18
	c-0.01,0.04-0.01,0.09-0.02,0.13c-0.62,4.96,2.72,7.66,3.98,8.68c0.12,0.09,0.26,0.21,0.36,0.3c0.96,1.39,3.48,4.74,7.97,4.74
	c0.44,0,0.88-0.03,1.33-0.1c0.95,0.73,2.4,1.66,4.35,1.86c0.23,0.02,0.46,0.04,0.69,0.07c0.43,0.04,0.99,0.09,1.3,0.15
	c0.9,0.88,2.43,1.84,4.8,1.84c2.04,0,3.87-0.69,5.16-1.93c0.2-0.01,0.42-0.01,0.6-0.02c0.38-0.01,0.8-0.02,1.26-0.05
	c1.04,1.23,2.29,1.98,3.74,2.26c0.93,0.18,1.81,0.29,2.66,0.41c1.09,0.15,2.12,0.29,2.94,0.52c0.67,0.19,2.46,0.69,2.92,1.07
	c2.05,1.81,4.17,2.7,6.47,2.7c1.61,0,3.18-0.44,4.8-1.35c1.04-0.59,2.16-1.17,3.42-1.79c0.05,0,0.11,0,0.16,0
	c0.63,0,1.25-0.09,1.85-0.28l0.09-0.03c1.11-0.35,3.6-1.12,4.98-3.24c5.25-2.44,10.1-9.92,9.75-15.41c-0.12-1.85-0.82-5.6-4.38-8.23
	c-0.06-1.61-0.19-4.07-1.7-6.18c0.11-0.48,0.32-1.35,0.24-2.45c2.58-1.12,3.65-3.6,4.2-4.87c0.07-0.16,0.16-0.37,0.22-0.51
	c3.1-1.25,5.37-2.89,6.94-5.1c1.24,0.79,2.55,1.37,3.93,1.76c3.82,4.84,9.45,5.17,12.61,5.35c1.73,0.1,3.01,0.33,3.94,0.71
	c1.14,0.46,2.32,1.1,3.58,1.77c1.79,0.95,3.63,1.93,5.76,2.69c2.16,0.77,4.23,0.94,6.06,1.1c0.04,0,0.09,0.01,0.13,0.01
	c0.09,2.21,0.74,4.76,2.55,7.34c0.02,0.29,0.04,0.87-0.07,1.85c-0.61,5.59,1.95,9.8,6.89,11.45c0.2,0.2,0.4,0.41,0.61,0.62
	c1.26,1.28,2.69,2.74,4.6,3.9c2,1.22,4.09,1.44,5.77,1.6c1.46,1.05,3.26,1.64,5.18,1.64c0.27,0,0.54-0.01,0.82-0.03
	c1.08,0.61,2.53,1.21,4.3,1.21c1.42,0,2.78-0.4,3.96-1.14c0.33,0.02,0.67,0.03,1,0.03c1.63,0,3.14-0.26,4.51-0.78
	c1.35-0.51,2.6-1.15,3.71-1.7c1.36-0.69,2.76-1.4,3.59-1.47c2.29-0.2,4.33-0.62,6.3-1.02c0.79-0.16,1.53-0.32,2.27-0.45
	c0.55,0.1,1.75,0.62,2.49,0.94c0.34,0.15,0.67,0.29,1,0.43c2.53,1.05,4.86,1.57,7.13,1.57c2.21,0,4.36-0.49,6.4-1.46
	c0.15-0.04,0.44-0.1,0.66-0.14l0.1-0.02c0.33,0.55,0.65,1.14,0.95,1.71c1.05,1.99,3.01,5.7,8.19,5.7c0.66,0,1.33-0.06,1.97-0.14
	c0.94,0.25,1.89,0.51,2.84,0.77c0.14,0.48,0.3,0.97,0.49,1.46c0.48,1.26,1.96,5.09,5.71,6.23c0.81,0.24,1.73,0.87,2.8,1.6
	c0.53,0.36,1.12,0.76,1.76,1.16c1.66,1.75,4.28,3.44,8.19,3.44c1.36,0,2.58-0.19,3.65-0.36c0.58-0.09,1.13-0.18,1.55-0.21
	c0.27-0.02,0.54-0.04,0.8-0.07c1.98,2.34,4.31,2.89,6.07,2.89c1.4,0,2.65-0.37,3.61-0.75c0.71,0.12,1.43,0.26,2.17,0.4
	c0.94,0.18,1.88,0.35,2.82,0.51c0.42,0.07,1.1,0.18,1.9,0.18c1.34,0,2.55-0.32,3.61-0.95c0.27,0.03,0.65,0.1,0.97,0.15
	c0.53,0.09,1.14,0.2,1.8,0.27c0.59,0.06,1.19,0.1,1.77,0.1c4.12,0,7.92-1.57,11.05-4.56c2.09-0.13,3.88-0.72,5.35-1.75
	c3.84-0.13,6.51-2.4,7.97-3.63c0.54-0.46,0.91-0.52,1.23-0.52c0.23,0,0.5,0.04,0.8,0.12c0.9,0.25,1.81,0.37,2.71,0.37
	c2.64,0,4.61-1.06,6.06-1.83l0.18-0.09c4.36-2.33,6.04-5.63,6.79-8.37c0.1-0.05,0.2-0.09,0.3-0.13c4.33-1.65,8.16-4.15,11.68-7.6
	c0.2,0.01,0.4,0.02,0.6,0.02c1.23,0,2.26-0.27,3.01-0.47c0.14-0.04,0.28-0.08,0.41-0.11c0.11-0.01,0.23-0.02,0.35-0.03
	c0.64,0.47,1.25,1.04,1.71,1.49c3.09,2.99,7.08,4.63,11.21,4.63c2.65,0,5.2-0.66,7.48-1.92c-1.17,3.1-2.33,6.18-3.47,9.21
	l-0.21,0.56c-0.04,0.11-0.09,0.22-0.14,0.33c-0.45,1.06-1.28,2.99-0.82,5.33c-0.15,0.19-0.43,0.51-0.99,1.06
	c-1.82,1.77-3.81,4.89-3,9.63c0.03,0.17,0.06,0.49,0.08,0.79c0.02,0.29,0.05,0.63,0.09,0.99c-2.26,2.36-3.06,5.58-2.2,9.13
	c0.05,0.22,0.1,0.66,0.14,1.08c0.07,0.62,0.14,1.32,0.3,2.1c0.25,1.26,1,3.59,3.18,5.08c2.07,1.41,4.11,2.74,6.28,4.15
	c0.68,0.44,1.36,0.89,2.06,1.34l7.92-1.37c0.37-0.49,0.73-0.96,1.09-1.43c0.42-0.54,0.84-1.09,1.26-1.65
	c0.29,0.02,0.57,0.03,0.86,0.03c1.61,0,3.22-0.33,4.76-0.96c1.08,0.78,2.16,1.52,3.28,2.29c0.65,0.44,1.3,0.9,1.97,1.37l8.38-1.7
	c0.57-0.91,1.14-1.81,1.7-2.7c1.22-1.93,2.48-3.92,3.69-5.93c0.09-0.02,0.17-0.04,0.26-0.06c0.64-0.15,1.2-0.23,1.68-0.23
	c0.82,0,1.34,0.17,2.08,1.15c1.84,2.47,4.06,3.86,6.61,4.13c1.06,1.17,2.71,2.68,5.06,3.56c0.13,0.3,0.27,0.62,0.46,0.96
	c-2.06,0.01-3.7,0.83-4.91,1.76l-0.1-0.04l-0.91,0.35c-0.82,0.32-1.67,0.65-2.53,1.01c-0.11,0.05-0.22,0.1-0.32,0.15
	c-3.97,0.35-6.71,2.58-8.58,4.09c-0.54,0.44-1.06,0.86-1.49,1.15c-0.08,0.05-0.15,0.1-0.23,0.16c-0.56-0.12-1.16-0.19-1.8-0.19
	c-0.2,0-0.4,0.01-0.6,0.02c-3.46,0.25-6.31,2.27-7.83,5.32c-1,0.06-1.91,0.28-2.75,0.51c-0.16,0.04-0.32,0.09-0.48,0.13
	c-1.86,0.5-5.49,1.47-7.57,5.08c-3.3,1.84-5,4.75-6.28,6.96l-0.21,0.36c-1.36,2.33-1.88,4.37-1.89,6.13
	c-1.75,1.27-3.28,2.85-4.15,4.52c-0.61,0.02-1.21,0.13-1.78,0.32c-0.72,0.24-1.4,0.52-1.99,0.76c-0.58,0.23-1.43,0.58-1.8,0.64
	c-0.18-0.03-0.66-0.15-1.01-0.23c-1.05-0.26-2.37-0.59-3.92-0.59c-2.25,0-6.4,0.8-9.11,6.12
	C415.83,281.1,414.55,283.6,413.17,286.03z"/>
</svg>
