<?xml version="1.0" encoding="utf-8"?>
<!-- Generator: Adobe Illustrator 23.0.5, SVG Export Plug-In . SVG Version: 6.00 Build 0)  -->
<svg version="1.1" id="Layer_1" fill="#fff" xmlns="http://www.w3.org/2000/svg" xmlns:xlink="http://www.w3.org/1999/xlink" x="0px" y="0px"
	 viewBox="0 0 512 512" style="enable-background:new 0 0 512 512;" xml:space="preserve">
<style type="text/css">
	.st0{fill:#fff;}
</style>
<g>
	<path class="st0" d="M426.55,283.93L426.55,283.93L350.1,164.09c10.83-5.69,18.24-17.05,18.24-30.11c0-14.3-8.88-26.55-21.4-31.57
		l23.16-80.97c1-3.49,0.03-7.25-2.54-9.82c-15.41-15.4-40.47-15.4-55.88,0c-3.69,3.69-8.58,5.71-13.8,5.71s-10.11-2.03-13.82-5.74
		l-0.05-0.05c-15.35-15.35-40.37-15.4-55.79-0.09l-0.29,0.29c-7.61,7.55-19.96,7.53-27.54-0.05l-0.07-0.07
		c-15.41-15.4-40.47-15.4-55.88,0c-2.57,2.57-3.54,6.33-2.54,9.83l23.21,80.94c-12.55,5-21.45,17.27-21.45,31.59
		c0,13.06,7.41,24.42,18.24,30.11L85.45,283.93C55.88,330.3,54,386.77,80.44,434.99C106.87,483.21,155.49,512,210.48,512h91.03
		c54.99,0,103.61-28.79,130.05-77.01C458,386.77,456.12,330.3,426.55,283.93z M163,22.45c7.41-4.06,16.91-2.96,23.18,3.31h0
		l0.07,0.07c15.35,15.35,40.37,15.39,55.79,0.09l0.29-0.29c7.61-7.55,19.96-7.53,27.57,0.07l0.05,0.05
		c15.41,15.4,40.47,15.4,55.88,0c6.27-6.27,15.78-7.37,23.18-3.31l-22.17,77.53h-141.6L163,22.45z M414.02,425.37L414.02,425.37
		C391.15,467.09,349.09,492,301.52,492h-91.03c-47.58,0-89.64-24.91-112.51-66.63c-22.87-41.72-21.25-90.57,4.34-130.68
		l80.83-126.71H211c5.52,0,10-4.48,10-10c0-5.52-4.48-10-10-10h-33.34c-7.72,0-14-6.28-14-14s6.28-14,14-14h0.03h156.64
		c7.72,0,14,6.28,14,14s-6.28,14-14,14H301c-5.52,0-10,4.48-10,10c0,5.52,4.48,10,10,10h27.85l80.83,126.71
		C435.27,334.8,436.89,383.65,414.02,425.37z"/>
	<path class="st0" d="M256,167.98c2.63,0,5.21-1.07,7.07-2.93s2.93-4.44,2.93-7.07s-1.07-5.21-2.93-7.07s-4.44-2.93-7.07-2.93
		s-5.21,1.07-7.07,2.93s-2.93,4.44-2.93,7.07s1.07,5.21,2.93,7.07S253.37,167.98,256,167.98z"/>
	<path class="st0" d="M314.65,252.85h-117.3c-1.4,0-2.54,1.2-2.54,2.68v13.95c0,1.48,1.14,2.68,2.54,2.68h48.35v47.98l-35.02,18.65
		c-0.86,0.46-1.39,1.38-1.39,2.39v10.02c0,0.93,0.46,1.79,1.21,2.28c0.41,0.26,0.87,0.4,1.33,0.4c0.39,0,0.79-0.1,1.15-0.29
		l32.72-17.43v14.7l-35.02,18.65c-0.86,0.46-1.39,1.38-1.39,2.39v10.24c0,0.93,0.46,1.79,1.21,2.28c0.41,0.26,0.87,0.4,1.33,0.4
		c0.39,0,0.79-0.1,1.15-0.29l32.72-17.43v40.97c0,1.48,1.14,2.68,2.54,2.68h15.31c1.4,0,2.54-1.2,2.54-2.68v-51.96l35.02-18.65
		c0.86-0.46,1.39-1.38,1.39-2.39v-10.02c0-0.93-0.46-1.79-1.21-2.28c-0.41-0.26-0.87-0.4-1.33-0.4c-0.39,0-0.79,0.1-1.15,0.29
		l-32.72,17.43v-14.7l35.02-18.65c0.86-0.46,1.39-1.38,1.39-2.39v-10.02c0-0.93-0.46-1.79-1.21-2.28c-0.41-0.26-0.87-0.4-1.33-0.4
		c-0.39,0-0.79,0.1-1.15,0.29l-32.72,17.43v-37.21h48.56c1.4,0,2.54-1.2,2.54-2.68v-13.95
		C317.19,254.05,316.05,252.85,314.65,252.85z"/>
</g>
</svg>
