<?xml version="1.0" encoding="utf-8"?>
<!-- Generator: Adobe Illustrator 24.2.3, SVG Export Plug-In . SVG Version: 6.00 Build 0)  -->
<svg version="1.1" id="Layer_1" xmlns="http://www.w3.org/2000/svg" xmlns:xlink="http://www.w3.org/1999/xlink" x="0px" y="0px"
	 viewBox="0 0 283.5 283.5" style="enable-background:new 0 0 283.5 283.5;" xml:space="preserve">
<style type="text/css">
	.st0{fill:#DD2910;}
	.st1{fill:#FEDC00;}
</style>
<g>
	<circle class="st0" cx="141.8" cy="141.8" r="141.7"/>
	<g>
		<path class="st1" d="M80.4,168.1c2.1-6.4,4.2-12.8,6.2-19.2c0.8-2.5,1.5-5,2.4-7.3c0.6-1.6,0.2-2.4-1.1-3.3c-7-5-13.9-10-20.8-15
			c-0.6-0.4-1.4-0.7-1.7-1.6c0.9-0.6,1.9-0.3,2.9-0.3c8.2,0,16.4-0.1,24.6,0c2.1,0,3-0.7,3.6-2.6c2.5-7.9,5.1-15.8,7.6-23.6
			c0.3-0.8,0.3-1.8,1.3-2.6c0.9,2.8,1.9,5.6,2.8,8.3c1.9,5.9,4,11.8,5.7,17.8c0.7,2.3,1.8,2.8,4,2.8c8.1-0.1,16.2-0.1,24.3,0
			c0.9,0,1.9-0.3,3,0.5c-5.4,3.9-10.7,7.8-16,11.6c-2.2,1.6-4.4,3.3-6.7,4.8c-1.4,0.9-1.6,1.8-1.1,3.3c2.7,8,5.3,16.1,7.8,24.1
			c0.3,0.8,0.7,1.6,0.6,2.6c-1.1-0.1-1.7-0.9-2.5-1.4c-6.8-4.9-13.6-9.8-20.3-14.8c-1.4-1-2.3-1-3.7,0c-7.4,5.5-14.9,10.9-22.4,16.3
			C80.7,168.3,80.6,168.2,80.4,168.1z"/>
		<path class="st1" d="M191.7,121.8c2.2-1.1,4.4-2.2,6.6-3.2c1.3-0.6,1.9-1.3,1.6-2.9c-0.5-2.4-0.7-4.9-1.1-8.1
			c2.2,2.2,4,3.8,5.6,5.7c1.2,1.3,2.2,1.4,3.7,0.6c2.1-1.2,4.2-2.1,6.8-2.8c-0.9,1.8-1.6,3.7-2.8,5.2c-1.8,2.4-1.2,4.1,0.9,5.8
			c1.5,1.2,3,2.5,4.4,3.7c-0.2,0.3-0.5,0.6-0.7,0.9c-2.5-0.4-5-0.8-7.5-1.3c-1.4-0.3-2.1,0.1-2.7,1.3c-1.1,2.3-2.4,4.5-4.1,6.6
			c-0.4-2.4-0.9-4.8-1.1-7.2c-0.1-1.7-0.9-2.3-2.5-2.5c-2.4-0.3-4.7-0.8-7.1-1.2C191.8,122.2,191.7,122,191.7,121.8z"/>
		<path class="st1" d="M166.5,82.7c2.3,0.9,4.6,1.8,6.7,2.9c1.5,0.7,2.4,0.4,3.4-0.8c1.5-1.9,3.1-3.6,5-5.8c0.5,3-0.2,5.4-0.3,7.8
			c-0.1,1.6,0.4,2.4,1.9,3c2.3,0.9,4.5,1.9,7.5,3.2c-3.1,0.7-5.4,1.4-7.7,1.8c-1.8,0.3-2.6,1.1-2.6,3c0,2.4-0.4,4.7-0.7,7.8
			c-1.6-2.6-2.9-4.5-3.9-6.5c-0.9-1.8-1.9-2.4-4-1.8c-2.2,0.7-4.5,1-7.5,1.7c2-2.4,3.5-4.3,5.1-5.9c1.4-1.4,1.4-2.6,0.3-4.1
			c-1.3-1.9-2.4-3.9-3.5-5.8C166.3,83,166.4,82.9,166.5,82.7z"/>
		<path class="st1" d="M181.5,179.2c-0.1,2.3-0.1,4.5-0.4,6.8c-0.2,1.8,0.3,2.8,2.1,3.3c2.3,0.7,4.4,1.6,6.7,3
			c-2.3,0.6-4.7,1.3-7,1.9c-1.5,0.4-2.3,1.1-2.3,2.7c0,2.4-0.2,4.8-0.8,7.5c-1.3-1.9-2.6-3.8-3.8-5.8c-0.9-1.7-2-2.2-3.9-1.5
			c-2.2,0.8-4.4,1.2-7,1.9c1.1-2.4,2.6-4,4-5.5c1.7-1.8,1.7-3.2,0.2-5c-1.3-1.6-2.4-3.5-3.8-5.7c3,0.5,5.2,1.7,7.6,2.6
			c1.4,0.6,2.3,0.4,3.1-0.9c1.4-2,3.1-3.8,4.6-5.7C181.1,179,181.3,179.1,181.5,179.2z"/>
		<path class="st1" d="M192.3,158.8c2,0,4.1-0.1,6.1,0c2.3,0.1,3.6-0.6,4-3.1c0.3-2.1,1.1-4,2.3-6.1c0.8,2.3,1.8,4.5,2.5,6.8
			c0.5,1.5,1.3,2,2.9,1.9c2.4-0.1,4.7,0,7.8,0c-1.8,1.4-3.1,2.5-4.4,3.5c-4,3.2-3.5,1.8-1.8,6.6c0.5,1.6,1.1,3.2,1.9,5.2
			c-2.7-1.1-4.5-2.6-6.4-4c-1.5-1.1-2.6-1-3.9,0.2c-1.7,1.5-3.6,2.9-5.8,4.6c0.2-2.9,1.1-5.2,1.8-7.4c0.5-1.7,0.2-2.6-1.3-3.5
			c-2-1.2-3.9-2.6-5.9-4C192.2,159.3,192.2,159,192.3,158.8z"/>
	</g>
</g>
</svg>
