<svg id="Layer_1" data-name="Layer 1" xmlns="http://www.w3.org/2000/svg" viewBox="0 0 512 361.17"><title>STSE_1</title><path d="M547.63,456.37H397.25c-5.31,0-9.62-4.71-9.62-10.52s4.31-10.52,9.62-10.52H538V169H191.3V435.32H337.19c5.31,0,9.62,4.71,9.62,10.52s-4.31,10.52-9.62,10.52H181.67c-5.32,0-9.62-4.71-9.62-10.52V158.52c0-5.81,4.31-10.52,9.62-10.52h366c5.31,0,9.62,4.71,9.62,10.52V445.84C557.25,451.65,552.94,456.37,547.63,456.37Z" transform="translate(-45.25 -148)"/><path d="M395.15,509a9.17,9.17,0,0,1-6.45-2.71l-22.45-22.13-22.45,22.13a9,9,0,0,1-10.36,1.8,10.61,10.61,0,0,1-5.71-9.61V159.14c0-5.81,4.31-10.52,9.62-10.52h57.78c5.31,0,9.62,4.71,9.62,10.52V498.48a10.61,10.61,0,0,1-5.71,9.61A8.92,8.92,0,0,1,395.15,509Zm-28.89-49.53a9.15,9.15,0,0,1,6.44,2.71l12.82,12.64V169.67H347V474.82l12.82-12.64A9.15,9.15,0,0,1,366.25,459.47Z" transform="translate(-45.25 -148)"/><path d="M302.19,245H215.51c-5.32,0-9.62-4.71-9.62-10.52S210.2,224,215.51,224h86.67c5.31,0,9.62,4.71,9.62,10.52S307.5,245,302.19,245Z" transform="translate(-45.25 -148)"/><path d="M76.27,498.52c-17.11,0-31-14.46-31-32.24V182.41c0-17.78,13.92-32.24,31-32.24s31,14.46,31,32.24V466.28C107.3,484.06,93.38,498.52,76.27,498.52Zm0-328.34A12,12,0,0,0,64.5,182.41V466.28a11.79,11.79,0,1,0,23.55,0V182.41A12,12,0,0,0,76.27,170.18Z" transform="translate(-45.25 -148)"/><path d="M77.14,509.17h-2.8c-9,0-16.25-7.57-16.25-16.88a10.66,10.66,0,0,1,10.44-10.84H83a10.66,10.66,0,0,1,10.44,10.84C93.39,501.6,86.1,509.17,77.14,509.17ZM83,501.44h0Zm-7.21-11.91a3.14,3.14,0,0,0-1.6,2.76,9.35,9.35,0,0,0,1.6,5.25,9.35,9.35,0,0,0,1.6-5.25A3.14,3.14,0,0,0,75.74,489.53Z" transform="translate(-45.25 -148)"/><path d="M76.81,292.57c-17.4,0-31.56-14.71-31.56-32.79v-78c0-18.08,14.16-32.79,31.56-32.79s31.56,14.71,31.56,32.79v78C108.37,277.86,94.21,292.57,76.81,292.57Zm0-123.57A12.57,12.57,0,0,0,64.5,181.79v78a12.32,12.32,0,1,0,24.62,0v-78A12.57,12.57,0,0,0,76.81,169Z" transform="translate(-45.25 -148)"/><path d="M106.67,265.5h-1a9.82,9.82,0,0,1-9.62-10V179a9.82,9.82,0,0,1,9.62-10h1a9.82,9.82,0,0,1,9.62,10v76.5A9.82,9.82,0,0,1,106.67,265.5Z" transform="translate(-45.25 -148)"/><path d="M302.19,285H215.51c-5.32,0-9.62-4.71-9.62-10.52S210.2,264,215.51,264h86.67c5.31,0,9.62,4.71,9.62,10.52S307.5,285,302.19,285Z" transform="translate(-45.25 -148)"/><path d="M302.19,325H215.51c-5.32,0-9.62-4.71-9.62-10.52S210.2,304,215.51,304h86.67c5.31,0,9.62,4.71,9.62,10.52S307.5,325,302.19,325Z" transform="translate(-45.25 -148)"/><path d="M302.19,365H215.51c-5.32,0-9.62-4.71-9.62-10.52s4.31-10.52,9.62-10.52h86.67c5.31,0,9.62,4.71,9.62,10.52S307.5,365,302.19,365Z" transform="translate(-45.25 -148)"/><path d="M513.91,245H427.24c-5.31,0-9.62-4.71-9.62-10.52S421.93,224,427.24,224h86.67c5.31,0,9.62,4.71,9.62,10.52S519.23,245,513.91,245Z" transform="translate(-45.25 -148)"/><path d="M513.91,285H427.24c-5.31,0-9.62-4.71-9.62-10.52S421.93,264,427.24,264h86.67c5.31,0,9.62,4.71,9.62,10.52S519.23,285,513.91,285Z" transform="translate(-45.25 -148)"/><path d="M513.91,325H427.24c-5.31,0-9.62-4.71-9.62-10.52S421.93,304,427.24,304h86.67c5.31,0,9.62,4.71,9.62,10.52S519.23,325,513.91,325Z" transform="translate(-45.25 -148)"/><path d="M513.91,365H427.24c-5.31,0-9.62-4.71-9.62-10.52s4.31-10.52,9.62-10.52h86.67c5.31,0,9.62,4.71,9.62,10.52S519.23,365,513.91,365Z" transform="translate(-45.25 -148)"/></svg>