<svg fill="#fff" id="Layer_1" data-name="Layer 1" xmlns="http://www.w3.org/2000/svg" viewBox="0 0 512 314.5"><title>B_1</title><path d="M300.51,355.5a9.32,9.32,0,0,1-3.8-.81l-244.39-109a10.15,10.15,0,0,1,.58-18.61l241.41-89a9.28,9.28,0,0,1,6.26-.06l251.34,87a10.14,10.14,0,0,1,.76,18.67l-248.36,111A9.32,9.32,0,0,1,300.51,355.5Zm-218-118.12,218,97.23,221.35-98.93L297.63,158.07Z" transform="translate(-46.5 -137.5)"/><path d="M298.53,263c-21.75,0-36.94-9-36.94-22s15.19-22,36.94-22,36.94,9,36.94,22S320.28,263,298.53,263Zm18.39-19.58h0ZM284.84,241a47.85,47.85,0,0,0,27.38,0,47.85,47.85,0,0,0-27.38,0Z" transform="translate(-46.5 -137.5)"/><path d="M117.22,318a9.81,9.81,0,0,1-9.62-9.88l-.5-44a9.88,9.88,0,0,1,8.4-10l150.51-20a9.71,9.71,0,0,1,10.77,8.65,9.93,9.93,0,0,1-8.33,11.19l-142,18.87.4,35.09A9.83,9.83,0,0,1,117.33,318Z" transform="translate(-46.5 -137.5)"/><path d="M116.72,355c-14.35,0-26-11.89-26-26.5s11.67-26.5,26-26.5,26,11.89,26,26.5S131.07,355,116.72,355Zm0-33a6.51,6.51,0,1,0,6.77,6.5A6.65,6.65,0,0,0,116.72,322Z" transform="translate(-46.5 -137.5)"/><path d="M142.06,403H93.38a9.5,9.5,0,0,1-7.55-3.8A10.3,10.3,0,0,1,84,390.7l10.93-48a9.71,9.71,0,0,1,9.37-7.7h24.84a9.69,9.69,0,0,1,9.27,7.31l12.91,48a10.32,10.32,0,0,1-1.6,8.74A9.51,9.51,0,0,1,142.06,403Zm-36.51-20h23.83l-7.53-28h-9.92Z" transform="translate(-46.5 -137.5)"/><path d="M407.81,452H193.88a23.3,23.3,0,0,1-23-23.5V293a9.63,9.63,0,1,1,19.25,0V428.5a3.66,3.66,0,0,0,3.79,3.5H407.81a3.66,3.66,0,0,0,3.79-3.5V294a9.63,9.63,0,1,1,19.25,0V428.5A23.3,23.3,0,0,1,407.81,452Z" transform="translate(-46.5 -137.5)"/></svg>