<svg fill="#fff" id="Layer_1" data-name="Layer 1" xmlns="http://www.w3.org/2000/svg" viewBox="0 0 512 512"><title>DB_4</title><path d="M227.53,343.66a9.63,9.63,0,0,1-9.44-11.54l56-275.91a9.62,9.62,0,0,1,9.43-7.71h42A9.62,9.62,0,0,1,335,56.33l52.49,275.91a9.62,9.62,0,0,1-18.91,3.6l-51-268.08H291.38L237,335.95A9.63,9.63,0,0,1,227.53,343.66Z" transform="translate(-46 -48.5)"/><path d="M434,169a9.62,9.62,0,0,1-9.62-9.62V127.12H167.16v32.29a9.62,9.62,0,0,1-19.25,0V117.5a9.62,9.62,0,0,1,9.62-9.62H434a9.62,9.62,0,0,1,9.62,9.62v41.91A9.62,9.62,0,0,1,434,169Z" transform="translate(-46 -48.5)"/><path d="M180.34,169H134.85a9.62,9.62,0,1,1,0-19.25h45.49a9.62,9.62,0,1,1,0,19.25Z" transform="translate(-46 -48.5)"/><path d="M456.79,169H411.3a9.62,9.62,0,1,1,0-19.25h45.49a9.62,9.62,0,1,1,0,19.25Z" transform="translate(-46 -48.5)"/><path d="M259,165.54c-69.94,0-107.05-39.86-108.6-41.56a9.62,9.62,0,0,1,14.21-13h0c.33.35,33.32,35.3,94.39,35.3a9.62,9.62,0,1,1,0,19.25Z" transform="translate(-46 -48.5)"/><path d="M323.76,167.28a9.62,9.62,0,1,1,0-19.25c74.62,0,100-34.94,100.29-35.3a9.62,9.62,0,0,1,15.75,11.07C438.55,125.58,408.27,167.28,323.76,167.28Z" transform="translate(-46 -48.5)"/><path d="M353.8,344.5a9.63,9.63,0,0,1-9.46-7.94L295,59.81A9.62,9.62,0,1,1,314,56.44l49.3,276.75a9.63,9.63,0,0,1-9.49,11.31Z" transform="translate(-46 -48.5)"/><path d="M322.12,187.1a9.59,9.59,0,0,1-6.8-2.81L262.84,131.9a9.62,9.62,0,1,1,13.6-13.62l52.49,52.39a9.62,9.62,0,0,1-6.8,16.44Z" transform="translate(-46 -48.5)"/><path d="M264.21,187.83a9.62,9.62,0,0,1-7-16.2l49-52.39a9.62,9.62,0,0,1,14.06,13.15l-49,52.39A9.6,9.6,0,0,1,264.21,187.83Z" transform="translate(-46 -48.5)"/><path d="M336,252.85a9.58,9.58,0,0,1-6.24-2.3l-75.39-64.32a9.62,9.62,0,1,1,12.49-14.64l75.39,64.32A9.62,9.62,0,0,1,336,252.85Z" transform="translate(-46 -48.5)"/><path d="M251.91,249.36a9.62,9.62,0,0,1-6.26-16.94l73.49-62.86a9.62,9.62,0,0,1,12.51,14.63L258.16,247A9.59,9.59,0,0,1,251.91,249.36Z" transform="translate(-46 -48.5)"/><path d="M349.58,326.78a9.58,9.58,0,0,1-5.49-1.73L243,254.61a9.62,9.62,0,1,1,11-15.79l101.06,70.44a9.62,9.62,0,0,1-5.51,17.52Z" transform="translate(-46 -48.5)"/><path d="M234.64,324.23a9.62,9.62,0,0,1-5.39-17.6L332.37,237a9.62,9.62,0,0,1,10.77,16L240,322.58A9.58,9.58,0,0,1,234.64,324.23Z" transform="translate(-46 -48.5)"/><path d="M55.62,560.5a9.62,9.62,0,0,1-7.53-15.61l148.5-187.07a9.62,9.62,0,0,1,15.08,12L63.16,556.86A9.61,9.61,0,0,1,55.62,560.5Z" transform="translate(-46 -48.5)"/><path d="M548.38,560.5a9.61,9.61,0,0,1-7.54-3.64L392.34,369.79a9.62,9.62,0,0,1,15.08-12l148.5,187.07a9.62,9.62,0,0,1-7.53,15.61Z" transform="translate(-46 -48.5)"/><path d="M305.37,425.19a9.62,9.62,0,0,1-9.62-9.62V386.79a9.62,9.62,0,0,1,19.25,0v28.78A9.62,9.62,0,0,1,305.37,425.19Z" transform="translate(-46 -48.5)"/><path d="M305.37,492.15a9.62,9.62,0,0,1-9.62-9.62v-36a9.62,9.62,0,0,1,19.25,0v36A9.62,9.62,0,0,1,305.37,492.15Z" transform="translate(-46 -48.5)"/><path d="M305.37,560.5a9.62,9.62,0,0,1-9.62-9.62V511.3a9.62,9.62,0,0,1,19.25,0v39.57A9.62,9.62,0,0,1,305.37,560.5Z" transform="translate(-46 -48.5)"/></svg>