<svg fill="#fff" id="Layer_1" data-name="Layer 1" xmlns="http://www.w3.org/2000/svg" viewBox="0 0 262.75 512"><title>4_2</title><path d="M201.57,346.7l-13.08-14.55,21.24-17.68a1.18,1.18,0,0,0,0-1.88l-11.29-8.51a19.46,19.46,0,0,1-1.87-29.8l.68-.59,31-24.76c3.55-2.83,7.08-5.6,10.5-8.28,6.36-5,12.37-9.68,18.61-14.9a100.73,100.73,0,0,0,33-51.3l19.36,4.81a119.72,119.72,0,0,1-39.27,61c-6.49,5.42-12.9,10.44-19.1,15.29-3.43,2.69-6.87,5.38-10.35,8.16L210.54,288a.68.68,0,0,0,.19.89L222,297.45a20,20,0,0,1,.79,31.58Z" transform="translate(-149.18 -44.03)"/><path d="M213.82,556a10.27,10.27,0,0,1-1.9-.18A9.64,9.64,0,0,1,204,544.58l10.09-50.24A95.61,95.61,0,0,1,168.18,462a89.53,89.53,0,0,1-19-55.24c0-33,22.13-58.14,38.78-74.15a10.28,10.28,0,0,1,14.14,0,9.36,9.36,0,0,1,0,13.6c-14.14,13.59-32.92,34.65-32.92,60.54,0,32.16,21.4,60.27,53.25,70a16.58,16.58,0,0,1,11.74,19.06l-10.54,52.44A9.91,9.91,0,0,1,213.82,556Z" transform="translate(-149.18 -44.03)"/><path d="M239.54,435.44a23.22,23.22,0,0,1-10.08-2.31,24.19,24.19,0,0,1-12.56-14.66,24.61,24.61,0,0,1,11.49-29c7.67-4.17,22.36-12.47,48.75-28.35,34.8-20.93,35.47-69.11,21.36-105-3-7.53-6.64-16.91-2.13-26.48,3.32-7.07,10.45-12.5,21.77-16.58A10.11,10.11,0,0,1,331,218.69a9.52,9.52,0,0,1-5.85,12.39C317,234,315,236.62,314.58,237.59c-1.08,2.29.89,7.31,2.63,11.74,16.9,43,14.88,101.46-29.46,128.14-21.45,12.9-38.11,22.58-49.53,28.78-2,1.09-3,4.1-2.16,6.7a4.72,4.72,0,0,0,2.32,3,2.58,2.58,0,0,0,2.07.12c47.88-17.08,82.44-36.46,92.44-51.83,1.28-2,2.6-3.81,3.88-5.59,9.31-13,19.86-27.73,5.42-97.13A9.64,9.64,0,0,1,350,250.16a10,10,0,0,1,11.77,7.55c7,33.86,9.07,59.25,6.21,77.61-2.69,17.33-9.4,26.69-14.78,34.21-1.21,1.69-2.35,3.28-3.4,4.88-17,26.19-71.49,48.62-102.44,59.66A23.23,23.23,0,0,1,239.54,435.44Z" transform="translate(-149.18 -44.03)"/><path d="M372.08,549.29a10.22,10.22,0,0,1-4.51-1,9.44,9.44,0,0,1-4.4-12.93L385,494a59.86,59.86,0,0,0,5.09-12.88c5.46-21.28-2.6-39.82-10.23-53.58l-33.66-60.71a9.45,9.45,0,0,1,4.12-13,10.2,10.2,0,0,1,13.53,4l33.66,60.71c9.31,16.8,19.09,39.63,12,67.25a78.43,78.43,0,0,1-6.68,17L381,544A10,10,0,0,1,372.08,549.29Z" transform="translate(-149.18 -44.03)"/><path d="M353.75,269c-17,0-26.41-6.87-31.41-13-14.17-17.44-7.92-46.3-4.23-58.85C300.9,178.31,301,159,304.4,145.67a66.41,66.41,0,0,1,4.67-12.62c-19.77-5.17-35.25-17.61-45.25-36.55a95.71,95.71,0,0,1-10.38-34.43,9.65,9.65,0,0,1,7.25-9.9c51.1-14,88.13-10,110.06,11.92,34.18,34.08,18,99.31,13.05,116.16,6.14,11.82,22.05,46.67,9.48,69.55-4.17,7.59-13.3,17-33.11,18.85Q356.8,269,353.75,269ZM274.62,68.5c3.17,14.7,14.2,45.2,51.27,47.84a10,10,0,0,1,8.47,5.83,9.37,9.37,0,0,1-1.5,9.91,50.6,50.6,0,0,0-9.18,18.76c-3.24,13.54,1,25.92,12.7,36.81a9.36,9.36,0,0,1,2.46,10.1c-3.08,8.47-9.84,35.17-.73,46.35,1.36,1.67,5.51,6.74,20.15,5.39,13.23-1.22,16.32-6.84,17.33-8.68,8-14.62-5.81-45.33-11.3-54.94a9.27,9.27,0,0,1-.75-7.59c.23-.69,23.13-70.65-7.21-100.85C341,62.17,313.54,59.18,274.62,68.5Zm-11.2-7.08h0Z" transform="translate(-149.18 -44.03)"/><path d="M279.88,182.13c-5.63,0-10.11-.35-12.1-.53l-5.23-.49L260,176.69c-29.2-50.56.16-95.09,1.42-97l16.79,10.46c-.95,1.43-22.24,34.29-3.18,72.6,12.72.49,27-1.16,30.44-4.85l14.85,12.89C311.39,180.34,292.67,182.13,279.88,182.13Z" transform="translate(-149.18 -44.03)"/><path d="M274.57,493.63a10,10,0,0,1-9.63-7.06,9.59,9.59,0,0,1,7-11.84l3.94-1.05A57.83,57.83,0,0,0,314.17,441a10.14,10.14,0,0,1,13-5.26,9.5,9.5,0,0,1,5.47,12.55c-9.11,21.38-28.36,37.82-51.49,44l-3.95,1A10.26,10.26,0,0,1,274.57,493.63Z" transform="translate(-149.18 -44.03)"/></svg>