<?xml version="1.0" encoding="utf-8"?>
<!-- Generator: Adobe Illustrator 24.2.3, SVG Export Plug-In . SVG Version: 6.00 Build 0)  -->
<svg version="1.1" id="Layer_1" xmlns="http://www.w3.org/2000/svg" xmlns:xlink="http://www.w3.org/1999/xlink" x="0px" y="0px"
	 viewBox="0 0 450 450" style="enable-background:new 0 0 450 450;" xml:space="preserve">
<g>
	<path d="M360.5,449c-56.5-0.8-94.9-25.6-132.5-52.1C136.1,331.9,62.1,251.3,15.1,148C-1.5,111.5-9.2,72.9,18.8,38.7
		C30.8,24,49.1,12.2,67,4.9c18.2-7.4,39.1-4.6,53,12.9C136.7,39,154.2,60,167.8,83.2c14.7,25,14.7,52-4.9,75.6
		c-12.4,15-13.2,27.2,1.5,41.6c28.2,27.6,55.4,56.3,82.7,84.9c11.6,12.2,24.1,14.9,37.3,4c28.3-23.5,57.5-19.7,85.8-2.2
		c22.3,13.8,44.2,28.9,63.8,46.2c19.3,17.1,20.9,39.1,7.4,61.3C421.2,427.7,395.5,452.6,360.5,449z M354.6,430.9
		c6.9-1,14.9-1.1,22.2-3.4c26.5-8.4,44.6-27.4,52.3-52.8c7.3-24.1-14.3-36-29.9-47.3c-35.8-26-72.3-51.8-117.3-14.8
		c-11,9.1-25.6,6.5-36.7-4.6c-31.1-31.2-63-61.5-93.1-93.6c-25-26.7-25.1-37.9-3.3-67.7c12.6-17.3,13.8-34.4,3.7-52
		c-8.9-15.7-18.7-31-29.8-45.1c-27.1-34.7-47.6-37.6-80.3-8.2c-10.8,9.7-20,27.3-20.1,41.3c-0.1,21.7,4.5,45.2,13.8,64.8
		C86.2,253.1,165,333.6,262.5,396.7C290.3,414.7,319.7,429.1,354.6,430.9z"/>
</g>
</svg>
