<?xml version="1.0" encoding="utf-8"?>
<!-- Generator: Adobe Illustrator 24.2.3, SVG Export Plug-In . SVG Version: 6.00 Build 0)  -->
<svg version="1.1" id="Layer_1" xmlns="http://www.w3.org/2000/svg" xmlns:xlink="http://www.w3.org/1999/xlink" x="0px" y="0px"
	 viewBox="0 0 450 450" style="enable-background:new 0 0 450 450;" xml:space="preserve">
<g>
	<path d="M414.5,232.4c-26.8,0-52.9,0-79.3,0c-0.3,5.3-0.7,10.6-1,15.9c-0.2,3.6-1.9,6.2-5.5,7c-3.2,0.8-6.1-0.1-7.7-3.1
		c-0.8-1.5-1-3.6-1-5.4c-0.1-4.7,0-9.4,0-14.4c-32.5,0-64.9,0-97.6,0c0,33,0,65.9,0,99.2c1.8,0.2,3.6,0.5,5.4,0.6
		c17.2,0.5,34.1,2.9,50.8,6.7c5.1,1.2,7.3,4.3,6.5,8.7c-0.7,4.1-4.5,6.3-9.5,5.5c-9.2-1.6-18.3-3.5-27.5-4.7
		c-8.4-1.1-16.9-1.5-25.7-2.3c0,26.3,0,51.9,0,77.8c8.5-0.9,16.2-3.9,23.3-8.2c16.2-9.6,27.8-23.8,37.7-39.4c0.9-1.5,1.8-3,3.1-4.1
		c2.4-2,6.5-1.7,9,0.5c2.5,2.2,3.4,6.2,1.3,9.2c-5.7,8.1-11.5,16.1-17.5,24c-2.7,3.6-6,6.8-9,10.1c0.2,0.3,0.4,0.7,0.6,1
		c5.8-2,11.6-4,17.3-6.2c3.5-1.3,6.9-2.9,10.3-4.4c4.2-1.9,8.3-0.7,10.3,3c1.9,3.7,0.6,8-3.9,9.7c-12.7,4.9-25.4,10-38.5,13.7
		c-21.3,6-43.3,7.4-65.3,6c-25.1-1.5-49.2-7.6-72.3-17.7C100.1,409,75.5,391,54.7,367.8C29.5,339.7,13,307.1,4.8,270.2
		c-4.4-20.1-5.7-40.4-4.2-60.8c3-41.6,17-79.3,42.1-112.8c21.6-28.9,48.7-51.1,81.5-66.4c20.5-9.5,41.9-16.2,64.5-18.3
		c13.2-1.2,26.6-2,39.8-1.3c25.8,1.4,50.7,7.8,74.3,18.5c18.6,8.5,35.8,19.3,51.3,32.6c20.9,18,37.9,39.2,50.7,63.7
		c10.9,20.9,18.3,42.9,21.9,66.1c3.3,21,3.7,42,0.3,63.1c-1.5,9-3.5,18-5.4,26.9c-0.4,1.7-1,3.5-2,4.7c-2.2,2.6-5,3.6-8.4,2.1
		c-3.3-1.5-5-4.8-4.3-8.3c2-10.1,4.3-20.1,6-30.2C413.9,244.3,414,238.5,414.5,232.4z M108.9,217.1c33,0,65.6,0,98.2,0
		c0-33.2,0-66.1,0-99.5c-26.3-0.7-51.9-4.7-77.1-12.5C115.7,141.3,109.9,178.6,108.9,217.1z M108.9,232.4
		c1,38.7,6.9,76.1,21.2,112.2c25.4-8,51-11.7,77-12.6c0-33.6,0-66.5,0-99.6C174.3,232.4,141.9,232.4,108.9,232.4z M320.1,217.2
		c0-1.7,0.1-2.9,0-4.2c-1.2-13.8-2.1-27.7-3.8-41.5c-2.6-21.6-8.2-42.6-15.8-63c-0.9-2.5-1.8-3.5-4.8-2.6
		c-22.4,6.8-45.3,10.7-68.7,11.3c-1.6,0-3.1,0.4-4.8,0.6c0,33.2,0,66.2,0,99.3C254.9,217.2,287.3,217.2,320.1,217.2z M14.2,232.4
		c1.4,10.3,2.3,20.2,4.1,29.9c7.6,40.2,26.1,74.8,54.7,104.1c1.9,1.9,3.2,2.1,5.8,0.8c10.1-5.3,20.4-10.2,30.7-15.2
		c2.2-1.1,4.4-2,6.7-3c-14.6-37.7-21-76.6-21.9-116.6C67.6,232.4,41.4,232.4,14.2,232.4z M313,100.6c14.8,37.6,21,76.6,22.1,116.6
		c26.5,0,52.7,0,79.4,0c-0.3-4.1-0.6-7.9-1-11.7c-2-24-8.8-46.7-19.1-68.4c-9.6-20.1-22.8-37.8-38.1-53.9c-1.7-1.8-3.4-2.2-5.9-0.9
		c-8.7,4.7-17.6,9.2-26.5,13.6C320.5,97.7,316.9,98.9,313,100.6z M94.3,217.2c0.9-40.2,7.4-79.1,21.9-116.6
		c-0.9-0.5-1.5-0.8-2.2-1.1c-11.7-5.6-23.5-11.2-35.1-17c-2.5-1.3-4-1.3-5.8,0.7c-4.5,5.1-9.3,10-13.6,15.3
		c-9.7,11.7-17.8,24.4-24.4,38.1c-8.6,17.8-14.9,36.5-17.8,56.2c-1.2,8-1.9,16.1-2.8,24.5C41.3,217.2,67.5,217.2,94.3,217.2z
		 M207,424.3c0-26,0-51.7,0-77.7c-24.3,0.8-47.8,4.2-71,11.4c0.6,1.5,1,2.5,1.5,3.5c8.6,17.1,18.8,32.9,33.5,45.5
		C181.4,415.8,192.9,422.2,207,424.3z M207,103.1c0-26.2,0-51.9,0-78.1c-37.2,8.2-55.1,35.9-71.3,66.6
		C159.3,98.9,182.8,102.3,207,103.1z M222.3,103.3c7.1-0.6,13.8-1.2,20.4-1.7c16.1-1.4,31.9-4.4,47.4-8.9c2.6-0.8,2.9-1.8,1.8-3.9
		c-9.8-19.9-22.1-38-40.3-51.3c-8.7-6.3-18.3-10.7-29.3-12C222.3,51.4,222.3,77,222.3,103.3z M158.9,416.2c-0.4-0.7-0.8-1.5-1.4-2.1
		c-14.6-14.1-25.5-30.9-34.3-49.2c-1-2.2-2.3-2.3-4.1-1.4c-9.4,4.4-18.9,8.8-28.3,13.2c-1.1,0.5-2.1,1.4-3.6,2.4
		C108.8,396.9,132.3,409.2,158.9,416.2z M87.2,70.6c1.5,1,2.6,1.9,3.8,2.4c8.6,4.1,17.3,8.2,26,12.1c5.9,2.7,5,2.1,7.5-3
		c8.5-17,18.7-32.7,32.4-46c0.8-0.8,1.4-1.8,2.1-2.7C132.3,40.4,108.7,52.8,87.2,70.6z M342,70.6c-21.7-17.9-45.2-30.1-71.3-37.5
		c0.2,1,0.5,1.8,1,2.3c14.3,14.3,25.5,30.7,34,49c1.1,2.3,2.3,2.4,4.4,1.5c7.6-3.4,15.2-6.7,22.8-10.2
		C335.8,74.4,338.4,72.7,342,70.6z"/>
	<path d="M357.7,381.3c-4.9,6.6-9.6,12.9-14.2,19.1c-2.7,3.6-5.4,7.1-8,10.8c-2.3,3.2-5.3,5.1-9.1,4.7c-4.1-0.4-7-3.1-8.5-7
		c-7.6-19.7-15.3-39.3-22.9-59c-11.9-30.8-23.8-61.6-35.8-92.4c-1.7-4.3-1.5-8.1,1.7-11.4c3.4-3.4,7.4-3.5,12-1.7
		c48,18.7,96,37.3,144.1,55.9c3.1,1.2,6.3,2.3,9.2,4c5.9,3.6,6.3,11.4,0.7,15.6c-9,6.8-18.1,13.5-27.2,20.2
		c-3.7,2.7-3.7,2.7-0.3,6.1c15.5,15.5,30.8,31.1,46.6,46.4c5,4.9,5.7,11.4-0.1,16.7c-7.9,7.1-15.2,15-22.7,22.5
		c-5,5-9.8,5.1-14.9,0.1c-16.1-16.1-32.2-32.2-48.4-48.3C359.4,382.9,358.8,382.3,357.7,381.3z M415.8,419.3
		c5.6-5.7,10.4-10.8,15.6-15.7c2.3-2.2,2.1-3.4-0.1-5.6c-16.2-16-32.2-32.2-48.3-48.3c-5.6-5.6-5.2-11.4,1.1-16
		c7.8-5.8,15.6-11.4,23.4-17.2c1-0.7,1.7-1.8,3.1-3.2c-44.7-17.3-88.7-34.4-132.7-51.4c-0.3,0.3-0.7,0.6-1,0.9
		c17.1,44.2,34.2,88.4,51.3,132.5c0.4,0.2,0.8,0.3,1.2,0.5c0.4-0.8,0.8-1.6,1.3-2.3c5.9-8.1,11.9-16.1,17.8-24.2
		c4.8-6.6,10.9-7.1,16.6-1.3c11.8,11.8,23.6,23.5,35.4,35.4C405.6,408.5,410.5,413.8,415.8,419.3z"/>
</g>
</svg>
