<?xml version="1.0" encoding="utf-8"?>
<!-- Generator: Adobe Illustrator 24.2.3, SVG Export Plug-In . SVG Version: 6.00 Build 0)  -->
<svg version="1.1" id="Layer_1" xmlns="http://www.w3.org/2000/svg" xmlns:xlink="http://www.w3.org/1999/xlink" x="0px" y="0px"
	fill="#fff" viewBox="0 0 450 450" style="enable-background:new 0 0 450 450;" xml:space="preserve">
<g>
	<path d="M346.8,90.5c3.3-4.3,6.2-8,9.5-12.3c34.7,6.5,70.4,48.5,71.2,87.3c0.8,40.1,1,80.3-0.1,120.4c-1.3,48.1-47,91.4-95.2,91.6
		c-55.5,0.2-110.9,0.1-166.4,0.1c-3.9,0-7.7,0-12.9,0c21.5,20.8,41.7,40.4,62,60c-5.6,6.1-8.8,9.5-11.5,12.5
		c-27.3-27.5-54-54.4-80.1-80.7c25.4-25.4,52.1-52.1,79.4-79.6c2.8,2.5,6.2,5.5,10.7,9.5c-20.6,20-40.8,39.7-61,59.4
		c0.4,0.9,0.9,1.9,1.3,2.8c3,0.2,6,0.7,8.9,0.7c54.7,0,109.5,0.2,164.2,0c48.5-0.2,85.3-37.6,85.3-86c0-33.9,0-67.9,0-101.8
		c0-37.5-25.4-71.1-61.8-81.8C349.5,92,348.6,91.4,346.8,90.5z"/>
	<path d="M103.3,359.9c-3.4,4.8-6.2,8.6-9.2,12.7c-37.1-9.1-71-49.5-71.7-88.2c-0.7-39.4-0.8-78.9,0-118.3
		c1-49.1,46.6-93.1,95.9-93.2c59.1-0.2,118.3,0,178.8,0c-21.6-20.2-42.4-39.6-63.1-59c1.3-1.1,2.7-2.2,4-3.3c3-3.6,6.1-7.1,9.1-10.6
		c27.2,27.7,53.7,54.6,79.9,81.2c-25.4,25.4-52.1,52.1-80.2,80.2c-2.2-3.2-5.1-7.4-7.9-11.5c-1.2-0.4-2.3-0.9-3.5-1.3
		c20.4-19.6,40.7-39.1,62.7-60.2c-5.1,0-8.5,0-12,0c-52.2,0-104.4,0-156.6,0c-48.9,0-83,23.1-89.4,71.3c-5.7,43-4.2,87.5-0.3,130.9
		C42.9,326.5,68.6,348.5,103.3,359.9z"/>
</g>
</svg>
