<?xml version="1.0" encoding="utf-8"?>
<!-- Generator: Adobe Illustrator 23.0.5, SVG Export Plug-In . SVG Version: 6.00 Build 0)  -->
<svg version="1.1" id="Layer_1" xmlns="http://www.w3.org/2000/svg" xmlns:xlink="http://www.w3.org/1999/xlink" x="0px" y="0px"
	 viewBox="0 0 512 512" style="enable-background:new 0 0 512 512;" xml:space="preserve">
<g>
	<path d="M256,0c0.31,0,0.62,0,0.94,0c0.65,0.52,1.27,1.09,1.97,1.54c3.31,2.14,6.25,4.67,8.35,8.04c1.35,2.17,2.58,4.43,3.91,6.72
		c1.49,0.29,3.1,0.54,4.68,0.92c3.86,0.94,7.18,2.93,10.24,5.42c0.68,0.56,1.56,1.05,2.41,1.21c4.74,0.88,9.53,1.54,14.26,2.46
		c12.32,2.4,24.35,5.89,36.1,10.32c10.64,4.02,20.97,8.74,30.91,14.31c10.82,6.07,21.18,12.84,30.93,20.5
		c10.55,8.29,20.38,17.37,29.36,27.37c7.87,8.77,15.14,18,21.62,27.83c6.35,9.63,12.04,19.63,16.9,30.12
		c4.43,9.55,8.21,19.34,11.39,29.37c2.87,9.06,5.18,18.27,6.79,27.64c1.45,8.44,2.83,16.9,3.04,25.49c0.02,0.97,0.28,1.94,0.43,2.91
		c0,8.9,0,17.8,0,26.7c-0.12,0.51-0.33,1.02-0.34,1.53c-0.16,9.07-1.48,18.01-3.07,26.91c-2.31,12.89-5.77,25.49-10.22,37.83
		c-4.1,11.38-9.06,22.37-14.86,32.97c-5.17,9.44-10.97,18.48-17.4,27.12c-9.24,12.42-19.57,23.84-31.05,34.21
		c-10.26,9.26-21.3,17.5-33.03,24.8c-1.27,0.79-1.62,1.63-1.6,3c0.07,3.51,0.02,7.02,0.02,10.54c0,1.46,0,2.93,0,4.15
		c2.15,1.44,4.13,2.56,5.87,3.98c5.03,4.09,8.19,9.35,9.29,15.75c0.29,1.7,0.93,2.64,2.67,3.26c4.3,1.52,6.95,4.72,8.52,9
		c0.98,2.67,0.58,5.39,0.88,8.08c-99.62,0-199.24,0-298.86,0c-0.02-1.01,0.02-2.03-0.06-3.04c-0.48-6.32,4.31-12.74,9.89-14.33
		c1.24-0.35,1.68-1.07,1.88-2.31c1.1-6.82,4.3-12.45,9.82-16.67c1.72-1.32,3.59-2.44,5.55-3.76c0-5.19-0.02-10.49,0.02-15.78
		c0.01-1-0.68-1.31-1.32-1.74c-3.51-2.32-7.04-4.6-10.52-6.97c-8.71-5.93-16.9-12.51-24.57-19.71c-5.28-4.95-10.27-10.23-15.24-15.5
		c-7.98-8.47-14.99-17.72-21.37-27.43c-6.08-9.25-11.57-18.83-16.28-28.86c-3.91-8.33-7.38-16.82-10.36-25.51
		c-2.76-8.03-4.95-16.22-6.78-24.51C25.05,294,23.31,282,22.63,269.84c-0.11-1.89-0.56-3.76-0.85-5.64c0-5.78,0-11.55,0-17.33
		c0.14-0.18,0.38-0.34,0.39-0.53c0.33-3.8,0.67-7.6,0.95-11.4c0.58-7.85,1.76-15.63,3.22-23.35c2.39-12.65,5.9-24.99,10.36-37.06
		c3.84-10.39,8.33-20.48,13.66-30.19c5.93-10.8,12.61-21.11,20.11-30.89c9.61-12.52,20.32-24,32.26-34.33
		c8.67-7.5,17.82-14.36,27.48-20.55c9.33-5.97,18.99-11.31,29.07-15.9c9.37-4.26,19.01-7.8,28.84-10.84
		c11.48-3.55,23.19-6.1,35.08-7.79c1.54-0.22,2.77-0.7,3.94-1.72c2.25-1.96,4.73-3.58,7.63-4.41c2.31-0.66,4.65-1.19,7.05-1.8
		c2.28-5.22,5.38-9.91,10.18-13.31C253.34,1.87,254.67,0.93,256,0z M110.46,508.4c97.29,0,194.46,0,291.61,0
		c0.25-2.35-0.18-4.05-1.48-6.08c-2.22-3.48-5.61-5-9.49-5.35c-0.71-10.97-6.08-18.37-15.96-22.69c0-0.81,0-1.58,0-2.36
		c0-5.39,0.09-10.78-0.05-16.16c-0.05-1.84,0.63-2.77,2.12-3.68c19.79-12.11,37.41-26.83,52.61-44.35
		c34.96-40.32,53.94-87.2,57.01-140.45c0.98-16.95-0.15-33.84-3.06-50.61c-3.76-21.66-10.42-42.37-20.11-62.11
		c-13.48-27.46-31.65-51.37-54.61-71.57c-32.66-28.74-70.51-46.76-113.33-54.36c-1.51-0.27-3.05-0.43-4.55-0.65
		c-0.06,0.28-0.11,0.37-0.08,0.43c0.25,0.57,0.48,1.14,0.76,1.68c1.77,3.37,2.71,6.98,2.85,10.77c0.11,2.96,0.05,5.93,0.06,8.9
		c0,1,0,2,0,3.14c1.32,0.21,2.41,0.38,3.58,0.57c0.51-2.31,0.96-4.34,1.46-6.57c2.26,0.47,4.35,0.91,6.58,1.38
		c0.28-1.24,0.52-2.25,0.77-3.36c-3.16-0.73-6.02-1.39-8.6-1.98c-0.53-3.67-1.01-7.03-1.53-10.64c12.49,2.24,24.69,5.51,36.73,9.93
		c-2.37,6.57-4.66,12.92-6.99,19.4c1.11,0.43,2.02,0.78,3.02,1.17c0.89-2.23,1.68-4.23,2.54-6.38c2.16,0.83,4.1,1.57,6.25,2.4
		c0.47-1.13,0.87-2.09,1.32-3.17c-2.19-0.92-4.17-1.75-6.33-2.66c1.26-3.27,2.44-6.34,3.65-9.48c10.26,3.97,19.98,8.31,29.32,13.7
		c-3.38,6.12-6.64,12.03-9.95,18.03c1.04,0.59,1.84,1.05,2.8,1.61c1.18-1.97,2.33-3.88,3.53-5.89c2.03,1.18,3.83,2.24,5.77,3.37
		c0.65-1.06,1.2-1.95,1.84-2.98c-2.06-1.26-3.9-2.38-5.82-3.55c0.91-1.6,1.71-3.03,2.53-4.44c0.85-1.45,1.72-2.88,2.59-4.35
		c9.48,5.49,18.36,11.35,26.75,18.12c-4.3,5.51-8.46,10.83-12.69,16.25c0.98,0.77,1.7,1.34,2.55,2.01c1.49-1.78,2.87-3.44,4.37-5.25
		c1.8,1.46,3.46,2.81,5.22,4.24c0.81-0.97,1.45-1.73,2.22-2.66c-1.76-1.52-3.39-2.92-5.17-4.45c2.17-2.67,4.25-5.24,6.4-7.89
		c8.51,6.96,16.36,14.13,23.6,22.16c-5.11,4.75-10.06,9.35-15.02,13.96c0.78,0.97,1.39,1.73,2.04,2.55c1.9-1.66,3.47-3.04,5.21-4.55
		c1.55,1.71,2.98,3.29,4.5,4.98c0.98-0.85,1.77-1.53,2.6-2.25c-1.57-1.88-2.95-3.53-4.38-5.23c2.61-2.32,5.03-4.48,7.56-6.74
		c7.29,8.16,13.88,16.51,19.81,25.59c-5.79,3.88-11.41,7.63-17.15,11.47c0.67,1,1.2,1.8,1.8,2.69c2.05-1.26,3.88-2.39,5.81-3.58
		c1.24,1.93,2.36,3.69,3.58,5.6c1.05-0.64,1.95-1.18,2.97-1.8c-1.23-2.04-2.33-3.88-3.51-5.83c2.97-1.9,5.69-3.65,8.54-5.48
		c5.9,9.2,11.11,18.48,15.51,28.42c-6.3,2.9-12.44,5.72-18.74,8.62c0.48,1.07,0.88,1.96,1.33,2.95c2.17-0.91,4.15-1.73,6.32-2.64
		c0.93,2.13,1.78,4.08,2.68,6.17c1.19-0.52,2.1-0.91,3.17-1.37c-0.87-2.17-1.67-4.16-2.53-6.32c3.15-1.38,6.12-2.69,9.29-4.08
		c4.4,9.99,8.03,19.98,10.85,30.52c-6.68,1.87-13.23,3.71-19.9,5.57c0.33,1.19,0.57,2.06,0.86,3.1c2.26-0.55,4.35-1.06,6.61-1.62
		c0.59,2.19,1.13,4.19,1.73,6.41c1.13-0.25,2.14-0.48,3.31-0.74c-0.51-2.31-0.98-4.4-1.48-6.64c3.36-0.87,6.5-1.67,9.82-2.53
		c2.77,10.52,4.76,20.96,5.89,31.84c-6.92,0.8-13.68,1.57-20.59,2.37c0.19,1.22,0.33,2.12,0.49,3.14c2.3-0.17,4.44-0.33,6.73-0.5
		c0.23,2.32,0.44,4.39,0.66,6.61c1.18-0.05,2.16-0.1,3.36-0.16c-0.12-2.39-0.24-4.58-0.36-6.88c3.51-0.33,6.73-0.63,10.11-0.95
		c0.99,10.92,1.47,21.54,0.73,32.39c-7.02-0.32-13.75-0.62-20.62-0.93c0,1.21,0,2.11,0,3.15c2.22,0.2,4.36,0.4,6.6,0.6
		c-0.11,2.34-0.21,4.41-0.31,6.7c1.27,0.07,2.29,0.13,3.32,0.19c0.24-2.38,0.46-4.45,0.68-6.66c3.54,0.21,6.85,0.12,10.16,0.77
		c-0.74,10.84-2.05,21.33-4.37,31.84c-6.9-1.1-13.47-2.97-20.27-3.98c-0.24,1.18-0.42,2.06-0.62,3.01c2.34,0.58,4.42,1.1,6.62,1.64
		c-0.51,2.26-0.97,4.29-1.47,6.51c1.14,0.27,2.15,0.52,3.33,0.8c0.59-2.29,1.13-4.36,1.68-6.53c3.49,0.73,6.75,1.3,9.87,2.31
		c-2.16,10.55-7.63,28-9.64,30.77c-6.28-2.38-12.58-4.78-18.99-7.21c-0.43,1.15-0.75,2-1.14,3.04c2.11,0.87,4.1,1.7,6.25,2.59
		c-0.84,2.18-1.61,4.17-2.43,6.28c1.14,0.47,2.05,0.85,3.15,1.31c0.93-2.15,1.78-4.11,2.71-6.25c3.24,1.3,6.25,2.51,9.44,3.78
		c-4.09,10.12-8.64,19.8-14.21,29.11c-6.07-3.49-11.92-6.86-17.86-10.28c-0.62,1.04-1.09,1.84-1.65,2.8c1.95,1.2,3.84,2.37,5.83,3.6
		c-1.23,2.02-2.31,3.81-3.47,5.73c1,0.64,1.9,1.21,2.93,1.88c1.27-2,2.43-3.81,3.68-5.76c2.98,1.79,5.77,3.46,8.72,5.22
		c-5.63,9.36-11.69,18.19-18.63,26.51c-5.44-4.42-10.69-8.67-16.02-13c-0.78,0.95-1.37,1.66-2.09,2.54c1.76,1.5,3.4,2.9,5.21,4.44
		c-1.49,1.77-2.86,3.41-4.3,5.14c0.95,0.86,1.73,1.55,2.57,2.31c1.61-1.81,3.04-3.42,4.55-5.12c2.66,2.24,5.15,4.34,7.76,6.53
		c-6.99,8.36-14.37,16.02-22.55,23.24c-4.65-5.19-9.17-10.23-13.77-15.36c-0.86,0.76-1.6,1.41-2.45,2.16
		c1.52,1.8,2.91,3.45,4.42,5.24c-1.76,1.5-3.4,2.9-5.12,4.37c0.79,0.95,1.42,1.72,2.2,2.66c1.84-1.47,3.56-2.85,5.35-4.29
		c2.3,2.67,4.41,5.13,6.6,7.67c-8.26,7.15-16.74,13.58-25.94,19.36c-3.76-5.85-7.42-11.53-11.16-17.35
		c-1.04,0.67-1.86,1.2-2.73,1.77c1.22,2.04,2.32,3.88,3.48,5.84c-1.97,1.22-3.74,2.32-5.68,3.52c0.63,1.07,1.15,1.97,1.75,2.99
		c2.07-1.2,3.92-2.28,5.9-3.43c1.83,2.96,3.55,5.73,5.35,8.63c-9.25,5.74-18.68,10.78-28.62,15c-0.68-1.35-1.23-2.43-1.91-3.77
		c-0.88,1.03-1.57,1.84-2.39,2.8c0.17,0.64,0.4,1.52,0.7,2.64c-1.22,0.37-2.29,0.89-3.41,1c-2.48,0.24-4.98,0.37-7.47,0.38
		c-8.04,0.04-16.08,0.02-24.12,0.01c-0.58,0-1.16-0.07-1.74-0.11c0.81-0.96,1.71-1.5,2.61-2.07c4.64-2.91,7.8-6.92,8.95-12.34
		c0.34-1.59,0.45-3.25,0.52-4.88c0.14-2.95,1.19-5.54,3.29-7.54c1.91-1.81,3.99-3.5,6.2-4.94c3.77-2.45,7.69-4.66,11.8-7.12
		c1.21,1.28,2.59,2.77,4.01,4.21c3.64,3.68,5.96,7.97,6.33,13.21c0.12,1.76,0.83,3.28,1.99,4.76c0.95-0.49,1.82-0.94,2.87-1.48
		c-1.05-2.1-2.01-4.02-3.02-6.05c1.99-1.14,3.84-2.21,5.8-3.33c-0.64-1.09-1.14-1.94-1.72-2.94c-1.98,1.02-3.81,1.97-5.79,2.99
		c-1.6-3.11-3.09-5.99-4.52-8.78c8.06-4.9,15.9-9.68,23.93-14.56c3.9,5.38,7.76,11,11.86,16.57c1.06-0.79,1.84-1.37,2.71-2.02
		c-1.37-1.94-2.61-3.7-3.9-5.54c1.78-1.42,3.41-2.71,5.17-4.12c-0.79-0.97-1.45-1.79-2.16-2.65c-1.86,1.35-3.53,2.56-5.27,3.83
		c-2.09-2.85-4.01-5.47-5.82-7.94c7.2-6.13,14.19-12.09,21.22-18.07c4.76,4.63,9.62,9.36,14.47,14.08c0.7-0.63,1.48-1.33,2.37-2.14
		c-1.7-1.71-3.22-3.23-4.79-4.8c1.58-1.72,2.99-3.27,4.5-4.91c-0.9-0.8-1.7-1.52-2.82-2.52c-1.45,1.69-2.81,3.27-4.04,4.7
		c-2.52-2.56-4.8-4.87-7.01-7.12c5.84-6.84,11.8-13.83,17.88-20.95c5.37,3.94,10.82,7.94,16.41,12.04c0.7-0.98,1.31-1.83,2-2.8
		c-1.93-1.4-3.67-2.67-5.5-4c1.28-1.91,2.45-3.64,3.71-5.51c-1.04-0.68-1.92-1.26-2.9-1.89c-1.33,1.84-2.55,3.53-3.83,5.29
		c-2.81-2.01-5.46-3.9-8.01-5.72c4.92-8.06,9.73-15.94,14.59-23.9c6.02,3.09,12.02,6.16,18.14,9.3c0.56-1.2,0.98-2.08,1.45-3.09
		c-2.13-1.09-4.04-2.06-6-3.06c0.96-2.14,1.8-4.04,2.71-6.06c-1.17-0.52-2.12-0.93-3.12-1.37c-1.05,2.09-1.95,3.89-2.92,5.83
		c-3.09-1.63-6.16-2.88-8.79-4.47c3.59-8.76,7.06-17.24,10.58-25.83c6.41,2.08,12.81,4.16,19.33,6.28c0.41-1.26,0.71-2.18,1.05-3.21
		c-2.28-0.75-4.33-1.42-6.49-2.13c0.61-2.17,1.18-4.17,1.8-6.39c-1.18-0.3-2.19-0.55-3.32-0.84c-0.7,2.16-1.34,4.13-2.01,6.19
		c-3.32-1.04-6.42-2.01-9.4-2.94c2.14-9.13,4.22-18.05,6.38-27.26c6.57,1.02,13.29,2.06,20.15,3.13c0.15-1.31,0.27-2.27,0.39-3.31
		c-2.32-0.39-4.37-0.73-6.6-1.11c0.21-2.21,0.41-4.27,0.62-6.53c-1.21-0.13-2.24-0.24-3.14-0.34c-0.93,2.2-0.33,4.45-1.43,6.39
		c-3.27-0.48-6.41-0.95-9.51-1.4c0.67-9.4,1.32-18.61,1.99-27.97c6.8-0.06,13.55,0.03,20.19-0.05c0-1.32,0-2.29,0-3.45
		c-2.35,0-4.5,0-6.88,0c0-2.21,0-4.21,0-6.27c-1.29,0-2.34,0-3.56,0c0,2.23,0,4.28,0,6.46c-3.43,0-6.67,0-9.8,0
		c-0.81-9.3-1.6-18.44-2.41-27.74c6.67-1.1,13.33-2.19,20.13-3.31c-0.26-1.26-0.45-2.22-0.67-3.28c-2.35,0.37-4.46,0.7-6.67,1.04
		c-0.48-2.27-0.91-4.31-1.37-6.48c-1.14,0.25-2.11,0.47-3.28,0.73c0.37,2.2,0.71,4.23,1.08,6.48c-3.49,0.43-6.67,1.4-9.77,1.56
		c-2.3-9.15-4.54-18.03-6.81-27.05c6.35-2.11,12.74-4.23,19.29-6.41c-0.4-1.22-0.71-2.14-1.06-3.2c-2.28,0.74-4.33,1.41-6.46,2.1
		c-0.84-2.15-1.62-4.14-2.43-6.2c-1.2,0.49-2.12,0.86-3.16,1.28c0.74,2.12,1.42,4.07,2.15,6.18c-3.32,1.14-6.39,2.2-9.35,3.22
		c-3.72-8.67-7.36-17.16-11.04-25.74c5.98-3.11,11.97-6.22,18.08-9.38c-0.61-1.12-1.09-1.98-1.64-2.99c-2.1,1.09-4.01,2.08-5.97,3.1
		c-1.2-2.01-2.29-3.83-3.44-5.74c-1.12,0.7-1.95,1.23-2.86,1.8c1.05,1.99,2.02,3.82,3.03,5.75c-3.1,1.65-5.96,3.18-8.98,4.79
		c-4.41-8.15-9.26-15.78-14.54-23.13c-0.09-0.12-0.1-0.29-0.22-0.63c5.39-3.98,10.82-8.01,16.43-12.16
		c-0.73-0.97-1.36-1.8-2.07-2.75c-1.93,1.44-3.65,2.73-5.45,4.06c-1.44-1.78-2.76-3.4-4.2-5.17c-0.94,0.82-1.78,1.55-2.64,2.29
		c1.4,1.81,2.62,3.4,3.95,5.11c-2.77,2.11-5.35,4.08-7.86,5.99c-6.24-7.07-12.34-14-18.52-21c4.72-4.83,9.44-9.66,13.91-14.23
		c-0.8-1.02-1.41-1.8-2.04-2.6c-1.72,1.63-3.28,3.12-4.92,4.69c-1.63-1.43-3.23-2.84-4.93-4.33c-0.85,0.99-1.53,1.78-2.25,2.63
		c1.68,1.59,3.14,2.96,4.73,4.46c-2.4,2.53-4.64,4.89-6.8,7.16c-7.28-6-14.4-11.88-21.6-17.81c3.81-5.57,7.89-10.95,11.7-16.69
		c-1.08-0.71-1.89-1.25-2.79-1.84c-1.39,1.95-2.64,3.7-3.93,5.51c-1.94-1.26-3.69-2.39-5.57-3.6c-0.67,1.1-1.22,2-1.79,2.95
		c1.87,1.31,3.56,2.49,5.33,3.74c-2,2.9-3.84,5.57-5.58,8.1c-8.18-4.8-16.1-9.44-24.15-14.16c2.94-6.02,5.91-12.08,8.95-18.29
		c-1.15-0.55-2.04-0.97-3.02-1.44c-1.09,2.13-2.09,4.1-3.09,6.04c-2.15-0.91-4.06-1.71-6.09-2.57c-0.48,1.19-0.85,2.1-1.26,3.13
		c1.99,0.95,3.85,1.83,5.87,2.8c-1.52,3.18-2.91,6.1-4.34,9.09c-4.45-1.86-8.65-3.71-12.93-5.37c-4.32-1.68-8.71-3.19-13.1-4.79
		c1.87-6.73,4.18-13.06,5.9-19.7c-1.27-0.35-2.2-0.59-3.18-0.86c-0.71,2.3-1.32,4.29-1.99,6.43c-2.19-0.54-4.2-1.05-6.43-1.6
		c-0.28,1.15-0.53,2.16-0.81,3.28c2.17,0.67,4.15,1.27,6.25,1.92c-0.99,3.35-1.91,6.46-2.79,9.45c-9.05-1.96-17.86-3.87-26.99-5.85
		c0-0.65,0-1.48,0-2.32c0-5.7,0.05-11.4-0.03-17.1c-0.11-7.74-5.07-13.64-12.52-15.03c-0.76-0.14-1.52-0.21-2.41-0.33
		c-0.09-0.9-0.18-1.74-0.27-2.59c-0.87-7.9-4.58-14.14-10.98-18.8c-1.83-1.33-1.88-1.33-3.67-0.04c-5.92,4.26-9.56,9.96-10.8,17.16
		c-0.25,1.44-0.42,2.89-0.61,4.28c-0.3,0.07-0.45,0.13-0.6,0.14c-8.86,0.53-14.53,8.14-14.24,15.6c0.22,5.61,0.04,11.24,0.04,16.86
		c0,0.76,0,1.52,0,2.15c-9.13,1.98-18,3.9-27.05,5.86c-0.89-3.06-1.8-6.17-2.78-9.5c2.15-0.63,4.12-1.21,6.25-1.84
		c-0.33-1.27-0.59-2.27-0.85-3.31c-2.3,0.57-4.3,1.08-6.38,1.6c-0.72-2.28-1.37-4.33-2.05-6.48c-1.18,0.36-2.12,0.65-3.21,0.99
		c2.05,6.68,4.03,13.12,5.97,19.45c-8.77,3.41-17.31,6.73-26.11,10.16c-1.36-2.87-2.77-5.85-4.22-8.91c2.1-1.02,3.96-1.93,5.9-2.87
		c-0.52-1.14-0.92-2.04-1.39-3.07c-2.1,0.9-4.02,1.71-6.07,2.59c-1.01-2.06-1.96-3.99-3-6.11c-1.1,0.57-2.02,1.04-3.02,1.56
		c3.08,6.29,6.05,12.34,8.92,18.21c-8.19,4.8-16.1,9.43-24.15,14.15c-1.83-2.66-3.67-5.34-5.58-8.1c1.92-1.35,3.6-2.54,5.35-3.77
		c-0.69-1.08-1.22-1.92-1.83-2.87c-1.92,1.23-3.67,2.35-5.58,3.58c-1.32-1.87-2.56-3.64-3.91-5.56c-0.99,0.69-1.84,1.29-2.81,1.97
		c4.06,5.74,7.96,11.24,11.74,16.59c-7.3,6.02-14.38,11.85-21.61,17.82c-2.21-2.34-4.48-4.74-6.8-7.2c1.7-1.6,3.16-2.97,4.74-4.45
		c-0.81-0.92-1.51-1.71-2.31-2.62c-1.73,1.56-3.28,2.96-4.89,4.42c-1.67-1.65-3.24-3.21-4.44-4.4c-1.06,0.71-1.88,1.27-2.83,1.91
		c4.93,5.06,9.65,9.9,14.21,14.57c-6.24,7.08-12.32,13.97-18.52,20.99c-2.53-1.93-5.17-3.94-7.84-5.99
		c1.42-1.86,2.63-3.46,3.94-5.19c-0.96-0.8-1.76-1.46-2.66-2.22c-1.47,1.83-2.78,3.45-4.15,5.16c-1.87-1.38-3.61-2.66-5.49-4.04
		c-0.73,0.98-1.35,1.81-2.04,2.74c5.65,4.18,11.08,8.19,16.34,12.08c-5.08,8.03-9.98,15.79-14.97,23.68c-2.8-1.5-5.67-3.04-8.7-4.67
		c1.08-2.02,2.05-3.84,3.08-5.77c-1.08-0.63-1.99-1.16-2.96-1.73c-1.2,2.05-2.26,3.85-3.35,5.7c-2.07-1.05-3.99-2.03-6.05-3.07
		c-0.55,1.07-0.99,1.94-1.53,2.99c6.18,3.21,12.17,6.33,18.02,9.37c-3.74,8.72-7.37,17.2-11.04,25.76c-3.12-1.1-6.18-2.18-9.33-3.29
		c0.75-2.16,1.41-4.06,2.14-6.12c-1.09-0.44-2.06-0.83-3.18-1.28c-0.86,2.19-1.65,4.19-2.43,6.19c-2.27-0.73-4.31-1.38-6.44-2.07
		c-0.41,1.21-0.72,2.13-1.08,3.18c6.67,2.21,13.08,4.33,19.31,6.39c-2.31,9.17-4.54,18.07-6.83,27.18
		c-3.12-0.55-6.31-1.12-9.69-1.72c0.36-2.23,0.68-4.27,1.04-6.46c-1.13-0.24-2.1-0.44-3.25-0.68c-0.5,2.2-0.97,4.29-1.45,6.45
		c-2.32-0.35-4.44-0.67-6.74-1.02c-0.14,1.24-0.25,2.2-0.38,3.3c6.87,1.13,13.52,2.22,19.95,3.27c-0.83,9.48-1.63,18.61-2.42,27.68
		c-3.24,0-6.48,0-9.96,0c0-2.28,0-4.33,0-6.41c-1.22,0-2.19,0-3.21,0c-0.15,2.21-0.3,4.27-0.45,6.47c-2.34,0-4.42,0-6.62,0
		c0,1.14,0,2.1,0,3.34c6.88,0,13.63,0,20.22,0c0.66,9.44,1.3,18.59,1.95,27.96c-3.11,0.45-6.38,0.92-9.77,1.41
		c-0.36-2.3-0.67-4.34-1.02-6.53c-1.29,0.22-2.31,0.39-3.34,0.56c0.26,2.29,0.48,4.28,0.72,6.42c-2.28,0.39-4.4,0.76-6.67,1.15
		c0.16,1.16,0.29,2.13,0.45,3.3c6.9-1.08,13.57-2.12,20.11-3.15c2.15,9.19,4.25,18.12,6.39,27.27c-3.07,0.95-6.22,1.92-9.45,2.92
		c-0.69-2.21-1.29-4.13-1.95-6.22c-1.16,0.32-2.16,0.59-3.31,0.91c0.62,2.27,1.17,4.26,1.75,6.36c-2.24,0.76-4.26,1.44-6.45,2.18
		c0.4,1.16,0.71,2.07,1.08,3.16c6.65-2.16,13.06-4.24,19.29-6.27c3.59,8.75,7.08,17.24,10.64,25.91c-2.87,1.41-5.83,2.86-8.88,4.36
		c-1.03-2.06-1.93-3.85-2.9-5.79c-1.11,0.49-2.07,0.91-3.14,1.37c0.97,2.11,1.83,4.01,2.75,6.02c-1.09,0.57-2.05,1.07-3.01,1.58
		c-1,0.53-1.99,1.06-3.06,1.62c0.62,1.13,1.09,2,1.61,2.95c6.21-3.19,12.21-6.27,18.05-9.26c4.95,8.11,9.73,15.95,14.58,23.91
		c-2.59,1.85-5.24,3.74-8.04,5.74c-1.33-1.87-2.53-3.56-3.8-5.34c-1.04,0.7-1.91,1.28-2.86,1.91c1.29,1.97,2.43,3.71,3.63,5.53
		c-1.88,1.39-3.62,2.67-5.48,4.03c0.76,1.01,1.38,1.84,2.05,2.73c5.64-4.15,11.04-8.11,16.37-12.03
		c6.11,7.15,12.1,14.18,17.79,20.85c-2.28,2.36-4.54,4.7-7.17,7.43c-1.28-1.5-2.62-3.08-4.02-4.73c-0.97,0.87-1.71,1.54-2.58,2.33
		c1.54,1.69,2.99,3.28,4.71,5.18c-1.76,1.52-3.4,2.94-4.83,4.18c0.85,1.11,1.49,1.95,2.2,2.87c5.13-4.96,9.98-9.66,14.73-14.24
		c6.86,5.85,13.84,11.79,20.96,17.85c-1.9,2.59-3.83,5.21-5.86,7.98c-1.82-1.35-3.48-2.59-5.25-3.91c-0.76,0.97-1.41,1.8-2.15,2.74
		c1.82,1.42,3.47,2.7,5.22,4.07c-1.32,1.85-2.58,3.62-3.96,5.55c0.99,0.7,1.83,1.31,2.78,1.99c4.08-5.72,8.01-11.22,11.81-16.54
		c8.09,4.92,15.94,9.69,23.95,14.56c-1.57,2.82-2.83,5.89-4.65,8.72c-2-1.03-3.79-1.95-5.7-2.93c-0.6,1.06-1.11,1.98-1.69,3
		c2.03,1.14,3.84,2.15,5.81,3.25c-1.05,2.08-2.02,4-3.07,6.08c1.12,0.54,2.05,1,2.96,1.44c1.59-2.63,1.61-2.63,1.87-4.97
		c0.5-4.48,2.21-8.44,5.25-11.77c1.78-1.95,3.68-3.79,5.35-5.49c2.1,1.37,3.96,2.64,5.87,3.82c1.93,1.18,4,2.15,5.85,3.44
		c2.1,1.46,4.17,3.04,6.01,4.81c2.21,2.13,3.36,4.87,3.38,7.99c0.06,7.83,3.69,13.51,10.36,17.39c0.63,0.37,1.22,0.82,2.2,1.48
		c-0.86,0.07-1.23,0.14-1.59,0.13c-10.61-0.11-21.22-0.23-31.83-0.34c-1.45-0.01-2.68-0.56-3.88-1.37c0.32-0.9,0.61-1.7,0.94-2.61
		c-0.87-0.81-1.7-1.58-2.65-2.46c-0.68,1.38-1.24,2.53-1.84,3.75c-10.02-4.38-19.46-9.25-28.59-15.07c1.85-2.99,3.56-5.75,5.33-8.59
		c2.08,1.22,3.94,2.3,5.92,3.46c0.65-1.15,1.17-2.05,1.72-3.02c-2.01-1.24-3.78-2.34-5.71-3.53c1.2-1.97,2.32-3.81,3.55-5.83
		c-0.99-0.62-1.82-1.13-2.78-1.73c-3.78,5.87-7.44,11.55-11.16,17.33c-9.24-5.85-17.75-12.24-25.93-19.39
		c2.27-2.63,4.39-5.08,6.63-7.67c1.81,1.48,3.47,2.85,5.3,4.34c0.81-1,1.46-1.81,2.16-2.69c-1.78-1.58-3.38-2.99-5.02-4.44
		c1.58-1.85,2.97-3.48,4.44-5.2c-0.98-0.81-1.73-1.43-2.53-2.1c-4.66,5.21-9.13,10.2-13.74,15.34
		c-8.16-7.18-15.58-14.88-22.55-23.26c2.71-2.27,5.19-4.35,7.77-6.51c1.62,1.81,3.05,3.41,4.59,5.12c0.94-0.86,1.71-1.57,2.54-2.33
		c-1.5-1.79-2.84-3.39-4.27-5.1c1.75-1.55,3.42-3.02,5.14-4.54c-0.74-0.87-1.34-1.57-2.08-2.44c-5.37,4.35-10.63,8.61-16.04,12.99
		c-6.86-8.4-13.04-17.15-18.56-26.55c2.98-1.78,5.77-3.45,8.66-5.19c1.31,2,2.48,3.8,3.75,5.74c1.06-0.69,1.93-1.26,2.87-1.88
		c-1.21-2.01-2.29-3.81-3.43-5.71c1.97-1.24,3.84-2.42,5.82-3.67c-0.66-1.04-1.17-1.86-1.72-2.72c-6.05,3.48-11.84,6.82-17.82,10.27
		c-5.55-9.37-10.14-18.96-14.17-29.12c3.22-1.29,6.27-2.51,9.4-3.77c0.99,2.22,1.83,4.12,2.76,6.22c1.1-0.47,2.07-0.88,3.13-1.33
		c-0.85-2.18-1.63-4.17-2.43-6.21c2.22-0.95,4.19-1.79,6.3-2.69c-0.45-1.07-0.8-1.91-1.24-2.94c-6.46,2.46-12.77,4.85-19.05,7.24
		c-2.66-4.6-9.43-27.36-9.22-31.02c3.12-0.69,6.27-1.39,9.51-2.11c0.63,2.32,1.2,4.39,1.8,6.59c1.2-0.32,2.15-0.58,3.19-0.86
		c-0.47-2.29-0.9-4.39-1.35-6.57c2.3-0.54,4.32-1.02,6.55-1.55c-0.27-1.15-0.49-2.08-0.73-3.1c-6.89,1.19-13.41,2.97-20.18,4
		c-2.21-10.71-3.79-21.22-4.25-31.9c3.55-0.48,6.78-0.54,10.11-0.65c0.23,2.39,0.42,4.46,0.64,6.75c1.25-0.16,2.28-0.29,3.39-0.43
		c-0.15-2.31-0.29-4.37-0.43-6.53c2.41-0.24,4.55-0.45,6.83-0.67c-0.09-1.14-0.17-2.05-0.25-3.11c-6.9,0.31-13.64,0.61-20.54,0.92
		c-0.59-10.97-0.33-21.59,0.78-32.4c3.53,0.35,6.84,0.44,10.06,1.09c-0.11,2.36-0.2,4.44-0.3,6.71c1.26,0,2.28,0,3.29,0
		c0.25-2.23,0.49-4.29,0.73-6.43c2.42,0.17,4.55,0.33,6.82,0.49c0.06-1.2,0.11-2.09,0.16-3.16c-6.83-0.78-13.47-1.54-20.07-2.3
		c-0.46-4.43,3.92-28.05,5.89-31.84c3.1,0.82,6.23,1.65,9.49,2.52c-0.51,2.33-0.96,4.42-1.46,6.69c1.23,0.24,2.25,0.44,3.32,0.65
		c0.61-2.28,1.14-4.27,1.7-6.37c2.34,0.55,4.42,1.04,6.69,1.57c0.23-1.18,0.42-2.12,0.62-3.15c-3.49-0.97-6.71-1.86-9.94-2.75
		c-3.21-0.9-6.43-1.8-9.6-2.7c0.48-4.58,8.31-26.49,10.87-30.48c2.98,1.32,6,2.65,9.08,4.02c-0.91,2.27-1.71,4.25-2.55,6.33
		c1.19,0.48,2.11,0.85,3.18,1.28c0.94-2.12,1.8-4.07,2.72-6.14c2.24,0.95,4.22,1.78,6.32,2.67c0.47-1.13,0.83-2.02,1.23-3.01
		c-6.36-2.93-12.44-5.72-18.69-8.59c4.48-9.96,9.62-19.33,15.57-28.4c2.96,1.91,5.69,3.68,8.48,5.48c-1.22,2.06-2.31,3.91-3.5,5.93
		c1.13,0.62,2.03,1.12,2.98,1.65c1.29-1.98,2.42-3.72,3.61-5.55c2.01,1.24,3.83,2.38,5.81,3.61c0.62-1,1.13-1.82,1.71-2.76
		c-5.83-3.9-11.45-7.65-17.13-11.44c6.09-9.15,12.58-17.59,19.89-25.57c2.59,2.33,5,4.5,7.49,6.74c-1.52,1.84-2.89,3.5-4.35,5.27
		c0.98,0.82,1.78,1.48,2.62,2.19c1.58-1.77,2.98-3.33,4.46-4.98c1.75,1.53,3.38,2.95,5.14,4.48c0.8-0.87,1.47-1.59,2.21-2.4
		c-5.11-4.75-10.08-9.36-15.13-14.04c7.34-8.03,15.13-15.29,23.64-22.12c2.2,2.71,4.28,5.27,6.38,7.85
		c-1.86,1.62-3.48,3.04-5.17,4.52c0.83,0.95,1.49,1.7,2.26,2.58c1.78-1.45,3.44-2.8,5.18-4.21c1.56,1.85,2.95,3.5,4.43,5.26
		c0.92-0.78,1.65-1.4,2.47-2.1c-4.3-5.49-8.42-10.76-12.68-16.2c8.5-6.79,17.36-12.69,26.84-18.13c1.7,2.95,3.35,5.81,5.06,8.78
		c-2.07,1.29-3.91,2.43-5.85,3.64c0.67,1.04,1.24,1.93,1.86,2.89c2.04-1.16,3.84-2.19,5.8-3.3c1.2,2.01,2.3,3.86,3.5,5.87
		c0.98-0.58,1.81-1.08,2.78-1.65c-3.37-6.11-6.62-12.02-9.94-18.03c9.57-5.38,19.23-9.82,29.37-13.64c1.23,3.22,2.38,6.26,3.61,9.5
		c-2.14,0.88-4.13,1.69-6.32,2.59c0.5,1.16,0.91,2.12,1.36,3.16c2.15-0.8,4.11-1.52,6.24-2.31c0.85,2.16,1.65,4.17,2.5,6.34
		c1.08-0.42,1.98-0.77,3.03-1.17c-2.36-6.54-4.64-12.89-6.99-19.41c12.15-4.4,24.27-7.7,36.71-9.91c-0.52,3.67-1.01,7.1-1.52,10.64
		c-2.79,0.65-5.63,1.32-8.64,2.02c0.37,1.32,0.64,2.32,0.92,3.32c2.27-0.48,4.24-0.89,6.43-1.36c0.54,2.27,1.06,4.41,1.6,6.67
		c1.31-0.28,2.35-0.5,3.58-0.76c0-3.63,0.05-7.13-0.01-10.63c-0.08-4.4,0.95-8.5,2.97-12.38c0.26-0.5,0.43-1.04,0.76-1.83
		c-2.33,0.39-4.32,0.69-6.31,1.05c-20.31,3.63-39.79,9.85-58.41,18.74c-26.58,12.69-49.89,29.84-69.92,51.44
		c-18.33,19.76-32.77,42.05-43.3,66.86c-11,25.91-16.94,52.96-18.09,81.08c-0.53,12.91,0.13,25.76,1.8,38.54
		c2.06,15.74,5.7,31.13,11,46.11c14.53,41.02,38.64,75.31,72.3,102.87c7.92,6.49,16.28,12.38,25.04,17.68
		c1.22,0.74,1.72,1.56,1.66,2.98c-0.1,2.73-0.03,5.46-0.03,8.2c0,3.59,0,7.17,0,10.83c-4.67,1.9-8.5,4.75-11.39,8.81
		c-2.93,4.12-4.27,8.77-4.47,13.67C114.04,498.54,110.35,502.34,110.46,508.4z M211.5,36.47c-9.73,2.06-18.88,4.53-28.02,7.72
		c2.05,6.65,4.6,12.98,6.55,19.57c-3.09,1.15-5.91,2.2-8.89,3.3c-0.9-2.15-1.73-4.15-2.63-6.31c-1.07,0.45-1.98,0.83-3.01,1.27
		c0.85,2.13,1.65,4.14,2.49,6.27c-1.98,0.92-3.79,1.77-5.74,2.68c0.51,1.12,0.95,2.09,1.39,3.07c3.59-1.47,6.96-2.9,10.37-4.22
		c3.38-1.32,6.81-2.52,10.28-3.81c-2.16-6.62-4.22-12.98-6.37-19.57c3.4-1.09,6.58-2.22,9.97-2.92c0.69,2.28,1.31,4.33,1.97,6.51
		c1.21-0.37,2.15-0.65,3.11-0.94c-0.53-2.32-1.01-4.41-1.51-6.61c3.37-0.82,6.45-1.58,9.56-2.34
		C211.18,38.95,211.32,37.89,211.5,36.47z M322.59,63.71c2.28-6.66,4.46-13.03,6.67-19.52c-9.28-3.17-18.38-5.7-27.93-7.66
		c0.12,1.4,0.21,2.51,0.31,3.62c3.32,0.81,6.4,1.56,9.67,2.36c-0.55,2.26-1.05,4.35-1.61,6.66c1.18,0.27,2.18,0.5,3.24,0.75
		c0.66-2.26,1.24-4.26,1.89-6.52c3.4,1.03,6.63,2,9.96,3.01c-2.18,6.72-4.26,13.14-6.33,19.53c7.01,2.73,13.74,5.34,20.68,8.04
		c0.42-0.94,0.85-1.89,1.33-2.98c-2.04-0.96-3.9-1.84-5.79-2.73c0.89-2.18,1.68-4.12,2.55-6.23c-1.04-0.44-1.94-0.81-3.03-1.27
		c-0.92,2.21-1.77,4.24-2.64,6.33C328.45,65.91,325.63,64.85,322.59,63.71z M87.25,402.56c5.44,6.33,11.16,12.14,17.28,17.84
		c4.75-5.12,9.34-10.08,14.04-15.15c2.43,2.13,4.76,4.17,7.19,6.3c-1.45,1.79-2.82,3.47-4.3,5.31c0.91,0.73,1.71,1.38,2.57,2.07
		c1.56-1.89,2.93-3.54,4.33-5.23c1.8,1.38,3.38,2.6,5.09,3.91c0.78-1.09,1.39-1.93,1.94-2.7c-5.72-4.89-11.22-9.58-16.84-14.38
		c-4.69,4.9-9.36,9.78-14.12,14.76c-2.51-2.49-4.86-4.83-7.36-7.32c1.68-1.65,3.25-3.2,4.67-4.59c-0.81-0.97-1.45-1.72-2.14-2.55
		c-1.76,1.57-3.36,3-5.06,4.52c-1.62-1.76-3.08-3.35-4.68-5.09C88.95,401.06,88.15,401.76,87.25,402.56z M99.35,132.18
		c4.97-5.62,9.8-11.08,14.74-16.66c-4.77-4.91-9.48-9.76-14.32-14.75c2.26-2.17,4.66-4.47,7.19-6.9c1.65,1.76,3.13,3.33,4.72,5.02
		c0.88-0.79,1.62-1.45,2.5-2.23c-1.53-1.77-2.99-3.44-4.5-5.19c1.82-1.61,3.44-3.05,5.11-4.53c-0.44-0.58-0.77-1-1.07-1.44
		c-0.31-0.44-0.59-0.9-0.94-1.43c-6.59,5.56-12.59,11.07-18.3,17.14c5.09,4.89,9.95,9.56,14.89,14.3c-2.24,2.45-4.32,4.72-6.44,7.03
		c-1.87-1.54-3.52-2.9-5.28-4.35c-0.77,0.91-1.36,1.62-2.07,2.47c1.76,1.53,3.43,2.99,5.14,4.47c-1.38,1.75-2.58,3.27-3.92,4.96
		C97.71,130.85,98.52,131.51,99.35,132.18z M416.05,381.58c5.43,4.26,10.74,8.43,16.22,12.73c5.22-6.56,9.86-13.24,14.27-20.33
		c-1.07-0.67-1.95-1.23-2.95-1.86c-1.33,2.01-2.52,3.81-3.82,5.77c-1.97-1.28-3.77-2.45-5.75-3.74c-0.65,1-1.22,1.86-1.84,2.81
		c1.94,1.37,3.71,2.62,5.55,3.92c-2,2.99-3.97,5.72-6.09,8.39c-5.71-4.19-10.96-8.43-16.35-12.33c-4.9,5.75-9.59,11.26-14.36,16.86
		c0.75,0.71,1.52,1.44,2.4,2.28c1.51-1.59,2.89-3.04,4.39-4.61c1.74,1.52,3.36,2.93,5.14,4.48c0.77-0.91,1.44-1.69,2.14-2.52
		c-1.79-1.59-3.36-2.98-5.07-4.49C411.98,386.48,413.95,384.11,416.05,381.58z M440.7,128.75c-4.82-6.9-9.76-13.39-15.25-19.66
		c-0.93,0.83-1.71,1.52-2.61,2.32c1.53,1.85,2.9,3.51,4.39,5.32c-1.81,1.51-3.47,2.88-5.25,4.37c0.76,0.95,1.41,1.75,2.09,2.6
		c1.93-1.46,3.64-2.75,5.49-4.14c2.14,2.87,4.12,5.52,6.2,8.3c-5.75,4.11-11.23,8.04-16.71,11.96c4.04,6.34,7.95,12.49,11.94,18.76
		c0.99-0.6,1.88-1.14,2.82-1.72c-1.1-1.95-2.05-3.64-3.1-5.5c1.96-1.2,3.84-2.36,5.83-3.58c-0.68-1.08-1.2-1.89-1.77-2.78
		c-2.06,1.25-3.9,2.36-5.83,3.52c-1.8-2.77-3.47-5.35-5.21-8.04C429.41,136.56,434.92,132.75,440.7,128.75z M415.03,118.13
		c-1.81,1.55-3.45,2.96-5.21,4.47c-2.17-2.39-4.25-4.68-6.45-7.1c4.98-4.78,9.86-9.45,14.93-14.31
		c-5.85-6.03-11.78-11.69-18.24-16.97c-0.83,1.03-1.48,1.85-2.15,2.69c1.82,1.62,3.44,3.06,5.16,4.58c-1.53,1.75-2.96,3.38-4.5,5.14
		c0.88,0.8,1.61,1.47,2.47,2.25c1.6-1.67,3.13-3.27,4.76-4.98c2.52,2.56,4.84,4.92,7.26,7.38c-4.85,4.81-9.63,9.56-14.4,14.29
		c5,5.65,9.79,11.07,14.7,16.61c0.83-0.67,1.66-1.33,2.57-2.06c-1.36-1.75-2.59-3.32-3.92-5.02c1.76-1.5,3.4-2.91,5.14-4.41
		C416.47,119.86,415.88,119.16,415.03,118.13z M120.76,109.02c5.96-4.9,11.55-9.48,17.29-14.2c-4-5.47-7.99-10.91-12.13-16.57
		c2.89-2.03,5.61-3.93,8.52-5.96c1.36,1.99,2.61,3.81,3.92,5.73c1.05-0.73,1.85-1.29,2.72-1.89c-1.26-2.05-2.39-3.87-3.57-5.79
		c2.04-1.28,3.86-2.43,5.86-3.69c-0.66-1.07-1.21-1.97-1.83-2.98c-7.17,4.28-13.95,8.82-20.57,13.93
		c4.18,5.52,8.26,10.91,12.44,16.42c-2.55,2.04-4.96,3.97-7.47,5.97c-1.55-1.78-2.96-3.41-4.49-5.17c-0.88,0.77-1.62,1.4-2.45,2.13
		c1.51,1.82,2.88,3.48,4.33,5.22c-1.63,1.51-3.1,2.87-4.62,4.28c0.41,0.49,0.72,0.84,1,1.2
		C120.04,108.07,120.37,108.51,120.76,109.02z M66.17,373.97c4.4,7.1,9.08,13.78,14.26,20.35c5.5-4.32,10.81-8.49,16.24-12.74
		c2.11,2.55,4.08,4.93,6.11,7.38c-1.75,1.55-3.36,2.99-5.11,4.54c0.78,0.88,1.43,1.62,2.19,2.47c1.76-1.55,3.38-2.97,5.08-4.47
		c1.55,1.58,3,3.04,4.55,4.61c0.92-0.9,1.64-1.59,2.33-2.26c-4.88-5.73-9.62-11.29-14.43-16.94c-5.45,4.13-10.83,8.22-16.37,12.42
		c-2.08-2.87-4.03-5.56-6.09-8.42c1.95-1.38,3.71-2.62,5.63-3.98c-0.69-1-1.27-1.85-1.9-2.75c-2.04,1.3-3.85,2.46-5.76,3.68
		c-1.31-1.99-2.49-3.79-3.79-5.76C68.06,372.78,67.17,373.34,66.17,373.97z M379.33,94.03c4.14-5.66,8.37-10.92,12.38-16.51
		c-6.74-5.1-13.46-9.68-20.59-13.87c-0.66,1.13-1.16,1.99-1.73,2.98c1.98,1.28,3.84,2.49,5.8,3.76c-1.26,2.02-2.4,3.84-3.61,5.78
		c1.01,0.66,1.83,1.2,2.8,1.83c1.32-1.94,2.53-3.72,3.86-5.66c3,1.97,5.78,3.88,8.52,5.97c-4.15,5.66-8.11,11.06-12.11,16.52
		c5.77,4.74,11.4,9.36,17.17,14.11c0.74-0.84,1.43-1.61,2.18-2.47c-1.66-1.54-3.12-2.89-4.63-4.3c1.53-1.83,2.9-3.48,4.36-5.24
		c-0.95-0.77-1.7-1.39-2.53-2.06c-1.57,1.8-2.97,3.43-4.46,5.14C384.22,97.94,381.86,96.05,379.33,94.03z M89.01,140.52
		c-1.86,2.83-3.52,5.36-5.25,8c-1.97-1.19-3.82-2.3-5.86-3.53c-0.58,0.99-1.07,1.83-1.66,2.83c1.99,1.23,3.83,2.36,5.75,3.55
		c-1.08,1.94-2.04,3.69-3.11,5.6c1.09,0.58,2.02,1.08,2.91,1.55c4-6.3,7.87-12.41,11.88-18.71c-5.53-3.95-11.02-7.88-16.72-11.95
		c2.17-2.87,4.2-5.56,6.27-8.3c1.97,1.51,3.68,2.81,5.48,4.18c0.76-0.97,1.37-1.75,2.06-2.63c-1.8-1.49-3.47-2.87-5.28-4.37
		c1.54-1.86,2.95-3.57,4.44-5.37c-1.01-0.86-1.81-1.53-2.67-2.27c-5.51,6.37-10.49,12.75-15.19,19.66
		C77.73,132.7,83.28,136.55,89.01,140.52z M120.24,429.07c-1.89-1.49-3.63-2.86-5.46-4.31c-0.81,1-1.47,1.81-2.2,2.7
		c6.47,5.4,12.97,10.31,19.93,14.85c3.87-5.81,7.61-11.43,11.43-17.16c2.82,1.78,5.43,3.42,8.1,5.11c-1.17,2.05-2.25,3.91-3.41,5.93
		c1.01,0.57,1.86,1.05,2.85,1.61c1.21-2.05,2.31-3.9,3.44-5.82c1.95,1.02,3.71,1.95,5.68,2.98c0.55-1.11,1.01-2.04,1.46-2.93
		c-6.38-3.9-12.54-7.66-18.89-11.54c-3.85,5.58-7.68,11.14-11.66,16.92c-2.91-2.1-5.64-4.07-8.42-6.09
		c1.47-2.01,2.74-3.74,4.07-5.56c-0.97-0.75-1.75-1.35-2.64-2.03C123.05,425.56,121.7,427.24,120.24,429.07z M381.21,437.42
		c-3.96-5.75-7.82-11.36-11.66-16.93c-6.45,3.94-12.62,7.71-18.95,11.58c0.51,0.93,1.02,1.85,1.6,2.91c1.94-1.05,3.7-2.01,5.58-3.03
		c1.19,2.01,2.29,3.86,3.48,5.87c1.04-0.63,1.86-1.13,2.78-1.69c-1.18-2.08-2.24-3.94-3.36-5.9c2.79-1.75,5.34-3.35,8.1-5.08
		c3.85,5.78,7.62,11.45,11.45,17.19c7.04-4.75,13.61-9.54,19.92-14.94c-0.86-1-1.5-1.76-2.23-2.61c-1.88,1.46-3.63,2.82-5.48,4.25
		c-1.48-1.85-2.83-3.53-4.26-5.33c-0.97,0.75-1.74,1.35-2.67,2.07c1.41,1.88,2.7,3.61,4.13,5.52
		C386.83,433.35,384.13,435.31,381.21,437.42z M384.36,413.68c1.51,1.83,2.88,3.5,4.36,5.3c0.91-0.78,1.65-1.41,2.52-2.15
		c-1.49-1.83-2.86-3.5-4.3-5.28c2.47-2.16,4.79-4.19,7.21-6.3c4.74,5.11,9.33,10.06,13.89,14.98c3.68-2.64,15.69-15.15,17.2-17.93
		c-0.77-0.65-1.57-1.32-2.4-2.02c-1.66,1.78-3.13,3.36-4.69,5.03c-1.76-1.58-3.36-3.01-5.07-4.54c-0.8,0.85-1.48,1.56-2.26,2.37
		c1.66,1.7,3.21,3.28,4.73,4.84c-2.46,2.55-4.72,4.9-7.15,7.41c-4.88-5.1-9.56-9.98-14.24-14.87c-5.67,4.84-11.22,9.58-16.88,14.41
		c0.67,0.86,1.32,1.69,2.05,2.64C381.04,416.25,382.58,415.06,384.36,413.68z M447.32,325.42c6.56,2.37,12.91,4.66,19.4,7
		c2.92-7.94,5.28-15.71,7.17-23.77c-1.23-0.29-2.19-0.52-3.32-0.78c-0.62,2.21-1.2,4.29-1.84,6.59c-2.27-0.55-4.41-1.08-6.65-1.62
		c-0.33,1.18-0.6,2.12-0.88,3.13c2.31,0.72,4.37,1.37,6.53,2.04c-1.03,3.44-1.91,6.7-3.24,9.87c-6.62-2.28-13-4.47-19.31-6.64
		c-2.86,7.01-5.59,13.7-8.39,20.54c0.99,0.46,1.94,0.89,2.99,1.38c0.99-2.05,1.85-3.85,2.75-5.73c2.17,0.93,4.15,1.77,6.24,2.67
		c0.47-1.11,0.86-2.01,1.29-3.01c-2.19-0.97-4.17-1.84-6.25-2.76C444.99,331.33,446.1,328.52,447.32,325.42z M364.09,75.55
		c-1.34,2.1-2.49,3.91-3.67,5.76c-2.87-1.64-5.5-3.14-8.25-4.71c3.24-6.11,6.41-12.07,9.67-18.23c-7.46-3.93-14.79-7.45-22.57-10.43
		c-0.46,1.2-0.82,2.11-1.23,3.18c2.17,0.96,4.2,1.86,6.3,2.79c-0.91,2.21-1.73,4.2-2.59,6.29c1.08,0.48,1.98,0.88,3.02,1.34
		c1.01-2.14,1.93-4.08,2.94-6.23c3.17,1.54,6.15,2.98,9.35,4.53c-3.19,6.24-6.26,12.25-9.35,18.28c6.46,3.78,12.76,7.47,19.17,11.22
		c0.59-0.9,1.16-1.79,1.81-2.78c-1.89-1.25-3.55-2.35-5.29-3.5c1.21-2.06,2.29-3.91,3.45-5.89
		C365.85,76.59,365.06,76.12,364.09,75.55z M443.73,177.18c-1.33-3.03-2.57-5.85-3.86-8.77c6.31-3.03,12.39-5.94,18.58-8.91
		c-3.62-7.62-7.52-14.78-11.92-21.82c-1.07,0.68-1.96,1.24-2.93,1.86c1.21,2.09,2.29,3.96,3.44,5.94c-1.99,1.23-3.87,2.39-5.84,3.61
		c0.65,1.08,1.15,1.91,1.67,2.79c2.13-1.13,4.02-2.13,6.07-3.21c1.66,3.16,3.19,6.09,4.81,9.18c-6.3,3.14-12.33,6.15-18.39,9.17
		c2.97,6.88,5.85,13.58,8.79,20.38c1.03-0.39,2.01-0.75,3.08-1.15c-0.78-2.14-1.45-4.01-2.16-5.96c2.21-0.94,4.18-1.78,6.26-2.67
		c-0.47-1.11-0.84-2-1.26-2.98C447.88,175.51,445.95,176.28,443.73,177.18z M54.27,159.5c6.32,3.03,12.4,5.94,18.61,8.92
		c-1.34,2.99-2.61,5.81-3.93,8.76c-2.17-0.89-4.15-1.7-6.29-2.57c-0.45,1.08-0.83,1.98-1.28,3.05c2.2,0.91,4.19,1.72,6.28,2.58
		c-0.73,2.06-1.4,3.94-2.12,5.98c1.14,0.44,2.11,0.82,3.03,1.18c2.99-6.94,5.86-13.62,8.78-20.41c-6.15-3.06-12.19-6.06-18.41-9.15
		c1.7-3.21,3.25-6.13,4.88-9.2c2.15,1.16,4.04,2.18,6.05,3.27c0.59-1.04,1.08-1.89,1.64-2.87c-2.03-1.23-3.92-2.38-5.86-3.55
		c1.24-2.12,2.32-3.99,3.44-5.91c-0.59-0.41-1.02-0.73-1.48-1c-0.45-0.27-0.93-0.48-1.51-0.77
		C61.73,144.83,57.83,151.96,54.27,159.5z M91.79,369.24c-3.96-6.5-7.75-12.72-11.56-18.97c-6.08,3.25-11.98,6.4-18.05,9.64
		c-1.71-3.15-3.36-6.09-4.62-9.27c2.13-1.09,4.05-2.06,6.06-3.09c-0.55-1.11-0.98-1.98-1.45-2.91c-2.21,0.94-4.18,1.78-6.26,2.68
		c-1-2.2-1.9-4.17-2.83-6.21c-0.87,0.33-1.59,0.59-2.29,0.9c-0.27,0.12-0.5,0.33-0.84,0.57c3.17,7.6,6.72,14.92,10.8,22.19
		c6.13-3.4,12.04-6.68,18.05-10.02c1.68,2.87,3.24,5.53,4.85,8.28c-2.02,1.28-3.83,2.44-5.76,3.67c0.67,1.02,1.2,1.83,1.8,2.73
		c2.05-1.27,3.87-2.39,5.75-3.55c1.28,1.83,2.42,3.47,3.64,5.21C90.06,370.41,90.88,369.85,91.79,369.24z M459.47,262.39
		c7.01-0.25,13.75,0.66,20.63,0.34c0.3-8.32,0.08-16.38-0.61-24.63c-1.24,0.11-2.21,0.2-3.22,0.29c0,2.37,0,4.58,0,6.9
		c-2.28,0.14-4.41,0.26-6.51,0.39c0,1.23,0,2.13,0,3.26c2.33,0,4.54,0,6.76,0c0,3.54,0,6.85,0,10.33
		c-6.9,0.04-13.64-0.39-20.33-0.17c-0.53,7.47-1.04,14.67-1.55,21.97c1.08,0.16,2.05,0.3,3.18,0.47c0.3-2.19,0.58-4.16,0.87-6.28
		c2.27,0.14,4.41,0.28,6.73,0.43c0.11-1.12,0.2-2.07,0.31-3.15c-2.42-0.24-4.57-0.45-6.81-0.68
		C459.11,268.63,459.28,265.62,459.47,262.39z M427.27,365.83c1.95,1.22,3.78,2.36,5.77,3.61c0.62-1,1.14-1.83,1.74-2.79
		c-2-1.28-3.81-2.43-5.74-3.67c1.7-2.85,3.27-5.48,4.9-8.23c6.13,3.39,12.03,6.65,18.05,9.98c4.07-7.43,7.71-14.69,10.81-22.38
		c-1.18-0.49-2.1-0.87-3.14-1.29c-1,2.13-1.95,4.14-2.95,6.27c-2.17-0.96-4.13-1.82-6.22-2.75c-0.5,1.12-0.89,2.01-1.35,3.04
		c2.14,1.06,4.06,2.01,6.15,3.05c-1.62,3.17-3.12,6.12-4.72,9.25c-6.18-3.3-12.14-6.48-18.11-9.67c-3.88,6.37-7.67,12.6-11.56,18.98
		c0.89,0.59,1.76,1.17,2.77,1.84C424.93,369.26,426.06,367.6,427.27,365.83z M462.81,169.28c-1.14,0.48-2.11,0.89-3.15,1.33
		c0.84,2.25,1.62,4.32,2.42,6.45c-2.25,0.92-4.22,1.73-6.32,2.58c0.47,1.18,0.83,2.08,1.21,3.04c2.25-0.78,4.28-1.48,6.49-2.24
		c1.13,3.37,2.18,6.51,3.3,9.85c-6.67,2.09-13.1,4.11-19.59,6.15c1.83,7.22,3.62,14.27,5.46,21.51c1.05-0.24,2.06-0.47,3.16-0.72
		c-0.41-2.2-0.77-4.1-1.16-6.14c2.24-0.57,4.38-1.12,6.66-1.71c-0.3-1.14-0.54-2.01-0.81-3.05c-2.29,0.49-4.39,0.94-6.65,1.42
		c-0.83-3.11-1.63-6.08-2.46-9.22c6.65-1.97,13.11-3.89,19.77-5.86C468.81,184.63,466.08,176.97,462.81,169.28z M145.84,89.34
		c6.49-3.8,12.78-7.48,19.16-11.21c-3.13-6.11-6.2-12.12-9.36-18.29c3.23-1.55,6.22-2.99,9.38-4.52c1.01,2.16,1.92,4.11,2.92,6.24
		c1.09-0.49,1.98-0.9,3.04-1.38c-0.9-2.13-1.73-4.12-2.65-6.31c2.18-0.93,4.21-1.8,6.39-2.73c-0.49-1.16-0.87-2.07-1.34-3.18
		c-7.78,3-15.13,6.48-22.52,10.44c3.26,6.14,6.44,12.1,9.69,18.2c-2.83,1.6-5.52,3.13-8.33,4.73c-1.22-1.98-2.36-3.81-3.58-5.8
		c-1.02,0.62-1.85,1.12-2.81,1.71c1.22,2.03,2.34,3.87,3.52,5.83c-1.84,1.21-3.51,2.32-5.33,3.52
		C144.7,87.62,145.29,88.5,145.84,89.34z M41.59,192.67c6.73,1.99,13.13,3.89,19.75,5.85c-0.83,3.14-1.61,6.11-2.44,9.24
		c-2.27-0.49-4.37-0.94-6.67-1.43c-0.24,1.12-0.44,2.05-0.68,3.11c2.31,0.58,4.38,1.1,6.52,1.63c-0.42,2.2-0.78,4.15-1.17,6.21
		c1.22,0.24,2.19,0.43,3.2,0.62c1.83-7.24,3.6-14.29,5.42-21.49c-6.57-2.06-12.99-4.08-19.59-6.15c1.17-3.44,2.24-6.57,3.35-9.83
		c2.29,0.79,4.32,1.49,6.48,2.24c0.41-1.07,0.77-1.99,1.18-3.05c-2.16-0.9-4.21-1.75-6.36-2.64c0.88-2.26,1.66-4.27,2.49-6.41
		c-1.15-0.45-2.12-0.83-3.23-1.26C46.63,177.03,43.89,184.61,41.59,192.67z M48.1,327.93c-1.07-3.36-2.1-6.58-3.16-9.91
		c2.36-0.75,4.4-1.39,6.57-2.07c-0.36-1.2-0.63-2.12-0.93-3.13c-2.35,0.59-4.42,1.11-6.59,1.65c-0.67-2.35-1.25-4.41-1.87-6.58
		c-1.18,0.28-2.13,0.5-3.3,0.78c1.91,8.15,4.27,15.92,7.17,23.77c6.57-2.38,12.92-4.67,19.4-7.01c1.2,3.08,2.32,5.94,3.49,8.93
		c-2.16,0.94-4.07,1.77-6.2,2.7c0.46,1.08,0.87,2.03,1.28,3c2.21-0.91,4.2-1.72,6.23-2.56c1,2.04,1.88,3.82,2.77,5.63
		c0.7-0.29,1.15-0.44,1.56-0.65c0.46-0.25,0.89-0.56,1.33-0.84c-2.8-6.85-5.55-13.58-8.34-20.39C61,323.48,54.68,325.66,48.1,327.93
		z M47.35,212.09c-2.29-0.52-4.32-0.98-6.56-1.49c0.44-2.3,0.85-4.47,1.29-6.79c-1.16-0.26-2.11-0.48-3.03-0.69
		c-1.54,3.63-4.73,21.1-4.44,24.33c6.64,0.87,13.32,1.75,20.14,2.64c-0.19,1.84-0.36,3.38-0.52,4.92c-0.16,1.51-0.31,3.03-0.46,4.6
		c-2.39-0.13-4.47-0.24-6.75-0.36c-0.09,1.13-0.17,2.08-0.27,3.18c2.41,0.18,4.56,0.35,6.72,0.51c0,2.23,0,4.22,0,6.33
		c1.12,0,2.11,0,3.12,0c0.65-7.32,1.29-14.57,1.93-21.92c-6.8-1-13.47-1.98-20.32-2.98c0.62-3.6,1.18-6.86,1.75-10.23
		c2.41,0.4,4.52,0.76,6.82,1.14C46.98,214.16,47.14,213.27,47.35,212.09z M479.77,273.65c-1.4-0.09-2.43-0.16-3.63-0.25
		c-0.28,2.33-0.54,4.46-0.81,6.76c-2.33-0.2-4.47-0.38-6.78-0.58c-0.13,1.18-0.23,2.14-0.34,3.2c2.34,0.36,4.45,0.68,6.79,1.04
		c-0.56,3.55-1.07,6.83-1.6,10.24c-6.95-1.2-13.59-2.35-20.22-3.49c-1.7,7.32-3.34,14.34-5.03,21.59c1.01,0.28,2.01,0.56,3.13,0.88
		c0.64-2.12,1.22-4.03,1.83-6.05c2.24,0.52,4.34,1.01,6.6,1.54c0.26-1.14,0.47-2.07,0.71-3.12c-2.26-0.59-4.28-1.12-6.52-1.71
		c0.67-3.12,1.32-6.13,2-9.3c6.88,0.99,13.48,2.77,20.55,3.69C477.56,289.86,478.64,281.92,479.77,273.65z M33.24,238.05
		c-0.82,8.36-0.85,16.49-0.61,24.7c7.01,0.31,13.76-0.61,20.63-0.35c0.17,3.27,0.32,6.28,0.49,9.48c-2.34,0.23-4.47,0.44-6.73,0.66
		c0.08,1.16,0.13,2.05,0.21,3.14c2.34-0.14,4.48-0.27,6.8-0.41c0.28,2.11,0.55,4.09,0.85,6.29c1.19-0.19,2.23-0.35,3.2-0.5
		c-0.52-7.41-1.03-14.61-1.54-21.9c-6.84,0-13.58,0-20.3,0c-0.53-2.89-0.38-8.43,0.27-10.29c2.06,0,4.14,0,6.37,0
		c0-1.08,0-2.05,0-3.19c-2.19-0.13-4.26-0.26-6.44-0.39c0-2.37,0-4.58,0-6.89C35.34,238.27,34.36,238.17,33.24,238.05z M59.62,307
		c0.6,2.01,1.18,3.93,1.81,6.06c1.12-0.32,2.12-0.6,3.15-0.89c-1.72-7.34-3.37-14.42-5.05-21.6c-6.81,1.18-13.44,2.33-20.25,3.51
		c-0.53-3.61-1.02-6.88-1.52-10.31c2.43-0.34,4.55-0.64,6.78-0.95c-0.14-1.19-0.24-2.1-0.37-3.21c-2.31,0.18-4.51,0.35-6.78,0.53
		c-0.3-2.4-0.56-4.53-0.84-6.78c-1.2,0.1-2.18,0.19-3.31,0.28c0.54,8.28,1.69,16.26,3.29,24.52c6.82-1.28,13.49-2.53,20.28-3.81
		c0.7,3.27,1.35,6.27,2.01,9.35c-2.36,0.62-4.44,1.17-6.62,1.74c0.3,1.11,0.54,1.99,0.84,3.07C55.27,308.01,57.36,307.53,59.62,307z
		 M478.42,227.44c-1.08-8.41-2.5-16.34-4.52-24.4c-1.25,0.31-2.26,0.57-3.34,0.84c0.5,2.32,0.96,4.43,1.44,6.68
		c-2.29,0.53-4.38,1.02-6.69,1.55c0.25,1.11,0.46,2.05,0.7,3.16c2.31-0.39,4.43-0.74,6.68-1.12c0.66,3.48,1.42,6.77,1.64,10.26
		c-6.91,1.01-13.51,1.98-20.17,2.96c0.67,7.4,1.32,14.59,1.99,22c1.05-0.05,2.08-0.09,3.17-0.14c0-2.22,0-4.15,0-6.28
		c2.2-0.18,4.33-0.35,6.6-0.53c-0.05-1.15-0.1-2.05-0.15-3.18c-2.4,0.12-4.6,0.23-6.84,0.34c-0.34-3.29-0.64-6.29-0.97-9.47
		c3.47-0.47,6.77-0.94,10.07-1.37C471.41,228.31,474.8,227.9,478.42,227.44z M240.69,20.09c-0.78,0.04-1.24,0.02-1.68,0.1
		c-8.58,1.52-15.92,8.93-17.21,17.61c-0.41,2.76-0.36,5.59-0.42,8.39c-0.07,3.11-0.02,6.22-0.02,9.48c-3.17,0.64-6.19,1.25-9.42,1.9
		c-0.53-2.23-1.03-4.32-1.59-6.63c-1.09,0.25-2.04,0.47-3.18,0.74c0.52,2.28,1.01,4.37,1.53,6.64c-1.11,0.29-2.08,0.51-3.04,0.79
		c-1.02,0.29-2.03,0.63-3.14,0.99c0.34,1.16,0.62,2.11,0.91,3.06c7.23-1.57,14.26-3.09,21.47-4.65c0-1,0-1.93,0-2.85
		c0.03-5.07-0.14-10.15,0.14-15.2c0.43-7.78,5.73-14.2,13.18-16.45c0.59-0.18,1.18-0.35,1.82-0.54
		C240.24,22.4,240.43,21.42,240.69,20.09z M291.27,55.65c0-1.05,0-1.9,0-2.75c0-3.98,0.08-7.97-0.03-11.94
		c-0.28-9.95-7.11-18.28-16.75-20.57c-0.73-0.17-1.48-0.22-2.41-0.35c0.12,0.8,0.26,1.32,0.26,1.84c0.01,1.2,0.58,1.71,1.75,2.06
		c8.61,2.58,13.7,9.47,13.73,18.46c0.01,4.61,0.01,9.21,0.01,13.82c0,0.76,0,1.53,0,2.27c7.25,1.58,14.3,3.11,21.46,4.67
		c0.28-1.05,0.52-2,0.82-3.14c-2.09-0.61-4-1.17-6.05-1.77c0.48-2.24,0.92-4.34,1.4-6.61c-1.16-0.25-2.1-0.44-3.14-0.66
		c-0.57,2.34-1.07,4.43-1.59,6.59C297.54,56.92,294.57,56.32,291.27,55.65z M141.53,448.01c7.17,4.32,14.38,8.11,21.78,11.42
		c2.38-2.25,0.46-3.98-0.85-6.17c-0.2,0.59-0.39,1.18-0.56,1.67c-3.44-1.79-6.5-3.09-9.33-4.85c1.09-2.13,2.06-4.03,3.1-6.08
		c-1.13-0.58-1.99-1.02-2.92-1.49c-1.21,2.07-2.29,3.92-3.43,5.88c-2.09-1.17-3.97-2.23-5.98-3.36
		C142.72,446.05,142.17,446.95,141.53,448.01z M371.17,448.03c-0.68-1.13-1.22-2.03-1.8-3c-2.08,1.18-3.96,2.24-5.97,3.37
		c-1.21-2.05-2.33-3.95-3.5-5.94c-1.09,0.64-1.94,1.13-2.83,1.65c1.09,2.13,2.06,4.03,3.12,6.1c-3.19,1.6-6.15,3.08-9.09,4.55
		c-0.29-0.36-0.43-0.55-0.59-0.72c-0.19-0.2-0.41-0.37-0.64-0.57c-2.04,3.79-2.04,3.79-0.44,5.96
		C356.78,456.12,363.92,452.36,371.17,448.03z"/>
	<path d="M327.24,426.28c-5.62,0-11.24-0.02-16.86,0.02c-1.07,0.01-2.17,0.19-3.2,0.48c-1.48,0.42-2.88,0.44-4.37,0.01
		c-1.1-0.32-2.28-0.49-3.43-0.5c-28.65-0.03-57.3-0.03-85.94,0c-1.3,0-2.59,0.44-3.89,0.54c-1.22,0.1-2.46,0.09-3.67,0
		c-1.46-0.11-2.91-0.53-4.36-0.54c-10.93-0.05-21.86-0.04-32.78-0.01c-1.37,0-2.56-0.26-3.78-0.94
		c-50.69-28.3-82.92-70.67-96.55-127.06c-4.13-17.08-5.5-34.48-4.53-52.05c2.49-45.2,18.66-84.85,48.73-118.64
		c26.64-29.95,59.67-49.57,98.6-59.15c18.24-4.49,36.79-6.17,55.51-5.05c46.19,2.75,86.51,19.71,120.53,51.09
		c28.97,26.72,47.86,59.49,56.91,97.84c4.42,18.73,5.88,37.75,4.42,56.95c-3.4,44.78-20.31,83.76-50.49,116.97
		c-14.41,15.85-31.2,28.71-49.99,38.97c-1.34,0.73-2.68,1.1-4.22,1.08C338.33,426.24,332.78,426.28,327.24,426.28
		C327.24,426.28,327.24,426.28,327.24,426.28z M302.92,375.07c2.47-0.14,5.19,0.14,7.68,1.4c1.19,0.6,2.11,0.5,3.28-0.02
		c4.21-1.88,8.49-1.9,12.68,0.03c1.2,0.56,2.11,0.47,3.28-0.04c4.3-1.87,8.65-1.91,12.9,0.14c1.04,0.5,1.86,0.4,2.85-0.05
		c4.37-1.98,8.77-1.95,13.14,0.02c0.91,0.41,1.66,0.54,2.63,0.09c4.5-2.13,9.05-2.09,13.56,0.02c0.86,0.4,1.57,0.4,2.42-0.01
		c4.42-2.13,8.9-2.1,13.33-0.07c1.03,0.47,1.86,0.46,2.85-0.03c2.27-1.15,4.74-1.71,7.25-1.38c1.74,0.23,2.7-0.4,3.71-1.69
		c13.43-16.99,23.71-35.7,30.78-56.16c6.54-18.93,9.99-38.44,10.28-58.46c0.09-6.38-0.36-12.78-0.73-19.16
		c-0.5-8.81-1.96-17.5-3.97-26.08c-9.78-41.57-31-76.21-63.84-103.46C343.69,82.5,305.1,68.3,261.88,66.67
		c-8.27-0.31-16.54,0.08-24.77,0.93c-11.73,1.21-23.28,3.41-34.57,6.83c-42.03,12.76-75.81,37.07-101.15,72.9
		c-20.73,29.31-31.83,62.11-33.99,97.9c-0.78,12.95-0.14,25.88,1.82,38.73c2.96,19.33,8.71,37.79,17.35,55.34
		c6.05,12.3,13.37,23.79,21.9,34.52c0.78,0.98,1.55,1.58,2.92,1.38c2.78-0.4,5.45,0.16,7.94,1.4c0.93,0.46,1.69,0.44,2.63,0.01
		c4.43-2.03,8.9-2.09,13.34,0c0.83,0.39,1.52,0.51,2.41,0.09c4.57-2.17,9.19-2.16,13.78-0.02c0.77,0.36,1.4,0.38,2.19,0.01
		c4.58-2.15,9.2-2.15,13.79,0.01c0.77,0.36,1.41,0.41,2.2,0.02c4.58-2.22,9.19-2.16,13.77-0.02c0.78,0.37,1.42,0.38,2.2,0.01
		c4.58-2.19,9.17-2.14,13.79-0.05c0.56,0.25,1.41,0.33,1.94,0.08c2.75-1.28,5.61-1.82,8.41-1.65c0.91-1.12,1.7-2.09,2.4-2.95
		c-1.45-0.91-3.11-1.8-4.58-2.92c-1.71-1.31-2.43-3.16-2.25-5.37c0.33-4,2.63-6.97,6.57-8.22c0.89-0.28,1.74-0.39,2.29-1.38
		c1.05-1.88,2.87-2.51,4.94-2.58c2.68-0.09,5.01,0.86,7.26,2.47c1.03-1.31,2.02-2.57,3.07-3.9c-2.39-0.55-3.4-1.45-3.37-2.86
		c0.03-1.11,0.98-2.34,2.12-2.49c0.58-0.08,1.41-0.06,1.76,0.29c0.76,0.76,1.28,1.77,1.96,2.76c5.74-5.17,12.63-8.18,20.48-9.23
		c-2.02-2.91-1.55-4.34,1.65-5.49c-0.49-1.38-0.61-2.75,0.76-3.74c0.9-0.65,1.85-0.73,2.85-0.14c1.63,0.96,1.27,2.48,1.03,4
		c1.25,0.25,2.54,0.66,2.68,1.95c0.12,1.08-0.37,2.23-0.63,3.52c7.59,0.93,14.4,4.12,20.34,9.37c0.59-2.55,1.39-3.41,2.93-3.35
		c1.31,0.05,2.36,1.05,2.49,2.35c0.15,1.57-0.66,2.42-3.19,3.18c0.99,1.26,1.94,2.46,2.84,3.61c1.5-0.66,2.87-1.41,4.33-1.87
		c2.22-0.69,4.8-1.05,6.45,0.66c1.86,1.92,4.03,2.97,6.31,4.04c0.55,0.26,1.02,0.72,1.47,1.15c4.19,4.07,3.57,9.63-1.41,12.61
		c-0.97,0.58-2.01,1.05-2.83,1.48C301.28,373.03,302.03,373.97,302.92,375.07z M274.7,352.68c-4.71-3.71-9.71-5.89-15.63-6.38
		c0.01,2.66,0.33,5.03,1.21,7.28c0.43,1.09,0.42,2.04,0.1,3.15c-0.7,2.45-1.4,4.92-1.17,7.52c1,0.4,1.92,0.77,3.06,1.22
		c1.3-1.92,2.68-3.72,3.78-5.66c0.76-1.34,1.62-2.32,3.08-2.96C271.19,355.93,273.02,354.6,274.7,352.68z M253.6,346.26
		c-5.95,0.61-10.99,2.71-15.57,6.42c1.71,2.02,3.69,3.36,5.89,4.33c1.15,0.51,1.85,1.27,2.44,2.34c1.19,2.18,2.48,4.3,4.33,6.05
		c1-0.42,1.92-0.81,2.96-1.24c-0.11-2.63-0.62-5.13-1.38-7.58c-0.31-1.01-0.29-1.91,0.1-2.91
		C253.23,351.4,253.68,349.05,253.6,346.26z M265.8,369.06c0.56,1.27,0.96,2.18,1.42,3.22c1.52-0.11,2.91-0.29,4.22-1.13
		c3.41-2.18,6.09-5.05,8.2-8.49c1.67-2.72,1.71-2.7-0.35-5.21c-0.19-0.23-0.42-0.41-0.72-0.7c-1.94,1.64-3.27,3.62-4.25,5.82
		c-0.51,1.15-1.29,1.82-2.33,2.44C269.93,366.25,267.96,367.64,265.8,369.06z M231.57,360.05c3,5.54,5.73,8.6,9.74,11.13
		c1.3,0.82,2.64,1.24,4.24,1c0.4-0.96,0.79-1.87,1.29-3.07c-1.89-1.28-3.69-2.63-5.61-3.77c-1.38-0.82-2.43-1.72-3.12-3.25
		c-0.91-2.02-2.19-3.87-4.13-5.42C233.13,357.87,232.37,358.93,231.57,360.05z M260.75,375.29c0.19-1.8-0.51-3.23-2.11-4.18
		c-1.52-0.91-3.12-0.9-4.64,0.03c-1.58,0.97-2.24,2.4-2.14,4.15C254.85,375.29,257.62,375.29,260.75,375.29z M292.65,371.03
		c1.13-0.75,2.01-1.65,3.31-1.13c0.96,0.39,1.63,0.1,2.19-0.71c0.6-0.87,0.53-1.72,0.02-2.61c-1.29-2.23-3.52-2.73-6.59-1.34
		C291.93,367.08,292.27,368.96,292.65,371.03z M221.19,364.96c-1.18-0.19-2.29-0.54-3.39-0.5c-1.7,0.06-2.89,1.07-3.48,2.65
		c-0.52,1.39,0.4,2.98,1.67,2.96c0.68-0.01,1.39-0.31,2.03-0.19c0.69,0.14,1.31,0.62,2.06,1
		C220.44,368.9,220.78,367.1,221.19,364.96z M284.55,369.06c-1.43,0.89-2.63,1.63-3.82,2.38c1.5,0.44,2.82,1.23,4.39,0.5
		C284.94,371.01,284.77,370.14,284.55,369.06z M228.02,369.03c-0.15,1.28-0.26,2.16-0.4,3.35c1.63-0.18,2.94-0.33,4.61-0.52
		c-0.49-0.46-0.68-0.7-0.92-0.85C230.33,370.4,229.34,369.82,228.02,369.03z M256.3,337.13c-0.33,0.47-0.57,0.81-0.92,1.32
		c0.7,0,1.19,0,1.92,0C256.9,337.93,256.65,337.59,256.3,337.13z M218.45,375.03c0.51,0.28,0.87,0.47,1.35,0.74
		c0-0.68,0-1.16,0-1.89C219.26,374.34,218.92,374.63,218.45,375.03z M294.25,375.03c-0.47-0.34-0.85-0.62-1.54-1.11
		c0.13,0.84,0.2,1.3,0.31,1.94C293.52,375.52,293.81,375.32,294.25,375.03z"/>
	<path d="M256.22,428.13c2.12,1.11,4.08,2.2,6.09,3.19c2.65,1.31,5.44,2.38,7.99,3.86c2.2,1.28,4.37,2.78,6.16,4.58
		c4.28,4.29,5.42,9.51,3.6,15.3c-1.15,3.66-3.29,6.69-6.25,9.13c-2.36,1.95-4.97,3-8.14,2.93c-6.47-0.14-12.94-0.08-19.42-0.02
		c-1.95,0.02-3.71-0.46-5.32-1.49c-5.38-3.46-8.63-8.35-9.09-14.75c-0.3-4.12,1.22-7.79,4.08-10.86c2.71-2.92,6.1-4.81,9.63-6.5
		c2.18-1.04,4.43-1.93,6.59-3C253.6,429.78,254.96,428.87,256.22,428.13z"/>
	<path d="M256.37,506.6c-1.87-1-3.69-2.04-5.56-2.97c-2.93-1.45-6.02-2.63-8.81-4.3c-2.31-1.38-4.57-3.06-6.37-5.04
		c-3.96-4.36-4.66-9.54-2.74-15.06c1.21-3.47,3.33-6.33,6.17-8.65c2.31-1.89,4.88-2.91,7.95-2.86c6.23,0.1,12.47,0.09,18.71,0
		c2.88-0.04,5.36,0.84,7.57,2.58c3.89,3.06,6.48,6.98,7.31,11.87c0.88,5.23-0.83,9.69-4.6,13.36c-2.55,2.48-5.6,4.21-8.79,5.7
		c-1.84,0.86-3.73,1.6-5.54,2.49C259.87,504.63,258.13,505.64,256.37,506.6z"/>
	<path d="M370.71,474.71c1.87,1.01,3.64,1.98,5.42,2.93c4.32,2.33,7.28,5.78,8.76,10.49c0.54,1.71,1.2,3.38,1.84,5.05
		c1.51,3.94,3.44,7.54,8.08,9.42c-1.14,0.65-1.88,1.16-2.69,1.53c-7.16,3.34-14.49,3.27-21.9,0.96c-4.46-1.39-8.45-3.6-11.73-7
		c-2.98-3.1-4.64-6.76-4.89-11.09c-0.11-2.01-0.31-4.06-0.84-6c-1.33-4.9-4.48-8.48-8.74-11.15c-0.85-0.53-1.71-1.05-3.1-1.9
		c1.15-0.21,1.77-0.35,2.39-0.43c6.28-0.83,12.45-2.14,18.29-4.68c3.5-1.52,4.78-2.59,6.76-5.44c2.96,2.02,3.15,4.84,0.57,9.54
		C370.99,469.14,371.56,471.76,370.71,474.71z"/>
	<path d="M118.28,502.52c4.71-2.05,6.59-6.22,8.18-10.6c0.74-2.05,1.5-4.1,2.32-6.12c1.15-2.83,3.03-5.1,5.62-6.72
		c2.44-1.52,4.95-2.93,7.58-4.48c-0.73-2.76-0.35-5.43,1.75-7.58c-2.44-4.86-2.32-7.2,0.55-9.7c2.66,4.55,7.3,6.08,11.92,7.37
		c4.41,1.23,8.97,1.94,13.47,2.88c0.5,0.11,1,0.23,1.95,0.44c-0.99,0.64-1.61,1.07-2.26,1.45c-6.77,3.96-10.22,9.84-10.33,17.69
		c-0.06,4.19-1.77,7.71-4.6,10.71c-4.7,4.98-10.68,7.44-17.31,8.51c-4.55,0.74-9.04,0.46-13.41-0.98c-1.83-0.6-3.56-1.51-5.34-2.28
		C118.34,502.9,118.31,502.71,118.28,502.52z"/>
	<path d="M238.25,468c-0.74,0.58-1.14,0.91-1.55,1.21c-4.26,3.14-6.47,7.49-7.37,12.58c-0.28,1.61-0.44,3.25-0.44,4.88
		c0,3.14-1.12,5.82-3.25,8.02c-1.35,1.39-2.85,2.66-4.43,3.78c-1.77,1.26-3.71,2.29-5.57,3.43c-2.57,1.58-5.14,3.17-7.71,4.75
		c-1.72-1.54-3.52-3.26-5.43-4.84c-8.4-6.92-9.51-19.35-0.61-27.98c1.71-1.66,3.76-3.02,5.77-4.34c1.99-1.31,4.25-1.79,6.67-1.77
		c7.32,0.07,14.65,0.02,21.97,0.03C236.8,467.77,237.31,467.88,238.25,468z"/>
	<path d="M275.03,467.63c1.79,0,3.57-0.01,5.36,0c6.24,0.04,12.49,0.03,18.73,0.17c1.44,0.03,2.98,0.33,4.29,0.91
		c5.16,2.29,9.14,5.93,11.71,10.99c3.63,7.14,1.94,15.82-4.12,21.39c-2.06,1.9-4.18,3.73-6.43,5.72c-3.26-2.97-7.5-4.64-11.25-7.1
		c-1.82-1.19-3.58-2.51-5.22-3.94c-2.91-2.55-4.4-5.79-4.37-9.71c0.02-2.75-0.43-5.43-1.35-8.03c-1.26-3.55-3.28-6.53-6.34-8.77
		c-0.41-0.3-0.8-0.65-1.2-0.97C274.91,468.06,274.97,467.85,275.03,467.63z"/>
	<path d="M274.26,467.07c0.8-0.67,1.11-0.97,1.46-1.23c5.04-3.64,7.28-8.78,7.92-14.78c0.07-0.7,0.12-1.4,0.1-2.1
		c-0.12-4.5,1.8-8.08,5.28-10.7c2.85-2.15,5.99-3.93,9.01-5.86c2.22-1.41,4.45-2.8,6.75-4.24c2.18,1.99,4.62,4.04,6.87,6.3
		c6.25,6.25,7.09,15.58,2.17,22.94c-1.89,2.83-4.31,5.12-7.14,7c-2.73,1.8-5.62,2.81-9,2.72c-6.86-0.17-13.74-0.05-20.61-0.05
		C276.33,467.07,275.58,467.07,274.26,467.07z"/>
	<path d="M237.78,467.07c-0.68,0-1.35,0-2.03,0c-7.33,0-14.67,0.02-22-0.02c-1.15-0.01-2.38-0.1-3.43-0.51
		c-6.14-2.44-10.87-6.55-13.28-12.75c-2.69-6.91-1.46-13.33,3.58-18.89c0.99-1.09,2.15-2.03,3.24-3.03
		c1.37-1.27,2.75-2.52,3.99-3.66c3.7,2.22,7.47,4.35,11.11,6.7c2.21,1.43,4.36,3.03,6.28,4.83c2.42,2.26,3.55,5.15,3.69,8.56
		c0.12,2.77,0.62,5.58,1.34,8.26c1,3.71,3.28,6.69,6.35,9.02c0.43,0.33,0.85,0.66,1.28,0.99
		C237.87,466.74,237.82,466.9,237.78,467.07z"/>
	<path d="M340.09,506.64c-3-1.82-5.96-3.52-8.83-5.37c-2.62-1.68-5.27-3.35-7.67-5.32c-2.89-2.37-4.48-5.5-4.54-9.37
		c-0.12-7.8-3.83-13.47-10.54-17.29c-0.53-0.3-1.01-0.66-1.89-1.24c0.78-0.15,1.18-0.29,1.58-0.29c8.35-0.01,16.69-0.03,25.04,0.02
		c1.14,0.01,2.36,0.22,3.41,0.67c5.6,2.35,10.04,6.12,12.5,11.72c3.34,7.62,1.75,14.67-3.47,20.92
		C343.95,503.17,341.84,504.92,340.09,506.64z"/>
	<path d="M172.59,506.7c-1.69-1.68-3.65-3.37-5.32-5.31c-5.37-6.25-7.13-13.32-3.79-21.07c2.45-5.69,6.95-9.51,12.63-11.89
		c0.91-0.38,1.96-0.63,2.95-0.63c8.58-0.05,17.16-0.03,25.74-0.02c0.27,0,0.55,0.12,1.22,0.28c-0.91,0.6-1.51,1.03-2.15,1.41
		c-6.54,3.89-10.16,9.5-10.21,17.24c-0.02,3.86-1.71,7.03-4.64,9.32c-3,2.34-6.31,4.28-9.51,6.35
		C177.3,503.81,175.04,505.17,172.59,506.7z"/>
	<path d="M256.52,9.33c0.44,0.37,1.03,0.75,1.49,1.25c3.83,4.08,6.98,8.6,8.31,14.13c0.99,4.09-0.73,8.18-4.24,10.59
		c-3.31,2.27-7.86,2.34-11.25,0.16c-3.52-2.27-5.52-6.48-4.53-10.49c1.52-6.13,4.9-11.22,9.59-15.43
		C256,9.43,256.19,9.43,256.52,9.33z"/>
	<path d="M243.35,31.75c1.02,1,1.96,1.81,2.77,2.73c3.22,3.67,5.83,7.71,7.13,12.47c1.13,4.14-0.47,8.45-3.96,10.92
		c-3.47,2.46-8.11,2.51-11.64,0.13c-3.64-2.46-5.36-6.8-4.16-11.04C235.18,40.96,238.64,36.07,243.35,31.75z"/>
	<path d="M269.3,31.81c4.77,4.18,8.05,9.03,9.84,14.81c1.31,4.25-0.26,8.6-3.81,11.17c-3.48,2.52-8.02,2.63-11.62,0.27
		c-3.62-2.37-5.48-6.78-4.3-11C261.11,41.07,264.55,36.13,269.3,31.81z"/>
	<path d="M293.89,431.28c-4.36,3.2-9.1,5.6-12,10.54c-2.57-4.71-6.62-7.45-10.88-10.2c1.27-1.78,3.1-2.18,4.9-2.15
		c1.59,0.03,2.94-0.1,4.35-1.01c1.61-1.04,3.52-0.92,5.06,0.24c1.12,0.85,2.14,0.91,3.45,0.69
		C290.66,429.09,292.5,429.26,293.89,431.28z"/>
	<path d="M241.81,431.5c-4.25,2.85-8.39,5.53-10.98,10.34c-2.9-4.95-7.71-7.38-11.95-10.55c1.21-1.99,3-2.17,4.78-1.93
		c1.44,0.19,2.61,0.25,3.9-0.73c1.53-1.17,3.45-1.12,5.07-0.07c1.26,0.81,2.46,0.98,3.91,0.91
		C238.39,429.37,240.17,429.9,241.81,431.5z"/>
	<path d="M241.85,503.3c-1.93,1.77-3.85,2.25-5.92,2.09c-1.04-0.08-1.87-0.05-2.79,0.6c-1.98,1.38-4.13,1.38-6.1-0.06
		c-0.84-0.61-1.55-0.69-2.55-0.57c-1.98,0.25-4.08,0.51-5.64-1.77c4.18-3.2,9.05-5.57,11.95-10.54
		C233.44,497.74,237.47,500.52,241.85,503.3z"/>
	<path d="M271.06,503.21c4.09-2.71,8.21-5.39,10.81-10.21c2.93,4.97,7.72,7.39,11.97,10.52c-1.04,1.89-2.65,2.09-4.29,1.95
		c-1.69-0.14-3.18-0.16-4.76,0.91c-1.63,1.11-3.62,0.79-5.26-0.4c-0.82-0.59-1.55-0.74-2.55-0.62
		C274.5,505.68,272.58,504.92,271.06,503.21z"/>
	<path d="M310.59,430.06c2.33-1.67,4.42-1.48,6.47-0.67c3.59-2.08,4.13-2.06,6.9,0.18c4.16-0.64,4.25-0.62,6,1.43
		c-4.24,2.93-8.93,5.4-11.5,10.42C317.56,436.41,314.11,433.34,310.59,430.06z"/>
	<path d="M182.76,430.94c1.13-1.73,2.59-2.07,4.2-1.65c1.14,0.3,1.99,0.35,2.92-0.59c1.11-1.12,2.67-1.2,3.88-0.33
		c1.31,0.95,2.49,0.82,3.9,0.49c1.47-0.34,2.89,0.03,4.4,1.2c-3.39,3.27-6.92,6.3-7.53,11.29c-1.91-2.09-3.47-4.11-5.36-5.78
		C187.26,433.89,185.04,432.56,182.76,430.94z"/>
	<path d="M194.52,493.36c0.58,5.17,4.21,8.13,7.47,11.39c-1.73,1.58-3.57,1.44-5.41,1.02c-0.73-0.17-1.26-0.19-1.95,0.21
		c-2.61,1.49-3.44,1.36-5.87-0.76c-1.99,0.28-4.2,1.2-6.05-1.21c0.58-0.46,1.07-0.89,1.6-1.27c1.83-1.32,3.8-2.46,5.46-3.97
		C191.42,497.27,192.74,495.42,194.52,493.36z"/>
	<path d="M329.99,503.83c-1.62,2.56-3.8,1.75-6.03,1.36c-0.33,0.3-0.7,0.68-1.12,1c-1.08,0.83-2.42,1.13-3.5,0.43
		c-1.5-0.97-2.92-0.97-4.57-0.68c-1.37,0.24-2.79,0.07-4.03-1.23c3.26-3.23,6.85-6.22,7.46-11.59c1.33,1.74,2.23,3.16,3.38,4.34
		c1.24,1.27,2.67,2.37,4.09,3.45C327.02,501.94,328.48,502.82,329.99,503.83z"/>
	<path d="M150.09,503.98c2.07-1.68,4.09-3.06,5.77-4.76c1.62-1.64,2.88-3.63,4.41-5.6c0.55,1.37,0.95,2.83,1.69,4.1
		c0.78,1.33,1.83,2.52,2.85,3.69c1.01,1.17,2.12,2.24,3.26,3.44c-1.18,1.33-2.71,1.38-4.23,0.96c-0.92-0.25-1.57-0.18-2.37,0.33
		c-1.74,1.1-3.55,1.26-5.1-0.38c-0.79-0.84-1.59-0.36-2.39-0.22C152.39,505.82,151.07,505.53,150.09,503.98z"/>
	<path d="M344.43,504.74c3.45-3.26,7.05-6.2,7.8-11.34c1.7,2.18,3,4.19,4.65,5.87c1.68,1.7,3.69,3.07,5.64,4.65
		c-1.29,2.55-3.48,1.6-5.54,1.3c-1.83,2.07-3.9,2.24-6.21,0.71c-0.42-0.27-1.15-0.21-1.7-0.1
		C347.48,506.13,345.99,506.18,344.43,504.74z"/>
	<path d="M348.73,208.37c0-6.1,0-12.01,0-18.05c-1.55,0.16-2.27,0.9-2.38,2.25c-0.04,0.47-0.03,0.94-0.03,1.4
		c0,19.83,0,39.66,0,59.48c0,0.46,0,0.93,0,1.51c2.24,1.33,4.22,2.94,5.56,5.2c1.3,2.18,2.03,4.54,2.08,7.37
		c3.28,0.17,6.54,0.06,9.79,0.08c3.2,0.02,6.4,0,9.6,0c3.26,0,6.52,0,9.91,0c0.05,1.05,0.11,1.81,0.11,2.57
		c0.01,6.79-0.03,13.58,0.02,20.37c0.03,3.52-1.08,6.61-3.34,9.25c-3.74,4.39-8.45,6.69-14.33,6.67c-16.86-0.06-33.72,0-50.58,0.01
		c-0.92,0-1.84,0-3.02,0c0.08-1.14,0.03-2.06,0.22-2.94c1.33-6.16,7.09-11.06,13.38-11.18c6.71-0.12,13.42-0.03,20.08-0.03
		c0.55,0.63,0.95,1.38,1.57,1.7c0.65,0.34,1.51,0.34,2.28,0.35c4.06,0.03,8.12,0.02,12.18,0.01c0.61,0,1.23-0.09,1.98-0.14
		c0-1.84,0-3.58,0-5.55c-30.81,0-61.46,0-92.05,0c-0.5-1.89-0.66-62.08-0.2-65.68c13.35,0,26.73,0,40.36,0
		c0.05-1.16,0.11-2.07,0.11-2.99c0-12.33,0.03-24.67-0.02-37c-0.02-4.09,1.12-7.67,3.96-10.67c2.83-3,6.37-4.58,10.42-4.6
		c17.02-0.08,34.03-0.03,51.05-0.02c0.23,0,0.46,0.06,0.94,0.14c0.06,0.62,0.19,1.28,0.19,1.94c0.01,21,0.01,42,0.02,63
		c0,0.97-0.26,1.63-1,2.41c-1.24,1.31-2.09,3-3.28,4.8c-1.94,0-4.31,0-7.2,0c2.43-1.97,3.62-4.11,3.22-6.9
		c-0.22-1.54-0.95-2.8-2.1-3.81c-2.45-2.15-6.15-2.08-8.55,0.12c-2.94,2.69-2.72,5.9,0.83,10.56c-1.77,0-3.43,0-5.43,0
		c-0.07-4.4-0.02-8.74-0.03-13.14c0.89-0.2,1.64-0.36,2.38-0.54c3.46-0.82,5.04-3.17,4.55-6.73c-0.69-4.99-5.06-9.56-10.22-10.68
		C350.85,208.73,349.92,208.59,348.73,208.37z M291.23,270.48c9.86-13.02,9.66-34.03,0-46.62
		C291.23,239.41,291.23,254.79,291.23,270.48z M372.76,303.31c0.13,0.1,0.27,0.2,0.4,0.3c4.28-2.97,7.35-6.78,7.45-12.3
		c0.13-6.62,0.04-13.25,0.02-19.87c0-0.51-0.14-1.02-0.22-1.54c-0.45-0.04-0.76-0.09-1.07-0.09c-7.95-0.01-15.9-0.01-23.85-0.01
		c-0.31,0-0.62-0.01-0.93,0.02c-1.06,0.09-1.25,0.67-0.88,1.83c8.21,0,16.43,0,24.68,0c0.09,0.55,0.19,0.85,0.19,1.14
		c0.01,6.08,0.05,12.16-0.01,18.24c-0.03,3.43-0.97,6.63-3.13,9.36C374.62,301.42,373.65,302.34,372.76,303.31z M368.92,182.87
		c-2.83,4.92-3.08,9.64,0.07,14.36C373.88,194.5,374.36,186.33,368.92,182.87z M322.65,302.56c1.31-3.61,3.91-6.08,7.37-7.72
		c-4.73,0.46-8.4,3.45-9.58,7.72C321.14,302.56,321.82,302.56,322.65,302.56z M317.06,302.57c1.23-1.7,2.17-3.35,3.46-4.65
		c1.22-1.24,2.81-2.12,4.31-3.21c-4.86,0.69-8.48,3.67-9.55,7.86C315.98,302.57,316.66,302.57,317.06,302.57z M373.25,185.11
		c2.32,5.51,2.32,5.51-0.36,10.36C377.32,192.41,377.48,187.78,373.25,185.11z M372.43,234.08c0.8,0.08,1.41,0.15,2.01,0.21
		c0.78,0.08,1.48-0.18,1.62-0.96c0.09-0.52-0.06-1.38-0.41-1.62c-0.49-0.32-1.35-0.41-1.91-0.21
		C372.69,231.88,372.36,232.86,372.43,234.08z"/>
	<path d="M170.89,235.08c-0.97,0.89-1.97,1.69-2.84,2.62c-2.53,2.71-4.35,5.87-5.73,9.31c-2.45,6.08-6.58,8.87-13.17,8.87
		c-15.22,0.01-30.44-0.03-45.66,0c-4.08,0.01-7.71-0.97-10.63-3.97c-2.27-2.33-3.66-5.11-3.71-8.35c-0.1-6.55-0.03-13.11-0.01-19.67
		c0-0.22,0.11-0.44,0.21-0.8c50.59,0,101.19,0,151.94,0c0,21.83,0,43.55,0,65.41c-0.69,0.06-1.29,0.16-1.89,0.16
		c-5.39,0.01-10.77-0.02-16.15,0.03c-1.16,0.01-2.06-0.34-2.98-1.04c-9.82-7.47-22.28-7.49-32.09-0.03
		c-1.01,0.76-1.98,1.07-3.2,1.07c-30.36-0.02-60.72-0.01-91.08-0.02c-0.69,0-1.37-0.08-2.26-0.13c0.18-4.58,1.87-8.25,5.33-11.04
		c2.71-2.18,5.84-3.14,9.34-3.13c11.55,0.04,23.1,0.02,34.65,0.02c0.55,0,1.09-0.02,1.64,0c1.98,0.09,3.6-0.37,4.05-2.81
		c6.85,0,13.61,0,20.6,0c0.05-1.05,0.12-1.88,0.12-2.7c0.01-6.71,0.07-13.42-0.02-20.14c-0.06-4.66,0.84-8.98,3.6-12.82
		c0.09-0.12,0.14-0.28,0.18-0.43C171.15,235.44,171.07,235.37,170.89,235.08z M112.52,242.43c0.19,0.04,0.27,0.08,0.34,0.06
		c0.05-0.01,0.11-0.11,0.11-0.16c-0.02-2.23-0.52-4.34-1.88-6.14c-2.8-3.71-7.78-5.19-12.17-3.67c-4.45,1.55-7.5,5.97-7.34,10.63
		c0.16,4.72,3.45,8.99,7.98,10.13c1.49,0.37,3.09,0.48,4.63,0.48c14.67,0.03,29.35,0.02,44.02,0.02c0.62,0,1.25,0.03,1.87-0.03
		c3.14-0.27,5.69-1.56,7.33-4.34c0.27-0.46,0.54-0.98,0.62-1.49c0.05-0.28-0.22-0.78-0.48-0.91c-0.27-0.13-0.83-0.05-1.03,0.16
		c-0.36,0.38-0.53,0.94-0.83,1.39c-1.47,2.28-3.62,3.52-6.29,3.33c-2.86-0.2-4.95-1.74-6.06-4.47c-0.2-0.5-0.31-1.05-0.55-1.53
		c-0.6-1.2-1.17-1.26-2.07-0.25c-1.55,1.74-2.12,1.67-3.29-0.57c1.35,0.81,2.2,0.32,3.1-0.67c1.7-1.84,2.27-1.7,3.65,0.49
		c0.33,0.52,0.68,1.06,1.14,1.46c1.06,0.91,2.83,0.82,3.87-0.11c1.13-1,1.33-2.82,0.46-4.04c-0.9-1.26-2.04-1.49-3.62-0.69
		c0.45,0.34,0.94,0.6,1.27,1c0.73,0.88,0.3,2.14-0.79,2.39c-1.01,0.23-1.64-0.3-2-1.19c-0.72-1.8,0.16-4.14,1.97-4.98
		c1.51-0.71,3.1-0.91,4.78-0.51c2.45,0.59,4.03,2.16,5.33,4.81c0.05-0.99,0.13-1.43,0.09-1.86c-0.42-4.13-2.66-6.93-6.45-8.44
		c-3.97-1.59-7.66-0.9-10.96,1.77c-2.82,2.27-3.74,5.41-4.06,8.88c-0.15,1.6-0.54,3.25-1.2,4.7c-1.17,2.59-3.48,3.87-6.22,3.82
		c-2.83-0.06-5.06-1.47-6.24-4.19c-0.22-0.5-0.33-1.04-0.53-1.54c-0.62-1.51-1.25-1.61-2.3-0.41c-1.37,1.57-1.62,1.55-2.92-0.03
		c0.8-0.31,1.82-0.46,2.49-1.02c2.42-2.07,2.38-2.13,4.22,0.65c0.09,0.13,0.17,0.26,0.26,0.39c0.84,1.15,2,1.45,3.32,1.15
		c1.28-0.3,1.98-1.2,2.19-2.46c0.19-1.17-0.18-2.2-1.16-2.87c-0.9-0.61-1.89-1.1-2.95-0.05c0.24,0.2,0.4,0.39,0.59,0.48
		c0.95,0.46,1.22,1.25,0.78,2.13c-0.2,0.39-0.83,0.76-1.29,0.8c-1.01,0.08-1.51-0.65-1.77-1.54c-0.56-1.98,0.59-4.12,2.62-4.89
		c3.05-1.16,6.36-0.2,8.37,2.43c0.33,0.44,0.66,0.88,1.22,1.64c0.12-3.84-1.17-6.53-3.91-8.49c-3.46-2.47-7.23-2.91-11.06-1.08
		c-3.91,1.86-5.9,5.07-6.25,9.45c-0.15,1.9-0.63,3.87-1.39,5.62c-1.12,2.59-3.43,3.91-6.19,3.86c-2.95-0.06-5.16-1.6-6.35-4.4
		c-0.21-0.5-0.31-1.05-0.54-1.55c-0.62-1.32-1.22-1.36-2.2-0.21c-1.34,1.56-1.68,1.54-3.24-0.4c1.1,0.15,1.98,0.28,2.83-0.58
		c2.22-2.28,2.32-2.21,4.19,0.56c0.13,0.19,0.27,0.38,0.42,0.57c0.83,1.04,1.92,1.27,3.15,1.01c1.14-0.25,2.06-1.26,2.23-2.45
		c0.16-1.18-0.21-2.19-1.18-2.88c-0.9-0.64-1.89-1.05-2.94-0.07c0.25,0.22,0.4,0.42,0.6,0.52c0.93,0.48,1.22,1.26,0.77,2.13
		c-0.2,0.39-0.83,0.73-1.29,0.78c-1.03,0.1-1.51-0.68-1.76-1.55c-0.52-1.77,0.47-3.92,2.21-4.69c1.45-0.64,2.97-0.86,4.57-0.49
		C109.84,238.74,111.46,240.3,112.52,242.43z M221.49,223.83c-10.23,13.25-9.28,35.19,0,46.42
		C221.49,254.78,221.49,239.41,221.49,223.83z M105.49,277.91c-5.03,0.71-11.19,5.78-9.94,8.04c0.63,0,1.3,0,1.89,0
		C99.79,281.43,100.21,281.01,105.49,277.91z M102.27,286.05c1.38-1.91,2.3-3.57,3.59-4.87c1.28-1.28,2.94-2.18,4.57-3.35
		c-4.89,0.82-8.19,3.34-10.14,8.09C101.24,285.99,101.89,286.03,102.27,286.05z"/>
	<path d="M157.58,164.39c-0.63-1.07-1.17-2.2-1.9-3.19c-1.25-1.7-3.13-2.07-4.97-1.01c-1.28,0.74-2.47,1.64-3.72,2.43
		c-2.38,1.5-4.3,1.21-5.85-1.07c-4.56-6.71-9.05-13.47-13.57-20.21c-0.12-0.17-0.15-0.4-0.32-0.85c0.83,0.28,1.48,0.45,2.09,0.71
		c23.02,9.61,46.02,19.24,69.05,28.81c1.39,0.58,2.3,1.44,3.09,2.66c6.89,10.68,13.88,21.31,20.7,32.04c2.2,3.47,5.05,6.1,8.52,8.16
		c2.81,1.67,5.73,3.07,8.99,3.7c-0.65-0.34-1.32-0.64-1.94-1.02c-2.34-1.39-4.74-2.7-6.99-4.22c-2.35-1.58-4.18-3.69-5.74-6.08
		c-7.25-11.2-14.57-22.35-21.81-33.55c-0.89-1.37-1.94-2.31-3.43-2.98c-19.12-8.6-38.22-17.26-57.35-25.85
		c-1.35-0.61-2.05-1.64-2.71-2.77c-0.91-1.57-1.93-2.5-4-2.46c-2.96,0.06-4.64-1.79-5.13-4.79c1.07,0.64,2.14,1.61,3.37,1.94
		c1.31,0.34,2.78,0.08,4.32,0.08c1.11,3.24,4.02,4.2,6.67,5.48c19.08,9.24,38.17,18.49,57.27,27.69c1.4,0.67,2.4,1.57,3.2,2.89
		c6.65,10.83,13.51,21.55,19.98,32.49c2.92,4.93,6.96,8.32,11.81,10.98c3.85,2.11,7.96,3.55,12.26,4.42
		c0.58,0.12,1.16,0.29,1.7,0.75c-4.48,0-8.96,0.05-13.44-0.04c-0.79-0.02-1.61-0.55-2.34-0.96c-11.21-6.32-22.42-12.62-33.59-19.01
		c-2.47-1.41-4.89-2.46-7.73-1.27c-3.25,1.35-5.65,3.55-6.91,6.9c-0.19,0.5-0.32,1.03-0.61,1.93c-1.98-2.9-3.77-5.55-5.57-8.19
		c-0.1,0.03-0.2,0.07-0.31,0.1c0.09,0.46,0.19,0.91,0.26,1.37c0.46,3.1-1.02,6.06-3.73,7.43c-2.56,1.3-5.86,0.79-8.05-1.24
		c-1.07-1-1.73-2.19-1.8-3.68c-0.03-0.66-0.18-1.32-0.28-2.05c-0.46,0.13-0.72,0.14-0.9,0.26c-2.29,1.57-2.29,1.58-3.87-0.77
		c-1.87-2.78-3.78-5.54-5.59-8.37c-0.74-1.16-1.56-1.7-3-1.71c-3.48-0.03-5.07-1.55-5.88-5.74c1.7,2.84,3.94,3.31,6.43,2.91
		c1.28-0.21,1.8,0.65,2.47,1.37c0.13,0.13,0.26,0.26,0.39,0.39c1.88,2.95,3.74,5.9,5.63,8.84c0.41,0.64,0.89,1.24,1.38,1.92
		c0.49-0.21,0.84-0.37,1.19-0.51c1.64-0.66,1.97-0.54,2.7,1.01c0.3,0.63,0.52,1.32,0.91,1.89c1.36,1.95,4.07,1.79,5.22-0.27
		c0.7-1.25,0.38-2.88-0.74-3.81c-1-0.82-1.8-0.81-2.97,0.05c0.38,0.26,0.81,0.46,1.12,0.78c0.64,0.68,0.58,1.42-0.04,2.08
		c-0.59,0.63-1.74,0.6-2.26-0.16c-0.37-0.54-0.62-1.27-0.65-1.93c-0.08-2.19,1.3-3.74,3.61-4.2c2.47-0.48,4.72,0.03,6.81,1.58
		c-0.23-0.72-0.53-1.31-0.9-1.86c-2.34-3.5-4.68-6.99-7.04-10.47c-0.38-0.56-0.88-1.05-1.33-1.57c-0.54-0.89-1.08-1.78-1.62-2.67
		c-2.34-3.54-4.67-7.1-7.03-10.62c-0.81-1.2-1.72-2.34-2.58-3.51C158.23,165.32,157.9,164.86,157.58,164.39z"/>
	<path d="M274.75,186.46c-0.01,10.25-8.22,18.4-18.49,18.36c-10.12-0.04-18.26-8.17-18.35-18.32c-0.08-10.17,8.18-18.46,18.42-18.46
		C266.62,168.04,274.76,176.18,274.75,186.46z"/>
	<path d="M264.5,132.08c2.73,1.75,3.14,2.91,2.22,5.42c-0.21,0.58-0.48,1.21-0.42,1.79c0.05,0.53,0.47,1.41,0.79,1.43
		c0.57,0.05,1.4-0.27,1.71-0.72c0.46-0.65,0.56-1.55,0.9-2.63c2.19,3.74,2.44,7.43,1.53,11.24c-0.66,2.79-2.11,5.16-4.09,7.25
		c-0.72,0.76-1.32,1.7-1.78,2.65c-1.85,3.82-4.88,5.86-9.08,5.84c-4.22-0.02-7.17-2.18-9-5.98c-0.46-0.95-1.09-1.85-1.8-2.63
		c-4.3-4.74-5.6-10.12-3.54-16.23c0.23-0.7,0.63-1.34,1.12-2.34c0.27,1.1,0.38,1.78,0.62,2.42c0.32,0.86,0.87,1.55,1.94,1.18
		c0.92-0.32,1.01-1.11,0.85-1.93c-0.07-0.38-0.22-0.75-0.35-1.11c-0.96-2.73-0.73-3.54,1.67-5.51c0.13,1,0.08,1.98,0.41,2.83
		c0.33,0.85,1.02,1.55,1.55,2.32c0.73,1.04,0.75,2.18,0.43,3.36c-0.37,1.35-0.84,2.68-1.13,4.05c-0.44,2.06,0.31,3.32,1.97,3.55
		c1.68,0.24,3.48-1.15,3.59-2.91c0.05-0.83-0.11-1.71-0.35-2.52c-0.64-2.16-1.42-4.29-2.06-6.45c-0.42-1.41-0.68-2.88-1.06-4.3
		c-0.54-2.03-0.04-3.71,1.62-5c1.78-1.38,2.44-3.05,1.94-5.34c-0.52-2.36,0.35-4.43,2.09-6.47c0.03,0.47,0.12,0.73,0.05,0.93
		c-0.56,1.68,0.07,2.98,1.09,4.3c1.18,1.54,2.29,3.16,3.21,4.87c1.5,2.79,1.85,5.77,0.73,8.81c-0.89,2.41-1.86,4.79-2.78,7.19
		c-0.36,0.95-0.76,1.89-0.96,2.88c-0.37,1.76,0.58,3.28,2.27,3.84c2.06,0.68,3.7-0.58,3.4-2.73c-0.16-1.15-0.51-2.28-0.89-3.39
		c-0.74-2.14-0.7-4.09,0.94-5.87C264.81,135.1,265.25,133.78,264.5,132.08z"/>
	<path d="M278.36,188.86c2.48,8.12-0.94,18.27-8.48,23.75c-7.99,5.8-18.84,5.84-26.93,0.07c-7.63-5.44-11.15-15.73-8.59-23.82
		c1.19,6.95,4.35,12.32,10.02,16.03c4.04,2.64,8.51,3.83,13.34,3.53C265.77,207.93,275.84,202.63,278.36,188.86z"/>
	<path d="M214.78,286.09c-2.63-0.5-4.8-1.08-7.02-1.31c-7.09-0.72-13.22,1.65-18.47,6.31c-1.32,1.17-2.6,1.66-4.36,1.66
		c-30.13-0.05-60.26-0.03-90.4-0.03c-0.85,0-1.7,0-2.71,0c-0.08-0.72-0.14-1.3-0.23-2.18c1.05-0.03,1.95-0.07,2.85-0.07
		c29.98,0,59.95-0.02,89.93,0.03c1.81,0,3.18-0.45,4.66-1.57c7.48-5.73,15.74-6.64,24.54-3.54
		C213.85,285.49,214.1,285.7,214.78,286.09z"/>
	<path d="M249.73,266.58c-3.85-2.07-5.95-5.27-6.31-9.45c-0.65-7.5,4.4-13.51,11.89-14.39c3.55-0.41,6.8,2.06,7.2,5.48
		c0.39,3.36-2.02,6.26-5.62,6.76c-1,0.14-2.03,0.21-2.98,0.52c-3.86,1.26-5.96,5.39-4.81,9.39
		C249.25,265.47,249.51,266.01,249.73,266.58z M256.35,247.19c-0.97,0.01-1.8,0.85-1.76,1.79c0.04,0.96,0.9,1.72,1.89,1.66
		c0.89-0.06,1.62-0.79,1.66-1.66C258.16,248.05,257.3,247.19,256.35,247.19z"/>
	<path d="M263.03,244.82c7.51,3.91,9.25,16.2,0.22,22.03c-2.21,1.42-4.68,2.13-7.32,1.97c-3.2-0.19-5.62-2.81-5.68-6.01
		c-0.05-3.28,2.17-5.83,5.42-6.21c0.23-0.03,0.47-0.01,0.7-0.03c6.02-0.64,8.87-5.29,6.77-11.03
		C263.1,245.4,263.1,245.24,263.03,244.82z M258.13,262.63c-0.03-0.92-0.91-1.75-1.83-1.72c-0.93,0.03-1.74,0.89-1.72,1.82
		c0.03,0.94,0.88,1.76,1.81,1.73C257.3,264.43,258.16,263.53,258.13,262.63z"/>
	<path d="M243.42,239.87c0-2.6,0-5.08,0-7.53c1.74-0.47,22.98-0.58,25.85-0.13c0,2.5,0,5.02,0,7.54
		C267.58,240.25,246.37,240.37,243.42,239.87z"/>
	<path d="M157.58,164.39c0.32,0.46,0.65,0.92,0.97,1.38c0.05,0.54,0.07,1.09,0.16,1.62c0.46,2.92-0.54,5.26-2.93,6.9
		c-2.33,1.6-4.82,1.56-7.31,0.29c-0.6-0.31-1.25-0.55-1.87-0.82c-0.37-0.61-0.73-1.22-1.1-1.84c-0.18-1.37-0.36-2.74-0.57-4.34
		c-0.63,0.39-1.02,0.61-1.39,0.86c-1.56,1.08-1.89,1.06-2.98-0.55c-3.8-5.62-7.57-11.27-11.35-16.9c-2.13-3.17-4.26-6.34-6.34-9.44
		c-5.68-0.52-7.29-1.66-7.69-5.61c1.46,2.2,3.43,2.85,5.76,2.57c1.43-0.17,2.25,0.45,3.02,1.62c5.43,8.19,10.92,16.35,16.39,24.51
		c0.51,0.76,1.08,1.47,1.59,2.16c2.96-1.15,2.97-1.15,4.39,1.69c0.64,1.29,1.52,2.14,3.07,2.08c1.32-0.05,2.21-0.67,2.72-1.85
		c0.52-1.21,0.28-2.31-0.61-3.24c-0.87-0.91-1.91-1.25-3.45-0.58c0.45,0.38,0.67,0.62,0.94,0.79c0.84,0.5,0.95,1.28,0.58,2.01
		c-0.2,0.4-0.8,0.75-1.26,0.82c-0.91,0.14-1.41-0.54-1.72-1.3c-0.73-1.8,0.35-4.26,2.29-5.03c2.4-0.95,4.74-0.78,6.91,0.68
		C156.45,163.32,156.99,163.89,157.58,164.39z"/>
	<path d="M243.47,271.7c8.62,0,17.09,0,25.82,0c0.28,2.56,0.14,5.08,0.08,7.77c-8.69,0-17.22,0-25.9,0
		C243.47,276.93,243.47,274.47,243.47,271.7z"/>
	<path d="M365.69,137.09c1.12,2.09,2.95,3.23,4.95,4.19c1.55,0.74,3.15,1.39,4.62,2.25c2.98,1.75,2.96,5.26,0.02,7.16
		c-0.59,0.38-1.26,0.61-1.86,0.97c-0.8,0.48-1.64,0.93-2.33,1.54c-1.31,1.15-1.59,2.38-1.04,3.77c0.59,1.48,2.04,2.48,3.64,2.5
		c1.69,0.02,3.18-0.92,3.72-2.34c0.49-1.31,0.24-1.9-1.45-3.1c-0.23,0.58-0.37,1.16-0.66,1.65c-0.53,0.9-1.81,1.14-2.66,0.57
		c-0.83-0.55-1.04-1.52-0.54-2.46c0.79-1.48,2.94-2.4,4.65-1.82c0.93,0.32,1.86,0.86,2.57,1.54c3.12,3,2.95,8.54-0.26,11.56
		c-3.27,3.07-8.26,2.81-11.26-0.6c-2.99-3.39-2.4-8.7,1.28-11.36c0.88-0.64,1.94-1.07,2.72-1.81c1.05-1,2.12-2.09,2.78-3.35
		c0.81-1.55,0.39-2.63-1.1-3.6c-1.36-0.9-2.85-1.61-4.26-2.44c-1.51-0.88-2.84-1.95-3.36-3.72
		C365.72,137.85,365.73,137.46,365.69,137.09z"/>
	<path d="M145.49,171.94c0.37,0.61,0.73,1.22,1.1,1.84c2.01,3.31,4.23,6.46,6.34,9.58c0.55-0.14,0.78-0.17,1-0.25
		c2.07-0.82,2.33-0.72,3.19,1.19c0.26,0.56,0.48,1.17,0.84,1.66c0.76,1.01,1.78,1.48,3.07,1.17c1.3-0.31,2.21-1.27,2.4-2.56
		c0.19-1.29-0.31-2.34-1.38-2.98c-0.82-0.5-1.8-0.98-2.74,0.11c0.23,0.19,0.37,0.38,0.56,0.46c0.99,0.42,1.24,1.22,0.85,2.09
		c-0.18,0.4-0.8,0.78-1.26,0.83c-1.01,0.12-1.54-0.59-1.81-1.48c-0.63-2.05,0.59-4.37,2.75-4.99c2.07-0.59,4.15-0.55,6.11,0.55
		c0.53,0.3,1.1,0.51,1.66,0.77c0.54,0.89,1.08,1.78,1.62,2.67c0.05,0.77,0.11,1.53,0.13,2.3c0.12,4.3-3.59,7.69-7.83,7.1
		c-1.99-0.28-3.57-1.36-4.94-2.78c-0.13-0.13-0.26-0.26-0.39-0.39c-0.25-1.43-0.5-2.86-0.8-4.55c-1.02,0.57-1.91,1.07-2.98,1.67
		c-0.57-0.68-1.17-1.27-1.63-1.96c-1.93-2.82-3.87-5.63-5.7-8.52c-0.74-1.17-1.55-1.65-2.98-1.66c-3.28-0.02-4.97-1.54-5.65-4.8
		c1.04,0.65,1.94,1.48,3,1.8c1.08,0.33,2.32,0.06,3.46,0.25C144.18,171.16,144.82,171.63,145.49,171.94z"/>
	<path d="M296.08,194.21c-2.76,2.55-2.76,2.55-4.54-0.02c1.67,1.13,2.57,0.58,3.52-0.49c1.54-1.73,2.4-1.61,3.52,0.42
		c0.78,1.42,1.74,2.39,3.48,2.18c1.3-0.15,2.13-0.91,2.53-2.12c0.39-1.15,0.08-2.2-0.76-3c-0.87-0.83-1.89-1.37-3.33-0.46
		c0.47,0.38,0.91,0.63,1.21,0.99c0.61,0.75,0.5,1.73-0.19,2.29c-0.69,0.56-1.59,0.38-2.23-0.44c-1.21-1.58-0.44-4.31,1.53-5.42
		c2.42-1.36,5.92-0.91,8.07,1.05c2.27,2.07,2.95,5.13,1.74,7.9c-1.15,2.62-3.9,4.31-6.77,4.09c-3.03-0.23-5.04-1.87-6.13-4.67
		C297.37,195.61,297.38,194.44,296.08,194.21z"/>
	<path d="M296.08,174.73c-2.44,2.61-2.45,2.61-4.46,0.4c1.7,0.67,2.65,0.11,3.59-0.92c1.43-1.56,2.24-1.37,3.39,0.5
		c0.24,0.4,0.45,0.83,0.75,1.18c1.06,1.23,2.69,1.45,4,0.59c1.3-0.86,1.74-2.51,1.05-3.91c-0.72-1.46-1.74-1.8-3.9-1.17
		c0.39,0.29,0.77,0.43,0.89,0.69c0.27,0.59,0.59,1.25,0.53,1.85c-0.03,0.34-0.8,0.92-1.15,0.86c-0.6-0.1-1.34-0.49-1.65-0.99
		c-1.09-1.71-0.02-4.25,2.07-5.23c3.25-1.51,7.38-0.16,9.12,3c1.92,3.46,0.56,7.81-2.98,9.56c-3.61,1.78-7.95,0.1-9.5-3.69
		C297.43,176.47,297.46,175.24,296.08,174.73z"/>
	<path d="M300.38,210.23c0.61,0.4,1.07,0.57,1.34,0.9c0.59,0.73,0.44,1.82-0.24,2.29c-0.69,0.48-1.7,0.24-2.25-0.53
		c-1.15-1.62-0.32-4.33,1.66-5.4c3.32-1.81,7.9-0.3,9.6,3.18c1.72,3.52,0.11,7.85-3.51,9.39c-3.62,1.54-7.76-0.25-9.21-3.99
		c-0.65-1.66-0.65-1.66-1.53-2.46c-0.88,0.64-1.7,1.4-2.67,1.87c-0.31,0.15-1-0.49-1.54-1.01c1.69,0.26,2.46-0.88,3.42-1.79
		c1.23-1.17,2.02-0.98,2.99,0.49c0.47,0.7,0.9,1.49,1.53,2.02c1.15,0.97,2.69,0.77,3.81-0.32c1.1-1.07,1.27-2.59,0.44-3.83
		C303.35,209.73,302.29,209.45,300.38,210.23z"/>
	<path d="M256.4,230.43c-4.21-2.39-8.23-4.67-12.25-6.95c0.05-0.13,0.09-0.25,0.14-0.38c8.04,0,16.09,0,24.15,0
		c0.01,0.02,0.05,0.09,0.05,0.16c0,0.07-0.01,0.17-0.06,0.19C264.47,225.75,260.51,228.05,256.4,230.43z"/>
	<path d="M244.37,281.66c1.88-0.5,22.03-0.5,24.19,0.07c-0.84,0.52-1.52,0.98-2.22,1.38c-2.9,1.65-5.81,3.29-8.72,4.93
		c-0.69,0.39-1.29,0.71-2.14,0.22c-3.62-2.12-7.28-4.16-10.92-6.24C244.46,281.96,244.43,281.78,244.37,281.66z"/>
	<path d="M370.17,192.43c-1,0.03-1.85-0.86-1.85-1.92c0-1.05,0.64-1.75,1.65-1.82c1.03-0.07,2.02,0.77,2.07,1.74
		C372.09,191.32,371.08,192.4,370.17,192.43z"/>
</g>
</svg>
