<svg fill="#fff" id="Layer_1" data-name="Layer 1" xmlns="http://www.w3.org/2000/svg" viewBox="0 0 512 512"><title>NH_8</title><path d="M259,553.75H131.47c-9.44,0-17.1-7.41-17.1-16.55V500.09c0-9.14,7.66-16.55,17.1-16.55H259c9.44,0,17.1,7.41,17.1,16.55V537.2C276.05,546.34,268.4,553.75,259,553.75ZM135.1,533.69H255.32V503.6H135.1Z" transform="translate(-47 -41.75)"/><path d="M159.45,492.07H138.72V456.94a11.43,11.43,0,0,0-3.54-8.27l-78.57-76A31,31,0,0,1,47,350.18V261.73a32.69,32.69,0,0,1,31.83-32.42c18.55-.53,33.81,13.91,33.81,31.75v52.49a10.2,10.2,0,0,1-10.36,10h0a10.2,10.2,0,0,1-10.36-10V261.4a12.1,12.1,0,0,0-24.18-.34v89.12a11.43,11.43,0,0,0,3.54,8.27l78.57,76a31,31,0,0,1,9.61,22.46Z" transform="translate(-47 -41.75)"/><path d="M249.62,492.07H228.89V410a7.18,7.18,0,0,0-2.22-5.19L150,330.6a8,8,0,0,0-10.17-.82,7.2,7.2,0,0,0-.75,11l43.2,41.8a9.8,9.8,0,0,1,0,14.18h0a10.61,10.61,0,0,1-14.66,0L124.4,355a26.78,26.78,0,0,1,0-38.76,29,29,0,0,1,40.05,0l76.88,74.39A26.79,26.79,0,0,1,249.62,410Z" transform="translate(-47 -41.75)"/><path d="M347,553.75H474.53c9.44,0,17.1-7.41,17.1-16.55V500.09c0-9.14-7.66-16.55-17.1-16.55H347c-9.44,0-17.1,7.41-17.1,16.55V537.2C329.95,546.34,337.6,553.75,347,553.75ZM470.9,533.69H350.68V503.6H470.9Z" transform="translate(-47 -41.75)"/><path d="M446.55,492.07h20.73V456.94a11.43,11.43,0,0,1,3.54-8.27l78.57-76A31,31,0,0,0,559,350.18V261.73a32.69,32.69,0,0,0-31.83-32.42c-18.55-.53-33.81,13.91-33.81,31.75v52.49a10.2,10.2,0,0,0,10.36,10h0a10.2,10.2,0,0,0,10.36-10V261.4a12.1,12.1,0,0,1,24.18-.34v89.12a11.43,11.43,0,0,1-3.54,8.27l-78.57,76a31,31,0,0,0-9.61,22.46Z" transform="translate(-47 -41.75)"/><path d="M356.38,492.07h20.73V410a7.18,7.18,0,0,1,2.22-5.19L456,330.6a8,8,0,0,1,10.17-.82,7.2,7.2,0,0,1,.75,11l-43.2,41.8a9.8,9.8,0,0,0,0,14.18h0a10.61,10.61,0,0,0,14.66,0L481.6,355a26.78,26.78,0,0,0,0-38.76,29,29,0,0,0-40.05,0l-76.88,74.39A26.79,26.79,0,0,0,356.38,410Z" transform="translate(-47 -41.75)"/><path d="M243.33,155.58c-32.23,0-58.45-25.53-58.45-56.92s26.22-56.92,58.45-56.92,58.45,25.53,58.45,56.92S275.56,155.58,243.33,155.58Zm0-93.77c-21.2,0-38.45,16.53-38.45,36.86s17.25,36.86,38.45,36.86S281.78,119,281.78,98.67,264.53,61.81,243.33,61.81Z" transform="translate(-47 -41.75)"/><path d="M344.9,181.66c-32.23,0-58.45-25.53-58.45-56.92s26.22-56.92,58.45-56.92,58.45,25.53,58.45,56.92S377.13,181.66,344.9,181.66Zm0-93.77c-21.2,0-38.45,16.53-38.45,36.86S323.7,161.6,344.9,161.6s38.45-16.53,38.45-36.86S366.1,87.89,344.9,87.89Z" transform="translate(-47 -41.75)"/><path d="M350.54,280.26A297.45,297.45,0,0,1,275,270l-4.11-1.2-2-3.82c-1.45-2.81-5.49-13.88,3.67-38.24h0c13.08-34.82,27.15-44.91,28.71-45.95l5.15-3.42,5.35,3.08c34.94,20.12,66.1,1,67.41.22l6.63-4.16,5.66,5.42c34.3,33.2,29.13,77.8,28.89,79.68l-.75,5.94-5.57,2.16C393.66,277.64,371.27,280.26,350.54,280.26Zm-63.75-27.91c17.88,4.26,70.9,14.71,114,.84-.08-10.45-2.32-32.78-18.31-51.62-13.11,6-41.78,15-73.82-.13-4,4.84-10.65,14.62-17.33,32.4l-9.36-3.54,9.36,3.54C287.92,242.81,287,248.78,286.79,252.35Zm.24,4.25Z" transform="translate(-47 -41.75)"/><path d="M242.41,253.84a232.09,232.09,0,0,1-24.23-1.4,361.72,361.72,0,0,1-43.3-7.38l-6.79-1.66-.78-7c-4.59-41.09,29-79.4,30.46-81l5.81-6.53,7.24,4.89c1.3.86,33.09,21.37,68.24-1.59l6.5-4.25,5.72,5.27c.69.64,17,15.93,20.41,40.44l-19.81,2.76a51.76,51.76,0,0,0-9.51-22.92c-32,16.9-60.87,7.82-74.51,1.44-7.33,10-20.45,30.8-21,52.32,29,6.2,72.81,10.9,86.89.11l12.14,15.94C276.72,250.35,262.38,253.84,242.41,253.84Z" transform="translate(-47 -41.75)"/></svg>