<svg fill="#fff" id="Layer_1" data-name="Layer 1" xmlns="http://www.w3.org/2000/svg" viewBox="0 0 512 456.53"><title>eruul mend</title><path d="M302.5,530.81a9.33,9.33,0,0,1-4.38-1.1c-2.55-1.36-63.28-33.88-125-87.92-36.46-31.92-65.56-64.71-86.51-97.44C60,302.75,46.5,261,46.5,220.38c0-80.56,63.19-146.1,140.86-146.1,46.11,0,88.92,23.37,115.14,61.95,26.22-38.57,69-61.95,115.14-61.95,77.67,0,140.86,65.54,140.86,146.1,0,40.66-13.49,82.37-40.11,124-20.94,32.74-50,65.52-86.51,97.44-61.72,54-122.45,86.56-125,87.92A9.33,9.33,0,0,1,302.5,530.81ZM187.36,94.28c-67.06,0-121.61,56.57-121.61,126.1,0,83.7,65.13,158.29,119.77,206.13,50.75,44.43,102,74.53,117,83C317.55,501,369,470.77,419.76,426.26,474.27,378.48,539.25,304,539.25,220.38c0-69.53-54.55-126.1-121.61-126.1-44.43,0-85.32,25.14-106.7,65.6a9.45,9.45,0,0,1-16.87,0C272.68,119.42,231.79,94.28,187.36,94.28Z" transform="translate(-46.5 -74.28)"/><path d="M324.55,406H278.92a9.82,9.82,0,0,1-9.62-10v-53.8H217.51a9.82,9.82,0,0,1-9.62-10V284.81a9.82,9.82,0,0,1,9.62-10h51.78V221a9.82,9.82,0,0,1,9.62-10h45.63a9.82,9.82,0,0,1,9.62,10v53.8H386a9.82,9.82,0,0,1,9.62,10v47.41a9.82,9.82,0,0,1-9.62,10H334.17V396A9.82,9.82,0,0,1,324.55,406Zm-36-20h26.38v-53.8a9.82,9.82,0,0,1,9.62-10h51.78V294.81H324.55a9.82,9.82,0,0,1-9.62-10V231H288.54v53.8a9.82,9.82,0,0,1-9.62,10H227.14v27.41h51.78a9.82,9.82,0,0,1,9.62,10Z" transform="translate(-46.5 -74.28)"/></svg>