<svg fill="#fff" id="Layer_1" data-name="Layer 1" xmlns="http://www.w3.org/2000/svg" viewBox="0 0 391.07 512"><title>Ayulgui baidal</title><path d="M296.86,560a10.08,10.08,0,0,1-8.64-4.78c-10.17-16.82-30.33-33.12-53.68-52-28.92-23.37-61.69-49.87-87.82-86.78-30.55-43.14-45.39-91.53-45.39-147.92V163.08a9.82,9.82,0,0,1,10-9.62c49.41,0,94.18-16.92,133.08-50.29C273.51,78.19,288,53.23,288.1,53a10.19,10.19,0,0,1,17.52,0c.14.24,14.93,25.66,44.22,50.63,38.78,33.07,83.38,49.84,132.55,49.84a9.82,9.82,0,0,1,10,9.62V268.53c0,56.4-14.85,104.78-45.39,147.92-26.13,36.91-58.91,63.4-87.82,86.78-23.35,18.87-43.51,35.17-53.68,52A10.08,10.08,0,0,1,296.86,560ZM121.32,172.48v96.05c0,118,69.91,174.55,126.08,220,19.61,15.85,37.1,30,49.46,45,12.36-15,29.85-29.12,49.46-45,56.17-45.41,126.08-101.92,126.08-220V172.48c-50-2.22-96.94-21.1-136.39-54.94a253.47,253.47,0,0,1-39.15-42.14,253.43,253.43,0,0,1-39.15,42.14C218.26,151.38,171.29,170.26,121.32,172.48Z" transform="translate(-101.32 -48)"/><path d="M296.86,503.23a10.19,10.19,0,0,1-6.84-2.61c-9.52-8.6-19.85-17-30.79-25.79C231.06,452.06,202,428.56,179,396.4c-26.47-37.08-39.33-78.91-39.33-127.87V197.32a9.74,9.74,0,0,1,8.45-9.51c66.93-10.12,113.8-46.63,141.34-75.48a10.27,10.27,0,0,1,14.73,0c27.54,28.85,74.42,65.37,141.34,75.48a9.74,9.74,0,0,1,8.45,9.51v71.21c0,49-12.87,90.79-39.33,127.88-23,32.16-52,55.66-80.13,78.38-11,8.89-21.33,17.24-30.84,25.84A10.19,10.19,0,0,1,296.86,503.23ZM159.71,205.41v63.12c0,100.72,59.67,149,112.32,191.51,8.67,7,16.94,13.69,24.83,20.51,7.89-6.81,16.14-13.48,24.77-20.46C374.33,417.48,434,369.25,434,268.53V205.41c-62.56-11.6-108-44.21-137.15-72.61C267.75,161.2,222.28,193.8,159.71,205.41Z" transform="translate(-101.32 -48)"/><path d="M264.95,361.09a10.25,10.25,0,0,1-5.88-1.84,9.46,9.46,0,0,1-4-9.41l5.69-31.93-24.1-22.61a9.37,9.37,0,0,1-2.53-9.87,9.9,9.9,0,0,1,8.07-6.55l33.31-4.66,14.9-29a10.18,10.18,0,0,1,17.93,0l14.9,29,33.31,4.66a9.91,9.91,0,0,1,8.07,6.55,9.38,9.38,0,0,1-2.53,9.87L338,317.91l5.69,31.93a9.46,9.46,0,0,1-4,9.41,10.33,10.33,0,0,1-10.53.73l-29.79-15.07L269.6,360A10.31,10.31,0,0,1,264.95,361.09Zm.2-66,13.36,12.53a9.4,9.4,0,0,1,2.88,8.52l-3.15,17.69,16.51-8.35a10.35,10.35,0,0,1,9.31,0l16.51,8.35-3.15-17.69a9.41,9.41,0,0,1,2.88-8.52l13.36-12.53-18.46-2.58a10,10,0,0,1-7.53-5.26l-8.25-16.1-8.25,16.1a10,10,0,0,1-7.53,5.26Z" transform="translate(-101.32 -48)"/></svg>