<svg fill="#fff" id="Layer_1" data-name="Layer 1" xmlns="http://www.w3.org/2000/svg" viewBox="0 0 470 512"><title>SSA_6</title><path d="M296.5,507A234,234,0,1,1,462.64,107.5,234,234,0,0,1,296.5,507Zm0-448.76c-119,0-215.82,96.34-215.82,214.75S177.5,487.75,296.5,487.75,512.32,391.41,512.32,273,415.5,58.24,296.5,58.24Z" transform="translate(-61.5 -38.5)"/><path d="M152.61,453.22a9.54,9.54,0,0,1-6.56-2.61,9.65,9.65,0,0,1-.43-13.6c52.31-55.9,77.32-113.92,74.34-172.45C215.44,175.78,147.5,115.63,146.81,115a9.61,9.61,0,0,1,12.58-14.54c.77.67,19.08,16.75,38.07,44.8,17.58,26,39.07,67.56,41.65,118.29,3.26,64-23.5,126.74-79.51,186.6A9.55,9.55,0,0,1,152.61,453.22Z" transform="translate(-61.5 -38.5)"/><path d="M442.84,453.71a9.55,9.55,0,0,1-6.79-2.83c-54.64-55-81.89-114.67-81-177.34.77-53.24,22.24-98.41,40.12-126.93,19.3-30.79,38.31-49,39.11-49.75a9.61,9.61,0,0,1,13.2,14h0c-.18.17-18.35,17.64-36.39,46.55-16.45,26.36-36.2,68-36.85,116.61-.77,57.22,24.6,112.16,75.4,163.3a9.65,9.65,0,0,1,0,13.61A9.55,9.55,0,0,1,442.84,453.71Z" transform="translate(-61.5 -38.5)"/><path d="M296.5,506.5a9.61,9.61,0,0,1-9.59-9.62V48.12a9.59,9.59,0,1,1,19.18,0V496.88A9.61,9.61,0,0,1,296.5,506.5Z" transform="translate(-61.5 -38.5)"/><path d="M521.42,282.62H73.06a9.62,9.62,0,0,1,0-19.25H521.42a9.62,9.62,0,0,1,0,19.25Z" transform="translate(-61.5 -38.5)"/><path d="M484.09,506.5H107.92a9.62,9.62,0,0,1,0-19.25H484.09a9.62,9.62,0,0,1,0,19.25Z" transform="translate(-61.5 -38.5)"/><path d="M417.31,550.5H179.62a9.62,9.62,0,0,1,0-19.25H417.31a9.62,9.62,0,0,1,0,19.25Z" transform="translate(-61.5 -38.5)"/></svg>