<svg fill="#fff" id="Layer_3" data-name="Layer 3" xmlns="http://www.w3.org/2000/svg" viewBox="0 0 512 512"><defs><style>.cls-1{fill:none;stroke:#000;stroke-linecap:round;stroke-miterlimit:10;stroke-width:20px;}</style></defs><title>2</title><path d="M135,556a8.59,8.59,0,0,1-5.51-2,9,9,0,0,1-1.27-12.55l39.3-49.34a32.1,32.1,0,0,1,36.11-10.28l133.05,48.61a37.66,37.66,0,0,0,34.43-4.52L539.58,408.48a10.46,10.46,0,0,0,3.27-13.29,10.08,10.08,0,0,0-6-5.12,9.88,9.88,0,0,0-7.81.83L437.63,442c-5,2.79-26.73,17-31.63,14s9-14,6-28c-2.52-11.77-2-13-15-13l-244.72.14a29.78,29.78,0,0,0-23.43,11.41L65.06,507a8.63,8.63,0,0,1-12.31,1.34,9.05,9.05,0,0,1-1.31-12.56l63.79-80.49a47.1,47.1,0,0,1,37.05-18H401.67c15.59,0,28.43,12.26,29.74,27.83l89.17-49.87A27,27,0,0,1,541.9,373a27.56,27.56,0,0,1,16.48,14,28.54,28.54,0,0,1-8.92,36.27L381,540.67a54.93,54.93,0,0,1-50.21,6.58l-133-48.6a14.75,14.75,0,0,0-16.62,4.73l-39.31,49.33A8.64,8.64,0,0,1,135,556Z" transform="translate(-49.5 -44.01)"/><path d="M345.32,383.41c-20.19,0-27.84-6-33.93-12.21-2.54-2.56-2.78-2.76-4.82-2.76-3.3,0-5,1.15-9,4-6.41,4.63-15.19,11-34.76,10.29-24.31-.84-46.45-14.36-62.33-38.06-13.85-20.66-21.79-47.21-21.79-72.86a147.07,147.07,0,0,1,3.21-32.27,8.74,8.74,0,0,1,10.47-6.73,8.93,8.93,0,0,1,6.6,10.68,129.19,129.19,0,0,0-2.77,28.32c0,43.82,27,91.68,67.21,93.08,13.68.49,18.7-3.16,24-7,4.49-3.25,10.08-7.29,19.09-7.29,9.32,0,13.85,4.6,17.16,8s6.92,7,21.52,7h1c24.24-.25,40.34-16.45,49.58-30,12.11-17.77,19.34-41.6,19.34-63.75,0-50.25-18.91-74.39-65.27-83.29a8.9,8.9,0,0,1-7.13-9c.63-25.74,17.38-43.79,28.44-53l-7.71-7.18C332.44,138,327,172,326.66,174.63l0,.51a8.75,8.75,0,1,1-17.45-1.36l.06-.77c0-.14,0-.27,0-.41.24-2,6.47-49.52,51.67-72.08a8.61,8.61,0,0,1,9.74,1.43L391,120.84a9,9,0,0,1-1.54,14.33c-.25.14-23.61,14.25-28.37,37.54,24.68,6,42.5,17,54.3,33.39,11.62,16.13,17.27,37.63,17.27,65.71,0,26-8.19,53-22.47,73.94-16.38,24-39,37.41-63.78,37.66Z" transform="translate(-49.5 -44.01)"/><path d="M304.59,219.61A44.63,44.63,0,0,1,291,217.44a53.22,53.22,0,0,1-19.66-11.54,9,9,0,0,1-.22-12.62,8.63,8.63,0,0,1,12.35-.25c2.08,2,20.59,18.63,41-.18a8.63,8.63,0,0,1,12.36.64,9.05,9.05,0,0,1-.63,12.61C325.06,216.4,314,219.61,304.59,219.61Z" transform="translate(-49.5 -44.01)"/><path d="M212.36,204.51a8.69,8.69,0,0,1-7.2-3.83,9,9,0,0,1,2.2-12.42c24.79-17.56,51.18-22.76,69.48-23.95-23.14-27.1-36.55-62-37.23-63.74a9,9,0,0,1,5-11.55,8.7,8.7,0,0,1,11.32,5.1c.27.71,19,49.17,48.42,72.53A9.05,9.05,0,0,1,307,177.2a8.72,8.72,0,0,1-9.33,5.32c-.41-.06-43.17-5.94-80.36,20.4A8.56,8.56,0,0,1,212.36,204.51Z" transform="translate(-49.5 -44.01)"/><path d="M255.66,146a34.44,34.44,0,0,1-27.06-12.29c-12.79-15-16.25-41.88-10.6-82.06a9,9,0,0,1,4.42-6.54,8.61,8.61,0,0,1,7.78-.36c2.74,1.23,67,30.71,55.87,75.24-3.89,15.55-16.1,26-30.39,26h0Zm0-8.92h0ZM233.82,66.87c-3.19,33.64,2.39,48.56,8,55.17,3.51,4.13,8,6.13,13.83,6.13h0c6.25,0,11.53-4.94,13.44-12.57C274.4,94.5,249,75.89,233.82,66.87Z" transform="translate(-49.5 -44.01)"/><path d="M185.74,228.71q-6.75,0-14.15-.38a8.72,8.72,0,0,1-6.86-4,9.09,9.09,0,0,1-.92-8c1-2.72,24.43-66.55,67.29-59.74C246.29,159,257.18,170,258.19,184h0a34.1,34.1,0,0,1-9.41,26.8C237.27,222.8,216.58,228.71,185.74,228.71Zm-.28-17.85h.25c31.46,0,44.86-6.61,50.55-12.56a16.13,16.13,0,0,0,4.48-13h0c-.41-5.59-5.25-9.92-12.34-11.05C208.67,171.11,193.12,195.6,185.46,210.86Z" transform="translate(-49.5 -44.01)"/><path class="cls-1" d="M316,448h83.4A21.6,21.6,0,0,0,421,426.4V430" transform="translate(-49.5 -44.01)"/></svg>