<svg fill="#fff" id="Layer_3" data-name="Layer 3" xmlns="http://www.w3.org/2000/svg" viewBox="0 0 512 512"><title>4</title><path d="M545.68,548.5H500.21a10.83,10.83,0,0,1-9.68-6L453.47,468.4h-294l-37.05,74.12a10.85,10.85,0,0,1-9.69,6H55.32A10.83,10.83,0,0,1,44.5,537.68V125.26a10.83,10.83,0,0,1,21.65,0V312.53H500.43A56.13,56.13,0,0,1,556.5,368.6V537.68A10.83,10.83,0,0,1,545.68,548.5ZM506.9,526.85h28V368.6a34.47,34.47,0,0,0-34.42-34.43H66.15V526.85H106l37.06-74.12a10.85,10.85,0,0,1,9.69-6H460.16a10.83,10.83,0,0,1,9.68,6Z" transform="translate(-44.5 -36.5)"/><path d="M233.93,324.43H212.28V294.3a49.15,49.15,0,0,0-49.1-49.1H55.32V223.55H163.18a70.83,70.83,0,0,1,70.75,70.75Z" transform="translate(-44.5 -36.5)"/><rect x="10.82" y="348.07" width="490.35" height="21.65"/><path d="M478.56,256.24H410.37a10.83,10.83,0,0,1-10.83-10.83V188h-52a10.82,10.82,0,0,1-10.83-10.82V113.35a10.83,10.83,0,0,1,10.83-10.82h52V47.32A10.83,10.83,0,0,1,410.37,36.5h68.19a10.83,10.83,0,0,1,10.83,10.82v55.21h56.29a10.83,10.83,0,0,1,10.82,10.82v67.12a10.83,10.83,0,0,1-10.82,10.82H489.39v54.12A10.83,10.83,0,0,1,478.56,256.24Zm-57.37-21.65h46.55V180.47a10.83,10.83,0,0,1,10.82-10.83h56.29V124.18H478.56a10.83,10.83,0,0,1-10.82-10.83V58.15H421.19v55.2a10.82,10.82,0,0,1-10.82,10.83h-52v42.21h52a10.82,10.82,0,0,1,10.82,10.83Z" transform="translate(-44.5 -36.5)"/></svg>