<svg fill="#fff" id="Layer_2" data-name="Layer 2" xmlns="http://www.w3.org/2000/svg" viewBox="0 0 512 512"><title>9</title><path d="M53.62,328.71A9.63,9.63,0,0,1,44,319.08V304.53c0-29.38,24.18-53.28,53.91-53.28H332a34.7,34.7,0,0,0,30.29-17.55l29.11-51.8a9.62,9.62,0,1,1,16.78,9.43L379,243.13A54,54,0,0,1,332,270.5H97.91c-19.11,0-34.66,15.27-34.66,34v14.55A9.63,9.63,0,0,1,53.62,328.71Z" transform="translate(-44 -39.5)"/><path d="M399.77,551.5H362.1A9.62,9.62,0,0,1,353.28,538l34.57-79.2a5.15,5.15,0,0,0-.35-4.76l-36.87-59.16L185.22,394l-16,26a80.36,80.36,0,0,1-51.67,36.23l-19.68,4.16v81.52a9.62,9.62,0,0,1-9.62,9.62H53.62A9.62,9.62,0,0,1,44,541.88V462.47a43.85,43.85,0,0,1,4.5-19.27l28.42-57.58a36.31,36.31,0,0,0,3.73-16v-47a62.94,62.94,0,0,1,12.41-37.63l22-29.89,15.49,11.43-22,29.89a43.84,43.84,0,0,0-8.65,26.2v47a55.66,55.66,0,0,1-5.72,24.49L65.76,451.72a24.48,24.48,0,0,0-2.51,10.75v69.78H78.61V452.56a9.63,9.63,0,0,1,7.64-9.42l27.31-5.77a61,61,0,0,0,39.26-27.49l18.85-30.61a9.62,9.62,0,0,1,8.2-4.58h0l176.13,1a9.6,9.6,0,0,1,8.11,4.53l39.67,63.66a24.37,24.37,0,0,1,1.66,22.64L376.8,532.25h16.57l28.82-68.65a24.22,24.22,0,0,0,.2-18.38L399,385.84a9.64,9.64,0,0,1,1.26-9.31l48.13-64.09a39.35,39.35,0,0,0,8-23.8v-65.9h19.25v65.9A59.27,59.27,0,0,1,463.75,324l-44.91,59.79,21.46,54.38a43.4,43.4,0,0,1-.36,32.89L408.65,545.6A9.63,9.63,0,0,1,399.77,551.5Z" transform="translate(-44 -39.5)"/><path d="M162.56,538.45H133a9.62,9.62,0,0,1-9.62-9.62V440.52a9.63,9.63,0,1,1,19.25,0v78.69h10.27V456.57A9.62,9.62,0,0,1,160,447.3l27.17-7.52a71.68,71.68,0,0,0,42-31.29L247,379.67a9.63,9.63,0,0,1,16.36,10.15l-17.89,28.82a90.84,90.84,0,0,1-53.19,39.69l-20.12,5.56v64.94A9.62,9.62,0,0,1,162.56,538.45Z" transform="translate(-44 -39.5)"/><path d="M366.78,538.45H337.67A9.76,9.76,0,0,1,330,534.8a9.13,9.13,0,0,1-1.66-8.1l16-58a22,22,0,0,0-1.89-16.4l-31.68-58.59a9.21,9.21,0,0,1,4.05-12.61,9.78,9.78,0,0,1,13,3.93l31.67,58.6A40.16,40.16,0,0,1,363,473.5l-12.77,46.28h16.57a9.34,9.34,0,1,1,0,18.67Z" transform="translate(-44 -39.5)"/><path d="M464.66,224.91a48.44,48.44,0,0,1-19.45-4.07l-1.28-.57-21.39-15.9A9.62,9.62,0,1,1,434,188.92l19.63,14.59a30,30,0,0,0,27.43-2.7l20.31-13,2.73-.8,1.43,0h26.11V171.15H522.6a12.61,12.61,0,0,1-5.5-1.28l-32-15.78H442.21a12.56,12.56,0,0,1-5.79-1.43l-29-15.24a38.62,38.62,0,0,0,15.05,19.4l7.08,4.73a9.63,9.63,0,0,1-10.71,16l-7.07-4.73A57.57,57.57,0,0,1,386.08,125,12.4,12.4,0,0,1,404.27,114l39.62,20.83h42.78a12.47,12.47,0,0,1,5.5,1.28l32,15.78H538.5a12.41,12.41,0,0,1,12.41,12.37V193.9a12.41,12.41,0,0,1-12.41,12.37H508.3L491.44,217A49.78,49.78,0,0,1,464.66,224.91Z" transform="translate(-44 -39.5)"/><path d="M436.42,103.91H399.77a9.63,9.63,0,0,1-9.62-9.63V49.12a9.63,9.63,0,0,1,19.25,0V84.66h17.4V49.12a9.63,9.63,0,0,1,19.25,0V94.28A9.63,9.63,0,0,1,436.42,103.91Z" transform="translate(-44 -39.5)"/><path d="M475.11,148.07a9.63,9.63,0,0,1-9.62-9.63V111.35a9.61,9.61,0,0,1,7.38-9.36l63.88-15.3V54.14a9.63,9.63,0,0,1,19.25,0V94.28a9.61,9.61,0,0,1-7.38,9.36l-63.89,15.3v19.5A9.63,9.63,0,0,1,475.11,148.07Z" transform="translate(-44 -39.5)"/><path d="M510.74,105.92a9.63,9.63,0,0,1-9.62-9.63V54.14a9.63,9.63,0,0,1,19.25,0V96.29A9.63,9.63,0,0,1,510.74,105.92Z" transform="translate(-44 -39.5)"/><path d="M466,148.07a9.6,9.6,0,0,1-8-4.28L428.42,99.63a9.62,9.62,0,1,1,16-10.69L474,133.09a9.63,9.63,0,0,1-8,15Z" transform="translate(-44 -39.5)"/></svg>