<?xml version="1.0" encoding="utf-8"?>
<!-- Generator: Adobe Illustrator 23.0.5, SVG Export Plug-In . SVG Version: 6.00 Build 0)  -->
<svg version="1.1" id="Layer_1" xmlns="http://www.w3.org/2000/svg" fill="#fff" xmlns:xlink="http://www.w3.org/1999/xlink" x="0px" y="0px"
	 viewBox="0 0 512 512" style="enable-background:new 0 0 512 512;" xml:space="preserve">
<g>
	<path d="M42.05,512c3.42-5.76,6.81-11.55,10.27-17.29c3.92-6.5,7.95-12.94,11.81-19.48c0.88-1.5,1.82-2.09,3.58-2.07
		c6.8,0.06,13.6-0.1,20.4-0.08c1.44,0,2.3-0.44,3.11-1.67c16.42-25.18,32.88-50.33,49.4-75.44c0.58-0.89,1.94-1.79,2.94-1.8
		c11.36-0.13,22.72-0.08,34.09-0.07c0.47,0,0.94,0.08,1.76,0.15c-3.48,10.29-6.91,20.44-10.45,30.93c7.94,0,15.52,0.04,23.11-0.08
		c0.6-0.01,1.49-1.02,1.74-1.74c3.16-8.96,6.27-17.93,9.27-26.95c0.56-1.67,1.35-2.16,3.06-2.16c10.88-0.03,21.75-0.18,32.63-0.28
		c0.88-0.01,1.75,0,2.88,0c0,23.02,0,45.93,0,69.06c4.98,0,9.72,0,14.82,0c0.34-22.97,0.67-45.95,1.01-69.22
		c3.69,0,7.11,0.01,10.54,0c22.64-0.06,45.28-0.12,67.92-0.2c10.4-0.04,20.8-0.09,31.2-0.21c1.45-0.02,2.29,0.46,3.09,1.67
		c16.47,24.58,32.99,49.11,49.45,73.7c1,1.5,2,2.13,3.84,2.1c6.4-0.13,12.8-0.11,19.2,0.02c0.96,0.02,2.29,0.75,2.79,1.55
		c8.21,13.15,16.32,26.37,24.45,39.57c-98.29,0-196.58,0-294.87,0c1.39-7.69,2.77-15.38,4.16-23.07c0.97-5.38,1.94-10.76,2.97-16.41
		c-11.18,0-22.03-0.02-32.88,0.06c-0.55,0-1.35,0.76-1.61,1.36c-5.64,12.67-11.22,25.37-16.81,38.06C101.28,512,71.66,512,42.05,512
		z M446.92,499.46c-2.93-4.76-5.76-9.19-8.4-13.72c-0.86-1.47-1.88-1.88-3.48-1.86c-6.16,0.07-12.32-0.05-18.48,0.08
		c-1.85,0.04-2.85-0.62-3.86-2.11c-15.52-23.19-31.24-46.25-46.56-69.56c-2.91-4.43-5.71-6.15-11.22-5.89
		c-13.25,0.64-26.55,0.29-39.83,0.32c-13.04,0.02-26.08,0-39.13,0c-1.8,0-3.59,0-5.61,0c-0.33,23.43-0.65,46.43-0.98,69.67
		c-9.34,0-18.34,0-27.49,0c0,7.8,0,15.35,0,23.07C310.12,499.46,378.26,499.46,446.92,499.46z M161.14,407.2
		c-3.73,0-7.07,0.07-10.42-0.03c-1.46-0.04-2.29,0.46-3.08,1.68c-16.38,25.12-32.81,50.2-49.18,75.32c-0.92,1.41-1.9,1.83-3.49,1.82
		c-6.72-0.03-13.44,0.06-20.16,0.14c-0.75,0.01-1.88,0.07-2.17,0.52c-2.66,4.12-5.17,8.34-7.85,12.74c0.74,0.12,1.04,0.21,1.34,0.21
		c18.01,0.05,36.01,0.07,54.02,0.17c1.68,0.01,2.14-0.91,2.68-2.14c5.33-12.05,10.73-24.07,16.02-36.14
		c0.7-1.61,1.48-2.29,3.32-2.27c14.48,0.19,28.96,0.27,43.44,0.37c3.99,0.03,7.97,0,12.29,0c-2.47,13.47-4.88,26.6-7.3,39.82
		c12.78,0,25.23,0,37.96,0c0-30.74,0-61.34,0-92.22c-4.39,0-8.77,0.09-13.14-0.04c-1.74-0.05-2.47,0.53-3.02,2.18
		c-3,9.1-6.16,18.15-9.21,27.23c-0.43,1.27-0.87,1.95-2.45,1.93c-14-0.2-28-0.3-42-0.41c-2.52-0.02-5.04,0-7.93,0
		C154.31,427.59,157.67,417.55,161.14,407.2z"/>
	<path d="M256.92,177.31c60.99,94.82,121.75,189.28,182.81,284.21c-4.02,0-7.65-0.21-11.25,0.06c-3.15,0.24-4.9-0.84-6.64-3.56
		c-54.4-84.79-108.92-169.51-163.42-254.24c-0.43-0.67-0.89-1.32-1.49-2.22c-0.59,0.84-1.08,1.52-1.54,2.23
		c-54.92,84.94-109.84,169.87-164.69,254.85c-1.36,2.11-2.67,3.12-5.28,2.94c-3.9-0.27-7.83-0.07-12.33-0.07
		C134.44,366.69,195.57,272.17,256.92,177.31z"/>
	<path d="M286.54,103.21c-0.01,17.08-13.73,30.75-30.85,30.73c-16.73-0.02-30.56-14.02-30.56-30.92c0-16.86,13.85-30.82,30.64-30.86
		C272.9,72.11,286.55,85.88,286.54,103.21z"/>
	<path d="M147.73,383.97c3.02-4.57,5.57-8.51,8.23-12.36c0.31-0.46,1.21-0.73,1.84-0.72c19.36,0.09,38.71,0.22,58.07,0.34
		c7.6,0.05,15.2,0.07,22.8,0.11c13.28,0.06,26.56,0.09,39.84,0.26c1.04,0.01,2.41,0.79,3.05,1.65c2.56,3.44,4.9,7.05,7.42,10.73
		C241.96,383.97,195.22,383.97,147.73,383.97z"/>
	<path d="M292.96,273.47c24.31,37.02,48.45,73.8,72.88,110.99c-5.47,0-10.48,0.06-15.48-0.08c-0.61-0.02-1.33-1.02-1.78-1.71
		c-16.9-25.71-33.77-51.44-50.64-77.17c-4.03-6.15-8.03-12.32-12.13-18.42c-0.8-1.19-0.79-2.03,0.03-3.18
		C288.23,280.54,290.5,277.09,292.96,273.47z"/>
	<path d="M187.08,324.18c23.68-36.55,47.13-72.73,70.7-109.1c2.78,4.15,5.35,8,7.98,11.92c-6.24,9.63-12.45,19.22-18.67,28.81
		c-14.4,22.21-28.81,44.4-43.16,66.64c-0.85,1.31-1.71,1.81-3.25,1.77C196.32,324.11,191.94,324.18,187.08,324.18z"/>
	<path d="M258.49,0c0.34,1.99,0.86,4.15,1.04,6.34c0.26,3.23,0.7,6.37,2.73,9.03c2.69,3.53,2.66,7.39,1.47,11.4
		c-0.57,1.91-1.35,3.77-1.82,5.7c-0.35,1.45-0.58,3-0.48,4.47c0.17,2.55,1.74,3.73,4.17,3.49c2.31-0.23,3.84-1.87,3.62-4.22
		c-0.2-2.06-0.87-4.07-1.05-6.13c-0.35-3.86,1.43-6.79,4.2-9.26c0.74,3.15,1.38,6.07,2.14,8.96c0.24,0.91,0.72,1.78,1.17,2.62
		c6.13,11.53-0.25,25.16-13.17,27.56c-3.87,0.72-7.99,0.82-11.9,0.38c-8.79-0.98-16.44-9.7-16.98-18.57
		c-0.23-3.77,1.14-6.92,3.44-9.69c2.19-2.64,3.64-5.3,2.9-8.94c-0.47-2.29,0.72-4.25,2.08-5.68c1.08,2.78,2.26,5.51,3.2,8.32
		c0.41,1.23,0.61,2.66,0.43,3.93c-0.23,1.72-0.89,3.38-1.42,5.06c-0.9,2.82-0.34,4.68,1.61,5.17c2.89,0.73,5.84-0.75,6.08-3.45
		c0.18-1.98-0.03-4.21-0.81-6.01c-1.84-4.21-2.9-8.55-2.3-13.03c0.31-2.31,1.64-4.57,2.85-6.65C253.77,7.17,256.13,3.69,258.49,0z"
		/>
	<path d="M161.3,363.67c2.96-4.4,5.55-8.32,8.24-12.16c0.32-0.46,1.2-0.73,1.83-0.73c18.4,0,36.8,0.05,55.2,0.08
		c12.88,0.02,25.76,0.05,38.64-0.03c1.99-0.01,3.2,0.57,4.27,2.28c2.19,3.5,4.62,6.85,7.17,10.57
		C238.14,363.67,200.02,363.67,161.3,363.67z"/>
	<path d="M340.79,384.49c-5.47,0-10.25,0.05-15.03-0.06c-0.62-0.01-1.4-0.69-1.79-1.27c-17.06-25.63-34.08-51.28-51.13-76.91
		c-0.78-1.17-0.81-2.01,0.04-3.19c2.32-3.24,4.48-6.6,6.96-10.29C300.14,323.32,320.28,353.62,340.79,384.49z"/>
	<path d="M270.47,234.1c2.72,4.07,5.24,7.84,7.85,11.75c-4.28,6.55-8.55,13.11-12.83,19.66c-12.38,18.94-24.78,37.87-37.11,56.84
		c-0.88,1.36-1.8,1.92-3.44,1.87c-4.31-0.12-8.63-0.04-13.5-0.04C231.19,294.04,250.73,264.21,270.47,234.1z"/>
	<path d="M259.16,323.41c2.71-4.01,5.3-7.84,8.14-12.04c16.2,24.39,32.22,48.52,48.54,73.09c-5.46,0-10.46,0.03-15.46-0.05
		c-0.48-0.01-1.09-0.63-1.41-1.12C285.72,363.4,272.49,343.48,259.16,323.41z"/>
	<path d="M208.81,117.38c20.29,38.69,76.85,36.47,94.13,0.4c-0.83,18.46-18.47,40.02-47.02,40.06
		C228.19,157.87,210.02,137.17,208.81,117.38z"/>
	<path d="M174.84,343.62c2.87-4.21,5.39-8,8.04-11.69c0.41-0.57,1.43-0.99,2.17-0.99c23.12-0.05,46.24-0.05,69.36-0.01
		c0.62,0,1.59,0.26,1.8,0.69c1.92,3.91,3.7,7.89,5.6,12C232.75,343.62,204.08,343.62,174.84,343.62z"/>
	<path d="M282.71,252.55c2.52,3.74,4.91,7.13,7.08,10.65c0.37,0.6,0.05,1.96-0.41,2.68c-11.58,17.82-23.34,35.53-34.74,53.46
		c-2.39,3.77-4.87,5.51-9.32,4.91c-2.96-0.4-6.01-0.08-9.54-0.08C251.55,300.12,267.05,276.46,282.71,252.55z"/>
	<path d="M305.08,477.62c0-17.3,0-34.54,0-52.11c1.01,0,2.02,0,3.03,0c7.68,0,15.36,0.01,23.04-0.01c1.26,0,2.18,0.09,2.8,1.54
		c7.06,16.52,14.21,33,21.33,49.5c0.12,0.28,0.19,0.58,0.34,1.08C338.75,477.62,322.03,477.62,305.08,477.62z M318.23,438.69
		c0,8.7,0,17.28,0,25.83c5.91,0,11.55,0,17.52,0c-0.39-0.98-0.66-1.7-0.97-2.41c-2.69-6.23-5.42-12.44-8.08-18.68
		c-2.23-5.23-2.2-5.24-7.93-4.91C318.63,438.53,318.49,438.61,318.23,438.69z"/>
</g>
</svg>
