<svg id="Capa_1" fill='#fff' enable-background="new 0 0 512 512" height="512" viewBox="0 0 512 512" width="512" xmlns="http://www.w3.org/2000/svg"><g><path d="m230.37 415.779c-2.214-3.377-6.485-5.081-10.42-4.225-4.151.903-7.317 4.42-7.819 8.632-.494 4.139 1.771 8.272 5.51 10.104 3.706 1.816 8.247 1.156 11.263-1.671 3.524-3.305 4.136-8.827 1.466-12.84z"/><path d="m482.307 425.47h-90.227l-47.184-121.594c-.182-.469-.398-.923-.648-1.358-7.609-13.267-21.753-21.508-36.913-21.508h-11.274v-38.543c0-37.412-27.908-68.429-64.001-73.326v-32.317c0-.232-.008-.463-.024-.695-.127-1.846-.755-3.555-1.749-4.99-.299-.433-.632-.84-.995-1.221-.033-.035-.066-.069-.1-.104l-93.315-94.947v-24.867c0-5.523-4.478-10-10-10s-10 4.477-10 10v24.868l-93.315 94.947c-.034.034-.067.069-.1.104-.363.381-.696.788-.995 1.221-.994 1.436-1.622 3.144-1.749 4.99-.005.07-.009.14-.013.21-.008.157-.011.314-.012.471v.014 365.175c0 5.522 4.478 10 10 10h192.367c5.522 0 10-4.478 10-10v-35.648c0-5.522-4.478-10-10-10s-10 4.478-10 10v25.648h-30.164v-44.729c0-30.889-25.131-56.018-56.021-56.018-30.889 0-56.019 25.13-56.019 56.018v44.729h-30.163v-162.588h172.367v46.526c0 5.522 4.478 10 10 10s10-4.478 10-10v-8.555h49.646l47.184 121.594c.182.469.398.923.648 1.358 7.609 13.267 21.753 21.508 36.913 21.508h115.856c5.522 0 10-4.478 10-10v-66.373c0-5.523-4.478-10-10-10zm-392.45 21.801c0-19.86 16.159-36.018 36.021-36.018 19.86 0 36.019 16.158 36.019 36.018v44.729h-72.04zm142.206-257.876c25.013 4.704 43.999 26.713 43.999 53.071v38.543h-44.001zm-106.186-136.169 72.334 73.599h-144.668zm-36.02 256.186v-44.598c0-19.86 16.159-36.019 36.021-36.019 19.86 0 36.019 16.158 36.019 36.019v44.598zm92.039 0v-44.598c0-30.889-25.131-56.019-56.021-56.019-30.889 0-56.019 25.13-56.019 56.019v44.598h-30.163v-162.588h172.367v162.588zm290.411 182.432h-105.857c-7.788 0-15.088-4.147-19.213-10.868l-49.363-127.209c-1.492-3.848-5.195-6.383-9.322-6.383h-56.491v-46.374h75.275c7.788 0 15.088 4.147 19.213 10.868l49.363 127.209c1.492 3.848 5.195 6.383 9.322 6.383h87.072v46.374z"/></g></svg>