<svg id="Layer_1" fill="#fff" data-name="Layer 1" xmlns="http://www.w3.org/2000/svg" viewBox="0 0 512 512"><title>tree_map_chart</title><path d="M546.38,556H53.62A9.62,9.62,0,0,1,44,546.38V53.62A9.62,9.62,0,0,1,53.62,44H546.38A9.62,9.62,0,0,1,556,53.62V546.38A9.62,9.62,0,0,1,546.38,556ZM63.25,536.75h473.5V63.25H63.25Z" transform="translate(-44 -44)"/><path d="M232.63,550.23A9.63,9.63,0,0,1,223,540.6v-485a9.63,9.63,0,1,1,19.25,0V540.6A9.63,9.63,0,0,1,232.63,550.23Z" transform="translate(-44 -44)"/><path d="M541.56,210.5h-307a9.63,9.63,0,1,1,0-19.25h307a9.63,9.63,0,1,1,0,19.25Z" transform="translate(-44 -44)"/><path d="M428,551.19a9.63,9.63,0,0,1-9.62-9.63V205.68a9.62,9.62,0,0,1,19.24,0V541.56A9.63,9.63,0,0,1,428,551.19Z" transform="translate(-44 -44)"/><path d="M543.49,467.46H430.89a9.63,9.63,0,1,1,0-19.25h112.6a9.63,9.63,0,0,1,0,19.25Z" transform="translate(-44 -44)"/></svg>