<?xml version="1.0" encoding="utf-8"?>
<!-- Generator: Adobe Illustrator 24.2.3, SVG Export Plug-In . SVG Version: 6.00 Build 0)  -->
<svg version="1.1" id="Layer_1" fill="#fff" xmlns="http://www.w3.org/2000/svg" xmlns:xlink="http://www.w3.org/1999/xlink" x="0px" y="0px"
	 viewBox="0 0 512 512" style="enable-background:new 0 0 512 512;" xml:space="preserve">
<g>
	<polygon points="363.5,115.8 363.5,115.8 363.5,115.8 	"/>
	<path d="M261.1,499c-0.1-0.5-0.3-1-0.4-1.6c-0.2,0,0-0.2,0-0.2c-0.3-0.5-0.6-1.1-1-1.6c0.3,0.5,0.7,1.1,1,1.6
		c-0.4-1.3-1.1-2.3-2.1-3.2c-0.4-0.4-0.9-1.1-1.7-1.5c0.5,0.3,1,0.8,1.3,1.1c-0.4-0.4-0.9-0.8-1.3-1.1c-0.6-0.4-1.1-0.9-1.7-1.1
		c-0.4-0.2-0.9-0.4-1.4-0.5c-0.5-0.1-1-0.2-1.6-0.3c-0.2,0-0.4,0-0.4,0h-0.6c-27.5-3.2-54-30.7-72.7-75.7v0
		c-2.1-5.3-8.5-7.9-13.9-5.8c-5.5,2.3-8.1,8.5-5.8,14.1c10.5,24.7,22.8,44.8,36.9,59.5c-42.2-11.3-79.8-34.3-109-65.1v0
		c-2.1,1-4.2,2-6.2,3.1s-4,2.2-5.9,3.3c-0.4,0.2-0.9,0.4-1.3,0.6c0.4-0.2,0.9-0.3,1.3-0.6c1.9-1.1,3.9-2.2,5.9-3.3
		c2-1.1,4.1-2.2,6.2-3.1c17.1-8.5,36.9-15.4,59.1-20.9c5.8-1.5,9.2-7.3,7.9-13c-1.5-5.5-7.3-9.2-13-7.7
		c-25.8,6.4-48.9,14.7-68.5,25.2C42.5,363.7,23.9,317,21.5,266.7h0c-0.1-1.8-0.2-3.6-0.2-5.3c0,1.8,0.1,3.5,0.2,5.3h106.7
		c0.4,24.7,2.6,48.4,6.4,70.4c0.9,5.1,5.3,8.7,10.5,8.7c0.6,0,1.3,0,1.9,0c5.8-1.1,9.6-6.6,8.5-12.4h0c-3.6-20.9-5.5-43.3-6-66.8h0
		h69.3c6,0,10.7-4.7,10.7-10.7c0-5.8-4.7-10.7-10.7-10.7h-69.3c0.6-37.5,5.8-73.2,14.1-104.5c25.8,5.1,53.3,7.9,81.7,8.3v70.2
		c0,6,4.7,10.7,10.7,10.7s10.7-4.7,10.7-10.7v-70.2c28.4-0.4,55.9-3.2,81.7-8.3c9.2,34.3,14.3,73.6,14.3,115.2c0,3.4,0,6.8-0.2,10
		c-0.2,6,4.3,11.1,10,11.3c5.5,0.2,10.9-4.1,11.3-10c0.2-3.6,0.2-7.5,0.2-11.3c0-43.5-5.1-84.1-14.3-119.5c-0.5-1.8-1-3.6-1.4-5.4
		c-1-3.5-2-7-3.1-10.3c-0.5-1.7-1.1-3.4-1.7-5l0,0c-11.5-36.5-27.7-66.3-47.1-86.4c-10-2.8-20.3-4.8-30.7-6.2
		c-6.3-0.8-12.6-1.4-19-1.7l0,0c6.4,0.3,12.7,0.9,19,1.7c10.4,1.4,20.7,3.4,30.7,6.2c41.8,11.3,79.6,33.9,109.2,64.9h0l0,0
		c-18.1,9-39.3,16.2-62.1,21.5c0.6,1.7,1.1,3.3,1.7,5c1.1,3.4,2.1,6.8,3.1,10.3c0.5,1.8,1,3.5,1.4,5.4c26-6.4,49.9-15.1,70.4-25.6
		l0,0c2.8-1.3,5.5-2.8,8.1-4.3l-10.7-18.6h0l10.7,18.6c-2.6,1.5-5.3,3-8.1,4.3c21.5,27.1,37.3,59.3,45,94.5c1.3,5.8,7,9.4,12.8,8.1
		c5.8-1.3,9.4-6.8,8.1-12.6C480.4,84.7,375.5,0.2,256.4,0H256C114.8,0,0,115,0,256c0,62.1,22.6,119.3,59.7,163.6
		c0,0.2,0.2,0.2,0.2,0.4c0.3,0.3,0.5,0.6,0.8,0.9c0.8,0.9,1.5,1.6,2.2,2.3c0.2,0.2,0.4,0.4,0.7,0.5c0.7,0.5,1.5,0.8,2.3,1.1
		c-0.8-0.3-1.6-0.6-2.3-1.1c-0.2-0.2-0.5-0.3-0.7-0.5c45.9,53.1,113.1,87.3,187.7,88.7h0.2c1.3,0,2.6-0.2,3.6-0.9
		c2.6-0.6,4.7-2.6,5.8-5.1c0.2-0.5,0.4-1.2,0.6-1.8c-0.2,0.7-0.4,1.3-0.6,1.8c0.6-1.1,1.1-2.3,1.1-3.8c0-0.2,0-0.4,0.1-0.6
		c0,0.2,0,0.4-0.1,0.6c0.2-0.2,0.2-0.4,0.2-0.6c0-1.5-0.2-2.8-0.9-4.1C260.8,498,261,498.5,261.1,499z M169.6,120.3
		c17.5-53.3,45-90.7,75.7-97.7v105.2C219.1,127.4,193.5,124.8,169.6,120.3z M256,149.3c-2.7,0-5.4,0-8.1-0.1
		C250.6,149.3,253.3,149.3,256,149.3L256,149.3z M342.4,120.3c-23.9,4.5-49.5,7-75.7,7.5V22.6C297.4,29.7,324.9,67,342.4,120.3z
		 M83.2,92.7c-2-1-4-2-5.9-3.1C79.2,90.7,81.1,91.7,83.2,92.7z M21.5,245.3c2.3-50.8,20.7-97.1,50.1-134.4
		c20.5,10.7,44.4,19.2,70.6,25.6c1.9-7.3,3.8-14.1,6.2-20.7c-23-5.5-44.2-12.8-62.3-21.5c-3.8,4-7.6,8.1-11.1,12.4
		c3.5-4.2,7.2-8.4,11.1-12.4c29.4-30.9,67.2-54,109.7-65.1c-19.4,20.1-35.6,49.9-47.4,86.6c-2.3,6.6-4.3,13.4-6.2,20.7
		c-8.3,32.4-13.4,69.3-14.1,108.8H21.5c-0.1,1.7-0.2,3.5-0.2,5.3C21.4,248.8,21.4,247,21.5,245.3L21.5,245.3z M250.7,511.8
		L250.7,511.8c0.4,0,0.7,0,1.1,0C251.4,511.8,251,511.8,250.7,511.8z M261.2,499.3c0.2,0.7,0.3,1.5,0.2,2.3
		C261.4,500.8,261.3,500,261.2,499.3z"/>
	<path d="M501.3,256c-6,0-10.7,4.9-10.7,10.7c0,29.4-23.9,53.3-53.3,53.3h-128v-53.3c0-4.3-2.6-8.1-6.6-9.8
		c-3.8-1.7-8.5-0.6-11.5,2.3l-96,96c-4.3,4.3-4.3,10.9,0,15.1l96,96c1.9,1.9,4.7,3,7.5,3c1.3,0,2.8-0.2,4.1-0.6
		c4.1-1.7,6.6-5.5,6.6-10v-53.3h85.3c64.6,0,117.3-52.5,117.3-117.3v-21.3C512,260.9,507.3,256,501.3,256z M394.7,384h-96
		c-6,0-10.7,4.9-10.7,10.7v38.4l-70.2-70.4l70.2-70.2v38.2c0,6,4.7,10.7,10.7,10.7h138.7c17.1,0,33.1-5.8,45.7-15.6
		C468.3,360.1,434.1,384,394.7,384z"/>
	<path d="M59.9,420.1c0.6,1.3,1.7,2.3,3,3.2c-0.6-0.6-1.4-1.4-2.2-2.3C60.5,420.7,60.2,420.4,59.9,420.1z"/>
</g>
</svg>
