<?xml version="1.0" encoding="utf-8"?>
<!-- Generator: Adobe Illustrator 24.2.3, SVG Export Plug-In . SVG Version: 6.00 Build 0)  -->
<svg version="1.1" id="Layer_1" fill="#fff" xmlns="http://www.w3.org/2000/svg" xmlns:xlink="http://www.w3.org/1999/xlink" x="0px" y="0px"
	 viewBox="0 0 512 512" style="enable-background:new 0 0 512 512;" xml:space="preserve">
<g>
	<path d="M459.7,240c0.3,0,0.6,0,0.8,0c3.9,0,7.1-2.9,7.5-6.7l3.8-34.2c0.5-4.2-2.5-7.9-6.7-8.4c-4.2-0.5-7.9,2.5-8.4,6.7l0,0
		l-3.8,34.2C452.6,235.8,455.5,239.5,459.7,240C459.7,240,459.7,240,459.7,240z"/>
	<path d="M504.4,103.5h-18.3l-23.5-75.1c-0.8-2.6-3-4.6-5.7-5.2L404,12.6c-1.5-0.3-3-0.1-4.4,0.4l-49,20.3l-14.6-18.1
		c-1.4-1.8-3.6-2.8-5.9-2.8H260c-1.3,0-2.5,0.3-3.6,0.9l-29,15.8L191.9,1.6c-1.7-1.3-3.9-1.9-6.1-1.5L71.4,22.5
		C69,23,67,24.5,66,26.7l-35.7,76.8H7.6c-4.2,0-7.6,3.4-7.6,7.6V137c0,4.2,3.4,7.6,7.6,7.6H8l27.7,248.6h-3.2
		c-4.2,0-7.6,3.4-7.6,7.6c0,0.3,0,0.6,0,0.8l6,54.3c0.4,3.8,3.7,6.7,7.5,6.7h38.9c5.5,32.3,36.1,54,68.4,48.5
		c24.8-4.2,44.3-23.7,48.5-48.5h123.3c5.5,32.3,36.1,54,68.4,48.5c24.8-4.2,44.3-23.7,48.5-48.5h38.9c3.9,0,7.1-2.9,7.5-6.7l6-54.3
		c0.5-4.1-2.5-7.9-6.7-8.4c-0.3,0-0.6,0-0.8,0h-3.2L504,144.5h0.4c4.2,0,7.6-3.4,7.6-7.6v-25.9C512,106.9,508.6,103.5,504.4,103.5z
		 M403.3,27.9L414,30l9.7,24.9l-1.6,10.4c-0.6,4.1,2.2,8,6.3,8.6c0.4,0.1,0.8,0.1,1.1,0.1c3.7,0,6.9-2.7,7.5-6.4l1.9-12.4
		c0.2-1.3,0.1-2.7-0.4-3.9l-6.9-17.7l18,3.6l20.7,66.3H394l-23-44.6c-0.2-0.5-0.5-0.9-0.8-1.3l-9.6-11.9L403.3,27.9z M261.9,27.6
		h29.9l-3.2,7.7c-0.7,1.6-0.8,3.5-0.2,5.2l9.4,29.5c1.1,4,5.3,6.4,9.3,5.2c4-1.1,6.4-5.3,5.2-9.3c0-0.2-0.1-0.3-0.1-0.5l-8.5-26.9
		l4.6-11h18.4l15.9,19.7l0,0L358,66.5l19,37H273.6l-3.7-20.8c-0.1-0.8-0.4-1.6-0.8-2.4l-17.6-31.6c-0.5-0.9-1.2-1.7-2-2.3l-9.2-7.1
		L261.9,27.6z M78.1,36.6l54.8-10.7l-12.4,11.9c-0.9,0.9-1.6,2-2,3.3l-9,29.7c-1.2,4,1,8.2,5,9.4c4,1.2,8.2-1,9.4-5l8.4-27.8
		l28-26.8l24.9-4.9L198.5,26v25.8l-16.3,18.9c-2.7,3.2-2.2,8,1,10.7c3.1,2.6,7.7,2.2,10.4-0.8l18.1-21.1c1.2-1.4,1.8-3.1,1.8-4.9
		V37.7l8.3,6.4l0,0L239,57.4l16.3,29.1l3,16.9H47L78.1,36.6z M15.1,118.6h481.7v10.8H15.1V118.6z M40.9,408.3h55.5
		c-11.3,10.1-18.4,24.1-19.7,39.2H45.3L40.9,408.3z M135.9,496.9c-24.5,0-44.3-19.8-44.3-44.3c0-24.5,19.8-44.3,44.3-44.3
		s44.3,19.8,44.3,44.3l0,0C180.1,477,160.3,496.8,135.9,496.9z M317,447.5H195c-1.3-15.1-8.4-29.1-19.7-39.2h161.4
		C325.3,418.4,318.3,432.4,317,447.5L317,447.5z M376.1,496.9c-24.5,0-44.3-19.8-44.3-44.3c0-24.5,19.8-44.3,44.3-44.3
		c24.5,0,44.3,19.8,44.3,44.3l0,0C420.4,477,400.6,496.8,376.1,496.9L376.1,496.9z M466.7,447.5h-31.4c-1.3-15.1-8.4-29.1-19.7-39.2
		h55.5L466.7,447.5z M461.1,393.2H50.9L23.2,144.5h465.5L461.1,393.2z"/>
	<path d="M376.1,432.1c-11.3,0-20.5,9.2-20.5,20.5s9.2,20.5,20.5,20.5c11.3,0,20.5-9.2,20.5-20.5
		C396.7,441.3,387.5,432.1,376.1,432.1z M376.1,458c-3,0-5.4-2.4-5.4-5.4c0-3,2.4-5.4,5.4-5.4c3,0,5.4,2.4,5.4,5.4
		C381.5,455.6,379.1,458,376.1,458z"/>
	<path d="M135.9,432.1c-11.3,0-20.5,9.2-20.5,20.5s9.2,20.5,20.5,20.5c11.3,0,20.5-9.2,20.5-20.5
		C156.4,441.3,147.2,432.1,135.9,432.1z M135.9,458c-3,0-5.4-2.4-5.4-5.4c0-3,2.4-5.4,5.4-5.4c3,0,5.4,2.4,5.4,5.4
		C141.3,455.6,138.8,458,135.9,458z"/>
	<path d="M130.7,328.3h25.9c4.2,0,7.6-3.4,7.6-7.6V217c0-4.2-3.4-7.6-7.6-7.6h-25.9c-4.2,0-7.6,3.4-7.6,7.6v103.7
		C123.1,324.9,126.5,328.3,130.7,328.3z M138.3,224.6h10.8v88.6h-10.8V224.6z"/>
	<path d="M243,328.3H269c4.2,0,7.6-3.4,7.6-7.6V217c0-4.2-3.4-7.6-7.6-7.6H243c-4.2,0-7.6,3.4-7.6,7.6v103.7
		C235.5,324.9,238.9,328.3,243,328.3z M250.6,224.6h10.8v88.6h-10.8V224.6z"/>
	<path d="M355.4,328.3h25.9c4.2,0,7.6-3.4,7.6-7.6V217c0-4.2-3.4-7.6-7.6-7.6h-25.9c-4.2,0-7.6,3.4-7.6,7.6v103.7
		C347.8,324.9,351.2,328.3,355.4,328.3z M362.9,224.6h10.8v88.6h-10.8V224.6z"/>
</g>
</svg>
