<?xml version="1.0" encoding="utf-8"?>
<!-- Generator: Adobe Illustrator 24.2.3, SVG Export Plug-In . SVG Version: 6.00 Build 0)  -->
<svg version="1.1" id="Layer_1" fill="#fff" xmlns="http://www.w3.org/2000/svg" xmlns:xlink="http://www.w3.org/1999/xlink" x="0px" y="0px"
	 viewBox="0 0 512 512" style="enable-background:new 0 0 512 512;" xml:space="preserve">
<g>
	<path d="M497,482h-16V196c0-13.8-11.2-25-25-25h-40c-13.8,0-25,11.2-25,25v286h-30V296c0-13.8-11.2-25-25-25h-40
		c-13.8,0-25,11.2-25,25v186h-30V351c0-13.8-11.2-25-25-25h-40c-13.8,0-25,11.2-25,25v131h-30v-95c0-13.8-11.2-25-25-25H56
		c-13.8,0-25,11.2-25,25v95H15c-8.3,0-15,6.7-15,15s6.7,15,15,15h31h60h60h60h60h60h60h60h31c8.3,0,15-6.7,15-15S505.3,482,497,482z
		 M61,482v-90h30v90H61z M181,482V356h30v126H181z M301,482V301h30v181H301z M421,482V201h30v281H421z"/>
	<path d="M15,322.3c94.1,0,196.1-34,287.2-95.6C372.8,179,431.4,118.3,467.9,56.2l14.6,54.3c1.8,6.7,7.9,11.1,14.5,11.1
		c1.3,0,2.6-0.2,3.9-0.5c8-2.1,12.7-10.4,10.6-18.4l-24.6-91.7c0,0,0,0,0-0.1c-0.1-0.2-0.1-0.4-0.2-0.6c-0.5-1.6-1.3-3.1-2.3-4.4
		c0,0-0.1-0.1-0.1-0.1c-0.2-0.3-0.5-0.6-0.7-0.9c-0.1-0.1-0.1-0.2-0.2-0.3c-0.2-0.3-0.5-0.5-0.8-0.7c-0.1-0.1-0.2-0.2-0.3-0.3
		c-0.3-0.3-0.6-0.5-0.9-0.8c-0.1-0.1-0.1-0.1-0.2-0.2c-1.2-0.9-2.6-1.6-4-2c-0.1,0-0.2-0.1-0.3-0.1c-0.4-0.1-0.7-0.2-1.1-0.3
		c-0.2,0-0.3-0.1-0.5-0.1c-0.3-0.1-0.7-0.1-1-0.2c-0.2,0-0.4,0-0.5,0c-0.3,0-0.6-0.1-0.9-0.1c-0.2,0-0.4,0-0.6,0c-0.3,0-0.6,0-0.9,0
		c-0.2,0-0.5,0-0.7,0.1c-0.3,0-0.5,0.1-0.8,0.1c-0.3,0-0.5,0.1-0.8,0.2c-0.2,0-0.4,0.1-0.6,0.1l-91.7,24.6
		c-8,2.1-12.7,10.4-10.6,18.4s10.4,12.8,18.4,10.6l59.1-15.8c-34.1,59.2-90.2,117.6-158.3,163.6c-86.2,58.3-182.2,90.4-270.4,90.4
		c-8.3,0-15,6.7-15,15S6.7,322.3,15,322.3z"/>
</g>
</svg>
