<?xml version="1.0" encoding="utf-8"?>
<!-- Generator: Adobe Illustrator 24.2.3, SVG Export Plug-In . SVG Version: 6.00 Build 0)  -->
<svg version="1.1" id="Layer_1" fill="#fff" xmlns="http://www.w3.org/2000/svg" xmlns:xlink="http://www.w3.org/1999/xlink" x="0px" y="0px"
	 viewBox="0 0 512 512" style="enable-background:new 0 0 512 512;" xml:space="preserve">

<g>
	<path class="st0" d="M426.5,283.9L426.5,283.9l-76.4-119.8c10.8-5.7,18.2-17.1,18.2-30.1c0-14.3-8.9-26.6-21.4-31.6l23.2-81
		c1-3.5,0-7.3-2.5-9.8c-15.4-15.4-40.5-15.4-55.9,0c-3.7,3.7-8.6,5.7-13.8,5.7s-10.1-2-13.8-5.7l0-0.1
		c-15.4-15.4-40.4-15.4-55.8-0.1l-0.3,0.3c-7.6,7.5-20,7.5-27.5-0.1l-0.1-0.1c-15.4-15.4-40.5-15.4-55.9,0c-2.6,2.6-3.5,6.3-2.5,9.8
		l23.2,80.9c-12.6,5-21.4,17.3-21.4,31.6c0,13.1,7.4,24.4,18.2,30.1L85.4,283.9C55.9,330.3,54,386.8,80.4,435
		c26.4,48.2,75.1,77,130,77h91c55,0,103.6-28.8,130-77S456.1,330.3,426.5,283.9z M163,22.5c7.4-4.1,16.9-3,23.2,3.3l0,0l0.1,0.1
		c15.4,15.4,40.4,15.4,55.8,0.1l0.3-0.3c7.6-7.6,20-7.5,27.6,0.1l0,0c15.4,15.4,40.5,15.4,55.9,0c6.3-6.3,15.8-7.4,23.2-3.3
		L326.8,100H185.2L163,22.5z M414,425.4L414,425.4c-22.9,41.7-64.9,66.6-112.5,66.6h-91c-47.6,0-89.6-24.9-112.5-66.6
		s-21.3-90.6,4.3-130.7L183.1,168H211c5.5,0,10-4.5,10-10s-4.5-10-10-10h-33.3c-7.7,0-14-6.3-14-14s6.3-14,14-14h0h156.6
		c7.7,0,14,6.3,14,14s-6.3,14-14,14H301c-5.5,0-10,4.5-10,10s4.5,10,10,10h27.9l80.8,126.7C435.3,334.8,436.9,383.6,414,425.4z"/>
	<path class="st0" d="M256,168c2.6,0,5.2-1.1,7.1-2.9s2.9-4.4,2.9-7.1s-1.1-5.2-2.9-7.1s-4.4-2.9-7.1-2.9s-5.2,1.1-7.1,2.9
		s-2.9,4.4-2.9,7.1s1.1,5.2,2.9,7.1S253.4,168,256,168z"/>
	<path class="st0" d="M314.6,252.9H197.3c-1.4,0-2.5,1.2-2.5,2.7v14c0,1.5,1.1,2.7,2.5,2.7h48.3v48l-35,18.6
		c-0.9,0.5-1.4,1.4-1.4,2.4v10c0,0.9,0.5,1.8,1.2,2.3c0.4,0.3,0.9,0.4,1.3,0.4c0.4,0,0.8-0.1,1.1-0.3l32.7-17.4v14.7l-35,18.6
		c-0.9,0.5-1.4,1.4-1.4,2.4v10.2c0,0.9,0.5,1.8,1.2,2.3c0.4,0.3,0.9,0.4,1.3,0.4c0.4,0,0.8-0.1,1.1-0.3l32.7-17.4v41
		c0,1.5,1.1,2.7,2.5,2.7h15.3c1.4,0,2.5-1.2,2.5-2.7v-52l35-18.6c0.9-0.5,1.4-1.4,1.4-2.4v-10c0-0.9-0.5-1.8-1.2-2.3
		c-0.4-0.3-0.9-0.4-1.3-0.4c-0.4,0-0.8,0.1-1.1,0.3l-32.7,17.4v-14.7l35-18.6c0.9-0.5,1.4-1.4,1.4-2.4v-10c0-0.9-0.5-1.8-1.2-2.3
		c-0.4-0.3-0.9-0.4-1.3-0.4c-0.4,0-0.8,0.1-1.1,0.3l-32.7,17.4v-37.2h48.6c1.4,0,2.5-1.2,2.5-2.7v-13.9
		C317.2,254.1,316,252.9,314.6,252.9z"/>
</g>
</svg>
