<svg id="Layer_2" data-name="Layer 2" xmlns="http://www.w3.org/2000/svg" viewBox="0 0 500 512"><title>7</title><path d="M116.73,314.7,71.56,147.35a29.26,29.26,0,0,1-.13-15.67l24.9-92.46,74.23,73.05.34.42a30.75,30.75,0,0,1,5.68,10.8l0,.15,49.7,182.07-18.1,5.18-49.68-182a11.47,11.47,0,0,0-1.83-3.58L106.06,75.49l-16.51,61.3a9.5,9.5,0,0,0,.06,5.18l0,.17,45.2,167.43Z" transform="translate(-69.68 -36)"/><polygon points="12.49 117.86 9.38 98.88 98.6 83.54 101.71 102.52 12.49 117.86"/><path d="M378.72,308.42H359.93V55.25H254.18V308.42H235.39V45.62A9.51,9.51,0,0,1,244.78,36H369.32a9.51,9.51,0,0,1,9.4,9.62Z" transform="translate(-69.68 -36)"/><rect x="244.78" y="79.44" width="93.72" height="19.25" transform="translate(-70.42 -33.54) rotate(-0.48)"/><rect x="250.43" y="115.16" width="60.97" height="19.25" transform="translate(-71.28 -32.35) rotate(-0.74)"/><rect x="244.78" y="151.33" width="93.72" height="19.25" transform="translate(-71.03 -33.53) rotate(-0.48)"/><rect x="250.43" y="187.05" width="60.97" height="19.25" transform="translate(-72.21 -32.34) rotate(-0.74)"/><rect x="244.78" y="223.23" width="93.72" height="19.25" transform="translate(-71.64 -33.53) rotate(-0.48)"/><rect x="250.43" y="258.95" width="60.97" height="19.25" transform="translate(-73.14 -32.33) rotate(-0.74)"/><path d="M515.83,548H79.08a9.51,9.51,0,0,1-9.4-9.62v-230a9.51,9.51,0,0,1,9.4-9.62H515.83a9.51,9.51,0,0,1,9.4,9.62v230A9.51,9.51,0,0,1,515.83,548ZM88.48,528.75h418V318.05H88.48Z" transform="translate(-69.68 -36)"/><path d="M296.07,482.3c-39,0-75.84-5.31-103.67-14.94-39.74-13.76-48.08-31.5-48.08-44s8.34-30.2,48.08-44c27.83-9.63,64.65-14.94,103.67-14.94s75.84,5.31,103.67,14.94c39.75,13.76,48.09,31.5,48.09,44s-8.34,30.2-48.09,44C371.91,477,335.09,482.3,296.07,482.3Zm0-98.55c-81.16,0-133,23.48-133,39.65s51.8,39.65,133,39.65,133-23.48,133-39.65S377.24,383.75,296.07,383.75Z" transform="translate(-69.68 -36)"/><path d="M482.54,311.36l-17.82-6.13,65.16-198.77a16.18,16.18,0,0,0-1.28-13c-3.1-5.68-9.17-10-16.64-11.73-14.09-3.35-29.13,3.37-32.85,14.66L409,309.14,391.18,303,461.3,90.21c6.91-21,31-32.93,54.9-27.26C528.83,66,539.33,73.63,545,84a35.79,35.79,0,0,1,2.69,28.55Z" transform="translate(-69.68 -36)"/><path d="M538,226.85a9.22,9.22,0,0,1-3-.49,9.67,9.67,0,0,1-6-12.15l21.7-67.28a1.78,1.78,0,0,0-.2-1.58,6.3,6.3,0,0,0-4.23-2.67l-.56-.15L531,138.3a9.65,9.65,0,0,1-6.52-11.86A9.37,9.37,0,0,1,536,119.76l14.57,4.16a25,25,0,0,1,16.3,11.86A21.37,21.37,0,0,1,568.63,153l-21.7,67.28A9.42,9.42,0,0,1,538,226.85Z" transform="translate(-69.68 -36)"/></svg>