<svg id="Layer_2" data-name="Layer 2" xmlns="http://www.w3.org/2000/svg" viewBox="0 0 512 512"><title>8</title><path d="M387.29,564.15c-24.66,0-44.87-17.37-47-40.41L330.09,413c-.75-8.08-6.31-15.3-14.51-18.83a28.62,28.62,0,0,0-23.25.41l-4.1,1.95c-8,3.8-13.25,11.19-13.66,19.26L269.19,522c-1.19,23.62-21.89,42.12-47.11,42.12h-2.19c-17.35,0-33.26-8.89-41.5-23.19l-43.22-75A148.11,148.11,0,0,1,116,407.58l-7.2-66.93a97,97,0,0,0-11.5-36.42L73.66,261A187.08,187.08,0,0,1,50.5,171.43V157.86a100.19,100.19,0,0,1,2.38-21.73c6.19-27.87,24-51.63,50.21-66.92A121.83,121.83,0,0,1,189.26,55.4l79.5,16.42a174,174,0,0,0,69.77,0l82.62-17.06c28.79-5.95,58.18-1.65,82.75,12.11a117.56,117.56,0,0,1,42.37,40,106.17,106.17,0,0,1,16.23,56.23V165a187.14,187.14,0,0,1-29.8,100.82l-18.43,28.83a98.64,98.64,0,0,0-15,42.63l-7,67.18a148,148,0,0,1-18.87,58.35l-44.53,78C420.66,555.2,404.72,564.15,387.29,564.15ZM304.4,372.64a47.52,47.52,0,0,1,18.78,3.87c14.69,6.32,24.68,19.63,26.08,34.75L359.47,522c1.18,12.85,13.4,22.92,27.82,22.92,10.54,0,20.07-5.22,24.87-13.64l44.53-78a128.78,128.78,0,0,0,16.44-50.8l7-67.18a117.81,117.81,0,0,1,17.94-51l18.43-28.83A167.93,167.93,0,0,0,543.25,165v-1.84c0-32.66-18.22-62.37-48.75-79.46C474,72.17,449.3,68.6,425,73.61L342.42,90.67a193.3,193.3,0,0,1-77.56,0l-79.5-16.42C133.16,63.47,82.15,93.1,71.67,140.3a80.75,80.75,0,0,0-1.92,17.56v13.57a167.8,167.8,0,0,0,20.78,80.35L114.21,295A116,116,0,0,1,128,338.59l7.2,66.93a128.92,128.92,0,0,0,16.67,50.82l43.22,75c4.82,8.36,14.33,13.55,24.82,13.55h2.19c15,0,27.21-10.47,27.89-23.84l5.38-106.22c.77-15.16,10.2-28.83,24.63-35.68l4.1-1.94A47.32,47.32,0,0,1,304.4,372.64Z" transform="translate(-50.5 -52.15)"/><path d="M112,223.21a9.62,9.62,0,0,1-9.41-7.65c-9-42.73-3.54-74.12,16.1-93.3,29.54-28.83,79.17-17.57,81.27-17.08a9.62,9.62,0,0,1-4.39,18.74c-.56-.13-41.61-9.27-63.48,12.17-14.59,14.28-18.17,39.69-10.66,75.52a9.64,9.64,0,0,1-9.43,11.6Z" transform="translate(-50.5 -52.15)"/><path d="M390.56,129.74c-13.07,0-26.31-1.32-36-4.3C331,118.19,284.89,93.8,282.94,92.76a9.62,9.62,0,1,1,9-17c.46.25,46.39,24.57,68.23,31.28,18.27,5.61,54,3.61,64.34-.73A9.62,9.62,0,1,1,432,124.06C423.51,127.61,407.17,129.74,390.56,129.74Z" transform="translate(-50.5 -52.15)"/></svg>