<svg id="Layer_1" data-name="Layer 1" xmlns="http://www.w3.org/2000/svg" viewBox="0 0 420 529.47"><title>4_3</title><path d="M423.19,235.49H172.12a10,10,0,0,1-10-10v-41a10,10,0,0,1,10-10H423.19a10,10,0,0,1,10,10v41A10,10,0,0,1,423.19,235.49Zm-241.07-20H413.19v-21H182.12Z" transform="translate(-89.5 -33.96)"/><path d="M188.13,194.5a10,10,0,0,1-9.81-12l7.23-35.29A103.66,103.66,0,0,1,227.7,82.84l13.75-9.64a10,10,0,0,1,11.48,16.38l-13.75,9.64a83.72,83.72,0,0,0-34,52l-7.24,35.28A10,10,0,0,1,188.13,194.5Z" transform="translate(-89.5 -33.96)"/><path d="M411.32,194.5a10,10,0,0,1-9.57-7.13L388.4,142.83a83.7,83.7,0,0,0-37.16-47.91L343,90a10,10,0,0,1,10.29-17.16l8.26,5a103.72,103.72,0,0,1,46,59.33l13.35,44.53a10,10,0,0,1-9.59,12.88Z" transform="translate(-89.5 -33.96)"/><path d="M265.64,156a10,10,0,0,1-9.78-8L237.4,58.57a10,10,0,0,1,5.93-11.25l12.45-5.21a106.14,106.14,0,0,1,83.61.87l12.78,5.67A10,10,0,0,1,358,59.44l-14.77,88.2a10,10,0,1,1-19.73-3.31L337,63.79l-5.68-2.52a86.06,86.06,0,0,0-67.79-.71l-4.85,2L275.45,144a10,10,0,0,1-7.77,11.82A10.24,10.24,0,0,1,265.64,156Z" transform="translate(-89.5 -33.96)"/><path d="M313.65,359.71h-32c-45.57,0-83-35.8-86.1-81a34,34,0,0,1-23.85-32l-.23-21.12,20-.22.23,21.12a13.8,13.8,0,0,0,13.65,13.71h10v12.48c0,37,29.74,67,66.3,67h32c36.57,0,66.31-30.06,66.31-67v-10h11.19A13.79,13.79,0,0,0,404.8,249l.22-23.57,20,.19-.22,23.57a34,34,0,0,1-25.29,32.48C395.06,325.43,358.25,359.71,313.65,359.71Z" transform="translate(-89.5 -33.96)"/><path d="M499.5,563.43H99.5a10,10,0,0,1-10-10V469a10,10,0,0,1,2.38-6.47l1.56-1.84A254.46,254.46,0,0,1,223.18,378.8l10.39-2.74a10,10,0,0,1,5.79.21L264.92,385a104.38,104.38,0,0,0,66,.76l30.21-9.6a10.05,10.05,0,0,1,5.57-.14l8.84,2.33a254.29,254.29,0,0,1,131.7,84.19,10,10,0,0,1,2.3,6.38v84.47A10,10,0,0,1,499.5,563.43Zm-390-20h380V472.61a234.32,234.32,0,0,0-119.1-74.88l-6-1.59-27.45,8.72a124.23,124.23,0,0,1-78.5-.9l-22.7-7.79-7.46,2a234.56,234.56,0,0,0-118.77,74.5Z" transform="translate(-89.5 -33.96)"/><rect x="136.62" y="300.53" width="20" height="51.24"/><rect x="257.23" y="300.53" width="20" height="51.24"/><path d="M392.42,472.75H206.58a10,10,0,0,1-10-9.93L196.11,396l20-.14.4,56.94H382.42V395.88h20v66.87A10,10,0,0,1,392.42,472.75Z" transform="translate(-89.5 -33.96)"/><path d="M150.12,555.92h-20V474a18.74,18.74,0,0,1,18.67-18.76h9.72l.35-39.34,20,.18-.36,40.58a18.76,18.76,0,0,1-18.67,18.58h-9.71Z" transform="translate(-89.5 -33.96)"/><path d="M468.09,553.43h-20V472.75h-9.71a18.76,18.76,0,0,1-18.67-18.58l-.36-40.59,20-.17.34,39.34h9.73a18.73,18.73,0,0,1,18.67,18.75Z" transform="translate(-89.5 -33.96)"/></svg>