<?xml version="1.0" encoding="utf-8"?>
<!-- Generator: Adobe Illustrator 24.2.3, SVG Export Plug-In . SVG Version: 6.00 Build 0)  -->
<svg version="1.1" id="Layer_1" xmlns="http://www.w3.org/2000/svg" xmlns:xlink="http://www.w3.org/1999/xlink" x="0px" y="0px"
	fill="#feb018" viewBox="0 0 450 450" style="enable-background:new 0 0 450 450;" xml:space="preserve">
<g>
	<path d="M228.1,0c-0.2,0.6-0.4,1.2-0.7,1.7c-3.1,5-3.1,10,0.2,14.9c1.2,1.8,2.4,3.6,3.6,5.5c3.5,5.6,4,11.4,1.2,17.5
		c-1.3,2.9-1.9,6.1-2.2,9.3c-0.3,2.9,1.9,5.2,4.6,5.3c2.5,0.1,4.5-1.2,4.8-3.6c0.2-1.6-0.4-4-1.5-5c-3.1-2.6-3.2-5.4-1.6-8.6
		c1.9-3.7,1.1-7.4-0.6-11.9c5,3,6.6,6.9,7.2,11.6c0.3,2.3,0.8,5,2.2,6.6c7.9,9,4.6,19.7-0.5,26.4c-6.2,8.1-16.9,11.5-26.6,8.8
		c-9.7-2.7-16.9-11.2-18.2-21.3c-0.6-4.4,0.6-8.3,3.3-11.7c2.2-2.8,3.6-5.7,3.8-9.3c0.3-4.5,2.3-8.3,6.9-10.6
		c-2.6,4.7-1.5,9.2,0.4,13.7c0.9,2.2-0.1,4.1-1.8,5.9c-1.2,1.3-2.3,3.4-2.2,5.1c0.1,2.5,2.2,4,4.8,4c2.6,0,4.8-2.2,4.7-4.9
		c-0.2-3.1-0.7-6.2-1.6-9.2c-1.3-4.3-1.2-8.4,1.5-11.9c3.4-4.4,4-8.9,2.6-14.1c-1.5-5.9,0.4-10.6,5.2-14.3C227.7,0,227.9,0,228.1,0z
		"/>
	<path d="M164.7,450c-16.7,0-33.1,0-49.8,0c0-80.1,0-160,0-240.1c16.5,0,33.1,0,49.8,0C164.7,289.8,164.7,369.8,164.7,450z"/>
	<path d="M335.1,209.9c0,80.1,0,159.9,0,240c-16.6,0-33.1,0-49.9,0c0-79.9,0-159.9,0-240C301.7,209.9,318.2,209.9,335.1,209.9z"/>
	<path d="M265.1,129.5c0,22.3-17.7,40.1-40,40.1c-22.4,0-40.3-17.8-40.3-40.2c0-22.2,17.9-40,40.2-40
		C247.3,89.5,265.1,107.2,265.1,129.5z"/>
	<path d="M199.7,373.5c-3.3-2.6-6.9-4.9-9.8-7.9c-13.9-14.3-18.6-31.3-12.8-50.3c5.7-19,19.2-30.6,38.6-34.7
		c7.9-1.7,15.8-1.7,22.8,3.3c8.3,5.9,12,16.1,9.2,25.9c-2.8,9.9-11.2,16.6-21.5,17.1c-15.3,0.8-25.9,8.6-29.6,21.9
		c-2.4,8.5-0.7,16.5,3.8,23.9C200.2,373,199.9,373.3,199.7,373.5z M225,293.5c-5.4,0-10,4.4-10,9.8c0,5.3,4.6,9.9,10,9.8
		c5.3,0,9.8-4.4,9.9-9.6C235,298.2,230.4,293.6,225,293.5z"/>
	<path d="M249,286c7.7,4.2,13.2,9.5,17.6,16c20.5,30.7,2.1,71.9-34.4,77.5c-9.6,1.5-18.4,0.2-25-7.6c-6.3-7.4-7.7-15.9-3.9-24.8
		c3.7-8.6,10.5-13.7,20-14.2c15.7-0.9,26.3-8.6,30-22.1c2-7.5,1-14.6-2.5-21.4C250.3,288.5,249.9,287.6,249,286z M225,366.3
		c5.4,0,10-4.6,9.9-9.9c-0.1-5.2-4.5-9.6-9.8-9.7c-5.5-0.1-10,4.4-10.1,9.8C215,361.7,219.6,366.3,225,366.3z"/>
	<path d="M170.1,143.9c22.1,46.9,86.8,47.5,109.4,0.7c2,8.9-3.7,29.3-18.5,41.8c-17.6,14.9-42.3,17.6-62.2,6.8
		C177.8,181.9,168.9,159.8,170.1,143.9z"/>
	<path d="M175,269.6c0-6.6,0-13,0-19.7c33.3,0,66.5,0,99.9,0c0,6.4,0,12.9,0,19.7C241.7,269.6,208.5,269.6,175,269.6z"/>
	<path d="M175.1,390.1c33.2,0,66.3,0,99.7,0c0,6.5,0,13,0,19.7c-33.1,0-66.3,0-99.7,0C175.1,403.4,175.1,396.9,175.1,390.1z"/>
	<path d="M175.2,209.8c33.4,0,66.1,0,99.5,0c-1.3,0.9-2,1.4-2.7,1.8c-14.9,8.9-29.8,17.9-44.7,26.8c-1.4,0.8-2.4,1.5-4.2,0.4
		c-15.4-9.4-30.8-18.6-46.2-27.8C176.5,210.8,176.1,210.5,175.2,209.8z"/>
	<path d="M175.4,420.1c33.2,0,65.8,0,99.2,0c-1.1,0.8-1.8,1.4-2.5,1.8c-15,9-29.9,18-45,26.9c-1,0.6-2.9,0.9-3.8,0.4
		c-15.8-9.3-31.4-18.8-47.1-28.2C176.1,420.9,176,420.7,175.4,420.1z"/>
</g>
</svg>
