<?xml version="1.0" encoding="utf-8"?>
<!-- Generator: Adobe Illustrator 24.2.3, SVG Export Plug-In . SVG Version: 6.00 Build 0)  -->
<svg version="1.1" id="Layer_1" xmlns="http://www.w3.org/2000/svg" xmlns:xlink="http://www.w3.org/1999/xlink" x="0px" y="0px"
	fill="#fff" viewBox="0 0 450 450" style="enable-background:new 0 0 450 450;" xml:space="preserve">
<g>
	<path d="M450,183.3c0,3,0,6,0,8.9c-2.6,9.7-6.8,18.4-13.9,25.8c-9,9.4-19.6,16.7-31.1,22.6c-33.9,17.5-70.5,25.9-108,30.9
		c-50.2,6.7-100.5,6.4-150.7-0.9c-32-4.7-63.2-12.1-92.7-25.7c-16.8-7.8-32.5-17.1-44.1-32c-11.2-14.5-12.9-31.1-3.2-45.6
		c5.1-7.7,11.8-14.8,19.1-20.5c18-14.2,39.1-22.4,60.8-29.1c25-7.8,50.6-12.5,76.6-15.5c1.6-0.2,4.6,0.4,5,1.4
		c3.6,9,11,13.6,19.4,16.5c25.9,9,51.9,9,77.6-0.8c8.2-3.1,15.2-8.1,18-17.7c8.3,1.1,16.5,2,24.6,3.3c33.4,5.3,66.2,13.1,96.4,28.8
		C424.8,144.8,444.3,157.8,450,183.3z"/>
	<path d="M450,241.9c-4.2,21.5-19.4,34.2-36.9,44.7c-25.4,15.3-53.3,23.8-82,29.6c-16.5,3.3-33.2,5.3-49.9,7.8c-1.3,0.2-2.6,0-4.3,0
		c0-13.9,0-27.9,0-42c11.2-1.5,22.4-2.7,33.4-4.5c38.5-6.4,76.1-15.7,109.5-36.8c9-5.7,17-13,25.9-20c1.3,4,2.8,8.6,4.3,13.2
		C450,236.6,450,239.2,450,241.9z"/>
	<path d="M276.4,370.8c0-12.7,0-25.3,0-38c13.8-2,27-3.5,40.1-5.8c33.6-5.9,66.3-14.6,96.4-31.5c11.6-6.5,22.3-14.1,31-24.3
		c0.6-0.7,1.4-1.3,2.7-2.5c1.3,4.3,2.4,8,3.5,11.7c0,2.3,0,4.6,0,6.9c-2.7,15.7-11.7,27.3-24.2,36.5c-7.1,5.2-14.7,10.1-22.5,14.2
		c-28.5,14.7-59.3,22.5-90.7,27.8c-11,1.9-22.1,3.3-33.2,4.9C278.4,370.8,277.4,370.8,276.4,370.8z"/>
	<path d="M170.2,370.8c-8.8-1.3-17.6-2.5-26.3-3.9c-34.6-5.4-68.3-13.6-99.5-29.9c-13-6.8-25-14.9-34.2-26.6
		C1,298.9-2.5,286.1,2.5,271.6c0.3-0.7,0.7-1.4,1.3-2.7c9.6,11.2,20.8,19.7,33.2,26.7c25.5,14.2,53,22.9,81.4,28.5
		c17.9,3.5,36.1,6,54.8,9.1c0,12.1,0,25,0,37.8C172.2,370.8,171.2,370.8,170.2,370.8z"/>
	<path d="M228.8,370.8c0.1-11.9,0.2-23.8,0.2-35.6c0-7-1-7,6.4-6.9c0.6,0,1.3-0.1,2.2-0.3c0-2.5,0-4.9,0-7.6
		c-2.7-0.1-5.3-0.3-8.6-0.4c0-4.6,0-9.1,0-13.7c0-5.8,0.2-11.6-0.1-17.3c-0.2-4,0.9-5.5,5.2-5.4c10.1,0.3,20.1,0.3,30.2,0
		c3.9-0.1,5.1,1.1,5,5c-0.2,26.3-0.1,52.5-0.1,78.8c0,1.1,0.1,2.3,0.2,3.4C255.9,370.8,242.3,370.8,228.8,370.8z"/>
	<path d="M181.1,370.8c-0.2-7.2-0.4-14.5-0.5-21.7c-0.1-19.7,0-39.3,0-59c0-2,0-3.9,0-6.2c13.4,0,26.4,0,39.8,0
		c0,11.8,0,23.8,0,36.1c-2.6,0.2-5.3,0.3-8.2,0.5c0,2.5,0,4.8,0,7.4c2.7,0.1,5.2,0.3,8.5,0.4c0,14.2,0,28.3,0,42.4
		C207.6,370.8,194.4,370.8,181.1,370.8z"/>
	<path d="M236.7,79.2c5.8,1.2,11.7,2,17.3,3.8c5.1,1.6,10.3,3.8,14.8,6.7c8.1,5.2,8,12.8,0.2,18.4c-7.8,5.7-17,7.8-26.4,9.2
		c-16.9,2.5-33.7,2-49.9-3.5c-5-1.7-9.9-4.6-14.1-7.9c-5.1-4.1-5.3-10.2,0-14c5.9-4.2,12.9-7.1,19.7-9.6c4.9-1.8,10.3-2.1,15.4-3.1
		C221.5,79.2,229.1,79.2,236.7,79.2z"/>
	<path d="M4.8,219.9c27.8,28.9,63.2,41.5,100,50.3c22.3,5.3,45,8.5,68.2,12.7c0,12.8,0,26.7,0,41.4c-6.4-0.7-12.7-1.3-19-2.1
		c-36.3-4.9-71.8-12.8-105-28.9c-15.2-7.4-29.5-16.4-39.9-30.3C-0.7,249.8-2.9,235.6,4.8,219.9z"/>
</g>
</svg>
