<?xml version="1.0" encoding="utf-8"?>
<!-- Generator: Adobe Illustrator 24.2.3, SVG Export Plug-In . SVG Version: 6.00 Build 0)  -->
<svg version="1.1" id="Layer_1" xmlns="http://www.w3.org/2000/svg" xmlns:xlink="http://www.w3.org/1999/xlink" x="0px" y="0px"
	 viewBox="0 0 450 450" style="enable-background:new 0 0 450 450;" xml:space="preserve">
<style type="text/css">
	.st0{fill:#F04E4F;}
	.st1{fill:none;stroke:#EB5664;stroke-miterlimit:10;}
	.st2{fill:#DF3B47;}
	.st3{fill:#FFFFFF;}
	.st4{fill:#FDCD57;}
	.st5{fill:#434852;}
	.st6{fill:none;stroke:#434852;stroke-width:3;stroke-miterlimit:10;}
	.st7{fill:none;stroke:#434852;stroke-miterlimit:10;}
	.st8{fill:#646C77;}
</style>
<path class="st0" d="M385.8,238.2c0,106.4-86.2,192.6-192.6,192.6C86.8,430.8,0.6,344.5,0.6,238.2c0-106.4,86.2-192.6,192.6-192.6
	C299.5,45.6,385.8,131.8,385.8,238.2"/>
<path class="st1" d="M385.8,238.2c0,106.4-86.2,192.6-192.6,192.6C86.8,430.8,0.6,344.5,0.6,238.2c0-106.4,86.2-192.6,192.6-192.6
	C299.5,45.6,385.8,131.8,385.8,238.2z"/>
<path class="st2" d="M357.9,238.2c0,91-73.7,164.7-164.7,164.7c-91,0-164.7-73.7-164.7-164.7c0-91,73.7-164.7,164.7-164.7
	C284.1,73.5,357.9,147.2,357.9,238.2"/>
<path class="st3" d="M333.7,238.2c0,77.6-62.9,140.5-140.5,140.5c-77.6,0-140.5-62.9-140.5-140.5c0-77.6,62.9-140.5,140.5-140.5
	C270.8,97.6,333.7,160.5,333.7,238.2"/>
<path class="st4" d="M297.4,238.2c0,57.6-46.7,104.2-104.2,104.2C135.6,342.4,89,295.7,89,238.2c0-57.6,46.7-104.2,104.2-104.2
	C250.7,133.9,297.4,180.6,297.4,238.2"/>
<path class="st0" d="M275.3,238.2c0,45.4-36.8,82.1-82.1,82.1c-45.4,0-82.1-36.8-82.1-82.1c0-45.4,36.8-82.1,82.1-82.1
	C238.5,156,275.3,192.8,275.3,238.2"/>
<path class="st2" d="M250.2,238.2c0,31.5-25.5,57-57,57c-31.5,0-57-25.5-57-57c0-31.5,25.5-57,57-57
	C224.7,181.1,250.2,206.7,250.2,238.2"/>
<path class="st3" d="M230.5,238.2c0,20.6-16.7,37.3-37.3,37.3c-20.6,0-37.3-16.7-37.3-37.3c0-20.6,16.7-37.3,37.3-37.3
	C213.8,200.9,230.5,217.6,230.5,238.2"/>
<line class="st5" x1="215.4" y1="220.4" x2="361.3" y2="102.7"/>
<line class="st6" x1="215.4" y1="220.4" x2="361.3" y2="102.7"/>
<polygon class="st5" points="348,113.5 401.8,70 450.6,78.5 390.5,126.9 "/>
<polygon class="st7" points="348,113.5 401.8,70 450.6,78.5 390.5,126.9 "/>
<polygon class="st8" points="348,113.5 401.8,70 403.9,20.6 343.8,69 "/>
<polygon class="st5" points="186,244.2 241.9,231.1 210.5,192.3 "/>
<polygon class="st8" points="186,244.2 241.9,231.1 226.2,211.7 "/>
</svg>
