<svg fill="#fff" id="Layer_2" data-name="Layer 2" xmlns="http://www.w3.org/2000/svg" viewBox="0 0 400 512"><title>4_1</title><path d="M294.55,552.5c-6,0-14.75-3-38.5-24.47-13.7-12.41-31.2-29.94-52-52.11-41.74-44.47-84.3-94.29-92.4-103.82a46.74,46.74,0,0,1-11.15-30.23v-202a9.06,9.06,0,0,1,6.55-8.66l35.41-10.35A373.59,373.59,0,0,0,256.53,65.11l31.7-22.87a9.25,9.25,0,0,1,10.64-.11l34,23.39a374.2,374.2,0,0,0,114.45,53l46.47,12.6a9,9,0,0,1,6.73,8.71v203.7a46.57,46.57,0,0,1-12.67,31.93c-38,40.57-71.33,75-99,102.25-22.08,21.75-40.53,38.9-54.85,51C309.22,549.62,300.4,552.5,294.55,552.5Zm.38-18Zm-.71,0ZM118.81,146.57v195.3a28.77,28.77,0,0,0,6.86,18.62c7.84,9.22,49,57.43,89.84,101.06,60.08,64.21,75.87,71.93,79.07,72.83,5.07-1.28,34.54-16.16,179.81-171.18a28.7,28.7,0,0,0,7.8-19.67V146.71l-39.74-10.78a392.36,392.36,0,0,1-120.08-55.6l-28.61-19.7L267.33,79.69a391.94,391.94,0,0,1-119.67,58.45Z" transform="translate(-100.5 -40.5)"/><path d="M293.47,177c-22.24,0-40.35-17.85-40.35-39.8s18.11-39.81,40.35-39.81,40.35,17.86,40.35,39.81S315.72,177,293.47,177Zm0-61.55a21.75,21.75,0,1,0,22,21.75A21.92,21.92,0,0,0,293.47,115.45Z" transform="translate(-100.5 -40.5)"/><path d="M250.38,462.2a21,21,0,0,1-15-6.16,20.44,20.44,0,0,1-6.09-14.82l.82-78.53H214.44a9.19,9.19,0,0,1-6.75-2.93,9,9,0,0,1-2.37-6.89l8.19-91.5a102,102,0,0,1,51.1-79.24,20.31,20.31,0,0,1,15.52-1.88A20,20,0,0,1,292.24,190L303,210.28a23.22,23.22,0,0,0,12.63,10.93l53.14,19.27a23.2,23.2,0,0,1,13.48,12.8l.3.72a22.65,22.65,0,0,1-9.54,28.41,23.62,23.62,0,0,1-18.19,2.43c-.24-.06-.48-.14-.71-.22l-56-20.36,4.51,88.95a9,9,0,0,1-2.51,6.67,9.24,9.24,0,0,1-6.64,2.81h-22v78.74A20.93,20.93,0,0,1,250.38,462.2ZM224.44,344.63h15a9.21,9.21,0,0,1,6.51,2.68,9,9,0,0,1,2.64,6.44l-.91,87.66a2.63,2.63,0,0,0,.79,1.93,2.75,2.75,0,0,0,4.69-1.91V353.66a9.09,9.09,0,0,1,9.16-9h21.57l-4.72-93.11a9,9,0,0,1,3.72-7.73,9.27,9.27,0,0,1,8.59-1.19L360,267.51a5.09,5.09,0,0,0,3.6-.58,4.82,4.82,0,0,0,2-6.05l-.3-.72a4.9,4.9,0,0,0-2.87-2.72l-53.14-19.28a41.43,41.43,0,0,1-22.52-19.48L276,198.4a1.59,1.59,0,0,0-1-.8,1.65,1.65,0,0,0-1.26.16A83.9,83.9,0,0,0,231.74,263Z" transform="translate(-100.5 -40.5)"/><path d="M365.23,462.2a9.09,9.09,0,0,1-9.16-9V297.23a9.16,9.16,0,0,1,18.31,0V453.17A9.09,9.09,0,0,1,365.23,462.2Z" transform="translate(-100.5 -40.5)"/></svg>