<svg fill="#fff" id="Layer_1" data-name="Layer 1" xmlns="http://www.w3.org/2000/svg" viewBox="0 0 512 512"><title>4_5</title><path d="M547.38,552.25h-.08l-492.75-4A9.63,9.63,0,0,1,54.62,529h.08l492.75,4a9.63,9.63,0,0,1-.07,19.25Z" transform="translate(-45 -40.25)"/><path d="M172.67,547.29a9.62,9.62,0,0,1-9.62-9.63V420.75H95.11V537.66a9.63,9.63,0,1,1-19.25,0V411.13a9.63,9.63,0,0,1,9.62-9.63h87.19a9.63,9.63,0,0,1,9.62,9.63V537.66A9.63,9.63,0,0,1,172.67,547.29Z" transform="translate(-45 -40.25)"/><path d="M344.1,539.35a9.63,9.63,0,0,1-9.62-9.63v-233H266.54v233a9.63,9.63,0,1,1-19.25,0V287.07a9.62,9.62,0,0,1,9.63-9.62H344.1a9.62,9.62,0,0,1,9.63,9.62V529.72A9.63,9.63,0,0,1,344.1,539.35Z" transform="translate(-45 -40.25)"/><path d="M518.48,542.33a9.63,9.63,0,0,1-9.63-9.63V155.77H440.91V532.7a9.62,9.62,0,1,1-19.24,0V146.14a9.62,9.62,0,0,1,9.62-9.62h87.19a9.62,9.62,0,0,1,9.62,9.62V532.7A9.63,9.63,0,0,1,518.48,542.33Z" transform="translate(-45 -40.25)"/><path d="M119.77,253a9.63,9.63,0,0,1-6.65-16.59l137.15-131a9.62,9.62,0,0,1,13.44.14l57.13,57L450.22,42.81A9.63,9.63,0,0,1,463.3,56.94L327.13,183a9.62,9.62,0,0,1-13.33-.25l-57-56.88L126.42,250.36A9.62,9.62,0,0,1,119.77,253Z" transform="translate(-45 -40.25)"/><path d="M184.42,262H111a9.63,9.63,0,0,1-9.62-9.63V181.87a9.63,9.63,0,0,1,19.25,0v60.84h63.84a9.63,9.63,0,1,1,0,19.25Z" transform="translate(-45 -40.25)"/></svg>